<?xml version="1.0" encoding="utf-8"?>
<!-- Generator: Adobe Illustrator 18.0.0, SVG Export Plug-In . SVG Version: 6.00 Build 0)  -->
<!DOCTYPE svg PUBLIC "-//W3C//DTD SVG 1.1//EN" "http://www.w3.org/Graphics/SVG/1.1/DTD/svg11.dtd">
<svg version="1.1" id="BALTIMORE_RAVENS" xmlns="http://www.w3.org/2000/svg" xmlns:xlink="http://www.w3.org/1999/xlink" x="0px"
	 y="0px" viewBox="-47.9 -75 500 350" enable-background="new -47.9 -75 500 350" xml:space="preserve">
<g>
	<path fill="#D1B336" d="M317.6,27.1c0,9.3-3.7,15-3.7,15C309.7,27,288.5,7,288.5,7c3.7,4.7,2.6,14.2,2.6,14.2
		c-1.4-1.2-11.8-8.1-11.8-8.1C258.4-1.7,224.4-17,172.2-17C40.1-17-15.7,67.9-18,71.5c0,0-12.9,18.5-16.3,28.8l28.2-16.8
		c0.2-0.1,23.4-14.2,59.3-14.2c2.8,0,9.4,0.3,10.9,3.4c3.5,7.2-7.5,29.3-20,45.4l-26.9,34.5l38-21.7c0.2-0.1,15.4-8.6,40.5-8.6
		c5.1,0,7.3,0.8,8,1.2c-0.1,1.4-1.4,4.3-2.8,6.3l-18.6,25.2l28.9-12.1c0.2-0.1,17.9-7.4,43.2-7.4c14.9,0,25.1,2.9,28,8
		c2.7,4.7-0.6,12.3-2,14.6l-6,10l11.2,2.9c1.3,0.3,2.9,0.7,9.4-0.6c-0.1,0.9-0.1,1.9-0.1,2.7c0,14.6,7.1,25.7,7.5,26.4l11.4,17.6
		l4.3-20.5c3.8-18.2,18.4-26,27.4-29.2c0,0,2.6,9.7,2.6,9.7l9-3.6c8.1-3.2,21.5-13,26.3-16.6c3.9-0.7,14.3-2.3,26.9-2.3
		c7.5,0,16.2,0.7,25.4,1.5c11.6,0.9,24.8,2,39,2c20.3,0,38.9-3.5,46.6-5.1c1.9,1.3,16.5,11,16.5,11l0.7-15.2
		c0.1-1.3,0.1-2.6,0.1-3.8c0-31.9-19.7-52-41.1-63.6c0.1,0,1.3-0.1,1.3-0.1l-23.1-14.4c-3.2-2-9.4-3.5-15.7-4.7
		c0.4-0.8,1.1-2.3,1.1-2.3L351,56.9c-10.1-2.7-18.8-3-25.3-2.6C328.8,37.9,317.6,27.1,317.6,27.1z"/>
	<path d="M-10.8,76.2c0,0,54.1-84.6,182.9-84.6c94.9,0,126.6,52.9,126.6,52.9s1.7-8.1-0.6-12.1c0,0,10.9,11.5,11.5,25.3
		c0,0,6.3-6.3,6.3-8.6c0,0,2.9,9.8,0,15.5c0,0,13.2-4.6,32.8,0.6l-1.7,3.5c0,0,19.6,2.3,24.2,5.2c0,0-10.9,0.6-10.9,3.5
		c0,0,72.5,10.9,69.6,70.8l-6.9-4.6c0,0-23,5.8-48.3,5.8c-25.3,0-47.2-3.5-64.4-3.5c-17.3,0-30.5,2.9-30.5,2.9s-17.3,13.2-25.9,16.7
		l-2.3-8.6c0,0-35.1,5.2-42,38c0,0-11.5-17.8-2.9-36.2c0,0-16.7,4.6-19,4c0,0,21.9-35.7-33.4-35.7c-27.6,0-46.6,8.1-46.6,8.1
		s16.1-21.3-12.1-21.3s-44.9,9.8-44.9,9.8s48.9-62.7,2.3-62.7C14,60.7-10.8,76.2-10.8,76.2z"/>
	<path fill="#FFFFFF" d="M278,83.1c0,0-38-6.9-54.4,2.6c0,0,42.3,0,58.7,9.5c0,0-75.1-10.4-106.1,14.7c0,0,45.7-11.2,81.1-7.8
		c0,0-12.9,5.2,0.9,13.8c13.8,8.6,22.4,10.4,19,25l7.2-10.6l8.1,8.1c0,0,20.7-1.7,35.1,0c14.4,1.7,33.9,3.5,44.9,3.5
		c10.9,0,40.8-4,40.8-4S350.5,113,294.1,113c-6.3,0-13.2,1.1-9.2,8.1c0,0-19.6-9.6-19.6-14.8s15-2.4,15-2.4
		c6.9,0,131.2,12.7,143.8,35.1c0,0,0-51.2-103-61.6l11.5,9.8l-18.4-1.7l10.9,9.8C325.2,95.2,296.4,85.4,278,83.1z"/>
	<path fill="#2D2062" d="M18.3,57.2c0,0,57-57,153.6-57c84.6,0,120.8,47.5,120.8,47.5s15.5,23.3,6.9,31.9
		c-8.6,8.6-10.4-21.6-31.9-28.5l18.1,6c0,0-19.8-25.9-53.5-19.8c0,0,19,4.3,24.2,10.4c0,0-42.3,4.3-44,7.8c0,0,32.8,6.9,34.5,12.1
		c0,0-31.1,0.9-39.7,8.6c0,0,57.8,2.6,70.8,6.9c0,0-38-6.9-54.4,2.6c0,0,42.3,0,58.7,9.5c0,0-75.1-10.4-106.1,14.7
		c0,0,45.7-11.2,81.1-7.8c0,0-12.9,5.2,0.9,13.8c13.8,8.6,22.4,10.4,19,25c0,0-6.9,10.4-17.3,14.7l-0.9-12.1c0,0-32.8,2.6-47.5,32.8
		c0,0,2.6-25,9.5-31.1l-19,6c0,0,19-31.1-28.5-33.7s-50,5.2-50,5.2s6-23.3-47.5-13.8C76.1,109,127,25.3,18.3,57.2z"/>
	<path fill="#FFFFFF" d="M212.1,21.1c-5.2-7.7-18.1-11.4-39.4-11.4c-60.1,0-94.1,17.1-95.6,17.8L54,40.3l26.6-3.1
		c0.4-0.1,37.8-8.3,67.4-9.1c-39.9,5-54,70.8-54.6,73.7l-1.4,6.6l61.8-3c0,0,1.3-1.7,1.5-2c2.5-2.8,20.5-11.1,35.7-17.2l1.9-0.8
		l5.5-12.1l0.1-0.8c0.1-0.6,0.1-1.3,0.1-1.9c0-3.2-1.1-6.2-3.3-8.8c-2.8-3.2-7.1-5.4-11.8-7c23.3-5.8,29.9-21.8,30.2-22.5
		C214,31.8,215.9,26.6,212.1,21.1z M134.5,91.3c3.1-8.6,9.8-23.5,11.4-28c3.3,0,20-0.9,20,8.8C166,76.8,158.3,91.4,134.5,91.3z
		 M151.3,50.7c3-6,8.6-20.4,9.8-22.8c4,0.6,19.1,2.1,18.2,8.6c-1.2,8.1-9.4,14.3-11.5,15.2L151.3,50.7z"/>
	<path fill="#D1B336" d="M159.8,56.3l-15.4-0.9l9.4-22.4c-40.6-0.9-55.2,69.9-55.2,69.9l52.6-2.6c3.5-5.2,38-19,38-19l4.3-9.5
		C195.4,56.9,159.8,56.3,159.8,56.3z M171,74.5c-8.3,22.4-38.8,22.4-44,22.4l16.6-38.7C143.6,58.2,177.6,56.7,171,74.5z M172.7,14.9
		c-59.5,0-93.2,17.3-93.2,17.3s54.4-12.1,85.4-8.6c40.5,4.5,10.4,27.6,10.4,27.6c26.7-3.5,33.7-20.7,33.7-20.7S215,14.9,172.7,14.9z
		"/>
	<ellipse fill="#C6332C" cx="264.2" cy="65.5" rx="9.8" ry="9.1"/>
	<ellipse fill="#FFFFFF" cx="266.2" cy="67" rx="8.9" ry="9.2"/>
	<ellipse fill="#C6332C" cx="267.9" cy="67.6" rx="7.2" ry="6.9"/>
	<ellipse cx="269.7" cy="67.3" rx="6" ry="6.6"/>
</g>
</svg>
