<?xml version="1.0" encoding="utf-8"?>
<!-- Generator: Adobe Illustrator 18.0.0, SVG Export Plug-In . SVG Version: 6.00 Build 0)  -->
<!DOCTYPE svg PUBLIC "-//W3C//DTD SVG 1.1//EN" "http://www.w3.org/Graphics/SVG/1.1/DTD/svg11.dtd">
<svg version="1.1" id="BUFFALO_BILLS" xmlns="http://www.w3.org/2000/svg" xmlns:xlink="http://www.w3.org/1999/xlink" x="0px"
	 y="0px" viewBox="-110.5 -75 500 350" enable-background="new -110.5 -75 500 350" xml:space="preserve">
<g>
	<path fill="#FFFFFF" d="M346.2-0.3c-6.1-11.3-29-15.4-45.3-14.2c-10.6-14.6-24.5-27.7-42.6-35.6c-0.4,1-1,2.6-1.4,3.8
		c-5.2-1.5-17.1-4.4-26.9-4.6l-0.1,3.4c-10.6,1.4-25.5,3.3-30.5,4.3c0.7,2.5,1,3.7,1.6,5.4c-36.1,9.9-69,29-98.5,54.5
		c1.3,0.4,2.2,1,2.6,1C73,29.8,49.4,48.7,28.9,68C4.6,71.7-39,77.4-39,77.4l-32,63.4l84.7-17.9c-7.1,20-26.4,37.9-44.2,49.9
		c-2.4,12.3-8.8,23.9-20,31.4c5.3,5.9-1.2,13.3-2.1,19.6c7.2,9.3,21.9,27.1,21.9,27.1l9-37.7l18.2-18.5c-1.2,3.1-0.7,6.6-0.4,8
		c-1.6,3.4-6.1,7.5-6.5,13.4c6.9,8.9,20.1,25.1,20.1,25.1s9.5-25.4,13.9-38.3l73.3-67.8c5.6-0.8,19.1-0.6,28.9-0.4l4.2-4.1l20.7-1.6
		c1.7,2.8,2.7,4.5,3.8,6.7c-3.7,2.1-7,3.8-10.6,5.6l-9.3,33.3c0,0,17.9-9.6,27.1-14.5c3.3,0.5,11.1,0.3,15.1-0.6
		c-2,9.4-5.4,29-5.4,29s15.9-8.5,23.3-12.5c20.3,0.1,40.7-8.1,46.3-10.9c15.6-6.2,11-44.8,11-44.8c3.1-0.4,7-1.3,10.1-0.4
		c8.8,2.3,3,35.4,3,35.4l20.4-19.4l2.2,2.9c0,0,12.3-15.3,17.8-23.4c15,0.1,18.5-9.4,20.4-15.8c7.5-25.9,16.2-24.1,19.5-38.2
		C347.3,55.8,354.2,13.3,346.2-0.3z M-60.6,132.7l24.8-50.1l335.4-49.1c-10.4,5.4-11.3,17.2-6.3,23.4
		C205.1,76.3-60.6,132.7-60.6,132.7z M21,198.2c-4.7,10.7-12.7,33.2-12.7,33.2s-9.2-10.7-13-15.9c-0.1-3.9,4.2-8,6.3-11.9
		c-0.4-1.2-0.5-2.7-0.3-3.8c7.5-5.5,12.2-13.3,13.7-22c25.4-39.8,73.2-41.7,73.2-41.7L21,198.2z M237.8,160.9
		c-20.6,10.2-44.9,10.4-44.9,10.4l-14.4,7.6c0,0,2.8-13.4,4-19.7c15.9-2.7,38.3-6.9,46.7-19.5c2.8-4.1,4.6-11.1,6.5-16.4
		c3.7-0.5,6.8-1.1,10.6-1.6C246.2,121.7,250.5,154.6,237.8,160.9z M344,33.2c-0.9,13.1-2.7,29.2-9.6,37
		c-6.6,7.6-11.7,18.6-15.5,30.1c-2,6.8-4.6,9.9-16.9,10.5c-4.6,6.7-9,13.7-14.5,19.7l-1.6-2.2c-5.4,5.1-8.1,8-13.9,13.2
		c0.6-6.7,0.9-15.8-1.3-20.6c-3.3-5.4-8.8-6.6-14.3-5.9l-25.6,3.9c-1.6,5.4-3.3,12.9-7.2,18.4c-5.9,13.7-53.8,18.6-62.4,17.3
		c-6,3-11.9,6.8-18.2,9.7c1.7-6.4,5.7-20,5.7-20s8.4-4.3,12.4-6.5c-0.6-1.3-0.9-1.9-1.8-4c7.5-1.8,15.9-5.5,21.8-11.1
		c0,0-37.1,2.5-54.5,3.6c-1.1,1.3-2.1,2.6-3.4,3.4c-39.6-1.7-77.2,3.7-104.9,31.6C9.7,170.3,0,180-5.8,190.2
		c-7.1,7.4-13.1,13.6-20.5,21l-7.8,28.4l-12.3-16.1c-1.7-2.3,5.8-12.4,2-17.7c8.9-6.4,16.1-18.9,18.2-29.3
		c18-12.1,40.2-33.5,46.8-55c0,0,275-59.7,278.9-60.5c-1.8,5.2-0.8,12.4,5.1,15.2c2.9,0.7,6-0.3,8.5-2c-1.3-1.2-3.8-2.9-4.4-5.4
		c-1.2-3.1,0.5-5.9,2.5-8.1c-3.5-7.8-0.7-16.9,4.1-23.3c3.3-4.3,8.5-9.3,12.1-13.2L38,66.4c0,0,37.9-35.4,79.9-48
		c-1.3-0.5-4.4-1.8-6.6-2.7c29.9-24.4,63.4-42.4,96.4-50.3c-0.5-1.7-1-2.9-1.5-4.8c1-0.1,28.1-4.1,28.1-4.1c-0.1-0.8-0.1-1-0.2-2.2
		c6.6,0,20.4,3.6,25.7,5.3c0.4-0.8,0.8-1.8,1-2.3c20.3,9,36.8,33.3,36.8,33.3c13.3-1.5,27.3,0.2,38,5.8
		C345.5,1.6,344.9,20.2,344,33.2z"/>
	<path fill="#BF2026" d="M299.6,33.6L-35.7,82.6l-24.8,50.1c0,0,265.7-56.4,353.9-75.7C288.3,50.8,289.2,39,299.6,33.6z"/>
	<g>
		<path fill="#194787" d="M335.5-3.6c-10.7-5.6-24.7-7.2-38-5.8c0,0-16.5-24.2-36.8-33.3c-0.2,0.5-0.7,1.5-1,2.3
			c-5.2-1.8-19.1-5.4-25.7-5.3c0.1,1.2,0.1,1.4,0.2,2.2c0,0-27.1,4-28.1,4.1c0.6,1.9,1,3.1,1.5,4.8c-33,7.8-66.5,25.8-96.4,50.3
			c2.3,0.8,5.4,2.1,6.6,2.7C75.9,31,38,66.4,38,66.4l289.3-42.1c-3.7,3.9-8.9,8.9-12.1,13.2c-4.7,6.4-7.6,15.4-4.1,23.3
			c-2,2.2-3.7,5-2.5,8.1c0.6,2.5,3.2,4.2,4.4,5.4c-2.5,1.7-5.6,2.6-8.5,2c-5.9-2.7-6.9-9.9-5.1-15.2c-3.9,0.8-278.9,60.5-278.9,60.5
			c-6.6,21.5-28.9,42.9-46.8,55c-2.1,10.4-9.3,22.9-18.2,29.3c3.8,5.2-3.6,15.4-2,17.7l12.3,16.1l7.8-28.4
			c7.4-7.4,13.4-13.6,20.5-21C0,180,9.7,170.3,18.6,161.5c27.7-28,65.3-33.3,104.9-31.6c1.3-0.8,2.3-2.1,3.4-3.4
			c17.4-1.2,54.5-3.6,54.5-3.6c-5.9,5.6-14.3,9.3-21.8,11.1c0.9,2.1,1.1,2.6,1.8,4c-4,2.2-12.4,6.5-12.4,6.5s-4,13.6-5.7,20
			c6.3-2.9,12.2-6.7,18.2-9.7c8.6,1.3,56.5-3.5,62.4-17.3c3.9-5.5,5.6-13.1,7.2-18.4l25.6-3.9c5.5-0.8,11,0.5,14.3,5.9
			c2.2,4.8,1.9,13.9,1.3,20.6c5.8-5.2,8.5-8.1,13.9-13.2l1.6,2.2c5.5-6,9.9-13.1,14.5-19.7c12.3-0.5,14.9-3.7,16.9-10.5
			c3.8-11.5,8.9-22.5,15.5-30.1c6.8-7.8,8.7-23.9,9.6-37C344.9,20.2,345.5,1.6,335.5-3.6z"/>
		<path fill="#194787" d="M235.6,123.3c-1.8,5.3-3.7,12.3-6.5,16.4c-8.4,12.7-30.8,16.9-46.7,19.5c-1.2,6.3-4,19.7-4,19.7l14.4-7.6
			c0,0,24.3-0.2,44.9-10.4c12.7-6.3,8.4-39.2,8.4-39.2C242.4,122.2,239.3,122.7,235.6,123.3z"/>
		<path fill="#194787" d="M15,177.8c-1.6,8.6-6.3,16.5-13.7,22c-0.3,1-0.1,2.6,0.3,3.8c-2.1,3.9-6.3,8-6.3,11.9
			c3.8,5.2,13,15.9,13,15.9s8-22.5,12.7-33.2l67.2-62.1C88.2,136.1,40.4,138,15,177.8z"/>
	</g>
</g>
</svg>
