<?xml version="1.0" encoding="utf-8"?>
<!-- Generator: Adobe Illustrator 18.0.0, SVG Export Plug-In . SVG Version: 6.00 Build 0)  -->
<!DOCTYPE svg PUBLIC "-//W3C//DTD SVG 1.1//EN" "http://www.w3.org/Graphics/SVG/1.1/DTD/svg11.dtd">
<svg version="1.1" id="Layer_1" xmlns="http://www.w3.org/2000/svg" xmlns:xlink="http://www.w3.org/1999/xlink" x="0px" y="0px"
	 viewBox="-125 -81.5 500 350" enable-background="new -125 -81.5 500 350" xml:space="preserve">
<g>
	<g>
		<path fill="#010101" d="M186.7-55.6c0,0-0.8,4.3-1.3,6.7c-3.2,0.4-19.9,2.2-19.9,2.2s4.4,5.9,5.8,7.8c-1.8,0.1-7.5,0.4-7.5,0.4
			s0.6,1.6,1,2.7c-6.6-0.4-34-2.3-34-2.3l4,5.1c0,0,3.2,4.1,5.6,7.2c-4.4,1.3-16.4,5-16.4,5s4.7,3.9,4.9,4.1
			c-5.9,2.4-22.6,9.1-22.6,9.1s4.3,6.7,5.6,8.7c-1.9,2.4-10.1,13-10.1,13s2.1,1,2.8,1.3c-1.6,0.6-8.4,3.2-8.4,3.2s5.5,4,6.6,4.8
			c-4.2,2.8-15,10-15,10s4.4,5.4,6.1,7.6c-2.8,2.2-11.7,9.2-11.7,9.2s6.4,3.3,8.7,4.5c-1.6,1.4-6.9,6-6.9,6s5.1,2.1,5.4,2.2
			C71,80.4,63.6,84.7,63.5,84.7l-0.3,0.2l-0.3,0.3c-1.3,1.2-5.4,3.1-8,4.1c-8.9,3.9-20.7,13.7-24.4,16.9
			c-15.6-4.6-20.4-18.9-20.6-19.5C3.9,67.5-2.4,61.1-2.6,60.9l0.3,0.3c-3.1-4.1-10.9-8.3-11.7-8.8c-4.5-2-5.3-3.4-5.4-3.5
			c-4.7-12.5-11.4-14.2-12.2-14.4l0.7,0.3c-7.8-4-18.8-0.7-19.3-0.6c-11.3,2.7-27.1,9.5-27.8,9.8l-3.6,1.5l10.2,12.1l0.1,0.1
			c10,9.4,13.3,11.6,14.6,12.3c2,1.3,9.3,5.3,15.6,5.4l0.2,0l0.2,0c8.4-0.9,11.7,3,14.7,7.5c1.3,1.7,3.4,6.5,4.4,9.3
			c5.6,22.3,10.8,28.3,11.5,29c11.7,15.3,25.2,17.3,25.7,17.4c2.5,0.5,3.2,4.4,3.2,7.9c0,2-0.2,3.8-0.3,4.7
			c-2.3,13.9-5.3,19.2-6.4,21.2l-0.5,1c-6.7,14.9-7.1,29-7,33c0,0.6,0,0.8,0,1c0,0.9-0.2,6.1-0.1,10.5c0,2.2,0.1,4.1,0.3,5.2
			c0,0.8,0.4,5.5,3.6,9.9l-0.2-0.4c0.3,0.5,3,5.5,11.9,10.5c8.3,4.7,13.5,2.9,16.9,1.7l1.1-0.4c6.5-2,12-8.5,12.3-8.8l0.1-0.1
			l0.1-0.1c2.8-4.1,3.8-8.2,3.8-12c-0.1-8.3-4.9-14.8-5.2-15.2l-0.1-0.1l-0.1-0.1c-0.5-0.5-0.7-0.8-0.8-1.1
			c10.3-5.8,17.8-11.9,21.3-15c6.7,6.2,15.7,5.8,16.1,5.8c-0.2,0,31,0.6,31,0.6c8.9,0.6,9.7,0.5,10.1,0.5c4.5-0.4,7.2,0.2,7.2,0.2
			l0.1,0l0.1,0c5.6,0.7,8.2-0.2,8.9-0.6c8-2.8,13.4-10.3,13.6-10.6c3.4-5.2,4.3-9.9,4.2-13.5c0-3.5-0.9-5.8-1.2-6.4
			c-1.9-5.4-6-8.4-9.7-10.1c1.5-1,2.4-1.8,2.5-1.8h0c9.8-6.7,10-17.9,9.9-19c0,0,0-1.8,0-3.3c10.1-4.6,21.1-7.3,24.5-8
			c2.2,1.8,4.3,2.3,4.6,2.4c1.2,0.2,13.8,3.2,22,5.2L213,133c10.3,4,18.4-0.8,18.5-0.9c1.8-1.2,4.4-2.3,5.7-2.9
			c1.6,0.4,7.7,2.1,7.7,2.1l0.6,0.2c9.4,2.8,14,2.7,14.5,2.7c2.4,0.1,13.8,2.5,15.2,2.9c6.3,2.7,10.2,3.5,11.1,3.5
			c5-0.2,7.6,0.5,7.6,0.5c7.1,2.1,13.7-1.4,14-1.5c3.6-1.9,8.6-4.2,15.2-6.8l1.1-0.5c6.6-3.8,7.1-12.6,7.1-13
			c0.5-16.5-13.1-22.1-13.7-22.3l0.3,0.2c-8.9-5.1-18.9-2-22.5-0.5c-1.5-0.8-4.7-2.6-4.7-2.6c-2.5-1.2-8-5.6-10-7.2
			c-1.4-1.5-2.7-2.6-3.7-3.5c1-1,1.9-2,1.9-2c4.4-5.2,6.6-6.3,7.1-6.5c6.3,2.2,12.6,1.2,14.1,0.9c0.5,0.1,2.1,0.6,3.3,1.2l0.3,0.2
			l0.4,0.1c13,2.6,18.5-6.3,18.7-6.7l-0.2,0.3c8.6-11.3,3.1-25.9,2.9-26.5c-4.1-13.4-16.6-14.8-22.6-13.6c-3.5,0.9-6.1,1.2-8,1.5
			l-2.7,0.4c0,0-2.8,0.2-2.8,0.2c-0.4-0.6-0.9-2.2-1.1-3.6c0-0.3-0.1-0.6-0.1-0.9c0-1.3,0.4-2.3,0.5-2.4c0.5-0.7,3.5-4.6,3.5-4.6
			l0-0.2c1.3-3.2,1.8-6.2,1.8-8.8c-0.1-7-3.6-11.4-3.8-11.7l0.3,0.5c-3.2-6.5-16-12.8-17.9-13.6c-7-4.1-20.7-13.7-22.9-15.2
			c-0.2-0.3-0.4-0.9-0.5-1.3c-1.7-8-6.7-9.8-7.2-10c-2.3-0.8-12.1-3.7-12.5-3.8c-14.4-3.7-38.8-14.9-39.1-15.1l-3.4-1.5L186.7-55.6"
			/>
		<path fill="#FFFFFF" d="M188.2-43.4l2.1-0.2c0,0,0.9-4.8,1.4-7.3c7.3,3.3,24.8,10.9,36.6,13.9c2.7,0.8,10.4,3,12.2,3.7
			c0.1,0,2.5,1.1,3.5,5.6c0,0.3,0.5,2.6,1.8,4.2l0.2,0.3l0.3,0.2c0.7,0.5,16.1,11.2,23.8,15.8l0.1,0.1l0.1,0.1
			c5,2.4,13.6,7.5,15.4,11.1l0.2,0.3l0.2,0.3c0.1,0.2,2.5,3.2,2.5,8.1c0,1.9-0.3,4-1.2,6.4c-0.4,0.5-3,4-3,4l-0.2,0.3
			c-0.1,0.3-1.3,2.4-1.2,5.3c0,0.5,0,1.1,0.1,1.6c0.5,4.2,2.5,8.6,6.4,8.5l0.5,0l3.9-0.4l2.1-0.3c2-0.3,4.8-0.6,8.5-1.6
			c1.1-0.2,12.3-1.9,15.9,9.9c0.1,0.3,4.6,12.4-2,21.2l-0.1,0.1l-0.1,0.1c-0.1,0.2-3.7,5.7-12.5,4.1c-4.3-2-5.9-1.7-6.4-1.5
			c0,0-6.2,1.4-11.7-0.8c-2.9-1.2-7.2,1.6-12.7,8.2c0.1-0.2-4.2,4.2-4.2,4.2l-2.6,2.7l3.3,1.9c0,0,2.7,1.5,5.5,4.7l0.1,0.2l0.2,0.1
			c0.8,0.6,7.6,6.3,11,7.9c-0.1-0.1,5.9,3.2,5.9,3.2l1.3,0.7l1.3-0.7c0.1-0.1,10.3-5,18.5-0.3l0.2,0.1l0.2,0.1
			c0.4,0.2,10,4.3,10.1,15.9c0,0.3,0,0.6,0,0.9c0,0-0.4,5.9-4.2,8.2c-0.2,0.1-0.4,0.2-0.4,0.2c-2.5,1-10.2,4-15.9,7.1
			c0,0-4.8,2.5-9.6,1c-0.4-0.1-3.5-0.9-9.2-0.8c-0.3,0-3.2-0.6-9.2-3.1c-0.9-0.4-14.1-3.1-17.3-3.3c-0.2,0-4.4,0.1-12.9-2.5
			c0,0-0.8-0.2-0.8-0.2l-9.5-2.6l-1,0.4c-0.2,0.1-4.6,1.9-7.5,3.8c0,0-5.8,3.2-13.3,0.3l-0.2-0.1l-0.2,0c-2.1-0.5-20.5-4.9-22.1-5.2
			c0.1,0-1.5-0.4-2.8-1.8c-1.1-1.2-1.5-1.6-12.2,1.5c-5,1.4-12.4,3.8-19.4,7.2l-1.6,0.8c0,0,0.1,7,0,7c0,0.6,0,9.4-7.6,14.4
			c0,0,0.8,1.2,1.6,2.4c-0.9-1.1-1.9-2.1-1.9-2.1c0,0-2.7,2.3-7.1,4.4l-8.9,4.3l9.8,1.2c0.1,0,9.1,1.2,11.7,8.4
			c0.2,0.5,2.8,6.7-2.4,14.7c0,0-4.7,6.4-10.9,8.5l-0.1,0l-0.2,0.1c0,0-1.7,0.6-5.8,0.1c-0.8-0.2-3.9-0.7-8.9-0.2
			c-0.2,0-1.5,0-9.1-0.5c-0.1,0-0.3,0-31.4-0.6c-0.3,0-8.8,0.3-13.6-5.8l-2-2.5l-2.3,2.2c-0.1,0.1-8.9,8.6-22.4,16.1l0.5-0.2
			c-1.3,0.4-2.9,1.6-3.4,3.6c-0.5,2.1,0.3,4.3,2.4,6.6l-0.2-0.2c0.2,0.3,4,5.4,4,11.7c0,2.8-0.7,5.8-2.7,8.7
			c-0.7,0.8-4.9,5.5-9.4,6.9l-1.3,0.5c-3,1-6.2,2.1-12.2-1.3c-7.3-4.2-9.6-8.2-9.6-8.2l-0.1-0.2l-0.1-0.2c-2.4-3.2-2.6-6.9-2.6-7
			v-0.1l0-0.1c-0.4-2.5-0.2-11.6-0.1-14.9l0-0.1v-0.1c0-0.2-0.7-15.5,6.5-31.6l0.3-0.5c1.3-2.2,4.6-8.2,7.1-23.1
			c1.1-6.3,0.7-17.4-7.6-19.1c-0.3-0.1-12.1-1.9-22.3-15.5l-0.1-0.1l-0.1-0.1c0,0-4.9-5.7-10.1-26.7l0-0.2l-0.1-0.2
			c-0.3-0.8-3-8-5.1-10.7c-3.8-5.7-8.9-11-19.7-9.9c-4.6-0.1-10.9-3.4-12.6-4.6l-0.1-0.1l-0.3-0.2c-0.1,0-2.5-1.4-13-11.2
			c-0.2-0.2-2.8-3.3-5-5.9c5.3-2.2,15.6-6.2,23.4-8c0.3-0.1,9.4-2.8,15.1,0.2l0.3,0.1l0.4,0.1c0,0,4.5,1.4,8.1,10.8l-0.1-0.3
			c0.3,1.1,1.7,4,8.3,6.9c1.9,1,7.7,4.5,9.6,7.1l0.1,0.2l0.1,0.2C-6.6,65-1,70.8,4.4,88.4c0.2,0.8,6.1,18.9,26,23.8l1.5,0.4l1.1-1
			c0.1-0.1,14.5-12.8,24.1-17c1-0.4,6.4-2.5,9.1-4.8c0.5-0.3,8.9-4.9,30.4-25.7l3.2-3.1c0,0-4.7-1.9-5-2c1-0.9,2.2-1.9,2.2-1.9
			l-0.4,0.3c1.2-0.7,2-1.9,2-3.1c0,0,0,0,0,0c0-1.2-0.6-2.2-1.7-2.8c-0.1,0-2.1-1.1-4-2.1c3.1-2.4,9.3-7.3,9.3-7.3s-4.1-5.1-5.9-7.3
			c3.6-2.4,16.6-11.1,16.6-11.1s-4.2-3.1-4.7-3.4c2.4-0.9,10.9-4.2,10.9-4.2s-7.1-3.5-8.3-4c2.5-3.3,8.2-10.6,8.2-10.6
			s-2.6-4.1-4.1-6.3c4.8-1.9,25.2-10.1,25.2-10.1s-4.1-3.3-4.1-3.4c4.6-1.4,14.2-4.3,14.2-4.3s-4.7-6-6.8-8.7c8.2,0.5,29.9,2,29.9,2
			s-1.1-2.9-1.3-3.7c2.5-0.2,10.4-0.6,10.4-0.6s-4.7-6.3-6.2-8.3C181.1-42.6,188.2-43.4,188.2-43.4"/>
		<path fill="#046EB1" d="M30.2,141.9c0,0-0.2-7.8-7.2-12.2c0,0-3.3-1.6-5.7-2c0,0-12.3-2.9-20.2-15c0,0-2.4-3.1-5.6-14.4
			c0,0-2.8-11.6-4.9-16.2c0,0-5.7-10.9-15.5-16c-1.4-0.7-3.1-1.5-3.1-1.5c-1-0.6-2.6-0.3-2.6-0.3c-2.3,0.7-9.2-0.1-9.2-0.1
			s-4.2,0.2-10.9-6.3l-9.6-8.6c0,0,17.4-6.1,20-5.8c0,0,9.4-1.9,12.5,3.9L-29,54c0,0,1.5,3.7,7,6.3c0,0,13.1,4.1,18.6,21.3
			c0,0,4.8,13.1,7.6,17.4c0,0,9.2,17.8,30.6,18.5c0,0,12-14.5,30.9-21.4c0,0,8.5-5.3,20.7-15.3c0,0,17.3-17.7,22.8-21.1l-6.7-2.5
			l3.3-3.5c0,0,1.4-2-0.3-3.2l-4.1-2.1c0,0,2.3-1.6,3.7-2.8c0,0,0.5-0.4,3.7-3.8l-5.1-6l15.2-11.3l-2.8-3.2l9.2-3.1l2.5-4.3
			c0,0-4.1-1.4-9.8-3.3l6.4-9.3l-2.6-4.1l24.7-10.1l-2.3-2.6l14.8-4.8c0,0-4.2-4.4-4.7-5.2c0,0-0.3-0.1,0.1-0.4
			c0,0,16.6,1.7,23.6,0.8l-1.2-2.7l11.3,0.3l-4.7-3.8l5.7-2.7l-3.9-4.7l9.5-1.1l0.3-3.7c0,0,26.7,10.7,42.1,14c0,0,1.8,2.4,2.6,3.9
			c0,0,0.5,2.4,1,4.3c0,0-0.3-0.3,1.4,1.1c0,0,14.6,11.6,31.9,20.8c0,0,2.5,1.6,5.8,4.3c0,0,1.6,1.5,2.3,2.7c0,0,1.7,3.3,1.2,8.2
			c0,0-0.6,1.3-1.6,1.7l-1.8,0.3c0,0-0.9,2.6-3.3,4.9c-1.2,1.1-2.7,1-2.7,1l-6.1,0.6c0,0-0.9-0.1-1.7,0.8c0,0-1.6,3.5-1.6,5.1
			c0,0-0.5,1.3,1,1.2c0,0,4-0.6,5.3-0.6c0,0,5-0.3,6.7,1.2c0,0,2,2.5,0.8,5c0,0-0.3,0.7-2.1,2.6l-1.2,1.5c0,0,6.2,0.4,7.5,1.2
			l4.8,1.2c0,0,7,0.1,12.4-1.3c0,0,10.4-3.6,14.2,2.5c0,0,4.1,6,2.6,14.3c0,0-1.4,6.3-4.7,7.5c0,0-4.7,1.5-8.5-1c0,0-3.3-2-6.2-0.1
			c0,0-5,1.4-8-1.4c0,0-0.5-0.7-5.5,0.2c0,0-5.3,1.8-9.3,6.8c0,0-3,3.9-12.2,12.3c0,0-2.3,2.5,0.9,4c0,0,5.6,1.5,10.2,6.8
			c0,0,3.8,3.7,7.6,6.1c0,0,7.1,4.3,11.8,7.6c0,0,1.7,2.3,5.1-0.2c0,0,6.7-4.4,14.3-1.6c0,0,4.5,2.4,5.8,3.4c0,0,4.5,3.9,2.3,11.5
			c0,0-0.4,2.8-7.9,4.8c0,0-4.5,1.8-8.9,4.3c0,0-2.3,2-7.5,0.5c0,0-2.4-0.9-4.5-0.8c0,0-4.8,0.6-8.8-1.5c0,0-0.5-0.7-2.8-1.3
			c0,0-18.8-4-20.9-3.8c0,0-4.5-0.1-8.4-1.4c0,0-10.3-3.4-11.4-3.3c0,0-3.5-1.4-5.6,0.4c0,0-5.9,2.6-7.1,3.5c0,0-1.7,2.6-9.7,0.4
			c0,0-21-5.6-24-5.7l-2.9-2.6c0,0-20.8,2.4-37.9,12.3c0,0-0.1,9-0.8,12c0,0-0.4,6.1-8.6,10.2c0,0-10.1,6-22.7,11.5
			c0,0-6.3,5.3,0.9,7.4c0,0,3.6,0.9,17.2-1.2c0,0,7.9-0.9,10,3.4c0,0,2.6,2,1.9,6.5c0,0-0.2,5.3-8.4,10.9c0,0-2.4,2.1-6.8,1.2
			c0,0-3-0.7-5.2-0.8c0,0-5.4,0.8-11.6-0.6c0,0-25.3,0.1-28.6-0.2c0,0-4.6-0.1-8.1-1.5c0,0-3.6-0.8-0.5-7.1c0,0,5.9-7.8,8.2-13.5
			c0,0,1.5-1.8,0.7-3.3c-1.9-3.5-8.2-0.8-8.2-0.8c-5.5,1.9-6.5,5-6.5,5c-2,2.5-3.5,7.1-3.5,7.1c-2.1,3.9-3.8,5.2-3.8,5.2
			c-8.1,9.6-21,17.2-21,17.2s-5.7,3.5-7.8,5.6c0,0-6.2,4.5-0.5,12.1c0,0,8.4,5.1,3.3,15.9c0,0-1.5,4.3-9.8,6.5c0,0-1.4,0.6-5.1-0.7
			c0,0-5-2.9-9.3-7.4c0,0-0.9-1.4-1.6-4.3c0,0-0.8-11.1-0.4-13.6c0,0-1.6-18.6,7.6-33.8C22.9,175.6,29.7,162.4,30.2,141.9"/>
		<path fill="#FFFFFF" d="M258.4,44.4c0,0-7.3-4.3-9.9-1.1c0,0-2.7,4.4,2,5.8C250.5,49.1,255.8,49,258.4,44.4"/>
	</g>
</g>
</svg>
