<?xml version="1.0" encoding="utf-8"?>
<!-- Generator: Adobe Illustrator 18.0.0, SVG Export Plug-In . SVG Version: 6.00 Build 0)  -->
<!DOCTYPE svg PUBLIC "-//W3C//DTD SVG 1.1//EN" "http://www.w3.org/Graphics/SVG/1.1/DTD/svg11.dtd">
<svg version="1.1" id="Layer_1" xmlns="http://www.w3.org/2000/svg" xmlns:xlink="http://www.w3.org/1999/xlink" x="0px" y="0px"
	 viewBox="-99 -76.5 500 350" enable-background="new -99 -76.5 500 350" xml:space="preserve">
<ellipse fill="#F2C800" cx="151" cy="98.8" rx="230.5" ry="150.8"/>
<ellipse fill="#313F36" cx="151" cy="98.8" rx="221.7" ry="144.6"/>
<path fill="#FFFFFF" d="M251,125.1H116.7V91.5h228.8c0,2,0.2,3.5,0.2,5.5c-0.2,75.4-94.6,125.8-190.8,125.8
	C29.2,222.8-44.6,157.1-44.6,99c0-69,98.5-122.6,200.9-122.3c89.6,0,152.4,37.7,179.7,83h-87.8c-18.2-31.7-44.9-45.4-97.3-45.4
	c-67.6,0-116.4,39.6-116.4,80.5c0,45.5,35,76.3,110.7,76.3C215.1,171.2,243.1,155.2,251,125.1z"/>
</svg>
