<?xml version="1.0" encoding="utf-8"?>
<!-- Generator: Adobe Illustrator 18.0.0, SVG Export Plug-In . SVG Version: 6.00 Build 0)  -->
<!DOCTYPE svg PUBLIC "-//W3C//DTD SVG 1.1//EN" "http://www.w3.org/Graphics/SVG/1.1/DTD/svg11.dtd">
<svg version="1.1" id="Layer_1" xmlns="http://www.w3.org/2000/svg" xmlns:xlink="http://www.w3.org/1999/xlink" x="0px" y="0px"
	 viewBox="-140.4 -75 500 350" enable-background="new -140.4 -75 500 350" xml:space="preserve">
<g>
	<path fill="#FFFFFF" d="M187.3,1.8C257.1,55,204,62.9,149.4,70.7c0,0-23-6.4-62.9-26.2c-90.5-45-62-66.1,9.1-79
		C-18.3-84-113.2,2.3-8.5,86.3l-28.7,20.5c23.6,14.5,72.5,44.8,65.4,91.3L3.9,215.4L78,249l58.5-26.5c0.4-25.7,46.4-39.1,66.2-91.5
		C311.6,106.1,283.9,10.2,187.3,1.8L187.3,1.8z"/>
	<path fill="#B21E35" d="M206.9,10.1c46.9,36.7,14.4,60.2-42.9,66.6c14.5,61-29.9,116.9-76.9,160.2l43.1-19.5
		c3.2-24.8,46.9-37.7,67.6-92.7C295.1,102.9,279.2,33.1,206.9,10.1L206.9,10.1z"/>
	<path fill="#06192E" d="M137.5,75.6C0.7,22.8-8.3-20.6,77-35.5C-29.7-64.5-92,12.8,13.6,86.6l-28.3,20.3
		c30.1,20.1,62,49.9,51.2,96.7l-14.3,10.2L77,238.7C128.1,182.8,154.8,128.4,137.5,75.6L137.5,75.6z M103,160.6l-21-23.9l-24.1,3.6
		L69,122L48,98.1l27.9,12.6L87,92.3l6.1,26.1l27.9,12.5l-24.1,3.6L103,160.6L103,160.6z"/>
	<path fill="#06192E" d="M137.5,75.6C0.7,22.8-8.3-20.6,77-35.5C-29.7-64.5-92,12.8,13.6,86.6l-28.3,20.3
		c30.1,20.1,62,49.9,51.2,96.7l-14.3,10.2L77,238.7C128.1,182.8,154.8,128.4,137.5,75.6L137.5,75.6z M103,160.6l-21-23.9l-24.1,3.6
		L69,122L48,98.1l27.9,12.6L87,92.3l6.1,26.1l27.9,12.5l-24.1,3.6L103,160.6L103,160.6z"/>
	<path fill="#B21E35" d="M206.9,10.1c46.9,36.7,14.4,60.2-42.9,66.6c14.5,61-29.9,116.9-76.9,160.2l43.1-19.5
		c3.2-24.8,46.9-37.7,67.6-92.7C295.1,102.9,279.2,33.1,206.9,10.1L206.9,10.1z"/>
	<path fill="#FFFFFF" d="M136.5,237.3l2.3-5.9h2.2v8h-1.4v-6.5h0l-2.5,6.5h-1l-2.5-6.5h0v6.5h-1.4v-8h2.2L136.5,237.3L136.5,237.3z
		 M130.7,232.5h-2.5v6.8h-1.4v-6.8h-2.5v-1.2h6.3L130.7,232.5L130.7,232.5z"/>
</g>
</svg>
