<?xml version="1.0" encoding="utf-8"?>
<!-- Generator: Adobe Illustrator 18.0.0, SVG Export Plug-In . SVG Version: 6.00 Build 0)  -->
<!DOCTYPE svg PUBLIC "-//W3C//DTD SVG 1.1//EN" "http://www.w3.org/Graphics/SVG/1.1/DTD/svg11.dtd">
<svg version="1.1" id="INDIANAPOLIS_COLTS" xmlns="http://www.w3.org/2000/svg" xmlns:xlink="http://www.w3.org/1999/xlink" x="0px"
	 y="0px" viewBox="-156.5 -75 500 350" enable-background="new -156.5 -75 500 350" xml:space="preserve">
<g>
	<g>
		<path fill="#023A79" d="M189.8-6.7c-5.3-7.5-3.2-11.4,0.5-11.9c2.6-0.4,5.7,0,7.2,0c2.8,0,8.2,0.3,7.8-5.2
			c-0.5-6.2-1.8-12.2-3.4-19.4c-1.6-7.2-2.1-6.7-11.9-6.7c0,0-1.8-0.3-16.8,0.8c-15,1-26.9,3.1-27.4,23.3C145.3-5.7,150,1,158.2,14
			c8.3,12.9,33.1,52.8,33.1,89c0,66.6-58.5,95.2-97.8,95.2c-39.3,0-97.8-28.6-97.8-95.2c0-36.2,24.8-76.1,33.1-89
			C37.1,1,41.8-5.7,41.2-25.9c-0.5-20.2-12.4-22.3-27.4-23.3C-1.2-50.2-3-50-3-50c-9.8,0-10.4-0.5-11.9,6.7
			c-1.6,7.2-2.8,13.2-3.4,19.4c-0.5,5.5,4.9,5.2,7.8,5.2c1.6,0,4.7-0.4,7.2,0c3.7,0.5,5.8,4.5,0.5,11.9c-21.4,30-44,67-44,111.3
			c0,73,62.6,145.5,140.3,145.5s140.3-72.5,140.3-145.5C233.8,60.3,211.2,23.2,189.8-6.7z M168.8-1.5c-2.3,0-4.2-1.9-4.2-4.2
			c0-2.3,1.9-4.2,4.2-4.2c2.3,0,4.2,1.9,4.2,4.2C173.1-3.4,171.2-1.5,168.8-1.5z M18.2-9.9c2.3,0,4.2,1.9,4.2,4.2
			c0,2.3-1.9,4.2-4.2,4.2S14-3.4,14-5.7C14-8,15.9-9.9,18.2-9.9z M-23.7,97.4c-2.3,0-4.2-1.9-4.2-4.2c0-2.3,1.9-4.2,4.2-4.2
			c2.3,0,4.2,1.9,4.2,4.2C-19.5,95.5-21.4,97.4-23.7,97.4z M-3,180.7c-2.3,0-4.2-1.9-4.2-4.2s1.9-4.2,4.2-4.2c2.3,0,4.2,1.9,4.2,4.2
			S-0.7,180.7-3,180.7z M93.5,228.3c-2.3,0-4.2-1.9-4.2-4.2c0-2.3,1.9-4.2,4.2-4.2c2.3,0,4.2,1.9,4.2,4.2
			C97.7,226.4,95.8,228.3,93.5,228.3z M190.1,180.7c-2.3,0-4.2-1.9-4.2-4.2s1.9-4.2,4.2-4.2c2.3,0,4.2,1.9,4.2,4.2
			S192.4,180.7,190.1,180.7z M210.8,97.4c-2.3,0-4.2-1.9-4.2-4.2c0-2.3,1.9-4.2,4.2-4.2c2.3,0,4.2,1.9,4.2,4.2
			C215,95.5,213.1,97.4,210.8,97.4z"/>
	</g>
	<g>
		<g>
			<circle fill="#FFFFFF" cx="168.8" cy="-5.7" r="4.2"/>
			<path fill="#FFFFFF" d="M168.8-5.7"/>
		</g>
		<circle fill="#FFFFFF" cx="18.2" cy="-5.7" r="4.2"/>
		<g>
			<path fill="#FFFFFF" d="M-27.9,93.2c0-2.3,1.9-4.2,4.2-4.2c2.3,0,4.2,1.9,4.2,4.2c0,2.3-1.9,4.2-4.2,4.2
				C-26,97.4-27.9,95.5-27.9,93.2z"/>
			<path fill="#FFFFFF" d="M-23.7,93.2"/>
		</g>
		<circle fill="#FFFFFF" cx="-3" cy="176.5" r="4.2"/>
		<circle fill="#FFFFFF" cx="93.5" cy="224.1" r="4.2"/>
		<g>
			<circle fill="#FFFFFF" cx="190.1" cy="176.5" r="4.2"/>
			<path fill="#FFFFFF" d="M190.1,176.5"/>
		</g>
		<g>
			<path fill="#FFFFFF" d="M206.6,93.2c0-2.3,1.9-4.2,4.2-4.2c2.3,0,4.2,1.9,4.2,4.2c0,2.3-1.9,4.2-4.2,4.2
				C208.4,97.4,206.6,95.5,206.6,93.2z"/>
			<path fill="#FFFFFF" d="M210.8,93.2"/>
		</g>
	</g>
</g>
</svg>
