<?xml version="1.0" encoding="utf-8"?>
<!-- Generator: Adobe Illustrator 18.0.0, SVG Export Plug-In . SVG Version: 6.00 Build 0)  -->
<!DOCTYPE svg PUBLIC "-//W3C//DTD SVG 1.1//EN" "http://www.w3.org/Graphics/SVG/1.1/DTD/svg11.dtd">
<svg version="1.1" id="KANSAS_CITY_CHIEFS" xmlns="http://www.w3.org/2000/svg" xmlns:xlink="http://www.w3.org/1999/xlink" x="0px"
	 y="0px" viewBox="-93.3 -75 500 350" enable-background="new -93.3 -75 500 350" xml:space="preserve">
<g>
	<g>
		<path fill="#FFFFFF" d="M358.8,90.9c-8-6.8-18.2-7.3-24.2-19.1c-4.5-9-14.6-12.5-23.9-13.9c-7.2-1.7-11.4-8.7-16.4-13.9
			c-6.4-11-19.3-11.1-30.5-12.5c-12.3,0.4-20-14.4-32.7-17.8c-4.7-1.3-17.4-0.3-25.7-6.3c-7.5-5.5-16.9-11-35.8-8.6
			c-14.2-2.3-24.3-14.5-38.8-16.4c-9.8-3-18.7,1.4-28.4,1C95.6-18.4,90-23.1,83-24.6c-10.4-1.8-13.1,2.3-39.5-3.4
			c-12.4-2.7-28-6.7-20,19.3C27,2.6,35.2,30.9,8.6,33.6c-9.6,0.9-18.4-7.8-27.1-0.7c-2.9,2.1-8.5-2.7-12.2-1.6
			c-11.6,3.3-7,16.8-8,26.1c-0.3,10.4-7.4,18.1-10.9,27.2c-8.3,16.6-4.8,39.4,1,56c1.6,8.7-0.9,17.7,0.9,26.2
			c0.5,1.5,2.3,3.5,4.6,2.3c17.6-8.6,22,2.1,28-0.4c16.5-7.2,27.9-4,31.4,4.4c6.1,17.5-7,32.7-3.5,50c3.3,11.6,25.2,1.5,35.5,1
			c14.3-1.1,28.2,3,41.8,0.4c11.8-6,25-9.4,39.4-9.1c9.5,0.1,16.9-4.8,24.6-9.3c14-9.8,35.3-2.6,48.9-13.6c7.4-5.8,18.2-3.5,26.2-8
			c12.2-10.9,26.6-16.6,42.4-19c8.2-3.2,14.6-11.7,22.4-15.8c7-4.3,15.2-5.2,21.9-10.1c10.6-13.9,24.6-25.3,41.4-28.2
			C373.6,105.2,367.8,96.2,358.8,90.9z M255.9,152.8c-12.8,12-37,20.6-59.9,23c-27.5,2.8-54.9-1.2-76.7-15.5
			c-13-9.6-21.3-24.3-19.7-40.8c0.9-16.1,10.9-29.9,23.8-39.4c-1-1.1-1.8-2-3-3.3L88.8,95.9c0,1.7,0,3.9,0,5.5c3.3,0,4.1,0,7.9-0.1
			V119l-5.9,6.7l-58,0l-0.1-13.7l7.2-10.5c1.2,0,1.7,0,2.2-0.1V40.8l-9.4,0l0-12.3l7.8-8.7h56l0.1,13l-7.9,9.3l0,23.5
			c30.3-17.1,54.2-30.6,54.2-30.6V24.7l4.9-4.9h57.6c0,6,0,7.5,0,13.3l-7.2,7.7l-17,0c-9.9,6.1-11.5,7-21.6,13.1
			c1.1,1.5,2,2.5,4.5,5.1c27.1-6.5,59.9-5.9,84.4,5.6l8.5-6.5c7.2,0,9.3,0,16.1,0c0,13,0,19.7,0,40.4l-7.5,8.7l-14.5,0.1
			c-12.7-21.4-36.7-31.5-61.8-27.4c-1.6,0.4-3.2,0.6-4.6,1.3c9,9.8,10.2,11,18.9,20.3c1.7,0,2.3,0,3.7,0l0,16.8l-5.8,7.5H143v-14.2
			l3.8-6.6c-0.5-0.6-0.9-0.9-1.7-1.7c-5.2,3.9-7.5,10.3-6.4,16.7c2.8,14.5,17.2,22.2,30,25.2c21.1,4.6,45.6,2.7,64.3-5.7
			c16.7-9.7,17.9-18.5,18.5-19.3h22.2C273.3,130.8,266.8,142.6,255.9,152.8z"/>
	</g>
	<g>
		<g>
			<path d="M341.9,63c-10.4-6.7-7.8-20-32.1-23.1c-12.7-1.8-13-20.2-41.6-25.7c-13.5-2.6-22.4-15.9-36.5-17.1
				c-12.7,0.3-25.6-0.1-35.2-8c-9.6-9.1-24.3-4.2-36.6-6.9c-10-3.5-15-10.3-25.5-13.3c-11.5-3.7-20.9,0.5-30-1.9
				c-11.7-1.3-20.7-10-33.6-8c-12.6,3.5-26.5,0.3-39.1-0.7c-7.5-0.9-29.9-5.7-25.9,16.1c2.5,10.3,4.8,20.6,7.4,30.7
				c4.9,16.2-0.3,17.4-8,18.1c-7.4,0.6-9.1-9.1-15.8-9.8c-5.4-0.9-13.4,4.9-19.8,7.1c-6.5,2-9.3-4.8-14.9-5.2
				c-12-0.1-12.6,15.8-10.4,18.4c4.1,8,4.9,18.8,1.9,27.7c-4.3,7.7-8.3,15.5-10.6,24.2c-4.6,21.7-3.2,46.8,4.6,66.6
				c2.6,11-7,23.7,2.9,32.1c9,5.9,16.1-2.7,24.5-4.6c6.2-1.4,16.4,2.9,21.6,0c11.9-5.9,18.8-0.9,17.4,7
				c-3.2,13.2-6.1,26.5-10.3,39.2c-2.5,9.4,8.9,17.8,14.8,16.8c8-1.4,15.9-2.9,23.7-4.3c18.2-2.8,35,6.8,52.3,0.4
				c11.6-5.6,23.2-11.4,37.9-9.4c10,1.3,17.7-3.3,25.2-8c9.3-5.5,26.6-7.8,32.2-7.7c10.3,0.4,16.7-7,25.7-9.7
				c6.8-2.3,18.8-2.4,21.3-4.2c6.2-5.1,14.1-12.6,19.8-13.5c16.5-3.2,30.5-10.6,43.5-22.3c1.8-1.8,15.6-4.5,19.7-6.1
				c8.5-3.3,14.3-11.7,18.8-19.3c4.5-6.1,11-10,17.8-12c11.7-1.9,23.5-11.9,28.5-22.4c4.6-9.5,2.7-11.2,1.5-12.7
				C367.7,80.7,354.8,71,341.9,63z M357.5,111.5c-16.8,2.9-30.8,14.3-41.4,28.2c-6.7,4.9-14.9,5.8-21.9,10.1
				c-7.8,4.1-14.2,12.6-22.4,15.8c-15.8,2.3-30.3,8.1-42.4,19c-8,4.5-18.8,2.2-26.2,8c-13.6,11-34.9,3.8-48.9,13.6
				c-7.7,4.5-15.1,9.4-24.6,9.3c-14.3-0.3-27.6,3.1-39.4,9.1c-13.6,2.6-27.5-1.5-41.8-0.4c-10.3,0.4-32.2,10.6-35.5-1
				c-3.5-17.2,9.6-32.4,3.5-50c-3.5-8.4-14.9-11.7-31.4-4.4c-6,2.4-10.4-8.2-28,0.4c-2.3,1.2-4.1-0.8-4.6-2.3
				c-1.7-8.5,0.7-17.5-0.9-26.2c-5.8-16.7-9.3-39.4-1-56c3.5-9.1,10.6-16.8,10.9-27.2c1-9.3-3.6-22.7,8-26.1
				c3.6-1.1,9.2,3.7,12.2,1.6c8.7-7.1,17.5,1.7,27.1,0.7C35.2,30.9,27,2.6,23.5-8.7c-8-25.9,7.6-21.9,20-19.3
				c26.4,5.7,29.1,1.6,39.5,3.4c6.9,1.5,12.6,6.2,19.4,8.1c9.7,0.4,18.5-4.1,28.4-1c14.5,1.9,24.6,14,38.8,16.4
				C188.6-3.6,198,2,205.5,7.4c8.2,6,20.9,5.1,25.7,6.3c12.8,3.4,20.4,18.2,32.7,17.8C275.2,32.9,288,33,294.4,44
				c4.9,5.2,9.1,12.2,16.4,13.9c9.3,1.4,19.3,4.9,23.9,13.9c6,11.8,16.2,12.3,24.2,19.1C367.8,96.2,373.6,105.2,357.5,111.5z"/>
			<path d="M233,139.4c-18.7,8.4-43.1,10.3-64.3,5.7c-12.7-3-27.2-10.7-30-25.2c-1.2-6.4,1.2-12.7,6.4-16.7c0.8,0.8,1.2,1.1,1.7,1.7
				l-3.8,6.6v14.2h58.6l5.8-7.5l0-16.8c-1.5,0-2,0-3.7,0c-8.8-9.4-9.9-10.5-18.9-20.3c1.4-0.7,3-0.9,4.6-1.3
				c25.1-4.1,49,6,61.8,27.4l14.5-0.1l7.5-8.7c0-20.7,0-27.5,0-40.4c-6.8,0-8.9,0-16.1,0l-8.5,6.5c-24.5-11.6-57.3-12.2-84.4-5.6
				c-2.5-2.6-3.4-3.6-4.5-5.1c10.1-6,11.7-6.9,21.6-13.1l17,0l7.2-7.7c0-5.8,0-7.3,0-13.3h-57.6l-4.9,4.9v10.4
				c0,0-23.9,13.5-54.2,30.6l0-23.5l7.9-9.3l-0.1-13h-56l-7.8,8.7l0,12.3l9.4,0v60.6c-0.5,0-1.1,0-2.2,0.1l-7.2,10.5l0.1,13.7l58,0
				l5.9-6.7v-17.7c-3.8,0-4.7,0-7.9,0.1c0-1.6,0-3.8,0-5.5l31.5-19.2c1.2,1.3,2,2.2,3,3.3c-12.9,9.6-22.9,23.3-23.8,39.4
				c-1.6,16.5,6.7,31.3,19.7,40.8c21.9,14.3,49.2,18.3,76.7,15.5c22.9-2.4,47.1-11,59.9-23c10.9-10.2,17.4-22,17.8-32.6h-22.2
				C250.9,120.9,249.7,129.7,233,139.4z M237.2,63.7c0,0,9.1,3.1,12.1,4.8l8.5-6.8c5,0,7.2,0,11.7,0v35.9c-4.7,0-5.9,0-11.9,0
				c-18.2-22.7-48.9-27.2-77-21l-13.3-14.4C189,55.6,216.7,56,237.2,63.7z M84.9,94.3c0,4.6,0,6.2,0,11.5l8.3,0l-0.1,10.5
				c-23.4,0-25.6,0-49.9,0.1l0-10.5c4.3,0,5.7,0,9.2,0V31.7h-9.2v-8.5c23.2,0,28.5,0,49.9,0c0,3.7,0,4.3,0.1,8.6
				c-3.2,0-3.2,0-8.3-0.1l0.1,40.5l72.5-40.5c0,0-5.3,0-7.9,0c0-3.5,0-4.5,0-8.5l52.1-0.1l0,8.5H189c-14.4,8.7-35.6,21.5-35.6,21.5
				l49,52.6l1.3,0c0,3.9,0,6.3,0,10.5l-52.4,0l0-10.5l7.6,0c-21.1-23.1-33.2-36.3-33.2-36.3C112.4,77.5,108.6,79.8,84.9,94.3z
				 M269.5,124.5c-7.4,28-37.7,40.4-63.9,44c-24.5,3.4-49.5,0.3-70.5-8.7c-14.6-5.6-27.4-19.8-28.7-35.9
				c-1.3-16.6,6.3-31.6,19.9-40.6l15.7,16.6c-5.1,5.8-8.1,12.7-6.7,20.7c2.5,15.3,19,25.9,32.9,28.8c25,4.1,53,2.5,73.8-10
				c10.3-7.4,14.5-14.9,14.5-14.9C262.2,124.6,264,124.6,269.5,124.5z"/>
		</g>
	</g>
	<g>
		<path fill="#B21E35" d="M159,105.8l-7.6,0l0,10.5l52.4,0c0-4.2,0-6.6,0-10.5l-1.3,0l-49-52.6c0,0,21.2-12.8,35.6-21.5h12.7l0-8.5
			l-52.1,0.1c0,4,0,5,0,8.5c2.6,0,7.9,0,7.9,0L84.9,72.2l-0.1-40.5c5.1,0,5.1,0,8.3,0.1c0-4.3,0-4.8-0.1-8.6c-21.4,0-26.7,0-49.9,0
			v8.5h9.2v74.1c-3.5,0-4.9,0-9.2,0l0,10.5c24.3,0,26.5,0,49.9-0.1l0.1-10.5l-8.3,0c0-5.4,0-7,0-11.5c23.7-14.5,27.5-16.8,40.9-24.8
			C125.7,69.5,137.9,82.7,159,105.8z"/>
		<path fill="#B21E35" d="M257.6,97.6c5.9,0,7.2,0,11.9,0V61.7c-4.6,0-6.8,0-11.7,0l-8.5,6.8c-3-1.7-12.1-4.8-12.1-4.8
			c-20.6-7.7-48.2-8.1-70-1.5l13.3,14.4C208.7,70.4,239.4,74.9,257.6,97.6z"/>
		<path fill="#B21E35" d="M242.1,139.4c-20.8,12.5-48.8,14-73.8,10c-13.9-2.9-30.4-13.5-32.9-28.8c-1.5-8,1.6-14.9,6.7-20.7
			l-15.7-16.6c-13.6,9-21.2,24-19.9,40.6c1.2,16.1,14,30.3,28.7,35.9c21,9,46,12.1,70.5,8.7c26.2-3.6,56.5-16,63.9-44
			c-5.5,0-7.3,0-12.9,0C256.6,124.5,252.4,132.1,242.1,139.4z"/>
	</g>
</g>
</svg>
