<?xml version="1.0" encoding="utf-8"?>
<!-- Generator: Adobe Illustrator 18.0.0, SVG Export Plug-In . SVG Version: 6.00 Build 0)  -->
<!DOCTYPE svg PUBLIC "-//W3C//DTD SVG 1.1//EN" "http://www.w3.org/Graphics/SVG/1.1/DTD/svg11.dtd">
<svg version="1.1" id="Layer_1" xmlns="http://www.w3.org/2000/svg" xmlns:xlink="http://www.w3.org/1999/xlink" x="0px" y="0px"
	 viewBox="-163 -75 500 350" enable-background="new -163 -75 500 350" xml:space="preserve">
<g>
	<path fill="#FFFFFF" d="M194.2,64.5c-10.6-2.2-13.8-14.2-13.9-14.7c0-0.1,0-0.1,0-0.1c-3.3-11.9,7.2-20.7,7.7-21.1
		c1.6-1.3,2.1-3.5,1.2-5.4c-0.9-1.8-2.9-2.9-5-2.5c-13.4,2.8-21.4-7.3-22.7-9.2c-6.8-14.4,0.8-22.9,1-23.2c1.6-1.7,1.7-4.2,0.3-6
		c-1.4-1.7-4.1-2.1-5.9-0.8c-11.7,7.6-21.9,0.1-22.3-0.3c0,0,0,0-0.1,0C123-27,125.7-38.6,125.8-39c0.5-2.4-0.7-4.7-2.9-5.4
		c-2.2-0.8-4.7,0.4-5.6,2.5c-0.9,2.1-9.2,8.4-18.2,8.1c-8.3-0.1-14.7-5.8-19-16.5c-0.8-1.7-2.6-2.9-4.6-2.8c-2,0.3-3.5,1.7-3.9,3.5
		c-1.6,7.5-8,13.9-15.6,15.9c-7.6,2-15.3-1.2-21.6-8.7c-1.3-1.6-3.5-2-5.4-1.2c-1.8,0.9-2.9,2.9-2.5,4.9c1.4,8.4-1.8,16.6-8.4,21.2
		C11.4-12.7,3-12.7-5.2-17.5c-1.7-1.1-4.1-0.7-5.4,0.8c-1.4,1.6-1.7,3.8-0.5,5.5C-7-5-6.9,3.8-10.7,10.3c-2.8,4.9-8.8,10.4-21.8,9.6
		c-2-0.1-3.7,0.9-4.5,2.8c-0.7,1.8-0.1,3.8,1.3,5.1c7.9,6.6,10.7,14.2,8.3,22C-29.9,58-37.9,64.2-42,64.5c-2.1,0.3-3.8,1.8-4.1,3.9
		c-0.3,2.1,1,4.1,3,4.9c9.7,3.1,15.6,9.3,16.6,17.2c1,7.5-2.5,15.7-8.7,19.9c-1.7,1.2-2.4,3.4-1.6,5.4c0.8,1.8,2.8,3,4.9,2.6
		c9-1.4,16.8,1.8,21.2,8.9c4.5,7.1,4.3,16.1-0.1,22.4c-1.3,2-0.9,4.5,0.8,6c1.7,1.4,4.2,1.4,5.9-0.1c3.4-3.1,12.2-4.1,19.5-0.4
		c5.6,2.8,12.1,8.7,11.1,21.8c-0.1,2,1,3.8,2.9,4.5c1.7,0.8,3.8,0.3,5.1-1.2c5-6,13.6-9.3,21-8c7.2,1.2,12.7,6.7,16,15.7
		c0.8,2,2.8,3.3,5,2.9c2.1-0.4,3.7-2.2,3.7-4.3c0.1-3.9,5.5-11.7,13.9-14.6c5.9-2.1,14.8-2.4,23.6,8.3c1.3,1.7,3.7,2.1,5.5,1.2
		c2-1.1,2.9-3.1,2.2-5.2c-1.4-5.2,1.6-14.8,8.1-20.2c6.4-5.1,14.6-5.4,23.5-0.7c1.7,0.9,3.8,0.7,5.2-0.8c1.3-1.3,1.7-3.4,0.8-5.1
		c-3.5-6.8-3-16.3,1-22.7c3.9-6,10.7-9,19.8-8.7c2,0.1,3.9-1.2,4.5-3.3c0.5-2-0.3-4.1-2.1-5.1c-4.6-2.5-9-11.3-8-19.7
		c0.7-5.8,3.9-13.4,16.1-16.9c2-0.5,3.4-2.4,3.3-4.5C197.6,66.6,196.2,64.9,194.2,64.5L194.2,64.5z"/>
	<path fill="#DE6226" d="M193.3,68.8c-28.4,8.3-20.8,38.3-9.2,44.8c-26.4-1.3-32.1,23.9-24.9,37.8c-26.6-14-41.7,13.1-38,26.1
		c-20.1-24.4-45.2-3-45.4,8.9c-9.3-26-34.2-21.5-44.7-9c2-29.1-28.6-33.7-38.1-25C4,136.7-7.7,110-32.4,114
		c13.6-9.4,17.7-36-9.2-45.1C-30.5,68-9,44.1-32.7,24.4C-4.4,26.2,1.7,0-7.4-13.7c21.6,12.6,41.8-5.1,38.3-25.7
		c17.6,21,41.4,7.6,45-9.2c13.6,33,42.9,15.1,45.6,8.4c0,0-3.8,14.7,10.5,25c0,0,12.8,9.8,27.4,0.3c0,0-10.2,10.7-1.7,28.6
		c0,0,9.8,14.9,27.5,11.3c0,0-13.2,10.7-9.2,25.8C176,50.8,179.7,66,193.3,68.8L193.3,68.8z"/>
	<path fill="#FFFFFF" d="M-12.8,68.9c0-48.9,39.7-88.6,88.6-88.6s88.6,39.7,88.6,88.6c0,49-39.7,88.6-88.6,88.6
		S-12.8,117.9-12.8,68.9L-12.8,68.9z"/>
	<path fill="#FFFFFF" d="M-14.1,251.1c0,0-3.4-2.1-5.9-5.2c-4.3-5.5-3.8-20.6-3.1-25c1.2-12.6,8.7-21.6,13.6-26.9
		c5-5.1,12.3-9,15.7-11.3C2.8,163,0,143.9,4.7,108.6c3-22.5,13.8-50.9,17.2-56.4c0.5-1.2,0.7-2.1,0.4-2.5c-0.3-0.7-1.8-1.7-4.8-2.2
		c-0.9,0-4.7-0.1-8.9,0.7H8.1H7.8c-0.8,0-3.8-0.3-5.6-2.4c-1.1-1.3-1.6-2.9-1.6-4.5v-0.1v-0.1c0.1-0.8,0.9-7.7,8.8-14.5
		c1.8-2,21-20.5,56.4-14.3c11.8-8,24.9-14,39.3-18c3.4-11.7,12.7-18,14.3-18.9c18.6-12.8,44.6-8.7,54.1-2.9
		c8.4,5,18.6,13.5,16.6,34.2c8.5,7.6,12.2,18.5,12.8,20.3c0.4,1.2,2.6,6.8,2.5,13.1c3.5,3.4,10.2,9,11.9,12.6
		c2.4,4.6,3,9.6,2.4,13.5c-0.9,5-4.9,8.5-9.4,10c-5.1,1.4-18.6-1.8-20.7-2.6c-3.7-1.2-11.4-2.8-13.8-3c-8.3-0.8-10.7-0.9-20.2,0.4
		c-2,0.3-3.1,0.4-4.3,0.8c2.5,12.3-2.2,26-3.1,27.1c-2.6,3.4-5.6,5.6-8.8,5.8c-3.9,0.3-6.4-2.5-6.7-2.9h-0.1
		c-2.8-3.4-5.1-6.6-7.2-9.3c-1.6-2.2-3.3-4.5-4.7-6.2c-2,8.7-6.7,20.6-15.6,29.1c-5,5.9-16.9,14.9-27.1,14.4
		c-2.9-0.1-4.9-1.3-6.3-4.1c-1.2-2.5-1.3-6-0.3-8.7c0.1-0.3,0.9-2.6,1.7-6.4c-6.9,4.1-14.6,10.2-21.2,17.3
		c-5.4,5.8-19.9,32-21.1,53.6c14.3,2,21.9,6.7,25.7,14.5c2.6,5.4,3,11.3,1.4,18.2c-1.4,5.9-6.8,7.9-6.8,7.9s-0.1-2.4-1.3-3.5
		c-3.1-2.6-7.1-1.2-8-0.8c-1.4,0.7-3.3,1.6-6.7,1.7c-2.9,0.1-5.2-0.7-6.9-1.6c-1.7,1.8-4.3,4.1-7.9,4.8c-10,2.6-20.2,8.8-21.6,10.6
		c0,0-5.8,5-3.8,16.4c0,0,0.5,3.4-2.5,3C-7.7,253-12.1,252.6-14.1,251.1L-14.1,251.1z"/>
	<path fill="#13264B" d="M146.4,67.5c4.2,7.3,0,27.7-1.3,29.5c-5,6.9-9.7,2.2-9.7,2.2c-8.1-9.6-12.6-18.5-17.2-19.3
		c-0.8,6.8-4.9,22.5-15.7,32.8c-0.9,1.2-13.1,14-24.9,13.4c-0.7-0.1-2-0.7-2.6-2.1c-1.2-2.5-0.3-4.8,0-5.6c0.1-0.5,2.2-10.2,3-18.4
		c-46.5,23.9-52.2,84.8-52.2,84.8c8.9,0.9,22.8,3.7,27.4,13.1c2.4,5,2.6,11.1,1.2,15.3c-0.7,1.8-1,2.9-2,3.8
		c-0.3-2.8-4.5-4.5-8.7-3.7c-2.9,0.5-4.1,2.2-8.8,2.4c-4.6,0.1-7.7-2.8-7.7-2.8c-1.8,5.5-7.7,6.2-7.7,6.2
		c-16.8,4.3-22.9,11.7-22.9,11.7c-7.2,8-5,17.4-5,17.4s-7.1,1.6-10.2-7.5c0,0-3.1-9.2-1.7-19c1.3-10.1,6.8-18,13.2-24.5
		c6.6-6.8,17.4-12.6,17.4-12.6c-3.4-20.2-6.9-39.2-2.1-75.5C11.4,86.4,22.5,58,25,54.1c2.9-6.2-0.7-9.3-7.3-10.5
		c0,0-4.5-0.1-9.8,0.7c0,0-3.7,0-3.5-2.8c0,0,0.5-6,7.5-12.1c0,0,18.4-19.5,53.7-13.2l1.3,0.1C80.7,6.5,95.4,0.7,108.1-2.5
		c2.5-12.7,14.3-19.4,14.3-19.4c0.9-0.3-0.3,1.2,0.7,0.8c-7.1,6-15.1,18.6-5.8,42.3c0,0-0.1-2.8,0.7-5.4c0,0,3.4,20.1,21.2,18.1
		c0,0,12.8-0.1,17.2-16.1c0,0,1.6-8,7.5-11.4c1.1-1,1.7-1.3,3.7-2.9c2-2.1,2.2-3.7,1.6-8.3c-0.8-7.9-4.1-19-19.3-21.9
		c0.1-0.3,0.3-0.7,0.3-0.9c10.4,0.9,24.5,6.4,24.4,29.2c0.1,0.1,0.4,0.3,0.5,0.4c0,0,2.6-0.4,4.7,0.4c0,0,0.3-0.1,0.4-0.4
		c2.8-22.7-17.6-29.4-17.6-29.4c6,2,8.7,3.3,8.7,3.3s18.1,6.6,15.6,32.8c9.4,7.3,13.4,19.5,13.4,19.5s2.2,6.4,2.6,14.3
		c0,0,8.1,6.9,10.4,10.6c0,0,2.1,3,2.6,8c0,0,0.5,2.6-0.9,6.3c0,0-2.2,6.4-12.8,4.5c-5.4-0.5-9.4-1.8-9.4-1.8
		c-5.6-1.7-12.5-2.9-16.6-3.5c-8.5-1.3-16.3-1-20.8-0.5C155,66,147.9,67.1,146.4,67.5L146.4,67.5z"/>
	<path fill="#FFFFFF" d="M117.3,21.2c0,0-0.1-2.8,0.7-5.4c0,0,3.4,20.1,21.2,18.1c0,0,12.8-0.1,17.2-16.1c0,0,1.6-8,7.5-11.4
		c1.1-1,1.7-1.3,3.7-2.9c2-2.1,2.2-3.7,1.6-8.3c-0.9-9.3-5.4-23.5-29.6-22.5c0,0,35.1-6.9,35,29c0.1,0.1,0.4,0.3,0.5,0.4
		c0,0,2.6-0.4,4.7,0.4c0,0,0.3-0.1,0.4-0.4c2.8-22.7-17.6-29.4-17.6-29.4s1.2,0.3,2.9,0.8c-7.5-3-15.5-2.6-15.5-2.6
		c-8.1,0.1-14.6,1.4-19.5,3.4c0,0,0.1,0,0.3,0C130.6-25.7,102.7-16,117.3,21.2L117.3,21.2z"/>
	<path fill="#015E6A" d="M213.1,62.9c1.2,7.1-7.6,7.1-7.6,7.1c-10.6-0.9-11.7-2-19.8-6.4c0,0-28.7-17.4-62.1,0c0,0-0.5,0.7-1.2,1.7
		c9.3-15.6,28.8-15.3,28.8-15.3c-6.7-11.9-47.8,4.6-47.8,4.6c18-3.8,22-2.1,22-2.1h-0.1c-10.5,2.9-13.8,24.1-13.8,24.1
		c-3.4,17.7-4.3,22.2-10,30.5c-2.2,3.3-7.5,9.8-17.7,11.9c0.3,0,0.5,0,0.8,0c-0.3,0-0.5,0-0.9,0c-0.4,0-0.8-0.3-0.8-0.3
		s-2.2-0.8-1.1-5c0,0,4.6-12.7,4.2-26.6c-0.4-8.7-2.1-13.2-3.1-16.6c-0.3-0.7-0.5-1.3-0.8-2.2c0,0,2.9-6.8,6.2-9.2
		c0,0-21.2,8.4-37.5,29c0,0,6.7-22.7,44.8-37.8c0,0-42.1,2.2-70.7,64.4c0,0-16.5,34.3-5.6,72.4c0,0-1.6-15.2,6.7-23.6
		c0,0-7.5,19,1.6,34.7c0,0,3.1,8.7,12.5,8.8c0,0,9.6-0.9,10.2,4.5c-0.4-0.4-0.9-0.8-1.3-0.9c-0.7-0.4-1.3-0.9-4.1-0.9
		c-3.1,0-3.9,1.3-8.5,1.7c-2.8,0.3-8.5,1.1-12.2-7.1c0,0,2.1,9-7.1,11.4c0,0-12.1,4.2-17.4,7.3c0,0-10.5,5.5-11.4,17.7
		c0,0,0.3,1.7-1.2,1.7c0,0-1.2,0.1-2-2.6c0,0-8.7-23.2,12.6-41.3c2.6-2.4,5.6-4.2,8.5-5.9c9-3.7,12.7,3.7,12.7,3.7
		c-5.1-10-7.7-25.8-8.7-31.1c0-0.5,0-1-0.1-1.6c-4.2-38.9,6.4-76.9,10.7-88c2.4-6.3,5.1-12.1,8.1-17.4l-0.1,0.3c3.7-5.8,4.1-9,4.1-9
		c0.9-4.3-3-7.7-3-7.7c-3.8-4.2-13.9-2.8-13.9-2.8s-2.6,0.4-2.1-1.7c0,0,0,0,0-0.1c1.3-2,3.7-3.9,6.3-5.6
		c23.5-13.8,21.6,5.4,21.6,5.4c9.2-11.3,20.7-15.9,20.7-15.9C22.9,52,21.1,99.2,21.1,99.2C38.8,20.8,99.4,5.7,108.2,8.6
		c0.4,0.5,2.1,2.5,3,3.4c-1.2-6.3-1.6-14.6,1.8-22.2c0,0,4.1-11.9,17.6-15.6c0,0-3.8,1.3-7.9,4.9c-1.8,1.6-3.8,3.7-5.5,6.4
		c-0.4,0.8-0.9,1.6-1.3,2.5c-0.7,1.2-1.2,2.6-1.6,4.2c-0.8,2.5-1.3,5.4-1.3,8.5c-0.1,5.6,1,12.5,4.2,20.5c0,0-0.1-2.8,0.7-5.4
		c0,0,3.4,20.1,21.2,18.1c0,0,12.8-0.1,17.2-16.1c0,0,1.7-8.5,7.5-11.4c1.1-1,1.7-1.3,3.7-2.9c1.7-1.7,1.8-3.1,1.8-3.1
		c0.4-2.2-0.3-5.1-0.3-5.1c-0.9-9.3-5.4-23.5-29.6-22.5c0,0,35.1-6.9,35,29c0.1,0.1,0.4,0.3,0.5,0.4c0,0,2.6-0.4,4.7,0.4
		c0,0,0.3-0.1,0.4-0.4c2.8-22.7-17.6-29.4-17.6-29.4s24.6,3.5,21,34.2c-3-1.6-9-2.1-14.7,0.3c-6.7,3.3-9.6,10.5-9.6,10.5
		c7.2-9.7,16.1-9.7,21.6-8.4c5.8,3.4,14.6,11,17.2,26.2c0,0,0.1,0.1,0.1,0.3c-1.7-4.5-7.5-16.6-20.1-21.5c0,0,9.3,6.3,14.2,19.7
		c0.7,1.8,2.5,6.6,0.5,7.1c-3.4,1.3-13.8,2-20.5,0c-2-0.7-2.9-1-3.8-1.7c-0.4-0.1-0.9-0.4-0.9-0.4c-2.1,1.4-3.9,1-3.9,1
		c2-0.5,2.6-2.2,2.6-2.2c-1.7-0.1-2.9-2-2.9-2c-2.5-3-4.6-3.8-4.6-3.8c-4.9-1.8-7.1,1.3-7.3,1.8c-0.7,1.6,0.1,4.2,5.2,8.1
		c-1.3-2.8-2.1-5.8,0.9-6.7c0.1,0,0.3-0.1,0.3-0.1c1.7-0.1,3.4,1,4.2,1.8c-0.4,0.1-0.8,0.5-0.9,1c-0.5,1.2,0.3,2.8,1.7,3.4
		c0.5,0.3,1.2,0.3,1.8,0.1c0.8,0,1.7-0.3,2.8-0.8c4.6,2.4,11.1,3.5,16.4,3.8c0,0,11.5,0.7,14.8-0.5c10,5.5,13.2,11.9,13.4,12.6
		c1.6,4.7-5.2,4.7-5.2,4.7c-9.6-0.3-13.2-3.7-19.8-6.7c-7.3-3.4-4.7-2.4-11.8-4.7c0,0-7.2-2.4-9.2,0.3c0,0,0.1-0.1,0.4-0.4
		c0,0,2.8-0.4,7.6,2c5.4,2.8,10.4,5.1,15.6,7.6c0,0,7.7,6.6,16.3,5.8l3.1,0.3L213.1,62.9L213.1,62.9z"/>
	<path fill="#015E6A" d="M120.3,3.2c0,0-3.1-0.3-4.5-2.9c0,0-0.1-14.7,13.8-21.9C129.6-21.5,117.3-14.1,120.3,3.2L120.3,3.2z"/>
	<path fill="#015E6A" d="M116.6,4.3c0,0,1.4,1.2,2.2,1.2c0,0,0.3,3.9,2.2,7.9C121.1,13.3,116.4,9.4,116.6,4.3L116.6,4.3z"/>
	<path fill="#015E6A" d="M140.6,19.8c-2.9,1.4-3.1,4.5-3.1,4.5c-0.4,2.8,0.7,4.8,0.8,5.1c0.4,0.1,0.8,0.3,1.3,0.3
		c2.1,0,3.8-2.2,3.9-5C143.5,22.3,142.2,20.4,140.6,19.8L140.6,19.8z"/>
	<path fill="#13264B" d="M137.5,24.2c0,0,0.3-3,3.1-4.5c-0.4-0.1-0.7-0.1-1.1-0.1c-2.1,0-3.9,2.2-3.9,5c0,2.1,1.2,4.1,2.6,4.7
		C138.1,29.1,137.1,27,137.5,24.2L137.5,24.2z"/>
	<path fill="#DE6226" d="M129.9-12.2c1.1,0.4,1.2,1,1.1,1.8l-1.2,13.2c-0.1,0.7-0.5,1.4-1.4,1.4h-0.4c0,0-0.4,0.1-0.4,0.3v0.9
		c0,0,0.1,0.3,0.3,0.4c0.1,0.1,6.2,0.8,6.2,0.8s0.3-0.1,0.4-0.3l0.1-1l-0.3-0.3c-1.6-0.3-1-1.4-1.2-1.8l0.8-8.3l4.7,12.2l2.6,0.4
		l5.8-11.1l-0.8,8.4c-0.1,1.2-0.7,1.4-0.9,1.4h-0.4c0,0-0.4-0.1-0.5,0.4v0.5c0,0-0.1,0.5,0.3,0.7l8,0.9c0,0,0.3,0,0.4-0.3l0.1-0.9
		c0,0-0.3-0.4-0.4-0.4c0,0-1.2-0.1-1.3-1.8l1-13.2c0,0,0-1.3,1.6-1.4c0,0,0.4-0.1,0.5-0.4l0.1-1c0,0-0.1-0.4-0.4-0.4
		c-0.1,0-6.9-0.8-6.9-0.8l-6,10.4l-4.3-11.7l-7.3-0.8c0,0-0.4,0-0.4,0.4c0,0.3-0.1,0.9-0.1,0.9s0,0.4,0.1,0.4
		C129.3-12.4,129.9-12.2,129.9-12.2L129.9-12.2z"/>
	<path fill="#DE6226" d="M179.1,2.3c0.3-23.6-15.6-27.1-15.6-27.1c12.8,6.9,12.8,21.4,12.3,26.7C176.7,1.9,178,1.9,179.1,2.3
		L179.1,2.3z"/>
	<path fill="#FFFFFF" d="M168.7,39.4c0.3-0.3,0.7-1.4,0.5-2.5c-0.3-1.6-2.1-6.9-9.2-7.5c-7.2-0.7-8.5,4.3-8.5,4.3s2.2-3.8,7.3-1.8
		c0,0,2.1,0.8,4.6,3.8c0,0,1.2,1.8,2.9,2c0,0-0.7,1.7-2.6,2.2c0,0,1.8,0.4,3.9-1C167.6,38.9,168.4,39.3,168.7,39.4L168.7,39.4z"/>
	<path fill="#FFFFFF" d="M164.7,41.5c-0.7,0.1-1.3,0.1-1.8-0.1c-1.4-0.7-2.2-2.2-1.7-3.4c0.1-0.5,0.5-0.9,0.9-1
		c-0.8-0.8-2.5-2-4.2-1.8c0,0-0.8,3,0.4,4.7c0,0,2,3.4,6.7,2.4c0,0,1.3-0.3,2.8-1.3c-0.1-0.1-0.3-0.1-0.3-0.1
		C166.4,41.3,165.5,41.5,164.7,41.5L164.7,41.5z"/>
	<path fill="#FFFFFF" d="M201.3,63.9c0,0,10.5,3.8,11.8-2.8c2.5,10.7-12.7,4.9-12.7,4.9c-4.5-1.2-24.5-13.4-24.5-13.4
		c-4.2-2.5-6.6-2.6-6.6-2.6c-0.8-0.1-2.9-0.3-2.9-0.3c1.3-0.8,5.4-0.3,10.2,2.1C176.7,51.9,196.8,63.2,201.3,63.9L201.3,63.9z"/>
	<path fill="#FFFFFF" d="M191.9,67.2c-11-4.3-19.1-4.7-19.1-4.7c-32.9-3-53.5,10.2-53.5,10.2c0.9-4.7,4.3-9.2,4.3-9.2
		c34.3-18.7,63.6,0.9,63.6,0.9s5.8,3,6.7,3.3C193.8,67.7,192.6,67.5,191.9,67.2L191.9,67.2z"/>
	<path fill="#FFFFFF" d="M125.5,52.4c0,0-7.6,4.7-10,23.7c-1,9.8-3.1,21.8-13.2,33c-3.4,3.8-8.9,9.7-18.5,9.8
		c10.2-2.1,15.5-8.6,17.7-11.9c5.6-8.4,6.6-12.8,10-30.5C111.5,76.5,114.8,55,125.5,52.4L125.5,52.4z"/>
	<path fill="#FFFFFF" d="M79.1,94.1c0,0,1.7-8.5-1.3-15.5c0,0-42.2,17.8-46.3,67C31.5,145.6,37.2,117.4,79.1,94.1L79.1,94.1z"/>
	<path fill="#FFFFFF" d="M22.5,24.9c20.3-12.3,42.1-6.8,42.1-6.8s-2.4,1.2-4.3,2.5C60.3,20.5,42.8,15.3,22.5,24.9L22.5,24.9z"/>
	<path fill="#FFFFFF" d="M2.4,215.2c-10.5,1.8-14.9,13-14.8,19.1c0,0-5.8-26,17.6-37c0,0,10.1-4.5,11,6.4
		C16.3,205.4,18.6,212.2,2.4,215.2L2.4,215.2z"/>
	<path fill="#FFFFFF" d="M205.6,50.8c0,0,10.5,7.6,0.1,8.5C205.8,59.4,210.9,55.9,205.6,50.8L205.6,50.8z"/>
	<path fill="#015E6A" d="M143.6,71.5l-3.9,0.9c0,0,4.2,2.6,2.9,21.8C142.6,94.2,147.8,81.2,143.6,71.5L143.6,71.5z"/>
	<path fill="#015E6A" d="M32.5,189.5c0,0,17.7,0.5,18.6,12.1c0,0-1.6-4.7-8.7-5.1C42.4,196.5,31.5,195.4,32.5,189.5L32.5,189.5z"/>
</g>
</svg>
