<?xml version="1.0" encoding="utf-8"?>
<!-- Generator: Adobe Illustrator 18.0.0, SVG Export Plug-In . SVG Version: 6.00 Build 0)  -->
<!DOCTYPE svg PUBLIC "-//W3C//DTD SVG 1.1//EN" "http://www.w3.org/Graphics/SVG/1.1/DTD/svg11.dtd">
<svg version="1.1" id="NEW_ENGLAND_PATRIOTS" xmlns="http://www.w3.org/2000/svg" xmlns:xlink="http://www.w3.org/1999/xlink"
	 x="0px" y="0px" viewBox="-124.8 -116.6 500 350" enable-background="new -124.8 -116.6 500 350" xml:space="preserve">
<g>
	<g>
		<path fill="#FFFFFF" d="M332.5-28.4c-40.8,11.8-74.4-16.3-125-15.5l-0.1,0c0,0-69.6-2.1-136.4,23.1C3.7,3.3-42.5,21.5-86.1,26.7
			c-10.2,1.6-11.2,17.2,1,18c40.3,1.5,67.6-1.3,94.2-6.6C5.4,49.8,17.2,51,17.4,51c31.7,4,57.3,0.7,82.4-4.5
			c-6.4,7.7-1.2,14.6,4.3,15.8c94.4,16.7,130.3,64.5,164.9,98.5c9.7-1.3,30.4-13.6,23.7-38.5c0,0,2.5-5.5,2.5-9.9l11.9-7.1
			c0,0-5-25.2-5.7-28.1c6.5-3.4,18.4-9.3,18.4-9.3s21.5-75.8,24.1-85.5C346.3-26.4,337.2-29.7,332.5-28.4z M-84.9,35.7
			C-9.5,25.4,52.8-10.4,116.8-24.8c2,7.8,5.7,23.4,5.7,23.4C30.8,17.9,21.2,39.1-84.9,35.7z M17.4,41.9c50.1-7.3,80.4-26,108.8-31.9
			c1.7,7,3.9,14.2,5.3,19.8C56.9,50.1,17.4,41.9,17.4,41.9z M312.2,61.6C305,65,298,68.6,291,72.5c2.4,9.2,3.8,19.2,5.9,28.4
			l-10.9,6.4l0,6.7l-3.4,8.9c4,5.3,2.9,13-0.3,18.4c-2.7,4.3-6.9,7.6-11.2,10c0,0-61.3-83.3-165.7-97.9
			c29.4-4.7,40.5-18.1,91.3-17.9c-18-9.9-41.1-10.7-62.2-6c-1.1-4.4-5.1-20.5-5.1-20.5c13.6-3.9,27.6-5.5,42-6.5
			c-13.7-5.2-28.9-5.8-44.8-4.4c-1.9-7.9-3.5-15.5-5.6-23.8c27-6.2,57.2-9.3,86.1-9c33.8,0.2,79.1,15.5,79.1,15.5
			c15.3,4.2,33.1,4.2,48.7-0.4C332.9-9.9,312.2,61.6,312.2,61.6z"/>
		<path fill="#FFFFFF" d="M291.9,11.9c-1-4.1-3-15.9-3.6-17L278,8.3c0,0-13.9-3.6-21.6-5.2c4.9,5.1,9.6,9.7,13.9,14.8
			c-4.1,6.2-9.3,12.1-13.6,18.1c7.9-2.7,16-5.1,23.9-7.8c5.7,5.8,11.8,12.1,17.5,17.7c-1-7.6-3.2-15.1-3.9-22.3l18-6.1
			C305.6,15.3,298.5,14,291.9,11.9z"/>
	</g>
	<g>
		<path fill="#0D254C" d="M286.4-19.3c0,0-45.3-15.3-79.1-15.5c-28.9-0.2-59,2.9-86.1,9c2.1,8.2,3.7,15.9,5.6,23.8
			c15.8-1.4,31-0.8,44.8,4.4c-14.4,1-28.4,2.6-42,6.5c0,0,3.9,16,5.1,20.5c21.1-4.7,44.2-3.9,62.2,6c-50.8-0.1-61.9,13.3-91.3,17.9
			C210,68,271.3,151.3,271.3,151.3c4.2-2.4,8.5-5.7,11.2-10c3.2-5.4,4.3-13.1,0.3-18.4l3.4-8.9l0-6.7l10.9-6.4
			c-2.2-9.2-3.5-19.2-5.9-28.4c7-3.9,14-7.5,21.1-10.9c0,0,20.7-71.5,22.9-81.3C319.5-15,301.7-15,286.4-19.3z M274,97l-2.6,3.3
			c2.9,1.1,6.2,3,9.1,4.2l-0.2,3.6l-8,0.2c-3.6,2.7-6.5,5.3-10.1,8c0,0,7.8-1.3,11.8-2.4l7.5,0c-0.8,2.2-1.7,4.1-2.6,6.1l-7.4,0.3
			c0,0,4.5,5.4,7.6,8.8c3.5,5.9-6.1,13.2-6.1,13.2c-17.1-19.1-35.8-39.2-58.5-52.2c2.3-3.6,5.7-5.5,9.8-5.1
			c8.5,1.6,15.7,7.3,17.8,9.5c2.6,2.8,7.4,10,8.8,11c-0.7-5.8-2.8-11.6-4.2-17.4l-25.6-17.6c2.7-7.2,12-12.2,20.1-12.4
			c7.8-0.2,15.5-0.2,21.3,4.4c-13.4-0.2-18.2,6.5-20.2,12.7c-0.1,0.5,27.3-0.1,27.3-0.1c1-2.8,1.4-5.8,3.5-8.2c2.1-3,6-4.1,9.4-4.2
			c0.6,2.3,6.7,33.9,6.7,33.9C283.8,96.8,279.3,96.7,274,97z M298,45.8c-5.7-5.6-11.8-11.9-17.5-17.7c-7.9,2.7-16,5.1-23.9,7.8
			c4.3-6,9.5-11.9,13.6-18.1c-4.3-5.1-9.1-9.7-13.9-14.8c7.7,1.6,21.6,5.2,21.6,5.2L288.3-5c0.6,1.1,2.6,12.9,3.6,17
			c6.7,2,13.7,3.4,20.2,5.5l-18,6.1C294.8,30.7,297.1,38.3,298,45.8z"/>
	</g>
	<path fill="#D6D6D6" d="M273,67c-2,2.4-2.4,5.4-3.5,8.2c0,0-27.4,0.6-27.3,0.1c2-6.2,6.8-12.9,20.2-12.7
		c-5.8-4.6-13.5-4.7-21.3-4.4c-8.1,0.2-17.4,5.2-20.1,12.4l25.6,17.6c1.4,5.8,3.4,11.6,4.2,17.4c-1.4-1-6.2-8.2-8.8-11
		c-2-2.1-9.3-7.8-17.8-9.5c-4.1-0.4-7.5,1.5-9.8,5.1c22.7,12.9,41.4,33,58.5,52.2c0,0,9.6-7.2,6.1-13.2c-3.1-3.4-7.6-8.8-7.6-8.8
		l7.4-0.3c0.9-2,1.8-3.9,2.6-6.1l-7.5,0c-4,1.1-11.8,2.4-11.8,2.4c3.6-2.7,6.5-5.3,10.1-8l8-0.2l0.2-3.6c-2.9-1.2-6.2-3.1-9.1-4.2
		l2.6-3.3c5.3-0.3,9.8-0.2,15.1-0.3c0,0-6-31.7-6.7-33.9C279,62.9,275.1,63.9,273,67z"/>
	<g>
		<path fill="#C0001D" d="M126.2,10c-28.4,6-58.7,24.6-108.8,31.9c0,0,39.5,8.2,114-12.1C130,24.1,127.8,17,126.2,10z"/>
		<path fill="#C0001D" d="M116.8-24.8C52.8-10.4-9.5,25.4-84.9,35.7c106,3.4,115.7-17.8,207.4-37.1C122.5-1.4,118.8-17,116.8-24.8z"
			/>
	</g>
</g>
</svg>
