<?xml version="1.0" encoding="utf-8"?>
<!-- Generator: Adobe Illustrator 18.0.0, SVG Export Plug-In . SVG Version: 6.00 Build 0)  -->
<!DOCTYPE svg PUBLIC "-//W3C//DTD SVG 1.1//EN" "http://www.w3.org/Graphics/SVG/1.1/DTD/svg11.dtd">
<svg version="1.1" id="Layer_1" xmlns="http://www.w3.org/2000/svg" xmlns:xlink="http://www.w3.org/1999/xlink" x="0px" y="0px"
	 viewBox="-147 -50 500 350" enable-background="new -147 -50 500 350" xml:space="preserve">
<g>
	<g>
		<path d="M200.9,93.6c-22.2-12.9-44.1-9.9-60.7-2.5c-0.7-5.5-2.2-11.4-4.5-18.4c-3.5-10.4-7.4-20.4-10.8-29.2
			c-4.5-11.5-7.9-21.4-9.7-28L103.1-26L90.5,15.5C88.6,22,85.3,32,80.9,43.5c-3.4,8.8-7.2,18.7-10.7,29.2c-2.4,7-3.8,13-4.5,18.5
			C49.1,83.8,27.2,80.9,5,93.8c-18.1,10.6-27.8,29-25.4,48.1c2.3,17.3,14.1,31,31,35.6l12.5,3.4l3.1-12.6c0.4-1.7,5-17.5,19.2-17.2
			c9.9,0.2,18.1,8.9,22.1,14.6c-1.3,4-2,8.8-1.4,13.9l-5.6-7.4l-10.1,7.5c-9.1,6.8-22.2,23.4-14.1,43.1c3.6,8.6,11.2,14.5,21.5,16.5
			c6.3,1.3,13.5,1,20.1-0.5c2.6,8.4,7.4,18.5,16,27.6l9.1,9.5l9.1-9.6c8.6-9.1,13.4-19.2,16-27.6c6.6,1.4,13.8,1.7,20.1,0.5
			c10.3-2.1,17.9-8,21.4-16.6c8.1-19.7-5.1-36.4-14.2-43.1l-10.1-7.5l-5.6,7.4c0.7-5.1-0.1-9.9-1.4-13.9
			c4.1-5.7,12.2-14.4,22.1-14.6c14.2-0.3,18.8,15.4,19.3,17.3l3.1,12.6c0-0.1,12.5-3.6,12.5-3.6c16.8-4.6,28.6-18.3,30.9-35.7
			C228.8,122.6,219.1,104.2,200.9,93.6"/>
	</g>
	<path fill="#FFFFFF" d="M98.9,17.2c-1.5,7.2-5.5,17.5-10.1,29.4c-3.3,8.7-7.2,18.6-10.6,28.8c-3.3,9.8-4.6,17.2-4.6,24
		c0,2.2,0.2,4.3,0.5,6.5c-12.7-8.7-37.6-20.6-64.8-4.7c-15.1,8.8-23.2,24-21.2,39.6c1.8,13.8,11.3,24.8,24.7,28.5l4,1.1l1-4
		c0.3-1,6.2-24.2,27.7-23.8c17.3,0.4,28.5,17.1,31.6,22.3c-1.5,2.7-2.7,6.4-2.7,10.6c0,4.6,1.5,9.7,5.5,14.9c-1.6,2.1-4.1,4.7-7.2,5
		c-4.3,0.4-8.6-4.2-11.5-8l-2.4-3.2l-3.2,2.4c-6.6,4.9-17.5,18.1-11.3,33c2.5,6,7.7,9.9,15.2,11.4c7.8,1.5,17.6,0.2,24.5-3
		c1.3,7.9,5.2,21.2,16.1,32.6l2.9,3.1l2.9-3.1c10.9-11.4,14.7-24.8,16-32.6c7,3.2,16.8,4.5,24.6,3c7.5-1.5,12.8-5.4,15.2-11.4
		c6.1-14.9-4.8-28.1-11.4-33l-3.2-2.4l-2.4,3.2c-2.9,3.9-7.2,8.4-11.5,8.1c-3-0.2-5.6-2.9-7.2-5c3.9-5.2,5.5-10.3,5.5-14.9
		c0-4.3-1.2-8-2.7-10.7c3-5.2,14.3-22,31.5-22.4c21.4-0.5,27.5,22.7,27.7,23.7l1,4l4-1.1c13.4-3.7,22.9-14.6,24.7-28.5
		c2-15.6-6.1-30.7-21.3-39.5c-27.3-15.8-52.2-3.9-64.8,4.9c0.2-2.1,0.5-4.2,0.5-6.3c0-6.9-1.4-14.4-4.7-24.2
		c-3.5-10.2-7.3-20.1-10.6-28.8c-4.6-11.9-8.6-22.2-10.1-29.4l-4-18.5L98.9,17.2"/>
	<path d="M103.2,257.7c15.4-16.2,15.6-36.7,15.6-36.7c6.8,6.8,33.4,11.4,39.3-3.1c6.5-15.9-10.1-28.2-10.1-28.2
		c-16.1,21.5-26.9,0.4-26.9,0.4c12.2-13.2,3.1-25.1,3.1-25.1c0.8-2.4,14.4-26.1,36.1-26.6c25-0.6,31.7,26.8,31.7,26.8
		c26.3-7.3,31.4-43.9,2.4-60.7c-36.7-21.3-68.6,11.2-68.6,11.2c3-12.2,3.8-21.3-2.2-39c-8.1-24.1-18.1-45.6-20.9-58.6
		c-2.8,13-12.7,34.6-20.8,58.6c-6,17.8-5.1,26.9-2.1,39c0,0-32-32.4-68.7-11c-28.9,16.9-23.7,53.5,2.6,60.7c0,0,6.6-27.4,31.7-26.9
		c21.7,0.4,35.4,24.1,36.2,26.5c0,0-9.2,12,3.1,25.2c0,0-10.7,21.1-26.9-0.4c0,0-16.6,12.4-10,28.3c6,14.5,32.5,9.9,39.3,3
		C87.4,221.1,87.6,241.6,103.2,257.7"/>
	<path fill="#C6A876" d="M168.9,103.4c-29.8,0-54.3,33.9-54.3,33.9c1.1-5.5,13.8-30.5,2.3-60.3c-11.6-29.8-13.9-41.8-13.9-41.8
		l0,0.4v-0.3c0,0-2.3,12-13.8,41.9c-11.5,29.8,1.3,54.8,2.4,60.3c0,0-24.6-33.8-54.4-33.8c-29.8,0-54.7,34-27.1,54.1
		c0,0,8.1-25.1,35.9-25.1c20.5,0,41,21.9,41.8,32.8c0,0-9.4,13.2,3.7,24.3c0,0-14.1,29.6-33.6,8.3c0,0-15,18.7,4.6,23.3
		c15.6,3.6,30.9-12.2,30.9-12.2s-1.7,24.9,9.9,38.6v-0.1l0.1,0.1c11.5-13.7,9.8-38.6,9.8-38.6s15.4,15.8,30.9,12.1
		c19.6-4.6,4.6-23.3,4.6-23.3c-19.4,21.3-33.6-8.2-33.6-8.2c13-11.1,3.6-24.3,3.6-24.3c0.8-10.9,21.3-32.9,41.8-32.9
		c27.8,0,36,25,36,25C223.7,137.2,198.7,103.3,168.9,103.4"/>
</g>
</svg>
