<?xml version="1.0" encoding="utf-8"?>
<!-- Generator: Adobe Illustrator 18.0.0, SVG Export Plug-In . SVG Version: 6.00 Build 0)  -->
<!DOCTYPE svg PUBLIC "-//W3C//DTD SVG 1.1//EN" "http://www.w3.org/Graphics/SVG/1.1/DTD/svg11.dtd">
<svg version="1.1" id="NEW_YORK_GIANTS" xmlns="http://www.w3.org/2000/svg" xmlns:xlink="http://www.w3.org/1999/xlink" x="0px"
	 y="0px" viewBox="-122.7 -75 500 350" enable-background="new -122.7 -75 500 350" xml:space="preserve">
<g>
	<g>
		<path fill="#B21E35" d="M299.3-39.2h-54.3L245,89.2c0,3.1-0.8,18.7-13.8,18.7c-4.8,0-7-1.7-8.2-2.9c-4.1-4.1-4.8-12.1-4.8-14.8
			l-0.1-129.5H130l0,52.3l10,0c9.2,0,12.2,2.3,13,3.3c0.9,1,1,2.3,1,3c0,0.4,0,0.6,0,0.6c-0.1,0.3-0.1,0.7-0.1,0.7l0,1.2l0.1,86.2
			c0,16.8,5.6,31.1,16,41.6c10.9,10.9,26.6,16.8,44.1,16.8c12.9,0,23.3-3.1,31.1-6.9c0,1.2,0,2.5,0,3.7c0,8.8-0.3,16.3-1.6,18
			c-0.4,0.3-2.3,1.3-11.5,1.3h-261V243h280.7c20.6,0,36.1-6,46.2-17.5c10.1-11.5,11.3-25.5,11.3-32.7c0-1.8,0.1-3.2,0-4
			c0-0.9,0-228.1,0-228.1L299.3-39.2L299.3-39.2z"/>
		<path fill="#B21E35" d="M-28.9,162.8l62.4,0L33.5,28.9l-0.1-0.7c0-0.1-0.6-5.4,2.5-8.8c2.8-3.1,8.2-3.8,12.2-3.8
			c4.4,0,7.5,1,9.5,3.1c2.9,3,3.5,8,3.5,9.7l0,0.3l0.1,101l0-0.4c-0.1,1.5-0.3,15.4,9,25c5.4,5.6,12.8,8.5,21.5,8.5
			c0,0,53.5,0,53.5,0l0-52.8l-11.4,1.5c-1.3,0.2-5.6,0.2-7.8-1.7c-1.8-1.6-2.4-4.8-2.4-7.3c0-0.3,0,0,0-95.2v0.4
			c0-0.9,0.8-21.2-13.4-35.9C100.8-38.1,87.7-43,71-43c-17.2,0-29.6,4.8-38.4,10.6c0-3,0-6.9,0-6.9h-87.3l0,54.8l12.2-2.6
			c2.4-0.5,8.3-0.8,11.1,1.7c2,1.8,2.6,5.3,2.6,8.5L-28.9,162.8L-28.9,162.8z"/>
	</g>
	<g>
		<path fill="#25316A" d="M159.4,108.2c0,15.3,5,28.3,14.4,37.7c9.9,9.8,24.1,15.2,40.2,15.2c17.1,0,29.4-5.8,36.6-10.7
			c0,1.7,0,4,0,4c0,3.4,0.1,6.6,0.1,9.4c0,11.5-0.5,18.7-3.2,21.4c-2,2.1-6.5,2.9-15.4,2.9l-255.5,0.2v49.2l275.2-0.2
			c18.9,0,33.1-5.2,42.1-15.5c8.9-10.2,10.2-22.5,10.2-28.9c0-2-0.1-3.3-0.2-3.9c0-0.5-0.2-222.8-0.2-222.8h-53.3l0.1,122.9
			c0,1-0.3,24.2-19.3,24.2c-5.2,0-9.1-1.5-12.2-4.6c-6.5-6.7-6.3-18.6-6.3-18.7c0-0.1-0.1-123.9-0.1-123.9h-77.2l0,41.3l4.5,0
			c8.4,0,14.4,1.9,17.3,5.4c2.9,3.5,2.1,7.9,2.1,8V108.2z"/>
		<path fill="#25316A" d="M-23.4,157.3l51.4,0L27.9,29.2l0-0.3c0-0.1-0.9-7.7,3.8-13c3.3-3.8,8.8-5.7,16.4-5.7
			c5.9,0,10.4,1.6,13.5,4.8c5.2,5.3,5,13.5,5,13.6c0,0.1,0.1,101.1,0.1,101.1c0,0.4-0.4,12.7,7.5,20.9c4.4,4.5,10.3,6.8,17.5,6.8
			c0,0,48,0,48,0l0-41.1l-5.2,0.8c-0.1,0-7.5,1-12.1-3c-2.7-2.3-4.1-6.2-4.1-11.4c0,0-0.1-95.2-0.1-95.2c0-0.6,0.6-18.6-12-31.7
			c-8.3-8.6-20.1-13-35.2-13c-22.6,0-36.2,8.8-43.9,16.7c0-3.9,0-12.9,0-12.9h-76.3l0,42.6l5.5-1.2c0.1,0,10.2-2.2,15.9,2.9
			c2.9,2.6,4.5,6.8,4.5,12.6V157.3z"/>
	</g>
</g>
</svg>
