<?xml version="1.0" encoding="utf-8"?>
<!-- Generator: Adobe Illustrator 18.0.0, SVG Export Plug-In . SVG Version: 6.00 Build 0)  -->
<!DOCTYPE svg PUBLIC "-//W3C//DTD SVG 1.1//EN" "http://www.w3.org/Graphics/SVG/1.1/DTD/svg11.dtd">
<svg version="1.1"
	 id="Layer_1" xmlns:svg="http://www.w3.org/2000/svg" xmlns:sodipodi="http://sodipodi.sourceforge.net/DTD/sodipodi-0.dtd" xmlns:inkscape="http://www.inkscape.org/namespaces/inkscape" xmlns:dc="http://purl.org/dc/elements/1.1/" xmlns:cc="http://creativecommons.org/ns#" xmlns:rdf="http://www.w3.org/1999/02/22-rdf-syntax-ns#" sodipodi:docname="New_York_Jets_logo.svg" inkscape:version="0.47 r22583"
	 xmlns="http://www.w3.org/2000/svg" xmlns:xlink="http://www.w3.org/1999/xlink" x="0px" y="0px" viewBox="-125 -104.9 500 350"
	 enable-background="new -125 -104.9 500 350" xml:space="preserve">
<defs>
	
	
		<inkscape:perspective  id="perspective37" inkscape:vp_z="250 : 70.141502 : 1" sodipodi:type="inkscape:persp3d" inkscape:vp_y="0 : 1000 : 0" inkscape:vp_x="0 : 70.141502 : 1" inkscape:persp3d-origin="125 : 46.761002 : 1">
		</inkscape:perspective>
</defs>
<sodipodi:namedview  id="namedview31" gridtolerance="10" inkscape:cy="70.141502" inkscape:cx="37.620332" guidetolerance="10" pagecolor="#ffffff" bordercolor="#666666" showgrid="false" borderopacity="1" objecttolerance="10" inkscape:zoom="1" inkscape:current-layer="Layer_1" inkscape:window-maximized="1" inkscape:window-y="-4" inkscape:window-x="-4" inkscape:window-height="840" inkscape:window-width="1440" inkscape:pageshadow="2" inkscape:pageopacity="0">
	</sodipodi:namedview>
<g id="g3">
	<path id="path5" fill="#0C371D" d="M349.8,70.1C349.8,9.2,250-56,125-56C5.3-56-99.8,9.6-99.8,70.1S5.3,196.3,125,196.3
		C250,196.3,349.8,131,349.8,70.1L349.8,70.1z"/>
	<path id="path7" fill="#FFFFFF" d="M211.9,4.5v13.3h21h0.1l0.1,0c1.1-0.1,3,0.2,3.4,0.9c0.4,0.6,0.2,2.9-2.7,7.5
		c0,0.1-20.3,33.9-27.9,46.4L176.3,25c-2.5-3.8-2.2-5.3-1.9-5.8c0.5-1,1.4-1.3,3.1-1.4h0.1c0,0,0.1,0,0.1,0h15.2V4.5l-114.5,0v13.2
		h14.5c2.9,0,5,0.6,6.2,1.8c2,2,2.4,6.3,2.4,12.1v48.6l-58-75.7h-57.2v13.9H5.2c2,0,3.4,0.4,4.1,1.1c1.5,1.4,1.5,5.1,1.5,8.7v76.3
		c0,12.6-1.3,16.1-6.3,16.1c0,0-18.2,0-18.2,0v12.2h61.3v-12.4H30.2c-2.9,0-5-0.1-5.7-0.8c-1.6-1.6-1.7-8.7-1.7-15.2V37.4l79,95.7
		h12.4c0,0,0.1-106.5,0-108.4c-0.1-2.9,0.7-6.2,5.8-6.9h12.3c5.7,0,9.4,6.9,13.3,13.4c0,0,29.6,50.3,33.5,56.9v24.3
		c0,8.2-3.7,8.2-5.2,8.2h-13.9v12.4h72.8v-12.5h-13.3c-5.1-0.3-6.9-1.8-6.7-9.4c0-0.1,0-20.5,0-25l35.5-59.6
		c5.1-7.9,5.6-8.7,12.6-8.6c0,0,12,0,12,0V4.5H211.9L211.9,4.5z"/>
	<path id="path9" fill="#0C371D" d="M215.3,7.8v6.6h17.7c0,0,13.1-1.1,3.8,13.5l-30.6,51l-32.6-52.1c-8.5-13.4,4.2-12.3,4.2-12.3
		h11.9V7.8l-107.9,0v6.6h11.2c10.7,0,11.9,6.9,11.9,17.2V90L41.9,7.9h-52.2v7.2H5.2c9.9,0,8.8,7.8,8.9,15.3v74.1
		c0,10.3-0.4,19.4-9.6,19.5h-14.9v5.6h54.7v-5.8h-14c-9.4,0.1-10.8-1.3-10.8-19.3V27.3l83.9,102.4h6.8V30.9c0-10.3,0.2-16,9.8-16.4
		h13.6c7.3,0.5,11.1,8.9,16.3,17.8l32.5,55v25.2c0,7.8-3.1,11.5-8.5,11.5h-10.6v5.7h66.1v-5.9h-10.1c-8.1-0.4-10.2-4.6-9.9-12.8
		V85.1l33.5-56.5c7.5-11.2,7.9-14.2,18-14.1h8.7V7.8H215.3L215.3,7.8z"/>
	<path id="path11" fill="#0C371D" d="M175.9,131.3c0-15-22.6-31-50.9-31c-27.1,0-50.9,16.1-50.9,31c0,14.9,23.8,31,50.9,31
		C153.3,162.3,175.9,146.2,175.9,131.3L175.9,131.3z"/>
	<path id="path13" fill="#FFFFFF" d="M172.5,129.6c-1.7-12.8-22.1-25.9-47.5-25.9c-24.3,0-45.7,13.2-47.5,25.9H172.5L172.5,129.6z"
		/>
	<path id="path15" fill="#FFFFFF" d="M77.5,132.9c1.7,12.7,23.2,25.9,47.5,25.9c25.4,0,45.9-13.1,47.5-25.9H77.5L77.5,132.9z"/>
	<path id="path17" fill="#0C371D" d="M107.8,142.3c-6.4,0-11.7-5-11.7-11.1c0-6.1,5.2-11.1,11.7-11.1h34.3c6.4,0,11.6,5,11.6,11.1
		c0,6.1-5.2,11.1-11.6,11.1H107.8L107.8,142.3z"/>
	<path id="path19" fill="#FFFFFF" d="M144,126.3c-0.1-0.3-0.2-0.6-0.2-1h-3.2c0.1,0.3,0.2,0.7,0.3,1.1c0.3,1,0.4,2.1,0.5,3.2h-5.8
		c-0.1-1-0.2-2-0.5-3l-3.1,0c0.3,0.9,0.5,1.9,0.6,2.9h-5.9v-2.8h-3.2v2.8h-5.9c0.1-1,0.3-2,0.6-2.9l-3.1,0c-0.2,0.9-0.4,1.9-0.5,3
		h-5.8c0.1-1.1,0.3-2.2,0.6-3.2c0.1-0.4,0.2-0.7,0.3-1.1h-3.2c-0.1,0.3-0.2,0.6-0.2,1c-0.4,1.6-0.6,3.3-0.6,5c0,2,0.3,4,0.7,5.8
		l3.3,0c-0.4-1.4-0.7-2.8-0.8-4.3h5.8c0.1,1,0.2,2.1,0.5,3l3.1,0c-0.3-1-0.5-2-0.6-3h5.9v2.9h3.2v-2.9h5.9c-0.1,1-0.3,2-0.6,3l3.1,0
		c0.2-1,0.4-2,0.5-3h5.8c-0.1,1.5-0.4,2.9-0.8,4.3l3.2,0c0.5-1.9,0.8-3.8,0.8-5.8C144.5,129.6,144.3,128,144,126.3L144,126.3z"/>
	<path id="path21" fill="#0C371D" d="M273.1,48.1c-3.4-6.4-12.3-10-25.7-10.5c-9.9-0.3-17.6,0.2-23.8,1.8L61.7,39.5
		C66.4,30.7,70,24,70,24H30.1L2.7,75.6c-2.2,3.3-2.5,3.4-4.8,3.2c-0.7-0.1-1.1-0.2-1.4-0.2c0.4-1.4,2-4.2,2.6-5.2
		c0,0,9.5-15.7,9.5-15.7h-37.2l-1.1,1.5C-39.9,73.3-43,84.7-38.7,93c4.1,8,14.1,12,29.9,11.9c15.9-0.1,25.9-0.8,33.8-6h80.8
		L126.6,60h17.9l-20.7,38.8H165l13-24.3h17.5l-0.9,2.2c-3.2,7.8-1.5,13,0.5,16c3.9,5.8,12.3,8.8,24.9,8.8c21.3,0,34.9-2,41.4-11.9
		c5.4-8.2,6.2-15.6,2.3-21c-1.1-1.5-2.8-2.8-4.8-4h11.7l1.1-1.8C275.8,56.2,274.7,51.2,273.1,48.1L273.1,48.1z"/>
	<path id="path23" fill="#FFFFFF" d="M2,61.4h-28.7C-46,88-36.5,101.3-8.8,101.1c25.2-0.2,34.1-1.8,44.6-21l28.1-52.4H32.3L5.8,77.5
		c-2.5,3.6-3.9,5.5-8.4,5c-7.1-0.7-5.2-4.9-1.6-11L2,61.4L2,61.4z"/>
	<polygon id="polygon25" fill="#FFFFFF" points="130,95 162.8,95 183.4,56.6 198.5,56.6 205.8,43.1 139.4,43.1 132.4,56.2 
		150.7,56.2 	"/>
	<path id="path27" fill="#FFFFFF" d="M198,78.1c-5,12.3,2.6,19.6,22,19.7c21.1,0,32.8-2,38.3-10.2c3.7-5.6,5.8-12.1,2.4-16.8
		c-2.4-3.4-10.8-6.3-18.9-7.9c-5.1-1-6.9-2.2-6.6-5.2c0.3-2.7,3.7-3.4,6.3-2.6c2.1,0.6,3,3.2,2.6,5.9h24.4
		c6.6-10.6-1-18.7-21.3-19.5c-25-0.8-34.5,3.8-39.6,16.5c-2.5,5.9-2.1,10.4,1.6,12.8c4.6,3,17.2,4.9,21,6.3c2.3,0.9,2.6,3.7,1.3,5.3
		c-1.5,1.9-5.1,2.8-7.4,1c-1.6-1.2-1.3-2.7-1.8-5.3H198L198,78.1z"/>
	<polygon id="polygon29" fill="#FFFFFF" points="40.8,95.1 103.5,95.1 110.6,82 76.2,82 79.5,75.7 110,75.7 117.2,62.3 88.5,62.3 
		91.4,56.3 122.4,56.3 129.4,43.2 68.6,43.2 	"/>
</g>
</svg>
