<?xml version="1.0" encoding="utf-8"?>
<!-- Generator: Adobe Illustrator 18.0.0, SVG Export Plug-In . SVG Version: 6.00 Build 0)  -->
<!DOCTYPE svg PUBLIC "-//W3C//DTD SVG 1.1//EN" "http://www.w3.org/Graphics/SVG/1.1/DTD/svg11.dtd">
<svg version="1.1" id="Layer_1" xmlns="http://www.w3.org/2000/svg" xmlns:xlink="http://www.w3.org/1999/xlink" x="0px" y="0px"
	 viewBox="-125 -85 500 350" enable-background="new -125 -85 500 350" xml:space="preserve">
<g>
	<path fill="#BACAD3" d="M159.2-28.3L138.8-6.6c33.5-15.2,106.5-42,106.5-42L222-25.2C285.9-46.8,334.4-58,334.4-58
		s-13.8,32.5-34.6,65.3c4-0.7,30.5-5.1,30.5-5.1s-23.6,39.6-51.1,68.7l15.4,2.9c0,0-23.8,34.9-55.5,63.9c-45.4,41.8-69,36.9-69,36.9
		c-33.8,25.6-61.1,14.8-61.1,14.8s11.4-29.4-0.6-31.6c-11.1-2.3-27.7,6.9-29.7,10.4c-2,7.3-11.1,26.1-20.4,37.8
		c-17.9,22.3-37.9,32-37.9,32S4.7,225.7,4.4,203.7c0,0-10.7,11.6-28.3,16.1c-12.4,3.3-29.2,2-46.4-10.9
		c-11.7-8.8-14.1-40.2-14.1-40.2s10.7-20.6,31.6-39.2c-4.7-3.7-7.6-8.4-8.4-11.3C-5.8,91.7-5.8,69.2,38.3,39.6
		C81.8,10.5,109.2-3.4,159.2-28.3"/>
	<path fill="#004D55" d="M132.1-7.9l-17.4,18.6c34.5-16.5,107.4-44.3,107.4-44.3L201-12.5c74.8-26.2,122.3-36.3,122.3-36.3
		S308-14.5,287.5,15.1c9.9-1.5,30.8-4.9,30.8-4.9s-20.7,34.9-51.3,65.1c3.3,0.3,17.4,2.6,17.4,2.6s-18.5,27.7-50.6,56.7
		c-41,37.1-59.4,33.8-59.4,33.8s0.5-1.4,0.3-3.5c0.1-1.2-0.2-2.2-0.2-2.3c-31.5,30.6-58.1,22.1-58.1,22.1s11.5-28.1-6.6-32.7
		c-13.9-3.6-35.2,8.5-36.9,14.5c-1.7,6.6-10.6,24.9-19.3,35.8c-15.2,19-32,28.2-32,28.2s-15.3-10.7-10.2-44.4
		c1-7.4-0.5-10.2-1.3-11.2c-2.6-3.6-22.2,1.4-26.9,12.2c-3.3,7.7,16.3,13,16.3,13s-9,10.1-24.7,14.1c-9.9,2.3-25.2,2.5-41.4-10.1
		c-9.5-7.5-11.7-34.4-11.7-34.4s11.6-21.5,34.4-40.6c-4.5-2.7-8-7.4-8.8-9.2C-6.6,98.4-0.5,70.8,51.5,37.7
		C75.6,22.3,101.2,7,132.1-7.9"/>
	<path fill="#000114" d="M255.5,79.7c1.9,0.3,9.4,1.2,13.7,2.7c-15.7,25.7-62.9,76.9-89.3,80.3c-0.4-4.4-2-7.9-4.2-10.2
		c-9.8,18.1-40.1,30.4-52.7,28.3c15-55.2-49.8-31.1-54.7-16c-12.5,39.4-45.3,59.1-45.3,59.1s-10.6-11-6.3-37.2
		c3.2-19.3-9.3-18-9.3-18c-5.1-0.1-24,3.1-30,16.2c-4.7,10.5,12.2,17,12.2,17s-24.2,20-52.6-1.8c-6.9-5.5-9.7-29.5-9.7-29.5
		c13.5-22.5,31.3-37.2,38.7-42.7c-7.9-2.6-10.3-6.3-10.3-6.3c37.8-18.8,52.4-47.6,84.6-69.9c35.5-24.7,62.6-37.4,62.6-37.4
		L92.5,27.3c0,0,8.5-4,12.2-6.1C138.6,3.5,195.9-17,195.9-17L178.1,0.7c0,0,29.6-11.3,66.9-20.9c19.9-5.1,61.5-15.7,61.5-15.7
		s-9.6,28.2-30.2,57.6c12.6-1.5,26.1-2.9,26.1-2.9S288,47.8,255.5,79.7"/>
	<path fill="#000114" d="M100.9,49.9c-0.5,0.2-0.7,0.3-1.2,0.6c0.4-0.2,0.7-0.4,1.1-0.6L100.9,49.9"/>
	<path fill="#000114" d="M99.4,50.4c0.2,0.1,0.2,0.1,0.3,0C99.6,50.5,99.6,50.5,99.4,50.4"/>
	<path fill="#FFFFFF" d="M144.7,113.2c0,0-18.2-7.6-46.8,2.8c0,0,39.3-24.7,89.3-17.6c-32.4-8.7-61.7-2.3-78.8,4.2
		c-10.1,4.3-16.1,7.6-16.1,7.6s2.5-1.9,7.3-4.8c11.6-8.9,27.6-18.7,43.4-25.9c11-4.9,33-11.7,41.9-12.7c0,0-23-2.6-44,3.6
		c0,0,33.1-14.2,65.3-16.6c10.9-0.6,35.5-0.7,35.5-0.7c-35.6-8.4-72.6-8.5-97.8-3.5c-14.3,4.1-25.6,8.1-25.6,8.1s2.1-1,5.9-2.8
		c9-5.7,46.2-27,115.3-41c0,0-8.8-0.6-19.6,0c-11,0.6-32.9,5.3-32.9,5.3c15.8-7.7,45.5-16.1,82.3-21.3c0,0-56.3-3.6-124.2,20.4
		c-0.6,0.2-0.9,0.4-0.9,0.4s7.1-5.3,15.3-10.9C165.4,3.7,174-2.7,174-2.7s-34.9,9.7-82,34C78.8,38,71.8,41.9,71.8,41.9
		c2.1-2.3,11.4-10.9,13.7-13.8c-34.9,18.5-47.7,30-68.3,52.5c-18.5,20-17.7,23.4-45.8,39.5c0,0,20.8,7.2,41.8-7.1
		c3.6-2.4,7-5.9,10.3-9.5c7.4-8.7,4.9-17.2,14.8-23.8c-1.5,3.3-3.7,7.3-3.9,11.6c4.7-6.6,14-15.4,24.4-22
		c26.6-16.6,44.2-20.2,44.2-20.2c-0.8,0.2-1.3,0.6-2,0.8c-36.2,16.4-42,35.8-42.2,37.9c-0.3,4.3,13.1-6,24-7.9
		c-11.6,4.6-21.4,14.6-26.2,25.9c-2,4.8-2.6,10.1-8.4,14.6c-1.6,1.6-3.7,3.1-6.5,4.5c-7.6,3.7-12.9,2.3-14.7,1.2
		c-1.1-0.6-1.7-1.8-1.7-1.8c3.7,0.9,8.7-0.3,13.3-3.3c3.4-2.2,5.9-5.1,7.2-7.9c0.7-1.6,2.1-4.6,0-8.1c-1-1.7-3.2-2.7-5.7-2.9
		c0.2-0.5,1.3-3.7,5.4-8.5c-5.4,4.1-8.8,8.8-10.6,11c2.5,0.2,4.7,1.1,6,3c2.5,3.8,0.2,9.7-5,12.8c-5.2,3.4-11.6,3-13.9-0.8
		c-0.3-0.6-0.5-0.9-0.7-1.5c-0.2,0.1-0.6,0.3-0.9,0.4c-1.6,0.9-4.9,2.4-4.9,2.4c1.5,0.3,3.6,0.3,5,0.1c0.5,5.5,4.1,14.3,24.4,8.3
		c-5.8,5.6-19.7,6-28.2,2.1c1.2,0.8,2.5,1.6,4,2.5c25.5,14,54.6-1.9,61.7-6.3c1.8-1.1,3.6-2.2,5.4-3.1c0,0-7.3,6.7-12.3,16.8
		C84.2,129.8,110,110.9,144.7,113.2"/>
	<path fill="#BACAD3" d="M51.6,93.7c1,3.6,7.4-0.5,7.4-0.5s-8.7,7.6-12.1,15.6c-0.1,0.5-0.1,2-1.3,4.3c0.9,0.1,1.8,0.2,2.5,0.1
		c2.3-0.5,5-2.1,5-2.1s0.1,4.6-5,9.3c5.8-4.4,6.4-9.8,8.4-14.6c4.7-11.3,14.6-21.4,26.2-25.9c-11,1.9-24.4,12.3-24,7.9
		c0.2-2.1,6-21.5,42.2-37.9c-0.4,0.2-1.2,0.6-1.4,0.5C66.3,64.1,49,84.2,51.6,93.7"/>
	<path fill="#004D55" d="M37.8,109.1c1.7,2.7,0.1,6.9-3.8,9.3c-3.8,2.3-8.4,2.2-10-0.6c-0.3-0.4-0.5-0.9-0.5-1.4
		c-0.7,0.6-1.6,1.1-2.3,1.6c0.2,0.6,0.4,0.9,0.7,1.5c2.4,3.8,8.7,4.2,13.9,0.8c5.2-3.1,7.5-9,5-12.8c-1.3-1.9-3.5-2.9-6-3
		c-0.6,0.7-1.3,1.5-2,2.4C35,106.8,36.9,107.6,37.8,109.1"/>
	<path fill="#000114" d="M34.1,118.5c3.8-2.5,5.5-6.6,3.8-9.3c-0.9-1.5-2.8-2.3-5-2.2c-1.4,1.8-3.1,3.9-5.2,5.9
		c0,1.7,0.3,3.6,2.4,4.9c0,0-2.4,0.3-3.9-0.7c-0.8-0.6-1.2-1.3-1.4-1.7c-0.5,0.4-0.9,0.9-1.3,1.1c0.1,0.5,0.2,1,0.5,1.4
		C25.7,120.6,30.2,120.8,34.1,118.5"/>
	<path fill="#FFFFFF" d="M26.1,117.1c1.5,0.9,3.9,0.7,3.9,0.7c-2.1-1.4-2.4-3.3-2.4-4.9c-0.9,0.9-1.8,1.8-2.8,2.6
		C24.9,115.8,25.3,116.5,26.1,117.1"/>
	<path fill="#BACAD3" d="M241.8,53.1c0,0-24.7,0.1-35.5,0.7C174,56.2,141,70.4,141,70.4c21-6.1,44-3.6,44-3.6
		C176,67.8,154,74.6,143,79.5c-15.8,7.2-31.8,17-43.4,25.9c18.6-11.6,71.6-39.6,139.4-29.2c0,0,4.4-3.5,16.2-16.6
		C267.5,45.8,270,37.5,270,37.5s-57.4-3.1-98.9,5.2c-8.9,1.9-18.6,4.3-27.1,6.9C169.2,44.6,206.1,44.7,241.8,53.1"/>
	<path fill="#BACAD3" d="M109.7,125.7c46.8-13.7,79.5-1.7,83.6,12.6c0,0,0.2-0.1,0.5-0.4c1.9-1.1,9.2-4.4,20.1-15.4
		c11.4-11.6,18.6-20.8,21.4-26.9c-48.1-20.8-101-4.1-126.9,7c17.1-6.5,46.4-12.9,78.8-4.2c-50-7-89.3,17.6-89.3,17.6
		c28.6-10.5,46.8-2.8,46.8-2.8c-34.7-2.3-60.5,16.6-69.3,28.1c-0.7,1.4-1.3,2.8-1.9,4.2C81.5,137.8,90,131.5,109.7,125.7"/>
	<path fill="#BACAD3" d="M269.3-2.1c-36.8,5.2-66.5,13.6-82.3,21.3c0,0,21.9-4.7,32.9-5.3c10.8-0.5,19.6,0,19.6,0
		c-69.2,13.9-106.3,35.3-115.3,41c9.2-4.2,29-12.6,57.6-19.5c26.8-6.5,58.1-9.4,70.7-11.2c17.8-17.7,24.7-39.3,24.7-39.3
		S246.1-11,210.6-2.9c-36.8,8.7-60.7,19.2-65.4,21.2C213-5.7,269.3-2.1,269.3-2.1"/>
	<path fill="#BACAD3" d="M83.5,145.3c0,0,11.8-9.3,31.8-7.2c29.7,3.1,29,21.3,29,21.3s13.3-6.2,20-18c0,0-8.4-7.2-23.6-9.1
		C101.2,127.5,83.5,145.3,83.5,145.3"/>
	<path fill="#BACAD3" d="M3.1,138.3c-6.1-0.2-8.3-1.3-10.5-2.9c-5,2.8-8.9,4.9-8.9,4.9c-3,4.5,3.3,3.4,6.3,2.4
		C-7.6,141.9,3.1,138.3,3.1,138.3 M69,140.9c-1.8,3.2-2.7,6.8-3.9,11.1c-9.1,43.1-40.8,63.2-40.8,63.2c-6-12.6-2.7-25-1.8-29.6
		c2.3-10.6-3.1-18.2-3.1-18.2c21-0.2,0.5,26.2,8.5,36.8c14-8.7,22.3-37,24.4-47.1c0.1-0.4-2-1.8-3.8-2.3
		c-20.3-5.3-54.2,1.8-66.4,9.6c-38.4,24.6-2.3,38.2-2.3,38.2s-23.6,8.9-37.2-11.2c-3.5-5.4-4.3-15.3-5.2-23.1
		c13.9-23.7,36.1-34.1,42.2-38.5c5.3,1.2,15,1.3,22.6-1.4C2.3,128.5,28.2,158.6,69,140.9z"/>
	<path fill="#000114" d="M-16.2,140.3c-3,4.5,3.3,3.4,6.3,2.4c2.4-0.8,13.1-4.5,13.1-4.5c-6.1-0.2-8.3-1.3-10.5-2.9
		C-12.4,138.2-16.2,140.3-16.2,140.3"/>
</g>
</svg>
