<?xml version="1.0" encoding="utf-8"?>
<!-- Generator: Adobe Illustrator 18.0.0, SVG Export Plug-In . SVG Version: 6.00 Build 0)  -->
<!DOCTYPE svg PUBLIC "-//W3C//DTD SVG 1.1//EN" "http://www.w3.org/Graphics/SVG/1.1/DTD/svg11.dtd">
<svg version="1.1" id="TAMPA_BAY_BUCCANEERS" xmlns="http://www.w3.org/2000/svg" xmlns:xlink="http://www.w3.org/1999/xlink"
	 x="0px" y="0px" viewBox="-140.9 -75 500 350" enable-background="new -140.9 -75 500 350" xml:space="preserve">
<g>
	<g>
		<g>
			<g id="XMLID_2_">
				<g>
					<path d="M276.1-53.6c0,0,6,17.3,6,42.2s-6.8,40.5-8.5,46.6c0,0-2,3.2-5.1,5.2l3.6,2.9c0,0-7.5,22.8-14.1,36.7
						c-7.2,15.3-24,45.2-37.1,55.5L178.7,204c0,0-9.5,1.4-15.8-3.6c-6.3-5.1-6-9.9-6-9.9l25.6-38.1c0,0-8.4,1.4-19.4,1.4
						s-37.2-1-70.9-16.3c-33.7-15.2-50.5-23.7-75-23.7c-22.4,0-47.6,17.1-54.9,46.5c0,0-15.2-18.2-15.2-41s21.6-39,30.2-43.5
						c8.8-4.6,11.6-8.7,11.6-15c0-7.7-7.4-18.5-17.8-28l24.7-8.4l-4.9-6.8c0,0,16.5,2.9,30.3-13.9c0,0-9.5-0.9-42.8,14.4
						c0.3-0.8,9.4-25.7,51.3-46c42.5-20.7,77.5-15,115.4,0.4c37.9,15.4,48.2,20.2,72.9,20.2c24.7,0,42.8-8.9,51.3-14.6
						C269.1-22,274.1-37.7,276.1-53.6z"/>
					<path d="M183.3,202.7c0,0,5.7,9.9-0.4,25.7c-6.1,15.8-23.4,31.8-46.2,22c0,0-1.4,2.9-4.4,2.8c-3-0.1-4.7-2.7-4.8-3.9
						c-0.1-1.3,0.1-2.9,1-3.7c0,0-6.5-6.1-6.9-8.8c-0.5-2.7,0.5-3.5,1-3.8c0.5-0.3,2-0.3,3.4,1.2c1.4,1.5,2,2.2,2,2.2l20-31
						c0,0-6.7-7.9-6.4-17.3c0,0,5.8-5,15-1.9c0,0-5.7,3.3-0.8,11.3c4.9,8,15.8,9.8,17.9,9.9C175.9,207.6,182.5,207.2,183.3,202.7z
						 M169,237.7c6.6-10.8,3.6-20.3,3.6-20.3c-2.5,0.3-5.7-0.4-5.7-0.4l-20.6,30.1C149.7,248.1,162.4,248.5,169,237.7z"/>
					<path fill="#FFFFFF" d="M172.6,217.4c0,0,3.1,9.5-3.6,20.3c-6.6,10.8-19.3,10.3-22.7,9.4l20.6-30.1
						C166.9,217,170.1,217.8,172.6,217.4z"/>
				</g>
			</g>
			<path fill="#BFC0C0" d="M170.1,194.4c0,0-3.7,0.1-5.2-4.3l27.3-40l8.9-2.6L170.1,194.4z"/>
			<path fill="#B21E35" d="M-40.8,136c0,0-12.8-17.9,9-41.2c0,0,11-5.5,23-3.3c0,0-19.6,3.6-24,19.9c0,0,10.3-17.7,43.2-16.1
				c0,0-9.2-11.4-30.7-9.2c0,0,4.7-5.7,23.4-8.2c0,0-9.2-1.6-16.3,0.3c0,0,10-6.6,10-20.1c0-13.6-13.3-22.8-13.3-22.8
				s9.2-4.3,20.9-6.8c0,0-1.9-5-4.9-6.8c0,0,21.4,1.1,33.1-25c0,0-2.8-1.4-6-1.4C21-4.7,9.8-2.2-3.2,4c0,0,8-9.6,30.3-20.7
				c22.4-11.2,37.8-11.4,37.8-11.4s5.6-0.1,8.6,1.4c0,0-10.5,0.3-27.3,8.3c0,0,12.1-2.1,22.9-2.1c8.3,0,17.9,2.6,23.4,4.8
				c0,0-3.5-6.5-14.3-8.4c0,0,1.6-1.5,7.6-1.5c6.8,0,17.1,5.4,17.1,5.4s-4.1-5.8-13.7-9c0,0,21.9-2.1,59.5,13.3
				c34.5,14.1,47.8,16.3,68.2,16.3c22.6,0,48.1-9.5,58.7-16.6c0,0,0.8,5.8-0.3,12.3C274,3.3,268.9,8.3,243,8.5
				c0,0,14.5,6.7,28.8,3.7c0,0-2.5,13.9-10.2,34.7c-5.9,16.1-16.1,38.9-29.5,60.2c-4.5,7.1-8,12.7-14.1,19.8c0,0-11.4,5.1-23.6,8.9
				c0,0,5.7-6.5,6-10.9c0,0-10.6,10.6-20.9,14.9c0,0-10.1,3.5-28,3.5c-56.3,0-91.3-38-139.4-38C-27.1,105.4-40.8,136-40.8,136z
				 M142.8,244.5c0,0-5.4,1.3-10.3-5.4c0,0-0.7-0.6,0.3-2.1l18.4-28.6c0,0,4.4,4,12.5,7.3c0,0-5.4,1.1-10.4-2.4c0,0-0.7,4.4,4.3,7.4
				c0,0-5.5,0.1-8.4-1.9c0,0-0.8,4.3,4.9,7.5c0,0-5.4,1.5-8.6-1c0,0-0.8,3.2,4.1,6.8c0,0-5.4,0.4-8.7-1c0,0,0.2,4.3,4.6,7.2
				c0,0-5.7,0.5-8.6-1.3C137,237.1,136.7,240.7,142.8,244.5z"/>
		</g>
		<path d="M78.9,105.4l-0.5,0.7l-4,2.2l-5.9,1.8l-10.4,0.4l-3.5-1.8l-2-0.4l-0.7-0.5l-1,0.3c0,0-5-3.6-8.6-5.1l-2.7-3.7l-0.1-0.4
			L39,98.8c0,0,0.3-0.9-0.1-2.2s-1-3.2-1-3.2l-0.6-0.1l-1.5-2l1.2-5l4.6-4.8l1.4-2.3l0.5-0.1v-0.5l3.6-2.4l4.6,0.1l1.9,0.8l0.4,1.6
			l0.9,1.9l0.5,0.3l5.6,0.1l3.2,0.7l2.3-0.5l2.2-2.1c0,0-2.4-3.8-5.9-6.7c0,0-3.5-6.8-4.7-7.9l-0.9-1.5l-4-8.2l2.8-2
			c0,0-1.7-0.5-3.5-0.5l-2.3-5.8l-0.3-4.8l0.2-8.5c0,0,0.3-4.4,1-6.4c0.6-2,1.8-4.7,1.9-8.7l2.8-4.7l1-4c0,0,0.1-0.5,0.6-1
			c0,0,3.6-4.5,4.2-6.5l3.4-3.7c0,0,0.4-0.7,5.9-4l-1.3,4.6c0,0,0.1,5.3-0.7,8.4c-0.5,2-1.2,3.2-1.2,3.2l0.1,5.1
			c0,0-0.4,7.7,1.8,13.8c0,0,2.3,5,2.9,7.4c0,0,3,7,5.3,12.5c0,0,1.2,3,6.8,9l5.5,5.8c0,0,4.7,2.8,6.1,4.1c0,0-0.6-1-0.7-1.7
			c-0.1-0.7-0.2-3.4-0.2-3.4s-1.3-1.3-1.3-2.7l4.1-12.4c0,0-4.5-5.3-3.6-13l1.5,0c0,0,0.4,0,0.3-0.3l-1.7-2.2l0.7-12.4l2,0.7
			c0,0,1-1.7,1.2-4.7c0.3-3,0.6-6.5,5.8-11.8c0.8-0.8,5.8-8.5,13.9-10.6c8.1-2.1,12.3-3.8,12.3-3.8l3.5,0.5c0,0,3.8-1.9,10.6-1.9
			c6.8,0,10,1.7,12.4,3.5c2.4,1.7,12.8,10,13.1,10.6c0.3,0.7,0,1.2,0,1.2s0.6,1.2,5,5.3c0,0,1.1,1.1,2.2,4.1c1,2.9,1,3.9,1,3.9
			s-0.2,1.3-0.5,2.4c0,0,0.5,1,0.5,1.6c0,0.6-1.4,7-4.9,11.7c-0.9,1.2-2.2,2-2.4,3.1l3.1,0.4c0,0-3.6,5.3-8,10.5
			c-1.8,3-4.5,5.5-6.5,6.9c0,0-0.8-0.5-2.3-0.1l0.1,1.8c0,0-5,3.2-6,3.6c0,0-3.4,8.2-5.7,12.2l-3.1,1.4c0,0-1.6,1-2.7,2.8l-4,2.2
			c0,0,15.6-3.5,19.2-4.6c3.5-1.2,3.6-2,5.7-2.6c2.1-0.6,5.3-1.2,5.3-1.2s3.7-2.4,4.1-2.5c0.3-0.1,2.4,0.5,3,0.8l0.2-3
			c0,0,3.5-2.1,5.4-3.3c1.9-1.2,4.5-3.9,6.4-5.3c1.9-1.4,4.2-2.6,5-3.2c0.7-0.6,9-8,12.8-14.1c1.2-1.8,2.2-4.6,2.2-4.6l3.9-2.9
			c0,0,0.1-1.7,1-3.1c0.9-1.4,3-4.1,3-4.1s0.3,0.3,0.6,1.7c0.3,1.4,0.7,2,0.7,2s0.1,3.3,0.4,5l-0.7,3.3l-0.2,4.5c0,0-1.3,2.6-2,4.4
			c-0.7,1.8-1.1,5.2-1.1,5.2l-3.1,5c0,0-1.9,5.4-5.2,9.5c-3.3,4.1-6.5,8.2-6.5,8.2l-3,3.1l-5,3.3c0,0-0.5,0.3-1.7,1.2
			c-0.6,0.5-1.8,1.4-2.4,1.8c-0.3,0.2-0.7,0.3-1.8,0.9c-3.9,2.1-12.6,6.5-20.4,10.7c0,0-1.4,0.6-2.8,0.9c-1.4,0.3-4.2,0.5-4.2,1.5
			c0.1,1,0.5,2.7,0.5,2.7s0.3,1,1.9,1.6c0,0,1-0.2,2.5,0.3c1.5,0.5,2.8,1.5,2.8,1.5s1.9,0.3,2.8,0.8c0,0,0.7-0.4,1.5-0.9
			c0.8-0.5,1.8-1.2,2-1.7l2.6-0.1c0,0,2.4,1,3.8,1.4c0,0,0.9,2.5,1.4,3.5l-0.1,0.7l0.3,0.3l-0.4,2.7c0,0,0.5,4.3,0.4,5.8
			c0,0-1.5,3.2-2.2,4.6c0,0-2.2,1-2.7,1.2l-0.4-0.2c0,0-4.7,2.7-5,4.1l-0.7-0.1c0,0,0.2,0.3-0.1,0.3c-0.3,0.1-5,2.2-5,2.2
			s-5.8,0.1-10.8,1.1l-0.9-0.6l-1.6,0.1c0,0-0.4-0.7-5.5-0.1c0,0-7.2-3.7-8.2-4l-3.8-3.9l-0.7-1l-0.6-1.3l-0.5-1.2
			c0,0-0.2-0.3-1-0.1c-0.8,0.2-3.3,0.5-6.5,1.7c0,0-4.9-0.2-8.2,0.7c0,0-3.5-0.7-7.3-0.5c0,0-3.5-0.5-4.1-0.5c0,0-6.1-2.6-9.6-3.3
			c0,0-1.5-0.5-2-0.9c-0.5-0.3-2.1-1.8-5.2-3.6C84.1,109.8,81.4,107,78.9,105.4z"/>
		<path fill="#DB6126" d="M91,89.4c0,0,5.7-0.6,7.6-0.5l1.1-1.1l0.3-2l4.1-0.2c0,0-0.7,2.2-1.3,2.8c0,0-0.3,0.4,0.3,0.4
			c0.6,0,3.6,0,3.6,0s0.4-0.1,0.5-0.4c0.1-0.3,0.4-2,1-2.3c0.7-0.3,1.7-0.2,1.7-0.2l1.7,0.3l0.2,0.2l-0.3,1.1l-1,1.2
			c0,0-0.1,0.3,0.2,0.3c0.4,0,2.9,0.5,3.6,0.9c0,0,0.7,0.3,0.9,0c0.2-0.4,0.4-1,0.4-1l0-1.4c0,0,0-0.3,0.6-0.3c0.6,0,2.5,0.7,2.9,1
			c0,0,0.2,0.3,0,0.8c-0.2,0.6-0.6,1.7-0.9,2.1l3.2,1.6c0,0,0.6-0.9,1.2-1.3l0.3-1.7c0,0,0-0.5,0.5-0.2c0.6,0.2,2.7,1.4,2.7,1.4
			s0.2,0.2,0.1,0.5c-0.1,0.3-0.6,1.7-0.6,1.7s-0.1,0.2-0.4,0.3c-0.3,0.1-0.5,0.8-0.2,1l4.8,2.7l-4.7-1.6c0,0-0.3,0-0.4,0.1l-0.9,1.7
			c0,0-1.7,0.1-3.7-0.1c0,0,0.1-1.1,1-3l-3.2-1.1l-1.3,1.4l-0.4,2.2c0,0-1.1,0.3-2.2,0.3c-1.1,0-1.8-0.5-1.8-0.5l0.8-2.4
			c0,0,0.3-1.4,1-2c0,0-0.1-0.7-3.8-1c0,0-1.2,1.7-1.9,4.6c0,0-1.7,0.3-3.5-1.2l0.5-1.7l1-1.2v-1c0,0-2.1-0.4-3.6-0.4
			c0,0-0.9,0.5-1.3,2.3l-0.3,1.3l-1.8-0.3l-1.7-1.2c0,0,0.4-1.6,1.1-2c0,0,0.2-0.3-0.2-0.4C97.9,90,91,89.4,91,89.4z M91.9,104.1
			c0,0,10.3,6.1,14.7,7c5.1,1.1,3.3-4.6,3.3-4.6s6.3,3,13.9,3c7.5,0,14.2-3,16.4-4.8c2.2-1.8,0,0,0,0s-0.2-2.7-0.6-3.6
			c-0.4-0.9-2.2-3.6-2.7-4.9c-0.5-1.3-2.8-3.5-2.8-3.5s-7.1-5.6-9.3-6.6c-2.1-1.1-4.7-2.1-5.7-2.7c-1-0.6-2.6-0.9-2.6-0.9l-2.1-0.5
			c0,0-1.8-0.2-2.8-0.4c0,0-3.8-0.2-5.2-0.5c0,0-1,0.1-1.4,0.1c0,0-2.5,0.7-7.2,0.8c0,0-8,2.5-11,3.3c0,0-0.8,0.2-2.5,1.2
			c0,0-3.6,1.9-5.1,2.3c0,0-1.1,0.4-1.4,1.3l-1.6,1.5l0.2,3.1c0,0,2.8,3.6,3.4,5.3c0,0,6.7,6.6,8.1,8.3c0,0,3.2,1.4,3.9,2
			c0,0,1.3-0.2,1.3-1.6C93.3,107,91.9,104.1,91.9,104.1z"/>
		<path fill="#FFFFFF" d="M101.5,64.9c0,0,0.4-2.8,1.5-4.8c1.1-2,1.2-8.9,1.2-8.9s0.9,1.6,2,6.1c0,0,0.6,4.1,0.4,5.3l0.2,0.4
			l2.7-2.8l3.6,1.8c0,0,0.2,0.1,0.1,0.9c-0.1,0.9-0.6,3.6-0.6,3.6l3.5-3.5l4,1.5c0,0,0.2,0.1,0.2,0.9c-0.1,0.8-0.1,3.7-0.1,3.7
			l3.4-3.8l4.5,0.2c0,0,0.1,0.2,0.2,0.6c0.1,0.4,0.4,3.6,0.4,3.6l2.4-3.7l0.3-0.2l4.5-0.1l0.3,1.8c0,0-3.6,7.8-18.9,6.6
			c0,0,1.8,1.6,9.2,2.1c0,0-1.4,1.4-6.5,1.4c-5.1,0-11.9-3.2-14.2-6.7C103.5,67.2,101.5,64.9,101.5,64.9z M109.1,46.6
			c0,0,0.1,2.4-0.2,3.5l2.2,1.3l0.7-1.6c0,0-2.1-2.8-2.5-3.3L109.1,46.6z M113.9,50.5l-0.9,2.1c0,0-0.1,0.6,0.4,0.7
			c0.4,0.2,2.8,1.4,2.8,1.4l1.2-2.9l-1.2-1.8L113.9,50.5z M118.6,55c0,0-0.3,0.4,0.1,0.6c0.4,0.1,3.2,1,3.4,1c0.2-0.1,0.4,0,0.5-0.4
			c0.2-0.4,1-2.4,1-2.4l-1.5-2.5l-2.4,0.9c0,0-0.2,0.2-0.4,0.6C119.3,53.1,118.6,55,118.6,55z M124.9,56.7c0,0-0.1,0.6,0.6,0.6
			c0.6,0,3.6,0.2,3.6,0.2l1.2-3l-1.7-1.9l-2.1,0.9c0,0-0.5,0.4-0.9,1.2C125.3,55.5,124.9,56.7,124.9,56.7z M133.3,54.4l-1,2.8
			c0,0-0.2,0.4,0.4,0.4h2.6l0.9-2.3c0,0,0.1-0.2-0.1-0.4c-0.1-0.1-1.6-1-1.6-1L133.3,54.4z M99.7,27.7l-0.5,8.1c0,0,0,1.1,0.6,2.1
			c0.6,1,2.8,2,2.8,2s5.6,1.6,6.3,5l5.3,3.4l3-0.3l2.3,2.4l3.4-0.7l2.6,2.3l3.8-0.9l2.7,1.8l3.5-1.2l2.5,1.6c0,0,1.8-0.4,3.6-0.4
			c0,0,1.9-1.7,2.5-2.6l-2.1-4.6c0,0,1.8,0.8,5.7,0.8c3.9,0,9.1-1,12.8-5.2c0,0-1.1-2.7-1.1-6.1s3.6-8.5,7.6-10.7l-0.1-3.2
			c0,0-0.7-3.8-1.2-4.8c-0.6-1-2.5-3.4-7.2-5.6c-4.7-2.2-13-4.8-13-4.8s7.7-1.5,14.5-1.1c0,0-3.7-4.3-17.4-6.1c0,0,5.4-1.5,11.3-0.1
			c0,0-1.8-2.2-6.3-2.4c0,0-0.6-1.1-4.8-1.1c-4.2,0-4.7,0.4-5.9,0.5c-0.4,0-3.1,0.5-6.8,1.2c-1.8,0.3-3.9,0.5-5.8,1.1
			c-5.6,1.6-11.4,4.3-13.8,8.8c0,0,2-0.9,3.7-1.2c0,0-6.3,5.6-7.2,7.1c-0.8,1.5-2,4.5-2.6,5.4c-0.7,0.9-0.4,3,0,4.3
			c0,0,2.8-6.9,9.2-9.4c0,0-7.2,6.3-8.4,16.7L99.7,27.7z M112.8,18.5l9.2-0.6c0,0,1.6,5,11.2,7.8c0,0-2.5,0.5-3.2,1.5
			c-0.7,1-3.9,6.1-10.1,6.1c-4.3,0-8.8-5.5-8.8-5.5s0.3-3.5,7.5-6.9L112.8,18.5z M137,26.6l0.8-0.1c0,0-0.2,0.3,4.3,0.3
			c4.5,0,9.7-2.6,9.7-2.6l7.7,3.9l-7.2-0.3c0,0,2.4,3.5,2.4,5.8c0,2.3-0.4,2.7-0.7,3c-0.3,0.3-4.4,1.9-7.3,1.9c-3,0-5.1-0.6-6.3-1.9
			c-1.2-1.3-2.5-4.6-2-7.9L137,26.6z M122.9,40.9c0,0,5.1-2.5,9.6-9.2L133,31c0,0,0.3-0.3,0.3,0.1c0,0.3-0.9,7.5,1.6,12
			c0,0,0.2,0.2-0.3,0.5l-5.9,3.1c0,0,0.1-0.6,0.6-2.3c0.6-1.6,1.1-4.7,1-6.2c0,0-2.8,3.3-4.3,7.9c0,0-0.2-0.1-0.4-0.4
			C125.5,45.4,122.9,40.9,122.9,40.9z M133.8,87.7l-3.7-2.7l1.6-0.5l0.7-0.1l0.5-0.1l2.9-0.5l1.1-0.1c0,0,5.2-2.3,10.7-3.2
			c5.5-0.9,4.3-0.8,5.3-1.2c1-0.4,5.4-2.2,5.4-2.2s4.1-1.8,4.5-2c0.4-0.2,3.6-2.2,6.9-3c3.3-0.7,6.9-3.6,7.5-3.9
			c0.4-0.2,4-3.2,7.7-5.8c1.6-1.1,3.3-1.8,4.6-2.6c4.1-2.8,7.8-7.6,7.8-7.6s2.9-2.5,3.5-3.1c0.7-0.5,7.1-9.4,8.6-12.3
			c0,0,0.7,2.2-4.1,12.7l-1.8,4.6c0,0-1.9,2.6-2.5,3.9c-0.6,1.4-2.6,2.9-5.7,8.7c0,0-5.6,5.4-7,6.9c0,0-6.4,3.6-13,8.3l-9.3,5
			c0,0-9.2,2.4-15.6,5.2c0,0-6.1,0.8-10.1,2l-3.1-3.5c0,0,17.2-5,18.7-5.8l1.4-1.1l9.6-3.5c0,0,2.8-2.1,5.5-3.6
			c1-0.5,1.9-0.7,2.8-1.1c3.2-1.4,7.1-4.9,8.6-7.2l-5.7,3c0,0-4.4,2.3-6.7,3.7c-2.3,1.4-9,4.1-9,4.1l-8,3c0,0-2,0.5-4.9,1.8
			c-2.9,1.3-7.2,2.7-9.8,2.9C137.2,87,133.8,87.7,133.8,87.7z M133,114.4l0.1-0.3c0,0,2.7-1.5,6.3-2.7c0.9-0.3,2.7-1.5,4-2.7
			c1.4-1.4,2.1-2.8,2.1-2.8v-3.2l-0.6-2.4c0,0,0.6-3.1-0.8-5.1c0,0,3.9-1,5.4-1.3c0,0,1.5,4.1,0.2,8.5c0,0-0.4,1,0.7,1.2
			c0,0,2.2-0.2,3.5,0.9c0.5,0.4,3.1,0.9,3.1,0.9s1.3-0.1,2.6,1.3c0.6,0.7,2.3,0.6,2.3,0.6s2,0.1,3.2,1.4c1.2,1.3,3.4,0.3,3.4,0.3
			l0.9-2.5c0,0,0.6-1.3,1.8-0.7c1.2,0.6,0.8,1.2,0.8,1.2l-1.3,4.5c0,0,0.1,0.4,1,0.5c0.8,0.1,1.9,2.4,0.2,3.6c0,0-0.4,0.1-0.5-0.4
			l-0.2-1c0,0-0.2-0.3-0.4,0.3c-0.2,0.6-1,1.8-1,1.8s-0.9,0.1-1.5-0.3c0,0-2.8,4-3.4,4.4c-0.6,0.4-7.1,3.5-14.3,3.7l-1.9-0.6
			C148.7,123.2,138.8,124.1,133,114.4z M79.3,82c0,0-2.4-2.2-4-3.2c0,0-4.2,3.1-6.5,7.8L68,86.8c0,0-1.5-0.8-2.6-0.8
			c-1.1,0-1,0.3-1.9,0.3c-0.9,0-2.5-0.7-3.3-0.7c-0.7,0-2.9,0.4-3.4,0.4c-0.5,0-1.5-0.7-3.3-0.7c-1.8,0-2,0.3-2.7,0.3
			c-0.6,0-1.5-0.3-2.4-1.1l1-2.5c0,0,0.3-0.9-0.8-1.3c-1.2-0.3-1.8,1-1.8,1s-1.2,2.5-1.7,3.9l-0.3,0.3c0,0-0.5-0.2-1-0.2
			c-0.5,0-2.8,0.3-2.8,2.5c0,0,0,0.5,0.2,0.7c0,0,0.8-1,1.7-1.2c0,0-0.6,1.5-0.6,2.2c0,0.4,1.2,0.4,1.2,0.4s0.3,0,0.2,0.6
			c-0.1,0.6-0.1,1.2-0.1,3c0,1.8,0.2,1.8,0.2,1.8s2.3,4.7,9.2,8.1c0,0,0.7,0.3,1,0.3c0.3,0,2.1,0.3,3.6,1.2c1.5,0.9,4.9,0.6,4.9,0.6
			s5.9,0.3,13.1-3.6c0,0-4.8-6.6-5.3-11.5l2.9-3.2l0.9-0.4C74.3,87.1,75.5,83.9,79.3,82z M83.3,82.7c0,0-3.7-3.5-6.3-5.1
			C74.4,76,73.5,74,73.5,74s-4.9-5.7-7-6.8l-4.6-7.6c0,0-4.2-11.1-5.6-12.3c0,0-0.9-6.4-1.3-8.1c-0.4-1.8,0.3-3.2,0.3-3.2
			s1-6.9,1.2-11.3l4.1-11.7c0,0,0.8-3.1,3.1-5.7c0,0-1.6,8.7-1.4,12.9c0,0,0.8,4,1,5.4c0.2,1.4,0.2,4.9,0.8,6.3
			c0.2,0.5,0.6,2.3,0.6,2.3s1.7,2.9,2,3.9c0.3,0.9,2.8,8.8,2.8,8.8s2,3.7,2.1,4.1l3.2,3.3c0,0,3.4,5.9,5.6,8
			c1.3,1.3,1.9,2.8,1.9,2.8l8.2,6.4c0,0,2.3,2.8,2.9,3.4c0.6,0.6,4.4,2.9,4.9,3.8c0,0-2.9,0.3-4.4,1.3c0,0-5-3.7-7.1-4.4
			c0,0-2.6-2.9-3.2-3.3c0,0-1.1-1.8-3-4c-1.5-1.8-3.5-3.8-5-5.4c0,0-3-3.7-5.7-8c-0.9-1.4-1.8-3.4-2.6-4.7c-2.1-3.6-3.7-6.1-3.8-6.5
			l0.2,4.5l1.5,4.1c0,0,3,3.7,3.9,7.3l6,7.4c0,0,0.6,1,0.6,1.5c0,0,8,8.7,12.6,12.6L83.3,82.7z"/>
		<path d="M139,114.3c0,0,6.9-2.7,9.7-8.7c0,0,1.8,2.5,0.6,5.1c0,0,2.4-0.2,3.8-1.3c0,0,0.6,1.7,0.1,2.8c0,0,2.1,0.2,3.7-1.3
			c0,0,1,1,0.4,2.8c0,0,2.3,0.3,3.7-1.2c0,0,0.8,1.2,0.3,2.8c0,0,2.2,0,4.7-1.9c0,0-2,6.2-6.9,7.3c0,0-2.2-0.2-4.7-1.4
			c-2.5-1.2-6.9-3.3-14.5-2.1C140,117.1,138.6,116.7,139,114.3z"/>
		<path d="M70,100.3c0,0-2.7-3.8-2.7-7c0-2,0.5-4.1,0.5-4.1s-2.7,0.8-4,3.9c0,0-0.2,0.4-0.4,0.1c-0.3-0.2-1.5-1.2-1.9-2.4
			c0,0-1,0.1-2,2.1c0,0-0.3,0.4-0.8,0.1c-0.5-0.3-1.4-1.7-1.6-2.4c0,0-1.1,0.2-2.4,2.2c0,0-1.8-0.2-2.2-2.4c0,0-1.5,0.4-2.2,2.3
			c0,0-0.4,0.1-0.7-0.3c-0.3-0.3-1.8-1.6-1.9-3c0,0-1.2,0.4-1.2,4.3c0,3.4,2,4.5,2,4.5s2.3,0.7,7,0.5c4.7-0.2,9.2,1.8,11.4,3.1
			c0.5,0.3,1.1,0.6,1.8,0.1L70,100.3z"/>
	</g>
	<path d="M176.4,139.6c0,0,17.5-25.2,37.1-68c0,0-2,22.6-18,45.2C193.7,119.4,187.7,131.9,176.4,139.6z"/>
</g>
</svg>
