<?xml version="1.0" encoding="utf-8"?>
<!-- Generator: Adobe Illustrator 18.0.0, SVG Export Plug-In . SVG Version: 6.00 Build 0)  -->
<!DOCTYPE svg PUBLIC "-//W3C//DTD SVG 1.1//EN" "http://www.w3.org/Graphics/SVG/1.1/DTD/svg11.dtd">
<svg version="1.1" id="Layer_1" xmlns="http://www.w3.org/2000/svg" xmlns:xlink="http://www.w3.org/1999/xlink" x="0px" y="0px"
	 viewBox="-75 15 500 350" enable-background="new -75 15 500 350" xml:space="preserve">
<g id="Capa_x0020_1">
	<g id="_163354408">
		<path id="path14" fill="#F1C817" d="M205.8,264.4c65.4,0,118.4-52.4,118.4-117.1c0-64.7-53-117.1-118.4-117.1
			c-65.4,0-118.4,52.4-118.4,117.1C87.4,212,140.4,264.4,205.8,264.4L205.8,264.4z"/>
		<path id="path18" fill="#FFFFFF" d="M205.8,248.1c56.3,0,101.9-45.1,101.9-100.8c0-55.7-45.6-100.8-101.9-100.8
			C149.6,46.5,104,91.6,104,147.3C104,202.9,149.6,248.1,205.8,248.1z"/>
		<path id="path22" fill="#010101" d="M141.7,137.7c0,0-8.3,19.9-8,35.7c0,0,2.6-5.9,3.5-4.9c0,0-7.5,24.8-1.8,39
			c0,0,1.2-3.9,3.3-6.3c0,0,3.1-4.9,4.4-8.8c0,0,0.6,1.7,1,4.7c0,0,2.8-3.5,3.4-5.9c0.5-1.9,1.7-3.9,2.5-6.3l1,0.5
			c0,0,5.7-6.8,7.8-13c0,0,1.7-0.2,0.8,4.7c0,0,4.7-4.5,4.8-11.6l1,1.1c4,4.9,4,12.4,3.9,17.1c-1,14.9-8.7,22.9-18.3,31.6l0.9,0.7
			c14.4-2.6,23.8-4.2,38.4,0c5.5,1.6,18.9,7.6,25.5,11.7c0,0,14.5,6.2,24.6,6.2c0,0,0.5,0.2,0.5-0.3c0,0-1.1-3.7-0.1-17.6
			c0,0,1.1-6.4,1.9-10.9c0,0,1.1-3,1.2-9.1c0-0.5-0.5-4.2,2-3.8c5.5,0.8,8.6-0.5,12.8-1.2c0,0,4.5-1.3,6.3-1.4c0,0,4.2,0.7,5.5,0.2
			c1.4-0.5,3-1.7,5-3.5c0,0,2.2-2.3,0.7-7.4c0,0-1.4-4.7-0.6-6.1c0,0,1.3-3.2,3.1-5c0,0,1.3-2.1-0.5-3.2c0,0-1-1.1,0.7-1.5
			c0,0,1.2,0.1,2-0.3c0,0,0.4-0.2,0.5-1.1c0.1-1,0.5-5.6-2.6-9.7c0,0,0.9,0.2,1.6,0.5c0,0,3.9,0.4,5.9-0.6c1.7-1,4.3-2.1,3.9-7.9
			c-1-4.8-2.9-7.6-4.8-13c-2.3-5.7-2.6-8.6-7.5-12.5c-2.9-1.3-4.2-3.5-2.1-5.6c1.7-2.5,1.1-7-1.9-10.1c-2.9-2.9-5.1-7.3-6.2-9.6
			c-1.4-2.4-3-5-4.5-6.6c-1.5-1.8-3.6-2.9-7.5-7.4c0,0-2.3-2-2.7-4.2c-3.3-5-12.3-12.1-22.7-12.8c-3-0.4-3-0.4-5.2-0.6
			c-3.6-1.3-15-1.7-22.7,0.5c-2.5,0.5-7.5,1.4-7.5,1.4c-2.7,0.8-6.4,1.6-10.5,4.1c-3,1.5-7.5,5.3-10.9,7.6
			c-3.6,3.6-11.7,8.8-16.2,11.8c-8.7,6.3-16.2,14.7-20.5,19.9c0,0-11,13.6-16.4,37.1c-0.4,3.6-1.3,7-0.7,11c0,0,4.8-10.4,9.3-13.6
			c0,0-0.6,1.9-1,5c0,0,2.3-4.2,3.2-4.9c0,0,1.7-1.8,4.1-4.6c0,0,5.1-6.6,6.5-7.3c-1.9,3.5-2.3,5.7-2.5,9.3c0.8-0.7,1.3-1.3,1.5-1.7
			c0,0,0.5-1,1-0.7C142.1,137.3,141.7,137.7,141.7,137.7L141.7,137.7z"/>
		<path id="path26" fill="#57211B" d="M287.3,148.2c1.3-2.6,1-5.2-0.8-8.3c-1.1-1.8-1.8-3.8-2.7-6.3c-0.4-1-1.1-3.1-1.9-4.9
			c-0.1-0.7-1.6-4.1-2.5-5.4c-2.4-3.5-4.4-3.8-5.7-5.2c0,0-0.5,0-0.5,0c-1.4,0.9-1.4,3-2.6,4.5c-0.1,0.2-0.5,0.4-0.8,0.3
			c-0.4-0.2-0.5-0.5-1-1.1c-0.4-0.6-0.7-0.2-1.1,0.3c-0.3,0-0.5,0.2-0.7,0.4c-0.4,0.4-0.1,0.6,0.2,1c0.3,0.4,0,0.4,0.2,0.7
			c-0.1,0.2-0.1,0.3-0.2,0.3c-0.2,0.2-0.5,0.2-0.8,0.1c-0.8-0.1-0.6-0.1-1.3-0.4c-0.9-0.4-1.3-1.5-2-1.9c-0.2-0.1-0.9-0.2-1.4,0.1
			c-0.4,0.3-0.6,0.8-0.2,1.1c0.6,0.5,1,1.1,1.6,1.6c0.8,0.6,1.7,1.1,1.8,1.9c0.1,1.1-1.5,1.5-2.2,0.9c-0.4-0.3-0.9-0.6-1.3-1.1
			c-0.1-0.1-0.1-0.4-0.2-0.5c-0.3-0.3-0.7-0.6-0.9-0.8c-0.3-0.5-0.8-1.1-1.4-1.3c-0.1-0.1-0.3-0.3-0.4-0.4c-0.3-0.5,0-1.1-0.2-1.5
			c-0.2-0.4-0.3-1-0.8-0.7c-0.5,0.5-0.4,0.5-1,0.4c-0.7-0.1-0.1-1.4-0.1-1.2c0,0.1,0,0,0.2-0.4c-0.5-0.2-1.2-0.5-0.7-1.2
			c0.5-0.6,0.9,0.3,1.1-0.1c0.1-0.1,0.5-0.9,0.6-1c0.5-0.3,0.7,0.1,0.8,0.2c-0.2,0.7,0.5,1.1,1.1,0.7c0.1,0,0-0.5,0.1-0.7
			c0.6-1.1,1.6-1.6,2.5-2.4c0.1-0.1,0.4-0.1,0.4-0.2c0.3-0.6,0.6-1.4,0-1.7c-0.5-0.2-1.6,0-1.4-0.9c0.1-0.4,0.7-0.6,1-0.7
			c1.1-0.5,2.3-1.1,3.5-1.5c0.3-0.1,0.8-0.5,1.1-0.6c1.5-0.1,1.2-0.1,3,0.2c0.3,0.1,1,0.4,1.3,0.5c1,0.3,2.4,0.2,3-0.8
			c0.6-1,0.5-2.8-0.2-4c-0.8-1.5-1.9-2.7-3-3.7c-1.3-1.3-3-1.9-3.3-3.7c-0.4-2.2-2.1-5-3.1-6.7c-1-1.8-1.9-2.9-3.2-4.6
			c-0.3-0.4-2.2-2.3-2.5-2.6c-2.1-2.1-3-2.7-5.3-3.5c-1.2-0.4-5.7-0.1-8-0.4c-0.7-0.1-3-0.1-3.6-1.3c-0.6-1.1-1.3-2.6-2.4-3.4
			c-0.4-0.3-1.1-0.5-1.5-0.8c-2.1-1.1-4.3-2.8-6.6-2.7c-0.8,0,0,0.9,0.2,1c1,0.5,1.5,1.1,2.1,1.8c0.6,0.7,1.9,0.7,3,1.2
			c1.1,0.4,1.9,1.1,2.9,1.6c0.9,0.5,2.2,2.1,1.1,2.7c-0.9,0.6-1.9-0.1-3.1,0.2c-0.2,0.1-0.6,0.2-2,0.2c-1.9,0.3-2.6-0.6-4-1.7
			c-1.5-1-2.4-2.6-3.8-3.6c-1.7-1.2-3.5-2.2-5.5-2.9c-0.4-0.2-1,0.1-1.4-0.1c-0.7-0.4-1.2-1.2-2.1-1.3c-1.5-0.1-1.5-0.2-2.9,0
			c-0.2,0-0.7,0.6-0.9,0.6c-0.9,0-1.9-0.3-2.3,0.2c-0.7,0.8,0.2,0.7,1,1.1c0.5,0.2,1.5,0.8,2.1,0.8c2.4,0,4-0.1,5.9,1
			c0.2,0.1,1.1,1,1.1,1.3c-1.8,0-4.7-0.7-6.8-0.6c3.5-0.3-3.6,0.1-5.2,0c-0.5,0-0.5,0.9,0.3,1.5c0.2,0.1,1.3-0.1,1.4,0.3
			c0.6-0.3,2.4-0.2,3,0c0.9,0.3,0.4,0.2,1.2,0.6c0.5,0.3,0.9,0.6,1.5,0.5c0.7-0.1,0.8-1.2,1.5-0.8c0.3,0.1,0.8,0.5,0.9,0.5
			c4.2-0.1,4.3,1.2,6.2,1.2c0.5,0,1.3-0.2,1.6,0c0.8,0.5,1.5,0.6,2.7,0.1c0,0,2.8,7.4,2.1,20.9c-0.7,5.7-1.1,6.8-2.4,11.5
			c0,0-1.9,7.4-1.2,12.5c0.7,17.3-4.6,31.6-10.4,41.2c-2.2,2.6-3.4,4.1-1.2,6c4.6,4.2,8.3,5.1,14.8,6.6c2.3,0.7,3.7,1,5.9,1
			c3.4,0,8.7,1.4,11.1,3.2c2.3,1.2,8.4,3.5,12.2,2.9c3.3,0.2,4.2,0.5,5.8,1.1c1.1,0.5,2.2,0.5,3.4,0.1c1-0.7,0.5-0.4,1.9-1.4
			c0.2-0.6,2-1.4,1.6-3.8c-0.1-1.8-0.8-3.6-1.2-5.3c-1-1.5-1-2.6-0.6-4.1c1.1-2.2,2.4-3.2,3-4.3c1.4-1.6,0.6-2.7-1.4-3.3
			c-1-0.4-2.8-0.2-4.8-0.4c-1,0-1.9-0.4-3.3-0.1c0,0-1,0.7-1.5,1.1l-0.7-0.4c0,0,0.7-1.9,2-3c1.4,0.2,3.4,0.4,4.5,0.1
			c1.2-0.6,2.7-0.8,3.7-1.2c1.8-0.2,2.7-0.1,4.8,0.1c0,0,1.1-4.7-2.7-8.2c-0.9-0.8-1.6-1.9-2.9-2c-4.6,0.5-7.1-1.3-7.9-1.8
			c-1.1-0.1-1.5,0.4-2.1,1.1c-1.6,2.6-3.4,3.5-3.4,3.5l-1-0.1c0,0,0.8-1.4,2.8-3.8c0.9-1.9,2.1-4.3,3.1-5.5c0.7-1.1,0.8-3.7,2.5-4.4
			c0.8,0,0.9-0.2,1.5,0.2c-1.2,1.1-4.6,5.2-1.1,7.7c1.4,1.2,3.6,1.2,4.2-0.1c0.3-0.7,0.8-1.1,1.1-1.4c1.8-0.4,3.3,0.5,3.9,1
			c1.4,1.7,2.3,2.4,3,2.8c0.8,0.6,2.2,0.5,3,0.5C285.6,150.3,286.9,149,287.3,148.2L287.3,148.2z"/>
		<path id="path30" fill="#57211B" d="M262.1,120.2c0.7,0.4,1,0.3,2.5,0.5c0,0,1.3,0.2,2.5-0.8c0.2-0.2,1.2-0.7,1.1-1
			c-0.1-1.8,0.2,1.2-0.2-1.5c-0.1-0.6-0.1-1.1-0.3-1.7c-0.1-0.3-0.6-0.9-1.4-0.6c-0.1,0.1-1.3,1-1.4,1.1c-0.7,1.3-1.7,1.4-2.1,2.2
			c-0.4,0.7-0.6,0.9-0.8,1.4C261.9,119.8,261.8,120,262.1,120.2z"/>
		<path id="path34" fill="#0C130F" d="M273.2,138.2c2.1-0.7,3.1,0.3,5.4,1.8c0.4,0.3,0.7,1,0.2,1.3c-0.2,0.1-0.6,0.1-0.8,0
			c-2-1.9-2.7-1.9-4.8-2.3C273,139,272.7,138.3,273.2,138.2z"/>
		<path id="path38" fill="#0C130F" d="M260.9,159.2c-0.3,0.9-0.6,1.8-1,2.7c-0.4,0.9-0.2,2.1-0.9,2.9c-0.3,0.4-1.1,0.2-1.2-0.2
			c-0.4-1.6-0.2-3.3,0.6-4.8c0.4-0.8,1.5-1.2,2.4-0.9c-0.1,0.2,0.2,0.3,0.1,0.5C260.9,159.2,260.9,159.2,260.9,159.2z"/>
		<path id="path42" fill="#0C130F" d="M240.1,148.2c-0.7-0.2-1.1-0.9-1-1.6c0.2,0.1,0-0.3,0.2-0.2c1.4,0.1,2.8,0.7,4.2,0.7
			c1.6,0,3.3-0.3,4.8-1c1.9-0.9,3.5-1.8,5.3-3c0.8-0.5,1.9-0.8,2.9-1c1.6-0.4,1.5-1.2,2.6-1.9c1.7-1,1.6-1.7,2.5-1.3
			c0.3,0.1-0.3,0.7-0.6,1c-0.6,0.6-1.5,1.1-2.1,2.2c-0.1,0.2-1,1.1-1.2,1.3c-2,1.4-2.4,2.7-3.8,4.4c-0.8,1-1.1,2.3-1.6,3.5
			c-0.3,0.7-0.5,1.4-1,2c-0.2,0.3-0.8,0.1-1.1,0.4c-1.2,1.1-2.4,2.2-3.2,3.7c-0.1,0.2-0.7,0.2-0.7,0.1c-0.8-1.5-1.8-2.6-3.7-2.6
			c-0.3,0-0.7-0.7-0.7-1.4c0-0.1-0.1-0.4-0.3-0.4c-0.3,0-0.4-0.3-0.7-0.3c-0.3,0-0.6-0.5-0.6-0.7c-0.4-1.2-0.2-2.4-0.5-3.7
			C240,148.2,240.1,148.2,240.1,148.2L240.1,148.2z"/>
		<path id="path46" fill="#FFFFFF" d="M213.4,181.3c-0.3-1.2-2.3-1.1-3.6-0.9c-2.1,0.2-4,0.6-6.1,1.7c1.4-2,3-2.1,6.2-3.4
			c0.7-0.3,0.5-1.5,0.1-2.3c-0.5-0.8-1.2-0.9-1.5-0.9c-2.6-0.5-3.4,0.1-4.8,0.4c-4.8,1.2-9.5,4.8-12.1,8.2c-0.8,1-0.5,2.1-0.4,2.3
			c0.5,0.6,1.2,2.5,1.5,2.2c1.9-2.1,4.3-4,6.8-3.4c-1.1,0.3-4.9,2.3-6.1,5c-0.1,0.2,0.5,1.2,1.2,1.7c1,1.6,1.3,2.3,1.9,2.6
			c0.3,0,1.1-0.7,1.2-1c2.7-3.5,5.3-5.7,12.7-6.6c2.1-0.4,3.3-1,3.5-2.9c0,0,0.4-1-0.4-2.9 M213.4,181.3L213.4,181.3L213.4,181.3z"
			/>
		<path id="path50" fill="#FFFFFF" d="M204.6,192.4c0.1,1.8-0.1,2.6,0.4,3.8c0.5,1.1,1.5,2.1,1.9,3.2c0.3,0.9,1.3,2,1.3,2.6
			c0.5,0.5,0.6,0.9,0.6,0.9c0.6,0.8,2.6,1.8,1.9,2.3c-0.8,0.6-3.1,0.2-4.6-0.1c-1.8-0.3-0.8,1.3-0.4,1.5c1.8,0.8,5.7,1,7,1.7
			c0.8,0.4,1.8,1.1,2.1,1.8c0.2,0.6,0.7,1,1.1,1.5c1.2,1.6,1.7,2.3,2.9,3.4c0.6,0.5,1.4,1.4,1.1,2.2c-0.3,0.9-0.9,1.1-1.7,1
			c-0.3,0-1.2-0.3-2-0.7c-1.7-0.5-2-1.1-3.3-0.5c-0.7,0.3,0.3,1.4,1,1.8c3,1.6,6.7,1.6,9.6,3.3c2.5,1.4,4,3.2,3.9,6.9
			c0,0.1,0.9,0.6,1,0.5c0.9-1.3,3,0.3,4.1,0c0.1,0,0.1-0.6,0-0.8c-0.5-0.8-1.6-0.8-2-1.5c-0.5-0.8,0.2-1.6,0-2.3
			c-0.3-0.7-1.4,0.5-1.9,0.1c-1.9-2-3.2-4.3-5.8-5.5c1.1-3,1.6-6.3,1.3-7.9c-0.7-0.6-1,0.4-1.2,0.5c-0.6,0.6-0.4,1.8-1.1,2.7
			c-0.1,0.2-1.1,0-1.3-0.3c-1.8-1.5-3.4-3.3-4.3-5.4c0-0.1-0.4-0.5-0.5-0.6c-1.3-1.8-1.2-4.3,0.3-6.2c0.2-0.2,0.4-1.3,0.3-1.4
			c-0.3-0.2-0.9,0.2-1.1,0.5c-0.8,0.8-1.5,2.5-2.9,2.4c-1.6-0.2-2.2-1.7-3.1-2.8c-0.3-1-0.9-1.7-0.7-1.8c-1.3-1.9-1.4-3.5-2.7-5.8
			C205.5,192.8,205.1,192.6,204.6,192.4L204.6,192.4z"/>
		<path id="path54" fill="#57211B" d="M213.7,224.7c1.6,0.8-0.2-1-0.2-1c-0.6-0.4-2-2.6-2.3-3.1c-0.7-1.2-1.2-2.1-1.6-3
			c-0.6-1.4-1.8-2.5-3.7-4.3c-1-0.9-2.5-2.6-3.1-3.8c-1-1.9-1.5-5.2-3.8-6.8c-1.8-1.2-1.3-2.6-2.9-5c-0.6-0.9-1.8-1-2.7-1.9
			c-2.2-2.2-0.8-3.1-2.7-5.1c-0.9-0.9-1.2-1.1-2-2.4c-1-1.7-0.2-4-1.9-4.8c-1.4-0.7-2.6-1-3.5-1.3c-1.5-0.5-3.9-1.7-5.3-2.8
			c-1.4-1.1-4.4-3.5-7.5-6.2c1.9,14.7-0.7,27.2-15.5,40.4C182.4,208.5,194.3,214.9,213.7,224.7L213.7,224.7z"/>
		<path id="path58" fill="#57211B" d="M224.1,205.9c0.1,1.2,0.5,1,1.2,2.6c0.3,0.8,1.3,2.3,1.8,2.7c2.8,2.3,4.7,5.9,4.5,9.6
			c0.1,1.8,0.2,1.7,2,2.9c0.3,0.2,0.5,0.2,1.4,1.1c0.4,0.3,3,3.1,3.3,3.3c-0.1-1.1,0.1-2.9,0.1-3.5c-0.2-5.6,0.9-11.5-1-16.4
			c-1.4-3.7-4.7-7.8-6-11.7l-0.6-2.1c-0.7-3-0.7-6.1-0.7-6.1l-4-1.9c-3.2-1.3-6.8-2.4-10-3.6c0,1.7,0.2,2.9-1,4.5
			c0.8,2,1.6,6.5,2.5,7.6c2.1,2,3.8,3.5,5.2,8.2C223.1,204.5,224,205.1,224.1,205.9L224.1,205.9z"/>
		<path id="path62" fill="#FFFFFF" d="M175,78.8c0,0-2.4-0.2-8.1,4.1c-6.3,3.8-14.6,9.3-20.6,16.6c-4.4,4.4-10.6,11-12.9,15.6
			c0,0-3.7,5.9-6.2,15.4c0,0,0.9,3.1,3.3-1c4.2-7.1,20.3-31,43.2-48.4l1.1-0.1c-11.4,9.7-26.1,22.7-40.4,44.8
			c-0.5,0.8-1.2,2.3-1.3,2.4c-0.6,1.2,1,1.4,0.2,1.2c1.3,0.3,1.8-1.5,2.6-1.8c0.5-0.2,0.7,1.3,1.6,0.9c2.9-1.4,5.1-4.4,6.3-6.2
			c0.1,0.5,0.7,2,0.7,2c1.3,0.4,5.4-5.2,7.6-9.1c0.6,0.7-0.1,2.5,0.7,1.7c2.5-2.3,4.7-4.8,6-7.1c1.5-2.7,3.2-3.8,3.8-8.5
			c1,0.6,0.9,0.9,1.2,1.1c0.6-0.7,0.6-1.5,1.6-2.5c1-1.2,1.2-2.1,2.5-2.9c0.5-0.3,1.5-2.2,1.7-3.1c0.2-0.9,2.3-3.9,2.4-4.9
			c1.7-3.1,4.6-4.8,6.6-7.2C180.6,80.2,179.1,77.2,175,78.8L175,78.8z"/>
		<path id="path66" fill="#FFFFFF" d="M153.8,172c0.8,1,1.6-0.3,1.6-0.3c1.4-2.1,1.7-2.6,2.7-5.4c0.6-1.9,1.3-2.5,1.9-10.3
			c1.7,2.5,1.9,7.3,1.9,7.3l0.5-0.1c0,0,1.6-4.4,4.2-5.9c0,0,0.2-3,2.9-6c-0.4-1.8-0.6-3.2-1-6.1c-1.1-4.8-1.7-12.8-0.6-18.3
			c2.2,11.5,3.4,13.1,3.4,13.1l0.5,0.2c0.9-1.4,1.2-3.8,1.4-5.9c1.1-4.5,3-4.1,3-5c-0.6-3.7-1.6-9.6-1-14.6c1.2,5.5,1.8,5.1,2.6,7.2
			c1.1,2.5,1.2-0.6,1.2-0.6c-0.2-3.2,2.1-6.4-0.1-14c-0.8-5.1-3.3-16.1-2.3-18.6c0.6-3.1-0.5-2-0.5-2s-3.1,0.7-7.8,13.9
			c-6.9,21.8-12.8,45.1-19.2,64c1.9-9.9,12.2-44.9,15.2-57.5c0,0-0.4-0.9-1.1,0.1c-0.8,0.9-1.6,2-2,2.8c0.1,0-0.4,0.1-0.8,0.3
			l-1.5,2.3c0,0-3,4.2-11.3,12.7c-1.4,2.2-2,3.1-3.5,6.6c-0.5,1.3,0.3,1.4,1.2,0.7c2.2-2.1,2.3-2.1,5.4-4.5c0.1-0.1,2.6-1,2.6-1
			c-0.4,0.5-0.9,0.8-1.1,1c-0.9,0.8-2.9,3.1-3.5,4.1c-1.4,2.4-2.9,5.4-5,9c-2.5,4.5-4.5,9.8-4.5,9.8c-1.3,3.7-1,4.1-1,4.1
			c1.8,0.7,0.8,1.6,0.8,1.6c-0.8,1.5-1.2,2.7,0.2,2.1c0.9-0.2,1.4-0.6,1.8-1.1c0.7-0.9,1.3-1.5,1.8-2.1c0.8-1,0.7-1.3,1.5-2.3
			c1.1-1.3,1.8-2.4,3-2.9c-2,2.7-2.1,4.6-2.1,4.6l0.5,0.6l0.3,0.2c0,0-2,2.5-3,8.2c-0.5,2.7-0.4,3-0.8,4.5c0.2-0.2,1.4,0,2.5-1.1
			c-0.5,1.7-0.6,2.5-0.6,2.5c-0.2,1.4-0.2,1.1-0.2,2.7c0,1.4,0,0.8,0.5,2.5c2.2-1,2.6-0.8,4.7-3.2c1-0.9,1.7-3.1,2-2.9
			c0.5,0.2,0.1,1.5-0.2,2c-0.3,0.8-0.6,1.3-0.7,1.9c-0.1,0.3-0.3,0.7,0.1,1.1c0.2,0.2,0.1,0.1,0.7,0.1c0.4,0,0.7-0.6,0.7-0.6
			s0.2,0,0.4-0.5c0.1-0.4,0.4-0.5,0.7-0.7C153,172.2,153.3,171.9,153.8,172L153.8,172z"/>
		<polygon id="path70" fill="#0C130F" points="97.9,98.5 95.4,98.5 103.7,79.7 93.4,87.6 91.1,75.8 85.7,92 83.1,90 79.2,98.7 
			76.3,98.7 76.3,108.1 94,108.1 		"/>
		<polygon id="path74" fill="#0C130F" points="82.8,107.7 92.2,113.9 93.2,111.1 87.6,107.5 		"/>
		<path id="path78" fill="#0C130F" d="M85.5,106.3l5.1,5.1c0,0-4,16.6-3.3,25.7c7.4,7,12.8,13.8,12,29.1c0,0,0.5,0.4-2.7-0.6
			c1.6,1.7,2,3,3.4,5.8c0.6,4.7,1,8.8,0.6,13.1c0,0,0.4,10.6,0.7,14c1.5,0.5,0.6,4.3,0.7,9.3c0,0-0.1,3.1-0.6,5.5
			c-3-2.4-2.8-2.3-3.6-2c0.7,2.4,1.2,2.4,2.7,4.3c0,14.2,0.5,28.9,1.4,35.3c0.5,4.7,1.3,10,1.7,11.7c0.7,2.1,0.7,4.1,2.9,8.6
			c-0.7,0-2.7,0.1-4.1-1.7c1.9,3.6,1.9,2.9,3.1,4.1l1.7,12.4l-1.9,2.1l2.7,1.7c0,0-0.6,5.6,0.1,10.7c0.4,2.4,1.1,4.8,2.8,8.1
			c-3.5,0.1-4.1-2.7-4.1-2.7c-1-1.1-2.7-3.5-3.1-3.5c-0.2,3.5,1.7,4.8,2.5,6.8c2.5,5.8,2.8,11.5,0.6,22.3c-2.4-2.3-2.5-4.3-4.3-5.4
			c-0.2,6.2-0.5,8.1-1.7,10.9c-2.5,4.9-3.3,7.4-3.4,12.2c-4.2-3.5-5.3-8.2-8.2-11c-2.1-2-6.2-5.9-7.6-8.4c-0.2,3,0,4.1-1.2,6.9
			c-1-3.3-1.1-4.3-3.4-7c-3-4.2-9.8-13.5-11.3-23.4c-0.4-1.7-1.3-6.6-2.4-13.3c-0.8,2.3-2.3,4.1-3.7,4.4c-0.7,0.4-0.7-0.6-0.7-0.6
			c0.6-2.2,0.8-4.5,0.6-6.3c-0.4-2.6-1.1-8.5-2.4-9.9l-0.6,0c0.1,3.9-1.4,5.7-2.4,7c-0.1-3.1,0-5.5-0.7-7c-0.4-1.1-1.2-2-1.4-1
			c-0.6,3.1-0.8,3.7-0.8,6.6c-0.2,4.3-0.2,5.7-0.7,9.3c-0.2,2.6-1.1,5.8-3.5,9.1c-0.5-2.9-2.3-5.1-2.3-5.1c0,3.5,0.7,8.6-1.4,11.3
			c-2.7,3.6-3,5.4-3.9,8c-0.4-3.1-1.3-2.2-1.8-3.8c-1.9,8.1-8,14.3-10.1,15.8c1.4-3.3,2.7-7.2,2.9-9.5c0,0-0.4-8.8-1.7-13.8
			c-3.3-15.6-4.9-51.7-2.4-65.4c6-49.2,31.9-94.3,53.6-134.9L85.5,106.3L85.5,106.3z"/>
		<path id="path82" fill="#FFFFFF" d="M88,111.2c0,0-3.7,15.9-3,27c5.1,4.3,10.5,10.1,10.7,22.2c-0.4,0.2-0.5,0.1-0.8-0.2
			c-1.4-1.8-5.3-2.4-8.2-7.1c0.4,2.9,8.9,14.6,9.5,16.9c0.1,7.3,1.2,17.9,0.6,19.9c-2.1-1-3.1-3.3-2.9-1.9c1.6,4,2.9,7.5,4.8,10.4
			c0,0,0.2,10.3-0.2,8.9H98c-1.7-1.2-3.4-2.6-4.6-3.8c-0.8-0.4-0.9-1.4-2.4-2.8c-2.2-2-3.4-3.6-4.3-4c-2.3-1.6-3.9-2.1-5.2-2.6
			c-0.4,0-1.3-0.1-1.3-0.1s4.3,3.6,7.1,7.8c3.3,3.9,4.7,6.3,5.8,8.6c1.3,2.4,3.1,4.8,4.5,6.8c0,3.3-0.2,14.2-0.1,16.1l-0.9-0.7
			c-2.2-1.3-4.5-4.2-6.5-8.1c-1.1,5.5,4.8,11.9,7.5,14.1c0.9,10.2,0.9,15,2.6,25.7l-0.1,0.8c-2.4-1.7-5-4.3-8-8.6
			c-0.2,4.2,4,9.7,8.5,14.9c0.6,0.7,0.4,1.6,0.7,2.4c0.5,1.3,1.1,3,1.7,3.9c0.5,2.3,0.8,5.4,0.7,6.7l-1.8,3.5l2.4,2.9
			c0.2,3.1-0.4,3.9,0,7.4c0,0-2.8-0.2-4-3.3c-2.2,6,0.2,12.7,2.2,16.1c1.4,4.1,2.3,6.6,2,11l-0.5,1.3c-1.4-2.9-3.5-5.2-5.6-6.8
			l-0.8-0.2c2,12.6,1.3,16.7-2.5,24.7l-0.6-0.6c-2.2-4.2-6.3-7.4-9.2-10.4c-0.5-0.1-5.6-6.4-5.9-11.6l-0.6,0.1
			c-0.2,1.8-1,5.6-0.5,6.3l-0.5-0.2c-2.9-1.3-8.1-11.5-9-17.3c0,0-0.2-1.1-0.6-3.5c-0.2-2.3-1.4-9.2-1.6-10.1
			c-0.4-2.6-1.5-5.8-2-7.5c0.1-0.6-0.4-0.8-0.7-0.3c-0.7,0.9-1.2,1.8-1.6,1.3c-0.3-0.6-0.1-1.6,0.2-2.9c-0.5,0.4-1.6,0.5-1.7-0.4
			c-1.3-5.9-2.1-13.1-2.1-19.1c0.6-1.5,2.3-4.4,3.6-7.5l-0.1-0.7c-1.5,0.7-3.9,3.1-4.3,4.4l-0.6-0.8c-0.5-2.4-1-7-1-11.9
			c-0.2-0.9,0.1-1.4,0.5-2.2c1-2.3,2.1-4.8,2.9-7.3c0.7-2.5,4.8-10.3,6-12.1l-0.8,0.7c-2.2,0.8-8,7.6-8.7,8.1l-0.5,0.1
			c0.3-6.9,2.2-22.1,3.6-31.5c1.3-3.5,11.7-14.3,9.3-12.4c-4.7,1.7-6.3,3.3-7.2,3.8l-1.4,0.5c1.4-6.7,4.4-30.8,7.6-37.3
			c2.3-3.9,4.6-5,6.3-9.3l-1.2,0.6c-0.8,0.8-4.6,3.6-6.9,6.7l-0.7,0.1c1.1-3.1,1.5-6.4,3.6-10.7c0.6-1.8,1.6-2.5,2.3-4.1
			c1.8-2.3,2.5-3.1,4.2-3.9c0.8-0.4,2.4-1,2.4-1c-4.8,19.6-6.5,35.4-8,57.2C68.3,229.1,71.3,271,83,296.9
			c-9.4-30.3-13-63.3-11.8-96.7c1-28.7,5.3-51.6,14.7-90.3L88,111.2L88,111.2z"/>
		<path id="path86" fill="#FFFFFF" d="M81.6,108.2c-3,4.1-23.8,42.8-25.8,49.8c-18.3,36.4-29.2,72.7-28.5,108.4
			c0,15.6,1.7,26.4,3.6,37.8c0.8,4.4,2.1,10.4,1.8,14.2l0.6-0.4c0.8-1.6,3.1-6.4,3.9-10.5c0.2-1.6,1.1,0,1.1,0
			c0.4,1.1,1.1,1.5,1.2,2.6c0,1,0.5,0.8,0.7,0.1c1.3-2.6,1.7-4.2,1.2-6.9c-0.5-2.3-0.8-11.7,0.2-15.2c0-1,0.8,0,0.8,0
			c0.6,1.4,1.6,4.1,3.7,6.2c0,0,0.9,0.6,1,0c-0.2-2.5-0.5-18.9,3.4-20.7c1.4,0.4,1.6,1.3,2.7,2.4c1.2-1.3,1.7-6.9,1.3-11.2
			c0.1-6.7-0.8-13.4-1.5-17.5c-0.5-1.3,0-1.6,0.7-1.8c0.2-0.1,2.9-3.5,2.9-5.2c-2.3,1.5-2.9,1.9-5.1,3.3c-0.2-5.1-2.5-13.3-5.1-19.6
			c2.7,2.4,4.3,5.1,5.2,7.4c1-5.3,1.3-8.4,1.4-10.9c-1.3-4.7-3.9-14.8-3.6-22.3c1.6,5.5,3,11.5,4.6,15c0.7-2.6,1.3-7.3,2.3-11.2
			c1.3-1,2.9-1.9,3.4-2.7c-0.5-0.8-2.5,0.7-2.9,0.8c0.2-3.7,0.8-10.9-1.7-22.6l0.4-0.4c1.1,0.5,2.4,2.6,2.9,4.9
			c2.2-2.5,3.6-14.9,4.2-19.8c-2.3,0-3.4,2.5-5,2.3c0.2-1.6,0.4-0.8,1-2.3c0.6-1.7,2.1-3.4,2.7-5.6c1.3-1.9,1.3-4.2,1.4-6.3
			c0-2-0.2-5,1.4-7.6c0.4,1.1,0.1,1.8,1,4.1c0,0,3.4-7.3,5.2-9c2.4-10.4,8.2-22.1,13.6-29.7 M81.6,108.2L81.6,108.2L81.6,108.2z"/>
		<path id="path90" fill="#FFFFFF" d="M82.7,114.8c-4,5.6-6.9,14.5-8.3,20.8c1.8-1,1.9-0.8,3.6-1.4
			C78.6,131.2,83.3,113.9,82.7,114.8L82.7,114.8z"/>
		<path id="path94" fill="#F1C817" d="M42.8,251.2c0.1,0.3,0.6,0.1,0.3,0.5c0.7,0,1.5,0.1,2.1-0.1c0.3-0.1,0.6-0.6,0.6-0.9
			c0.2-1,0.7-2.3-0.2-3c-0.8-0.6-0.7-1.7-1.2-2.1c-0.3-0.2-0.8-0.4-1.2-0.7c-0.3-0.3-0.8,0.3-0.8,0.6c0,0.8,0.5,1.6,0.5,2.4
			C43,249.1,42.4,249.5,42.8,251.2L42.8,251.2z"/>
		<path id="path98" fill="#F1C817" d="M34,240.2c-0.1-1.4-0.5-3.3,1.5-2.8c0.7,0.2,0.8,1.1,0.8,1.6c0,1.3,0.3,2.3,0.9,3.3
			c0.3,0.6-0.2,1.2-0.5,1.6c-0.8,1.2-2.5,1.9-3.4,0.7c-0.6-0.7-1.3-1.8-0.8-2.7c0.4-0.8,0.7-1.2,1.4-1.8 M34,240.2L34,240.2
			L34,240.2z"/>
		<path id="path102" fill="#F1C817" d="M36.1,254.4c-1.1-1.6-0.6-3,0.7-3.9c0.8-0.6,1.8-0.2,2,0.5c0.4,1.4,1,2.6,1.5,4.1
			c0.5,1.5-1.4,2.9-2.7,2.2C36.7,256.8,36.7,255.3,36.1,254.4z"/>
		<path id="path106" fill="#F1C817" d="M37.3,260.1c-0.5-0.2-0.6,0.3-0.8,0.5c-0.5,0.5-0.5,1.4-1,2.1c-0.9,1.2-0.6,2.8-0.3,4
			c0.2,0.8,1.4,1.9,2.4,1.8c1.6-0.1,2.7-3,1.5-3.7c-1.6-0.9-1-3.2-1.6-4.5c0-0.1-0.4,0-0.7,0 M37.3,260.1L37.3,260.1L37.3,260.1z"/>
		<path id="path110" fill="#F1C817" d="M47.2,257.1c-0.4-0.5-0.4-1.2,0-1.6c0.4-0.3,1.2-0.2,1.6,0.2c0.1,0.1,0.6,0.4,0.7,0.5
			c1.3,1,2.1,2.4,1.4,3.9c-0.2,0.4-1,0.9-1.5,0.5c-0.4-0.3-1-0.3-1.3-0.9C47.7,258.9,47.9,257.9,47.2,257.1z"/>
		<path id="path114" fill="#F1C817" d="M32.9,247.5c-0.2-0.8-0.9-0.4-1.2,0.2c-0.9,1.3-1.3,2.6-1.4,4.5c0.2,1.1,1.8,1.3,2.6,0.8
			c1.7-1.1,0.5-5.2,0.4-4.6C33.3,247.9,32.9,247.4,32.9,247.5L32.9,247.5z"/>
		<path id="path118" fill="#F1C817" d="M66.5,259.3c-0.4-0.3-0.9,0-1,0.4c-0.1,1.2-0.2,3.5,1.7,3.2c0.7-0.1,1.1-0.8,1-1.5
			C68,260.4,67.3,259.8,66.5,259.3z"/>
		<path id="path122" fill="#F1C817" d="M71,263.6c-0.5-0.4-1.3-0.4-1.6-0.1c-0.7,0.5-0.9,1.6-0.7,2.5c0.3,0.9,0.6,1.9,1.3,2.6
			c0.4,0.5,1.4,1,1.6,0.7c0.6-0.8,1.1-1.8,0.8-3C72.2,265.3,71.7,264.4,71,263.6z"/>
		<path id="path126" fill="#F1C817" d="M88.3,262.2c-0.3,0-0.8,0.1-0.9,0.3c-0.7,1,0.1,2.3,1,2.7c0.9,0.5,2.1-1.1,1.4-2
			c-0.4-0.6-1.1-1-2-1 M88.3,262.2L88.3,262.2L88.3,262.2z"/>
		<path id="path130" fill="#F1C817" d="M80,273.2c-0.3-0.2-0.9-1.3-0.6-2c0.2-0.7,1-0.9,1.7-0.8c0.7,0.1,1.2,0.7,1.6,1.2
			c1.1,1.4,1.4,3.6,0,4.8c-0.6,0.5-1.6,0.4-2-0.3c-0.5-0.9-0.1-1.6-0.5-2.5C80.2,273.6,79.9,273.2,80,273.2L80,273.2z"/>
		<path id="path134" fill="#F1C817" d="M90,274c-1-0.8-0.6-2.3-1.7-3c-0.6-0.4-1.4-0.5-2,0c-0.6,0.5-0.6,1.2-0.7,2
			c-0.1,0.4,0.2,0.8,0.4,1.2c0.8,1.6,2.7,1.7,4.2,2.6c0.2,0.1,0.6-0.3,0.7-0.5C91.5,275.4,90.7,274.5,90,274L90,274z"/>
		<path id="path138" fill="#F1C817" d="M74.1,272.5c-0.5-0.6-1.4-0.4-1.9-0.1c-0.2,0.1-0.4,0.4-0.4,0.7c0,1.6-0.5,3.2,0,4.6
			c0.3,0.9,1.1,2,2.2,1.5c0.7-0.3,1.2-1.2,1-2.1C74.5,275.6,75.2,273.8,74.1,272.5L74.1,272.5z"/>
		<path id="path142" fill="#F1C817" d="M101.4,272.9c-0.3-1.1-2.3,0-3-0.7c-0.6-0.6-1.4-1.2-1.5-2.1c-0.5,1.1-0.1,2.3,0.4,3.3
			c0.3,0.6,1,0.9,1.5,1.4c0.5,0.5,0.7,1.3,1,2c0.4,0.9-0.5,1.4-1.1,1.5c-1.8,0.3-1.8-2.2-2.4-3.4c-0.4-0.9-1.5-1.2-2.1-2
			c-0.1-0.2-0.4-0.4-0.5-0.6c-0.5-0.9-1.5-1.5-2-2.4c-0.1,0.4,0.1,0.8,0.2,1.2c0.8,2.6,2.2,5,3.4,7.5c0.3,0.7,0.7,1.4,0.9,2.1
			c0.2,0.6,0.1,1.4-0.3,1.8c-0.4,0.4-1.3-0.5-1.4-0.2c-0.6,1.1,0.4,2.4,0.9,3.5c0.4,0.8,1.1,1.5,0.8,2.4c-0.1,0.2-0.3,0.4-0.6,0.5
			c-0.9,0.2-1.6-0.3-2.1-0.8c-1.8-1.8-3.3-3.7-4.7-5.9c-0.5-0.8-0.2-2-0.8-2.8c-0.3-0.5-1-1.3-1.6-0.7c-0.2,0.2-0.4,0.4-0.5,0.7
			c-0.2,1.1-0.4,2.1-1.1,2.9c-0.2,0.2-0.6,0.6-0.6,0.7c-0.9,1.7-1.1,3.6-1.4,5.5c-0.1,0.5-0.2,1-0.7,1.3c-0.5,0.3-0.8-0.3-1.1-0.6
			c-0.7-0.9-1-2-1.5-3c-0.3-0.6-0.3-1.4-0.7-2.1c0,0-0.1,0-0.2,0c0.1,0.2-0.1,0.3-0.2,0.5c-0.5,0.8-1.3,1.2-2.1,1.5
			c-0.5,0.2-1-0.2-1.1-0.6c-0.6-2.3-2.2-4-2.8-6.2c-1,0-2,0.2-2.6-0.7c-1.4-2.1-1.2-4.5-1.3-6.8c-0.3,0.3-0.7,0.5-0.9,0.8
			c-2.3,3.6-3.2,7.4-4.2,11.6c-0.2,0.8-0.3,1.1-0.6,1.9c-0.5,1.6,0.3,1.9,1.2,0.8c1.5-1.9,1.2-0.3,1.3,0.1c0.4,2.8,1.8,5.5,2.4,10.1
			c0.5,4.5,1.5,9.1,1.9,11.3c1.3,7.5,6.3,15,9.3,16.9c-0.4-3.1,0.7-4.3,0.5-6.7l0.6-0.1c0.1,4.2,3.3,9.6,6.9,12.5
			c2.9,3.3,4.5,4.1,6.9,7.5c0.7,1.2,1.3,1.7,1.9,2.7c1.3-2.7,3.7-7.5,3.7-12.7c0,0,0,1,0,0c0-4-0.1-8.6-1.2-12.2
			c2.2,1,4.6,4.4,6.4,7.4c1.1-2.3,0.5-8.6-1.2-11.7c-1.7-3.8-4.5-9.1-2.5-16.8c1.2,2.7,2.1,2.6,4,3.1c0.4-2.9-0.1-6.9,0-7.4
			c-0.7-1.3-2.4-2.9-2.4-2.9l1.8-3.5c0.8-3.5-0.8-6.2-0.7-6.7C102.4,275.9,101.8,274.2,101.4,272.9L101.4,272.9z"/>
		<path id="path146" fill="#F1C817" d="M80.5,253.8c-0.3-0.7-1-1.3-0.6-2c0.1-0.2,0.5-0.2,0.8-0.2c0.9-0.2,1.9-0.1,2.4,0.5
			c0.4,0.5,0.8,1,1.1,1.6c0.4,0.6,0.5,1.3,0.7,2c0.3,0.7,0,1.6-0.6,1.9c-0.7,0.4-1,0.8-2,0.3c-0.4-0.2-0.6-1-0.8-1.3
			c-0.2-0.4-0.2-1.6-0.5-2C80.8,254.3,80.7,254.2,80.5,253.8L80.5,253.8z"/>
		<path id="path150" fill="#F1C817" d="M79.9,257.8c-0.3-0.3-0.7-0.3-1-0.3c-0.1,0-0.6,0-0.6,0.3c0.1,1.4-1.6,2.1-2.1,3.3
			c-0.5,1.2,0.5,2.3,1.4,3.1c0.7,0.6,1.8,0.2,2.7-0.1c1.4-0.4,1.6-2.4,1.3-3.7C81.3,259.5,80.7,258.6,79.9,257.8z"/>
		<polygon id="path154" fill="#FFFFFF" points="95.9,101.4 79.3,101.4 79.3,105.3 94.4,105.3 		"/>
		<polygon id="path158" fill="#FFFFFF" points="94,90.8 94.6,93.6 97.8,87.5 		"/>
		<polygon id="path162" fill="#FFFFFF" points="82.6,98.5 84.2,94.4 89.1,98.5 		"/>
		<polygon id="path166" fill="#FFFFFF" points="88.1,94 90.3,86.1 91.9,97.2 		"/>
		<path id="path170" fill="#F1C817" d="M27.6,252.3c0.1,1.1,0.1,0.4,0.6,1.3c0.5,0.8,0.2,1.9,0.6,2.8c0.3-0.4,0.9-0.6,1-1.2
			c0.5,1.8-0.9,3.6-0.2,5.5c0.7-0.7,1.8-0.8,2.4-1.7c0,0.7-0.3,1.5-0.4,2.2c-0.2,1.2,0.3,2.5,0.5,3.8c0.2,1.6,2.2,2.9,1.6,4.5
			c-1,2.6-1.5,5.4-0.6,7.9c0.2,0.5,0.4,1.4,1.1,1.7c0.5,0.2,1.2,0.2,1.6,0c0.2-0.1,0.5-0.5,0.5-0.9c0.2-1.2-0.3-2.2-0.1-3.3
			c0.3-1.4,0.5-2.9,1.4-4c0.2-0.2,0.9-0.2,1.1,0.2c0.6,1.3,0.4,3,1.2,4.2c0.3,0.4,1.2,0.7,1.7,0.3c1.1-1,0.7-2.7,0.9-4
			c0.2-2.2-0.8-3.4-1.1-5.7c-0.3-2.1,0.1-2.5,0.8-3.3c0.7,2,0.7,4.2,2.2,6c0.3,0.4,0.9,0.4,1.1,0.2c1.1-0.9,0.8-2.9,0.1-4.1
			c-1.2-1.9-2.1-5,0-6.8c-0.1,1-0.1,2.1,0.4,2.8c0.7,1,2,3.1,2.2,5.1c0.1,0.7,1.1,1,1.7,0.4c0.1-0.1,0-0.6,0.3-0.6
			c1-0.1,1.5,1,1.4,1.9c0.4,0,0.9,0.1,1.1-0.1c1-1,0.7-3.3,0.8-4.7c0.1-2.5,0.7-1.6,1.1-1.8c0,0,0.2,1.2-0.1,4.7
			c0.4,4.3-0.1,9.9-1.3,11.2c-1.1-1.1-1.2-2-2.6-2.4c-3.9,1.8-3.6,18.2-3.4,20.7c-0.1,0.6-1,0-1,0c-2.2-2.1-3.1-4.8-3.7-6.2
			c0,0-0.8-1-0.8,0c-1.1,3.5-0.7,12.9-0.2,15.2c0.5,2.7,0.1,4.3-1.2,6.9c-0.2,0.7-0.7,0.8-0.7-0.1c-0.1-1.1-0.9-1.5-1.2-2.6
			c0,0-0.8-1.5-1.1,0c-0.7,4.1-3,9-3.9,10.5l-0.6,0.4c0.2-3.8-1-9.8-1.8-14.2C29,293.1,27,282.3,27,266.7c0-7,0.4-14.6,0.4-14.6
			L27.6,252.3L27.6,252.3z"/>
		<path id="path174" fill="#F1C817" d="M77.7,281.5c1.7,5.4,3.9,12.7,5.3,15.4c-0.4-3.1-4.6-15.4-4.5-16.2
			C78.7,279.8,77.7,281.5,77.7,281.5L77.7,281.5z"/>
		<path id="path178" fill="#FFFFFF" d="M210.8,79.3c-0.4-0.4-1.7-0.2-1.9-0.7c-0.2-0.4-0.3-0.8-0.6-1c-0.4-0.3-1,0.1-1.5,0.2
			c-0.7,0.1-1.5,0-2.3-0.3c-1.3,1.5-4.7,0.5-6.4,0.6c-0.2,0,1,0.7,1.2,0.9c1.1,1,3,0.9,4.4,0.9c0.2,0,0.7-0.2,0.9-0.3
			c1.5-0.2,3,0.3,4.6,0.6C209.7,80.3,211.3,79.8,210.8,79.3z"/>
		<path id="path182" fill="#FFFFFF" d="M234.2,81.4l-3.6-2c-0.2-0.3-0.5-0.8-0.8-1.1c-0.8-0.7-1.2-1.6-2.2-2.2
			c-1.2-0.8-2.2-1.8-3.6-2.3c-0.1,0-0.3,0-0.5,0c-0.1,0-0.2-0.1-0.1-0.2c-0.1,0-0.3,0-0.3,0c-0.2-0.2-0.5-0.3-0.6-0.4
			c-0.7-0.2-1.5,0.2-2.1-0.4c-0.3-0.3-0.8-0.5-1.2-0.7c-1.1-0.7-2.3-0.3-3.4-0.1c-0.2,0-0.6,0.3-0.8,0.5c-0.4,0.4-1.1-0.3-1.7-0.1
			c-0.5,0.2-1.1,0.7-0.6,1.2c0.5,0.5,1.2,0.9,1.9,1c2.1,0.5,4.3,0,6.2,0.9c0.6,0.2,1.3,0.5,1.5,1.2c-0.2,0-0.4,0.2-0.6,0.1
			c-0.5-0.3-1-0.3-1.5-0.4c-3.3-0.3-6.6-0.5-9.9-0.1c0,0.8,0.3,1.7,1.1,1.8c1,0.1,2.1-0.2,3.1-0.1c1.1,0.1,2.2,0.8,3.3,1.4
			c0.1,0.1,0.4,0.1,0.6,0c0.5-0.2,0.9-0.9,1.4-0.6c0.3,0.2,0.7,0.3,1,0.4c0.8,0.1,1.3,0,2,0.1c1.5,0.2,2.8,1.2,4.3,1
			c1.1-0.2,1.7,0.2,2.2,0.7c-0.3-0.3,2.1,1.4,2.3,1C231.8,81.9,234.2,81.7,234.2,81.4L234.2,81.4z"/>
		<path id="path186" fill="#FFFFFF" d="M243,80.6c-1-0.6-1.1-1.8-1.6-2.7c-0.4-0.7-0.9-1.2-1.6-1.5c-2.8-1.5-6.1-4-8.3-3.8
			c-0.7,0.1-0.9,0.8-0.6,1.1c0.7,0.7,2,0.9,2.1,2.1c2.8,1.4,7.8,2.3,7.6,5.4C240.7,81.5,242.5,80.6,243,80.6L243,80.6z"/>
		<path id="path190" fill="#F1C817" d="M79.3,101.4l17.8,0c-1,1.9-1.5,3.9-1.5,3.9l-16.2,0L79.3,101.4L79.3,101.4L79.3,101.4z"/>
	</g>
</g>
</svg>
