<?xml version="1.0" encoding="utf-8"?>
<!-- Generator: Adobe Illustrator 18.0.0, SVG Export Plug-In . SVG Version: 6.00 Build 0)  -->
<!DOCTYPE svg PUBLIC "-//W3C//DTD SVG 1.1//EN" "http://www.w3.org/Graphics/SVG/1.1/DTD/svg11.dtd">
<svg version="1.1" id="ARIZONA_CARDINALS" xmlns="http://www.w3.org/2000/svg" xmlns:xlink="http://www.w3.org/1999/xlink" x="0px"
	 y="0px" viewBox="-81.2 -75 500 350" enable-background="new -81.2 -75 500 350" xml:space="preserve">
<g>
	<path fill="#1A191A" d="M-51-30.2c0,0,6.7,23.2,32.6,41.4l-15.1-1.6c0,0,15.9,22.4,44.6,36.5l-15.7-1.4c0,0,21,33.4,63.6,49.9
		c0,0,4.3,27.3,41.2,52c0,0,35.1,20.2,39.1,38.7c0,0,67.5-4.5,141.4,45c0,0,17.4-71.3,107.8-80c0,0,0.1-38.7-51.2-64.4
		c0,0-21-80.4-148.2-89.1L82-2.9C82-2.9,0.2-8.3-51-30.2z"/>
	<path fill="#84161C" d="M-20.1-9.3c0,0,21.9,28.7,83.9,43.1l-56-5.1c0,0,20.9,20.1,82.9,35.2l-56.1-4.9c0,0,31.5,30,80.4,38.1
		l-30,4.7c0,0,2.7,15.2,54.3,48.5c0,0,17,14.3,13.5,17.9c0,0,28,0.3,76.9,23.3c0,0,46.9-23.9-18.5-93.7c0,0-30-33-63.7-54.6
		c0,0,50.9-12.1,114.3,24.3c0,0,32.4,24.3,62,12.1c0,0-12.1-61.4-126.4-71.1H73.3C73.3,8.6,20.7,4.5-20.1-9.3z"/>
	<path fill="none" stroke="#000000" d="M-20.1-9.3c0,0,21.9,28.7,83.9,43.1l-56-5.1c0,0,20.9,20.1,82.9,35.2l-56.1-4.9
		c0,0,31.5,30,80.4,38.1l-30,4.7c0,0,2.7,15.2,54.3,48.5c0,0,17,14.3,13.5,17.9c0,0,28,0.3,76.9,23.3c0,0,46.9-23.9-18.5-93.7
		c0,0-30-33-63.7-54.6c0,0,50.9-12.1,114.3,24.3c0,0,32.4,24.3,62,12.1c0,0-12.1-61.4-126.4-71.1H73.3C73.3,8.6,20.7,4.5-20.1-9.3z"
		/>
	<path fill="#FFFFFF" d="M221.2,64.2c0,0,6.7,52.9,58.7,50.2c0,0,18.2-4.4,21.9-23.3h-7.1c0,0-6.1,19.2-24.3,15.5
		c0,0-11-0.2-21.6-16.2l17.2-2.4C266.1,88.1,235.7,78.7,221.2,64.2z"/>
	<path fill="none" stroke="#000000" d="M221.2,64.2c0,0,6.7,52.9,58.7,50.2c0,0,18.2-4.4,21.9-23.3h-7.1c0,0-6.1,19.2-24.3,15.5
		c0,0-11-0.2-21.6-16.2l17.2-2.4C266.1,88.1,235.7,78.7,221.2,64.2z"/>
	<path fill="#FDBD12" d="M290.8,138.2c0,0,52.7-9.7,88.3,7.8c0,0-45.1,1.9-75.2,27.3C303.8,173.3,306.6,154.1,290.8,138.2z"/>
	<path fill="none" stroke="#000000" d="M290.8,138.2c0,0,52.7-9.7,88.3,7.8c0,0-45.1,1.9-75.2,27.3
		C303.8,173.3,306.6,154.1,290.8,138.2z"/>
	<path fill="#FDBD12" d="M291.5,125.5c0,0,57.8-2.5,87.9,16.5c-7.1-28.1-55.6-50-51.7-48.1C327.7,93.9,318,116.5,291.5,125.5z"/>
	<path fill="none" stroke="#000000" d="M291.5,125.5c0,0,57.8-2.5,87.9,16.5c-7.1-28.1-55.6-50-51.7-48.1
		C327.7,93.9,318,116.5,291.5,125.5z"/>
</g>
</svg>
