<?xml version="1.0" encoding="utf-8"?>
<!-- Generator: Adobe Illustrator 18.0.0, SVG Export Plug-In . SVG Version: 6.00 Build 0)  -->
<!DOCTYPE svg PUBLIC "-//W3C//DTD SVG 1.1//EN" "http://www.w3.org/Graphics/SVG/1.1/DTD/svg11.dtd">
<svg version="1.1" id="svg2434" xmlns:svg="http://www.w3.org/2000/svg"
	 xmlns="http://www.w3.org/2000/svg" xmlns:xlink="http://www.w3.org/1999/xlink" x="0px" y="0px" viewBox="-140.2 -71.3 500 350"
	 enable-background="new -140.2 -71.3 500 350" xml:space="preserve">
<g id="layer1" transform="translate(-15.869222,-165.76504)">
	<g id="g8" transform="matrix(1.25,0,0,1.25,15.869222,165.76504)">
		<path id="path10" fill="#DCE0E5" d="M198.7,58.6c0,0,15.3-2.3,18.1-16.7c2.8-14.4-7-25.9-24.6-33.9C166.7-3.5,136.1-14.6,71.6-29
			c-34.8-7.8-44.5-10.2-44.5-10.2l-68.6,73.3l58.9-1.9c0,0-19.5,29.7-16.2,78.4c3.2,48.7,24,73,40.3,83.9
			c11.1,7.4,26.4,10.7,26.4,10.7s-7.9-11.1-5.6-25c2.3-13.9,7.9-21.3,12.1-28.8c4.2-7.4,31.1-60.3,31.1-60.3s9.7,0,13.9,0.5
			c4.2,0.5,7,2.3,7,4.6c0,2.3-2.8,5.6-2.8,5.6s13.9,0.9,32-6c18.1-7,24.1-18.5,24.1-18.5s-7.9-9.7-17.2-17.2
			c-9.3-7.4-16.7-12.1-16.7-12.1h40.8c0,0,7.9,0,10.7,2.3C200.1,52.6,198.7,58.6,198.7,58.6z"/>
	</g>
	<g id="g12" transform="matrix(1.25,0,0,1.25,35.15996,174.42716)">
		<path id="path14" fill="#FFFFFF" d="M187.7,45.9c0,0,8.8-2.8,10-11.8c1.2-9-3.9-15.5-6.7-18.3c-2.8-2.8-15.1-11.6-36.6-19.2
			c-17.8-6.3-44.7-13.4-93.2-24.3c-31.5-7.1-44.7-8.1-44.7-8.1l-50.5,54.5L18,18.3c0,0-21.6,26.5-23.4,78.8
			c-2.8,78.8,50.5,95.5,50.5,95.5s-5.1-9.3-3.7-19.9c1.4-10.7,6-19,11.1-28.3C57.6,135.2,85.4,80,85.4,80s16,0,19.5,0
			s8.3,1.9,10.2,4.4C117,87,116,89,116,89s13.5,0.9,22.5-3c13.2-5.8,20.2-14.6,20.2-14.6s-9.3-11.1-23-19.7
			c-13.7-8.6-25.3-14.4-25.3-14.4h64.7c0,0,7.9,0,10.2,2.1C187.7,41.5,187.7,45.9,187.7,45.9z"/>
	</g>
	<g id="g16" transform="matrix(1.25,0,0,1.25,54.45196,181.11904)">
		<path id="path18" fill="#161413" d="M175,34.8c0,0,4.2-2.3,4.2-9.3c0-5.3-5.1-11.6-9.3-14.6c-4.2-3-13.2-8.6-28.1-13.4
			c-14.8-4.9-46.1-12.5-73-18.1C41.9-26.2-1.9-33.4-1.9-33.4l3.9,5.8l-29,31.1L76,11.6l-0.9,1.2H6.2l5.1,5.1L0.2,37.6l58-12.1
			l-1.6,1.6l-67.7,23l5.8,3.7c0,0-2.1,3.9-3.5,12.3c-1.4,8.3-2.3,16.2-2.3,16.2l58-35.5l-0.2,1.4l-64,51l6,1.6
			c0,0,0.2,10.9,1.4,17.4c1.2,6.5,3,13.9,3,13.9l52.4-61.7v2.1l-51.7,76.1h5.1c0,0,2.8,8.1,9.3,16.5c6.5,8.3,16,15.1,16,15.1
			s-3.5-7.3-2.1-19.5c0.9-7.9,8.8-20.9,12.5-28.3c3.7-7.4,51-100.9,51-100.9l-9-4.9h87.9c0,0,5.3,0.7,7.9,2.8
			C174.8,31.5,175,34.8,175,34.8z"/>
	</g>
	<g id="g20" transform="matrix(1.25,0,0,1.25,199.53184,221.86729)">
		<path id="path22" fill="#FFFFFF" d="M59.7-3.6c0,0,1.2-4.4-0.9-8.1C56.6-15.5,52-18,52-18l0.9,4.6l-24.1,3L27.9-9h23.4
			c0,0,2.4,0.1,5.1,1.7C58.7-5.8,59.7-3.6,59.7-3.6z"/>
	</g>
	<g id="g24" transform="matrix(1.25,0,0,1.25,201.30309,213.40291)">
		<path id="path26" fill="#FFFFFF" d="M46.9-9.1c0,0-2.6-3.5-6.7-6c-4.2-2.6-11.6-6-11.6-6s5.1,4.3,7.7,7.3c2.6,3,3.2,4.5,3.2,4.5
			L46.9-9.1z"/>
	</g>
	<g id="g28" transform="matrix(1.25,0,0,1.25,76.893335,194.70179)">
		<path id="path30" fill="#B01742" d="M118.8-1.8c0,0-30.9-8.4-66.8-15.3c-35.9-7-62.4-11.1-62.4-11.1l-8.1,9.5l137,18.5L118.8-1.8z
			"/>
	</g>
	<g id="g32" transform="matrix(1.25,0,0,1.25,87.227835,226.00066)">
		<path id="path34" fill="#B01742" d="M27.3-16.4l-37.1,0.7l-4.8,8.3l41.4-7.9L27.3-16.4z"/>
	</g>
	<g id="g36" transform="matrix(1.25,0,0,1.25,75.612835,244.40641)">
		<path id="path38" fill="#B01742" d="M24-9.5L-16.3,5l-2.7,10.7L23.3-7.9L24-9.5z"/>
	</g>
	<g id="g40" transform="matrix(1.25,0,0,1.25,74.03821,267.43866)">
		<path id="path42" fill="#B01742" d="M19.5-0.8l-39.1,33c0,0,0.1,4.3,0.5,6.4c0.3,2.1,0.9,4.6,0.9,4.6L19.7,1.1L19.5-0.8z"/>
	</g>
	<g id="g44" transform="matrix(1.25,0,0,1.25,84.27496,289.97641)">
		<path id="path46" fill="#B01742" d="M18.4,7.7c0,0-11.2,16.6-18.9,28.3c-7.7,11.7-15.2,23-15.2,23s1.7,3.5,2.9,5.3
			c1.2,1.9,3,4.2,3,4.2l29-59.7L18.4,7.7z"/>
	</g>
	<g id="g48" transform="matrix(1.25,0,0,1.25,139.58934,237.81216)">
		<path id="path50" fill="#161413" d="M20.7-12c0,0,20.5,10.1,31.5,17.5c11,7.4,18.5,15.4,18.5,15.4s-2.3,3.5-7.9,7.1
			c-5.6,3.6-11.4,4.5-11.4,4.5s4.4-3.9,4.8-5.9c0.3-2-0.5-2.4-1.6-2.4c-1.2,0-12.8,0-12.8,0s-2.1,1.5-2,4.6c0.1,3.1,1.6,5.1,1.6,5.1
			s-4.1-0.6-7-3.9c-2.9-3.4-2.9-5.8-2.9-5.8H5.2L21.8-8.4L20.7-12z"/>
	</g>
	<g id="g52" transform="matrix(1.25,0,0,1.25,147.56184,259.76153)">
		<path id="path54" fill="#B01742" d="M11.5-3.7l29.6,4.5l-0.7,1.4H8.3L11.5-3.7z"/>
	</g>
</g>
</svg>
