<?xml version="1.0" encoding="utf-8"?>
<!-- Generator: Adobe Illustrator 18.0.0, SVG Export Plug-In . SVG Version: 6.00 Build 0)  -->
<!DOCTYPE svg PUBLIC "-//W3C//DTD SVG 1.1//EN" "http://www.w3.org/Graphics/SVG/1.1/DTD/svg11.dtd">
<svg version="1.1" id="CAROLINA_PANTHERS" xmlns="http://www.w3.org/2000/svg" xmlns:xlink="http://www.w3.org/1999/xlink" x="0px"
	 y="0px" viewBox="-66 -75 500 350" enable-background="new -66 -75 500 350" xml:space="preserve">
<g>
	<path fill="#FFFFFF" d="M395.7,40.7c-6.7-3-13.8-6.4-32.9-9.3c-0.3-1.5-0.8-3.2-1.5-4.9c0,0,10.3-9.4,11.8-21.5
		c0.3-2.4-2.3-10-8.7-9.8c-6.2,0.2-12.4-0.6-17.6-2.6C304.1-25,246.6-28.5,192.1-18.1c-13.2,2.3-33.7,9.6-45.8,10
		c-2.2,0.1-11-1.3-16.8,1.9c-3.9,2.1-7.4,7.3-5.2,12.1c3.5,7.6,8.3,14.2,14.5,20.7C35.8,70-44,177.4-44,177.4
		c89.5-20.7,151.1-15.6,227.3,19.2C263,231.6,305.9,223,305.9,223c-0.2-5.8-3.3-25.5-6.5-36.7c13.7-2.6,17.2-14.3,17-19.7
		c0-0.3-1.8-33.6-2-37.2c15.6-10.1,35.3-45,41.8-63.6c23.7,1.2,42.5,6.1,55.7,14.3C409.7,72.6,402.4,48.8,395.7,40.7z"/>
	<g>
		<path d="M354.1,55.7c0.6-1.6,1.6-5,2-6.4c12.8-0.5,28.9,1,41.7,6.4c0,0-16.6-9.6-41-9.6c0.2-0.8,0.9-4.3,1.1-6.4
			c11.3,0.4,22.3,1.5,32.3,5.4c-10.1-5.4-21.1-6.9-32.2-8.4c-0.1-3.7-0.9-8.5-3.4-12c0,0,9-5.2,12.6-19.8c0.5-2.5-1.2-3.5-2.5-3.4
			c-7.2,0.3-19.5-2.7-24.6-4.6c-44-17.6-100.7-18.1-149.2-8.6c-10,1.8-29.9,8.8-43.9,9.9c-4.9,0.4-9.2-0.9-13.9,0.8
			c-1.6,0.6-3.8,2.8-2.8,5.3c4.3,9.1,11.2,19,18.3,24.4C101.9,45.8,27.5,98.2-26.9,167.1c111-22.1,169.5,6.4,203.6,20.2
			c39,16.1,84,32.9,122.2,30c0,0-2.1-19.2-7-36.2c0,0,18.8,0.9,18.4-14.2c-0.7-14.3-1.5-26.9-2.2-39.8
			c20.5-13.6,38.3-52.4,44.6-67.7c16.9,0.5,33.8,3,49.1,9.4C401.9,68.6,384,56.7,354.1,55.7z"/>
		<g>
			<path fill="#2186C8" d="M165.5,73.6c2.6-1.2,5.3-2.3,8-3.3c-0.8-3.9-1.3-8-1.3-12.5c-2.7,0.6-5.5,1.4-8.2,2.1
				C164.1,64.8,164.6,69.4,165.5,73.6z"/>
			<path fill="#2186C8" d="M173.8,39.9c-2.8,0.5-5.6,1.1-8.4,1.7c-0.9,5.8-1.4,11.2-1.4,16.3c2.7-1.1,5.5-2.1,8.2-3
				C172.3,50.3,172.9,45.3,173.8,39.9z"/>
			<path fill="#2186C8" d="M209.8,115.1c-19.6-13.5-31.3-25.9-35.7-42.2c-2.8,0.8-5.5,1.7-8.2,2.7C171,94.8,185.4,107.2,209.8,115.1
				z"/>
			<path fill="#2186C8" d="M343.5,55.5c2.4-0.1,5-0.1,7.4,0c0.7-2.1,1.2-4.1,1.7-6c-1.4,0.1-4.3,0.2-7.3,0.4
				C344.8,51.7,344.2,53.6,343.5,55.5z"/>
			<path fill="#2186C8" d="M347.5,39.7c0,1.8-0.2,3.8-0.7,5.8c0,0.1-0.1,0.2-0.1,0.3c2.7-0.1,3.9,0,6.9-0.1c0.4-2.1,0.7-4.1,0.9-6.1
				C352.4,39.6,350,39.6,347.5,39.7z"/>
			<path fill="#2186C8" d="M362.4,3.8C355.8,4,349.3,3.3,343,1.3c-34.9-14.2-84.3-20.7-139.8-11.9c-39.1,6-38,11.8-67.6,11.5
				c-1.9,0.1-2.8,1.7-1.5,4c4.9,9.1,11.9,18.3,20.3,24.2C60.8,64.4-18,161.7-18,161.7c90-15.7,143.1-0.5,205.8,26
				c0,0,72.6,30.8,107.9,26.1c-1.1-12.8-4.6-24.3-7.3-36.1c19.3,0.9,19-9.7,18.8-15.5c-0.5-12.7-1.5-24.1-2.3-36.5
				c12-5.8,34.9-38.9,44.9-66.7c-1.9,0-4.8,0.3-7.9,0.6c-11.5,28.9-31.7,56-43.8,62.7c0.2,2.5,1.7,23.7,2.5,36.4
				c0,3.3-2.7,8.6-6.8,9.6c-11.2,2.5-21.8,2.3-33.2-0.6c-11.9-3.2-13.3-20.2-13.4-35.8c-2.1-0.2-3,28,1.1,35
				c6.4,10.7,23.3,10.3,29.8,10.5c3.1,8.8,5.4,19,6.4,28.5c-29.9-0.6-56.8-14.2-84.2-24.4c-2.4-14.7,4.5-26.9,11.3-38.5
				c0,0-16.5,14.1-20.6,34.8c-45-19-69.7-31.4-126.8-35.5c12.9-20.3,29.3-39.6,49.1-54.1c-15.7,5.3-46.7,33.5-64.9,53.2l-26,0.1
				C58.5,97.3,122.3,42.3,167,32.9c-0.6,2.6-1,5.1-1.4,7.5c2.8-0.9,5.7-1.7,8.5-2.5c0.5-2.8,1.1-5.6,1.8-8.6
				c-17.8-2.3-27.3-14-29.4-18.1c-0.8-2.1,0.4-3.1,1.5-3.2c21.3,0.6,33.3-6.9,53.7-10.3c41.6-7,89.2-7.9,133.3,9.7
				c5.5,2.1,11.8,2.8,18.1,3.1c1.8,0.3,1.5,1.9,0.7,2.9c-3.6,4.5-10.1,7.8-15.2,7.9c3.2,2.7,7.4,8,8.5,14.9c2.6,0,5.1,0.1,7.3,0.3
				c0-5.3-1.2-9.7-4-12.7c5.8-2.3,10.8-9.6,13.1-16.1C364.1,6.2,364.3,3.9,362.4,3.8z"/>
		</g>
		<g>
			<path fill="#D8D8D7" d="M335.1,18.7c-6.1-4.3-13.3-7.5-20.4-4.5c-5.3,4.1-11.6,6.6-17.8,7.5c2,0.5,5.1,0.5,7.7,0
				c6.8,3.7,12.7-2.2,19-3.2c-3.4-0.7-7.3-1-10.5-1.1C319.8,13.6,328.3,16.2,335.1,18.7z"/>
			<path fill="#D8D8D7" d="M165.4,41.7c2.8-0.6,5.6-1.2,8.4-1.7c25-4.6,49-3.7,80,1.2c1.9-2.2,3.7-3.5,6.3-4.1
				c-29-7.1-57.9-6.5-86,0.9c-2.9,0.8-5.7,1.6-8.5,2.5c-4.6,1.4-9.1,3-13.7,4.8C156.5,43.9,161,42.7,165.4,41.7z"/>
			<path fill="#D8D8D7" d="M154.6,11c3.7,4.4,9.5,6.8,14.9,7.7c-3.4-1-6.4-3.4-9-6C159.3,12.5,156,11.6,154.6,11z"/>
			<path fill="#D8D8D7" d="M275.9,20.9c-5.1-0.7-10.4-2-15-4.5l-7-4.9c-10.2-4.9-22.3-2-31.4,3.8c10-2.9,22.3-5.4,31.9-0.2
				c-4.7-0.4-9.1,0.6-13.8,1.3c4.2,1,8.1,2.5,11.6,4.6c4.5,1.9,8.9,1.2,13.1-0.2C265.4,20.9,273.2,22.5,275.9,20.9z"/>
			<path fill="#D8D8D7" d="M298.5,48.2c3.6,0.2,2.4-3.8,4.2-5.5c3.1-4.6,8.1-7.6,13.4-8.3c-10.8-8.6-27.9-7.3-36.7-0.3
				c5.6,1.3,11,4.2,14.3,8.7C295.6,44.5,295.3,48.5,298.5,48.2z"/>
			<path fill="#D8D8D7" d="M269.2,65.8c0.5,12.1,1.2,20.6,6.4,31.4c0.9-5.9,2.8-26.8,4.7-30.5c1.3,2.6,1.6,7,2.5,7.1
				c2.1,0.3,3.1-2.9,4.1-4.9c3.7-1,11-0.9,14.8-0.2c0.8,2.1,1.8,5.8,3.8,5.4c0.8-0.1,1.1-4.6,2.2-7.6c2.3,10.7,3,20,4,30.4
				c0,0,8-14.1,6.6-31.6C302,59.9,284.6,60.7,269.2,65.8z"/>
			<path fill="#D8D8D7" d="M286.2,155.4L286,154c-5.4,1.1-10.4,1.1-15.8,0c0,0.5-0.1,0.9-0.2,1.5c0,0-4.4-2.8-4.8-15.6
				c-2.7,4.9-3,10.2-2.5,15.5c4.1,6.1,25,6.2,30.6,1.3c0.9-3.6,1.4-12.2-2.2-16.8C291,145.4,289.8,152.5,286.2,155.4z"/>
			<path fill="#D8D8D7" d="M146.6,65.7c5.8-2.2,11.6-4.1,17.4-5.7c2.8-0.8,5.5-1.5,8.2-2.1c30.7-7.3,58.6-6.7,76-5.6
				c0.3-3.4,1.6-5.5,1.6-5.5c-23.2-5-51.6-0.8-77.6,8.2c-2.8,1-5.5,2-8.2,3C158,60.3,152.1,62.9,146.6,65.7z"/>
			<path fill="#D8D8D7" d="M143.6,85.8c7-4,14.6-7.4,22.4-10.1c2.7-1,5.4-1.8,8.2-2.7c26.5-7.9,55.2-9.8,78-10.1
				c-1.2-1.8-2-3.2-2.7-5.2c-17.2-3-48.7,2.1-75.9,12.7c-2.7,1.1-5.4,2.2-8,3.3C157.5,77.2,150,81.3,143.6,85.8z"/>
			<path fill="#D8D8D7" d="M329.7,37.8l3.8,3.6c4.2-0.9,9.4-1.4,14-1.6c2.5-0.1,4.9-0.2,6.9-0.1l0,0l0,0c0.1-1.1,0.1-2.2,0.1-3.2v0
				l0,0c-2.3-0.2-4.8-0.3-7.3-0.3C341.1,36.1,334.5,36.7,329.7,37.8z"/>
			<path fill="#D8D8D7" d="M335.6,50.8c1.6-0.4,5.9-0.7,9.8-1c3.1-0.2,6-0.3,7.3-0.4c0.3-1.3,0.6-2.5,0.8-3.8c-2.3,0-4.5,0-6.9,0
				c-4.1,0.1-8.2,0.4-11.2,1C335.4,46.7,336,50.3,335.6,50.8z"/>
			<path fill="#D8D8D7" d="M343.5,55.5c-3.5,0.1-6.6,0.4-8.6,0.7l-3.2,5.1c2.6-0.5,6.4-1.1,10.1-1.5c3-0.3,5.9-0.6,7.9-0.6l0,0l0,0
				c0.4-1.2,0.9-2.5,1.3-3.7l0,0l0,0C348.5,55.4,345.9,55.4,343.5,55.5z"/>
		</g>
	</g>
</g>
</svg>
