<?xml version="1.0" encoding="utf-8"?>
<!-- Generator: Adobe Illustrator 18.0.0, SVG Export Plug-In . SVG Version: 6.00 Build 0)  -->
<!DOCTYPE svg PUBLIC "-//W3C//DTD SVG 1.1//EN" "http://www.w3.org/Graphics/SVG/1.1/DTD/svg11.dtd">
<svg version="1.1" id="Layer_1" xmlns:svg="http://www.w3.org/2000/svg"
	 xmlns="http://www.w3.org/2000/svg" xmlns:xlink="http://www.w3.org/1999/xlink" x="0px" y="0px" viewBox="-50 -40 500 350"
	 enable-background="new -50 -40 500 350" xml:space="preserve">
<g id="Capa_x0020_1">
	<g id="_245649704">
		<path id="path2411" fill="#FFFFFF" d="M403.9,81.8C334.3-40.3,81.2-42.2,30.6,94.1c-7.4,19.9-29.9,40.8-45.2,46.8
			c13.8,6.4,30.6,17.6,44.6,42.7c83,150.1,362.9,114.5,384.4-31h-77C266.4,277.7,90.8,205,90.8,141c0-91.3,147.8-118.9,221.7-59.1
			L403.9,81.8L403.9,81.8z"/>
		<path id="path2409" fill="#DF6108" d="M380.5,67.6C308.5-16.6,104.2-36.6,41.2,98.3c-5.4,14.9-15.4,28.2-30.1,39.9
			c13.8,6.4,23.7,18.5,31.3,34.2c82.1,149.7,335.1,92.4,356.6-11h-52.1c-71,123.6-268.6,58-268.6-23.2
			c0-100.1,164.6-129.7,238.5-70.6L380.5,67.6L380.5,67.6z"/>
		<g>
			<path id="path2411_0" fill="#03182F" d="M34.6,93.2l-6.4-2.4l0,0l5.5-12.5l6.6-11.7l7.7-10.9l8.7-10.1l9.6-9.3l10.4-8.5L87.8,20
				l11.9-6.9l12.5-6.1l13-5.3l13.5-4.5l13.9-3.7l14.2-2.9l14.5-2.1l14.7-1.4l14.8-0.6l14.9,0.1l14.9,0.9l14.8,1.6L270-8.3l14.4,3.1
				l14.1,3.9l13.7,4.6l13.3,5.4l12.8,6.1l12.2,6.8l11.6,7.6l10.9,8.3l10.1,9l9.2,9.8l8.2,10.5l7.2,11.3l-5.9,3.4l-6.9-10.7l-7.9-10
				l-8.8-9.3l-9.7-8.7l-10.4-8L347,27.5l-11.8-6.6L322.8,15l-12.9-5.2l-13.4-4.5l-13.7-3.8l-14-3.1l-14.3-2.3l-14.4-1.6l-14.5-0.9
				L211-6.5l-14.5,0.6l-14.3,1.4l-14.1,2.1l-13.9,2.8L140.7,4l-13.1,4.3L115,13.4l-12.1,5.8l-11.4,6.6l-10.7,7.4l-10,8.1l-9.1,8.8
				l-8.2,9.6l-7.3,10.4l-6.3,11.1L34.6,93.2L34.6,93.2L34.6,93.2z M34.6,93.2L34.6,93.2L34.6,93.2L34.6,93.2z M-12.3,135.1l-2.9,6.2
				l0.2-6.3l1.3-0.5l1.4-0.6l1.4-0.7l1.5-0.8l1.5-0.9l1.5-0.9l1.6-1l1.6-1.1l1.6-1.1l1.6-1.2l1.6-1.3l1.6-1.3l1.6-1.4l1.6-1.4
				l1.6-1.5l1.5-1.5l1.5-1.5l1.5-1.6l1.5-1.6l1.4-1.6l1.4-1.7l1.4-1.7l1.3-1.7l1.2-1.7l1.2-1.7l1.1-1.7l1.1-1.8l1-1.7l0.9-1.7
				l0.8-1.8l0.8-1.7l0.7-1.7l6.4,2.4l-0.8,2l-0.9,2l-1,1.9l-1,2l-1.1,1.9l-1.2,1.9l-1.2,1.9l-1.3,1.9l-1.4,1.9l-1.4,1.8l-1.4,1.8
				l-1.5,1.8l-1.5,1.7l-1.6,1.7l-1.6,1.7l-1.6,1.6l-1.6,1.6l-1.7,1.5l-1.7,1.5l-1.7,1.4l-1.7,1.4l-1.7,1.3l-1.7,1.3l-1.7,1.2
				l-1.7,1.2l-1.7,1.1l-1.7,1l-1.7,1l-1.6,0.9l-1.6,0.8l-1.6,0.7l-1.6,0.7L-12.3,135.1L-12.3,135.1z M-15.2,141.4l-7.3-3.4l7.5-2.9
				C-15,135.1-15.2,141.4-15.2,141.4z M33.8,178.8l-6,3.4v0l-1.3-2.2l-1.3-2.1l-1.3-2.1l-1.3-2l-1.3-1.9l-1.3-1.8l-1.4-1.8l-1.3-1.7
				l-1.4-1.6l-1.4-1.6l-1.4-1.5l-1.4-1.4l-1.4-1.4L9,157.5l-1.4-1.3L6.2,155l-1.4-1.2l-1.4-1.1l-1.4-1.1l-1.4-1l-1.4-1l-1.4-0.9
				l-1.4-0.9l-1.4-0.9l-1.4-0.8l-1.3-0.8l-1.3-0.7l-1.3-0.7l-1.3-0.7l-1.3-0.6l-1.3-0.6l-1.3-0.6l2.9-6.2l1.3,0.6l1.4,0.7l1.4,0.7
				l1.4,0.7l1.4,0.8l1.4,0.8l1.4,0.8l1.4,0.9l1.5,0.9l1.5,1l1.5,1l1.5,1.1l1.5,1.1l1.5,1.2l1.5,1.2l1.5,1.3l1.5,1.3l1.5,1.4l1.5,1.4
				l1.5,1.5l1.5,1.6l1.5,1.6l1.5,1.7l1.5,1.8L24,164l1.4,1.9l1.4,2l1.4,2l1.4,2.1l1.4,2.2l1.4,2.3L33.8,178.8L33.8,178.8L33.8,178.8
				z M27.8,182.2L27.8,182.2l24.1,43L27.8,182.2L27.8,182.2z M415.2,153.3v-6.9l3.4,3.9l-2.8,13.6l-4.3,12.9l-5.7,12.2l-7,11.5
				l-8.2,10.8l-9.3,10l-10.3,9.3l-11.2,8.5l-12.1,7.7l-12.8,6.9l-13.5,6.1l-14.1,5.3l-14.6,4.5l-15.1,3.7l-15.4,2.8l-15.6,2
				l-15.8,1.1l-15.9,0.2l-15.9-0.6l-15.9-1.6l-15.7-2.5l-15.5-3.4l-15.2-4.4l-14.8-5.3l-14.3-6.3l-13.7-7.3l-13.1-8.4l-12.4-9.4
				l-11.5-10.4L46,208.4l-9.6-12.6l-8.5-13.6l6-3.4l8.2,13.1l9.2,12.1l10.2,11l11.1,10l11.9,9l12.6,8.1l13.3,7.1l13.9,6.1l14.3,5.2
				l14.8,4.2l15.1,3.3l15.3,2.4l15.5,1.5l15.6,0.6l15.6-0.2l15.5-1.1l15.3-1.9l15-2.8l14.7-3.6l14.2-4.4l13.7-5.2l13.1-6l12.4-6.7
				l11.6-7.4l10.8-8.2l9.9-8.9l8.9-9.5l7.8-10.2l6.6-10.9l5.4-11.5l4.1-12.1l2.7-12.8L415.2,153.3L415.2,153.3z M415.2,146.4h4
				l-0.6,3.9L415.2,146.4z M335.2,148.1l3-1.7h77v6.9h-77L335.2,148.1z M335.2,148.1l1-1.7h2L335.2,148.1L335.2,148.1z M88.2,138.3
				H95l0,0l0.5,5.4l1.4,5.5l2.2,5.5l3.1,5.5l3.9,5.5l4.7,5.4l5.4,5.3l6.1,5.1l6.7,4.9l7.3,4.6l7.8,4.3l8.3,4l8.7,3.6l9,3.1l9.3,2.7
				l9.6,2.2l9.8,1.6l9.9,1.1l10,0.5l10.1-0.2l10.1-0.9l10-1.6l9.9-2.3l9.8-3.1l9.5-3.9l9.3-4.8l9-5.7l8.6-6.6l8.3-7.6l7.8-8.6
				l7.3-9.7l6.8-10.8l6,3.4l-7.1,11.3l-7.7,10.2l-8.2,9.1l-8.7,8l-9.1,7l-9.5,6l-9.8,5.1l-10.1,4.2l-10.3,3.3l-10.4,2.5l-10.5,1.7
				l-10.5,0.9l-10.5,0.2l-10.5-0.5l-10.3-1.1l-10.2-1.7l-10-2.3l-9.7-2.8l-9.4-3.3l-9-3.7l-8.6-4.1l-8.1-4.5l-7.6-4.8l-7.1-5.1
				l-6.5-5.4l-5.8-5.7l-5.1-5.9l-4.3-6.1l-3.5-6.2l-2.6-6.4l-1.6-6.5L88.2,138.3L88.2,138.3L88.2,138.3z M88.2,138.3L88.2,138.3
				L88.2,138.3L88.2,138.3z M313.3,76.4v6.9l-2.1-0.8l-6.9-5.1l-7.3-4.7l-7.7-4.2l-8-3.7l-8.3-3.2l-8.5-2.8l-8.7-2.3l-8.9-1.8
				l-9-1.4l-9-0.9l-9.1-0.5l-9.1,0l-9,0.5l-8.9,0.9l-8.8,1.3l-8.6,1.7l-8.4,2.2l-8.1,2.6l-7.8,3l-7.5,3.4l-7.1,3.8l-6.6,4.2
				l-6.2,4.6l-5.7,5l-5.1,5.3l-4.6,5.7l-4,6.1l-3.3,6.4l-2.6,6.8l-1.9,7.2l-1.2,7.5l-0.4,7.9h-6.9l0.5-8.6l1.3-8.3l2.1-7.9L95,106
				l3.6-7.1l4.3-6.7l5-6.2l5.6-5.8l6.1-5.4l6.6-4.9l7.1-4.5l7.5-4.1l7.9-3.6l8.2-3.2l8.5-2.7l8.7-2.3l8.9-1.8l9.1-1.4l9.2-0.9
				l9.3-0.5l9.4,0l9.4,0.5l9.4,1l9.3,1.4l9.2,1.9l9.1,2.4l8.9,2.9l8.7,3.4l8.4,3.9l8.1,4.4l7.7,4.9l7.3,5.4L313.3,76.4L313.3,76.4z
				 M313.3,83.2h-1.2l-1-0.8L313.3,83.2z M407.7,78.1l-3,5.1h-91.5v-6.9h91.5L407.7,78.1L407.7,78.1z M407.7,78.1l3,5.1h-5.9
				L407.7,78.1z"/>
		</g>
	</g>
</g>
</svg>
