<?xml version="1.0" encoding="utf-8"?>
<!-- Generator: Adobe Illustrator 18.0.0, SVG Export Plug-In . SVG Version: 6.00 Build 0)  -->
<!DOCTYPE svg PUBLIC "-//W3C//DTD SVG 1.1//EN" "http://www.w3.org/Graphics/SVG/1.1/DTD/svg11.dtd">
<svg version="1.1" id="Layer_1" xmlns="http://www.w3.org/2000/svg" xmlns:xlink="http://www.w3.org/1999/xlink" x="0px" y="0px"
	 viewBox="-125 -86 500 350" enable-background="new -125 -86 500 350" xml:space="preserve">
<g>
	<g>
		<path fill="#FFFFFF" d="M-89.4,146.2l55.5,95.3l256.1,0c82.7,0,118.4-43.1,118.4-89.4c0-30.6-21.8-55.5-43.9-66.8
			c-2.3-1.2-2-3.2-0.4-4.4c19.4-14.3,32.4-32.7,32.4-61.1c0-33.6-24-80.8-118.1-80.8H-31.6l-54.9,95.6h40.3c4.5,0,8.1,3.6,8.1,8.1
			v95.5c0,4.5-3.6,8.1-8.1,8.1H-89.4"/>
	</g>
	<path fill="#F04E23" d="M153.2,69.1h-39.8V30.8c0-4,3.3-7.2,7.3-7.2h32.5c19,0,26.1,9.7,26.1,22.4
		C179.4,59.4,172.3,69.1,153.2,69.1 M153.2,157.2h-32.5c-4,0-7.3-3.3-7.3-7.3v-38.3h39.8c19,0,26.1,9.4,26.1,22.4
		C179.4,147.6,172.3,157.2,153.2,157.2z M266.8,87.5c-2.9-0.7-2.4-4.3-0.3-5.1c26.3-10,41.6-27.7,41.6-58.8
		c0.4-41.8-36.6-70.6-96.7-70.6H-16.5l-40,70.6H-29c5.4,0,9.8,4.4,9.8,9.8v114c0,5.4-4.4,9.8-9.8,9.8h-27.2l40.3,70.3l238.1,0
		c68,0,96-45.2,96-78.4C318.2,119.8,296.7,94.6,266.8,87.5z"/>
	<path d="M61,207.5C18.8,128.1,7.7,36.8,23.4-47.1h-39.9l-40,70.6H-29c5.4,0,9.8,4.4,9.8,9.8v87.5C1.4,154.1,31.1,186,61,207.5
		 M260.3-39.2c-48.4,71.7-74.6,163.1-62.8,246.4c14.4-70.1,52-134.8,110.6-181.6c0-0.7,0.1-1.4,0.1-2.1
		C308.4-5.3,290.9-27.9,260.3-39.2z M179.2-47.1c-7.6,19.8-15.5,43.8-22.2,70.7c-1.2-0.1-2.4-0.1-3.7-0.1h-32.5
		c-4,0-7.3,3.2-7.3,7.2v38.3h34.2c-2.2,13.7-4.1,28-5.3,42.6h-28.9v38.3c0,4,3.3,7.3,7.3,7.3h19.9c0.3,23,2.4,46.5,6.7,70.2h-29.7
		C94.1,170.9,61.9,75.1,94-47.1L179.2-47.1L179.2-47.1z"/>
</g>
</svg>
