<?xml version="1.0" encoding="utf-8"?>
<!-- Generator: Adobe Illustrator 18.0.0, SVG Export Plug-In . SVG Version: 6.00 Build 0)  -->
<!DOCTYPE svg PUBLIC "-//W3C//DTD SVG 1.1//EN" "http://www.w3.org/Graphics/SVG/1.1/DTD/svg11.dtd">
<svg version="1.1" id="svg2" xmlns:svg="http://www.w3.org/2000/svg"
	 xmlns="http://www.w3.org/2000/svg" xmlns:xlink="http://www.w3.org/1999/xlink" x="0px" y="0px" viewBox="150 135 500 350"
	 enable-background="new 150 135 500 350" xml:space="preserve">
<path id="path3192" fill="#FFFFFF" stroke="#000000" stroke-width="1.9426" d="M218.3,406.3c-1.6,9.1,0.5,19,4.5,26.3
	c2.3,4.3,4.1,8.2,4.1,12.5c0.5,24.7,53.7,5.1,57.1-3.2"/>
<path id="path2409" fill="#DE6108" stroke="#000000" stroke-width="3.8853" d="M494.6,229.8c2.6,5-22.8,1.5-28.5,1.8
	c-2.8,0.2-9.3,0.8-5.2,10.8c3.4,8.2,3.8,12.2,6.3,17.8c6.9,15.2,1.5,21.5-8.3,22.5c-50.9,5-71.4,39.7-50.3,96
	c42.9,114.5-89.6,93.7-116.8,69c-10.5-9.5-23.2-14.4-37.7-9.1c-10.9,4-16,1.7-20.1-5C77.6,178.5,408.2,65.8,494.6,229.8z"/>
<path id="path2673" fill="#312821" d="M466.3,231.7l15.2,0.2c-25.9-49.4-79.5-82.6-153.4-75.2C390,156.1,439.6,184.7,466.3,231.7z"
	/>
<path id="path3280" fill="#7F8180" stroke="#000000" stroke-width="1.9426" d="M498.6,233.6c1.6-0.9,13.8-5.9,13.8-5.9l16,29.6
	c10.5,19.5-13.8,21.7-17.6,10.8L498.6,233.6z"/>
<path id="path3216" stroke="#000000" stroke-width="1.9426" d="M411.5,442.8c35.3,3.7,88.7-5,66.8-88.2
	c-4.7-17.9-7.7-50.9,18.5-59.8c13.5-4.6,19.5-10.2,12.9-29.3l-11-32l-31.4-2c-6.3-0.4-8.5,3.7-6.4,9.4l9.7,26.7
	c3.2,8.9-2.9,14.8-9.7,15.5c-61.2,7-68.6,48.1-51.9,94.9C418,403.6,420.9,424.5,411.5,442.8z"/>
<path id="path2470" fill="#FFFFFF" d="M478.6,230.4l15.1,0c-23.2-48.8-87.1-88.2-164.3-73.9C397.6,150.1,456.9,180.9,478.6,230.4z"
	/>
<path id="path3284" fill="#FFFFFF" stroke="#000000" stroke-width="1.9426" d="M496.8,294.8c13.5-4.6,19.5-10.2,12.9-29.3l-11-32
	l-31.4-2c-6.3-0.4-8.5,3.7-6.4,9.4l9.7,26.7c3.2,8.9-2.9,14.8-9.7,15.5c-5.2,0.6-10,1.4-14.4,2.5
	C456.7,291.4,516.1,280.7,496.8,294.8z"/>
<path id="path3286" fill="#FFFFFF" stroke="#000000" stroke-width="1.9426" d="M496.8,294.8c13.5-4.6,19.5-10.2,12.9-29.3l-11-32
	l-27.5-1.8c-6.3-0.4-8.5,3.7-6.4,9.4l9.7,26.7c3.2,8.9-2.7,17.5-9.5,18.2c-5.2,0.6-14.3,0.8-18.5-0.5
	C456.7,291.4,516.1,280.7,496.8,294.8z"/>
<path id="path3234" fill="#D6D6D6" d="M430.3,293.4c-41.2,23-29.1,62.7-12.6,104.2C404.1,351.3,395.2,318,430.3,293.4z"/>
<path id="path3290" fill="#FFFFFF" stroke="#000000" stroke-width="2.468" d="M306.1,429.4c0.7,4-2,7.3-5.9,7.3
	c-3.9,0-7.6-3.3-8.3-7.3c-0.7-4,2-7.3,5.9-7.3C301.7,422.1,305.4,425.4,306.1,429.4z"/>
<path id="path3255" fill="#7F8180" stroke="#000000" stroke-width="1.9426" d="M497.7,258c1.3-1.1,21.7,0.5,23.7,1.2
	c5.9,2.2,5.2,10.6-0.6,9.3c-7.9-1.8-15.2-1.8-23-2.3L497.7,258z"/>
<path id="path3218" fill="#FFFFFF" d="M419.5,402.4c0.4,11.7,0.9,23.3-4.8,36.5c36.1,5,84.8-18.5,56.1-88.2
	c-8.2-20.1-37.1-17.6-33.1,11.4C441.1,386.2,429.7,395.1,419.5,402.4z"/>
<path id="path2411" d="M311.2,357.7c-9.9,0.1-17.7,7.8-17.8,18.1c-0.1,11,8.6,20.8,19.5,21.9c2.3,0.2,4.5,0,6.5-0.5l13.2-19.2
	c-0.8-10.3-9.1-19.1-19.4-20.1C312.6,357.7,311.9,357.7,311.2,357.7z"/>
<path id="path3186" d="M270.7,430.2c12.1,4.9,25.9,15.3,37.8,20c78,30.9,123.1-19,92.3-75.1c23.3,76.1-34.9,95.4-92.3,72.8
	C295.3,442.7,285.4,433.8,270.7,430.2z"/>
<path id="path3188" d="M287.5,407.6c15.2,21.7,46.3,21.3,58.3,5.3C327.1,425.6,306.7,424,287.5,407.6z"/>
<path id="path3190" d="M259,440.7c5.9-0.9,10.4-0.7,16.6,1.4c0.9,0.3,2.4,0.9-1.7,2.9c-10.1,4.9-20.4,8.6-30.2,7.9
	c-1.8-0.1-3.4-2.2,0.2-3.7c4.3-1.8,6.5-4.6,6-9.1l7.2-2.3C256.7,439,256,441.1,259,440.7z"/>
<path id="path3194" fill="none" stroke="#000000" stroke-width="1.9426" d="M226.3,428.7c2.8,2.9,4.7,5.6,5,10.6
	c0.6,12.9,17.3,5.9,16.5,1.1"/>
<path id="path3222" fill="#FFFFFF" d="M481.7,302.3c2.2-2.6-0.8-3.5-2.2-2.1c-13.9,13.7-11.6,28.1-8.2,39.7c1.3,4.4,2.7,2.7,2.1-0.3
	C470.3,324.2,474.6,310.8,481.7,302.3z"/>
<path id="path3447" fill="none" stroke="#000000" stroke-width="3.8853" d="M494.6,229.8c2.6,5-22.8,1.5-28.5,1.8
	c-2.8,0.2-9.3,0.8-5.2,10.8c3.4,8.2,3.8,12.2,6.3,17.8c6.9,15.2,1.5,21.5-8.3,22.5c-50.9,5-71.4,39.7-50.3,96
	c42.9,114.5-89.6,93.7-116.8,69c-10.5-9.5-23.2-14.4-37.7-9.1c-10.9,4-16,1.7-20.1-5C77.6,178.5,408.2,65.8,494.6,229.8z"/>
<path id="path3232" fill="#7F8180" stroke="#000000" stroke-width="1.9426" d="M476.8,317.3c16.5,25.3,34.9,41.8,100.8,32.4
	c6.9-1,11.5,1,13.7,7.2c10.2,30,16,56.5,18,87.2c0.5,7.8-9.2,10.6-10.6-0.2c-3.7-29.7-9.4-56.1-19.1-84.5
	c-64.9,15.1-93.7-11.6-104.4-27C475.3,327.4,475.4,322.4,476.8,317.3z"/>
<path id="path3257" fill="#7F8180" stroke="#000000" stroke-width="1.9426" d="M470.3,243c-1.6-4.9-1.9-9.1,2.5-11.1l8.3-3.7
	c3.4-1.5,8.2-2.9,10.1,1.4l11.8,27c2.6,6.1,4.3,18.2-7.4,17.9l-8.1-0.2c-6-0.2-7.3-1.9-9.2-7.6L470.3,243z"/>
<path id="path3259" fill="none" stroke="#000000" stroke-width="1.9426" d="M478.6,229.3c-4.3,1.9-5.9,5.5-4.1,11.3l8.3,22.5"/>
<g id="g3214" transform="translate(273.144,-158.316)">
	<path id="path3236" fill="#7F8180" stroke="#000000" stroke-width="1.9426" d="M71.3,530.9c-3.3-2.1-3.6-5.2-1.7-8.3l8-11.8
		c2.1-3.1,4-2.6,7.2-0.6l26.5,16.2c12.4,7.5-3.8,32.9-15.5,25.1L71.3,530.9z"/>
	<path id="path3225" fill="#7F8180" stroke="#000000" stroke-width="1.9426" d="M70.8,524l11.9,4.9L64.3,558c-5,7.9-15.7,0-11.1-7
		L70.8,524z"/>
	<path id="path3238" fill="#7F8180" stroke="#000000" stroke-width="1.9426" d="M71.4,535.1c-4.5-3-4.9-7.9-2.8-11.1l6.5-9.6
		c2.1-3.1,0.5-0.8,2.5-3.6l31.3,19.1c12.4,7.5-1.2,29.2-13,21.3L71.4,535.1z"/>
	<path id="path3212" opacity="0.97" fill="#7F8180" stroke="#000000" stroke-width="1.9426" enable-background="new    " d="
		M71.4,535.1c-4.5-3-4.9-7.9-2.8-11.1l3.8-5.6l3.4-4.8c-0.3,2.8,2.5,4.4,5.5,6.2l24.3,14.9c12.4,7.5,2,24.4-9.8,16.6L71.4,535.1z"/>
	<path id="path3220" fill="#7F8180" stroke="#000000" stroke-width="1.9426" d="M89.2,518.4c-2.5,2.5-12.6-3.8-11-6.6l33.5-50.5
		c12.2-18.6,27.3-27.5,44.8-32.8c16.8-5.1,33.6-7.3,50.4-10.5c7.2-1.4,10.3,7.5,0.6,9.7c-18.2,4.1-36.7,7.7-53.9,13.8
		c-15.3,5.4-26,16.2-35.7,31.6L89.2,518.4z"/>
	<path id="path3221" fill="#7F8180" stroke="#000000" d="M103.4,545.6c-1.1,2.3-4.1,3.2-6.9,2c-3-1.2-4.6-4.3-3.7-6.8
		c0.4-1,1.1-1.8,2-2.2"/>
	<path id="path3214" fill="#7F8180" stroke="#000000" d="M105.4,543.4c-0.9,2.5-4.1,3.5-7,2.3c-3-1.2-4.6-4.3-3.7-6.8
		c0.9-2.5,4.1-3.5,7-2.3C104.7,537.8,106.4,540.9,105.4,543.4z"/>
	<path id="path3223" fill="#7F8180" stroke="#000000" d="M94.4,538.9c-1,2.6-4.3,4-7.5,2.7c-3.1-1.3-4.6-4.4-3.9-7.1
		c0.4-1.5,2.7-3.9,2.8-3.9"/>
	<path id="path2441" fill="#7F8180" stroke="#000000" d="M96,536.9c-1,2.6-4.3,3.7-7.5,2.4c-3.1-1.3-4.9-4.5-3.9-7.1
		c1-2.6,4.3-3.7,7.5-2.4C95.2,531,97,534.2,96,536.9z"/>
	<path id="path3231" fill="#7F8180" stroke="#000000" stroke-width="1.5" d="M90.1,529.3l0.5,10.3"/>
</g>
<path id="path3224" fill="#7F8180" stroke="#000000" stroke-width="1.9426" d="M396.5,289.9L457,422.4
	c31.2,68.3,114.3,39.7,138.8,33.1c15.2-4.1,16.8-12.9-2.7-17c-24.5-5.2-43.9-18.1-53.2-40.8l-42.3-102.9c-1.2-3-12.3,1.1-10.4,5.6
	l41,96.7c10.5,24.7,28.9,46.1,50.1,48.1c5.3,0.5,22.1-1.5-12.2,5.4c-40.4,8.2-81,6-97.6-30l-63.4-137.7
	C404,280.3,394.6,285.7,396.5,289.9z"/>
<path id="path3226" fill="#7F8180" stroke="#000000" stroke-width="1.9426" d="M365.9,333.5l26.4,26.4c14.3,14.3,35,23.4,75.9,18.7
	c47.9-5.4,82.3-12.1,111.3-17.3c4.9-0.9,5.9-12.3-3.5-10.5c-36.5,6.6-73.2,12.6-110.1,16.4c-37.1,3.8-55-2.7-65.9-14.4l-26.5-28.3
	C371.1,322.2,362.5,330.1,365.9,333.5z"/>
<path id="path3228" fill="#7F8180" stroke="#000000" stroke-width="1.9426" d="M536.4,389.3c18,1.3,31.1-0.9,47.5-3.7
	c15.4-2.6,15.6,12.4,6.2,14.4c-35.1,7.2-69.1,14.6-106.9,18.2c-12.3,1.2-24.5,3.8-36.6,1.8l-110.8-18.2c1.5-1.1,4.3-5.8,7.1-10.3
	l100.5,17.4c13,2.2,26.2,0.4,39.8-1.5c36.2-5,70.6-10.3,103.4-18.2c-16.3,3.8-31.7,7.7-46.9,8.8 M528.7,398.2
	c-4.2-0.1-8.4-0.5-12.6-1.1l-32.7-5.3l-0.3-10.5l37.4,6.1c1.4,0.2,2.7,0.4,4,0.6"/>
<path id="path3230" fill="#7F8180" stroke="#000000" stroke-width="1.9426" stroke-linecap="round" d="M567.1,463
	c1.9,1.9,9.6,1.1,9.7-2.5c1.2-43.4-8.8-76.6-23-105.4c-1.4-2.8-8.6-1.7-9.5,1.3s0,0.7,3.8,10.3c3.9,9.7,7.1,19.3,9.6,28.6
	s-1.1-5.7,2.7,10.6c3.7,16.2,5.7,31.6,6.1,44.6"/>
<path id="rect3263" d="M493,265.7h11.5c0,0,0,0,0,0v3.6c0,0,0,0,0,0H493c0,0,0,0,0,0L493,265.7C493,265.8,493,265.7,493,265.7z"/>
<path id="path3265" d="M486.4,233.3c-0.2,0-0.4,0-0.7,0.1c-1.7,0.5-2.3,3.1-1.3,5.7c1,2.6,3.3,4.2,5,3.7c1.7-0.5,2.3-3.1,1.3-5.7
	l-0.1-0.1C489.7,234.8,487.9,233.3,486.4,233.3z M486.1,234.1c1.1,0,2.4,1.1,3,2.8l0,0.1c0.7,2,0.3,4-0.9,4.4
	c-1.2,0.4-2.9-0.9-3.6-2.9c-0.7-2-0.3-4,0.9-4.4C485.7,234.2,485.9,234.1,486.1,234.1z"/>
<path id="path3267" d="M490.2,242.4c-0.2,0-0.4,0-0.7,0.1c-1.7,0.5-2.3,3.1-1.3,5.7c1,2.6,3.3,4.2,5,3.7c1.7-0.5,2.3-3.1,1.3-5.7
	l-0.1-0.1C493.5,243.9,491.7,242.4,490.2,242.4z M489.9,243.4c1.1,0,2.4,1.1,3.1,2.8l0,0.1c0.7,2,0.3,4-0.9,4.4
	c-1.2,0.4-2.8-0.9-3.6-2.9c-0.7-2-0.3-4,0.9-4.4C489.6,243.4,489.7,243.4,489.9,243.4z"/>
<path id="path3282" fill="none" stroke="#000000" stroke-width="1.9426" d="M503.7,231.4l11,26.4"/>
<path id="path3294" fill="#FFFFFF" stroke="#000000" stroke-width="1.9426" d="M302.7,430c0.4,2.6-1.3,4.7-3.8,4.7
	c-2.5,0-4.9-2.1-5.3-4.7c-0.4-2.6,1.3-4.7,3.8-4.7C299.9,425.3,302.3,427.4,302.7,430z"/>
<path id="path3292" fill="#FFFFFF" stroke="#000000" stroke-width="1.9426" d="M300.6,432.7c0.4,2.6-1.3,4.7-3.8,4.7
	c-2.5,0-4.9-2.1-5.3-4.7c-0.4-2.6,1.3-4.7,3.8-4.7C297.8,428,300.1,430.1,300.6,432.7z"/>
<path id="path3296" fill="#FFFFFF" stroke="#000000" stroke-width="1.9426" d="M378.5,418.8c0,4.6-3.7,8.3-8.3,8.3
	c-4.6,0-8.3-3.7-8.3-8.3c0-4.6,3.7-8.3,8.3-8.3C374.8,410.5,378.5,414.2,378.5,418.8z"/>
<path id="path3298" fill="none" stroke="#000000" stroke-width="1.9426" d="M377,420.4c0,3.7-3,6.8-6.8,6.8c-3.7,0-6.8-3-6.8-6.8
	s3-6.8,6.8-6.8C373.9,413.6,377,416.7,377,420.4z"/>
<path id="path3302" fill="none" stroke="#000000" stroke-width="1.9426" d="M375.3,422c0,2.8-2.3,5.2-5.2,5.2
	c-2.8,0-5.2-2.3-5.2-5.2c0-2.8,2.3-5.2,5.2-5.2C373,416.9,375.3,419.2,375.3,422z"/>
<path id="path3261" fill="none" stroke="#000000" stroke-width="1.9426" d="M484.3,227.1c-6.1,1.6-5,6.2-2.6,11.9l9.4,20.6
	c2.9,6.3,3.1,10.9-2.4,14.7"/>
<path id="path2421" fill="#FF00FF" stroke="#000000" stroke-width="1.9426" d="M539.9,397.8l-7.8-19 M521.5,381.2l6.8,16
	c0.4,1,0.9,2,1.3,3.1"/>
<path id="path3201" fill="#7F8180" d="M556.8,396.3l2.9-0.6l1.5,9.7l-2,0.4L556.8,396.3z"/>
<path id="path3203" fill="#7F8180" d="M543.2,357l2.4-0.4l3.2,9.6l-1.8,0.3l-4.1-8.8L543.2,357z"/>
<path id="path3205" d="M374.8,420.9c0,2.3-2.1,4.1-4.7,4.1c-2.6,0-4.7-1.8-4.7-4.1s2.1-4.1,4.7-4.1
	C372.7,416.8,374.8,418.6,374.8,420.9z"/>
<path id="path3207" d="M293.4,428.9c-2,3.1,5.4,7.1,6.7,5.4C300.5,430.8,297.9,427.1,293.4,428.9z"/>
<path id="path3209" d="M340.6,395.1v7.2l-4.6-0.7L340.6,395.1z"/>
<path id="path3211" d="M444.5,379.8c-2.7,1.2-4.5,3.1-4.4,6.3l-2.8-6.7L444.5,379.8z"/>
<path id="path3213" d="M464.3,420.5c-2.7,1.2-5,3.7-5,6.9l-2.8-6.7L464.3,420.5z"/>
</svg>
