<?xml version="1.0" encoding="utf-8"?>
<!-- Generator: Adobe Illustrator 18.0.0, SVG Export Plug-In . SVG Version: 6.00 Build 0)  -->
<!DOCTYPE svg PUBLIC "-//W3C//DTD SVG 1.1//EN" "http://www.w3.org/Graphics/SVG/1.1/DTD/svg11.dtd">
<svg version="1.1" id="DENVER_BRONCOS" xmlns="http://www.w3.org/2000/svg" xmlns:xlink="http://www.w3.org/1999/xlink" x="0px"
	 y="0px" viewBox="-78.2 -75 500 350" enable-background="new -78.2 -75 500 350" xml:space="preserve">
<g>
	<g>
		<path fill="#13264B" d="M-55,39.1c0,0-2.4,44.4,49.5,72.7c0,0,20.9,11.1,70,20.2c43.2,8,66.4,24.8,75.6,35.3
			c11.8,13.5,23.3,38,28.5,59.4c0,0,0,5.6,4,5.3c0,0,3.5,0.2,3.3-4.7c0,0-1.3-33.7,8.5-50c7.5-13.3,20.8-24.9,43-33
			c0,0,14.7,11.3,35.7,11.3c15.2,0,28.7-6.5,28.7-6.5s26.7,9.2,29.7,23.7c0,0,0.3,3.5-0.7,6l33.5,1.8l18.2-16.5
			c0,0-34-2.5-34.7-12.2c0,0-0.5-4.5,8.6-4.5c0,0,21.1-0.4,40.8,29.1l11.3-29.6c0,0-8.6-4.3-8.5-12.3c0,0-0.2-4.9,3.6-14.6l-14-6.4
			c0,0-7.6-7.1-53.1-35.5l5.9-3.8l-50.4-21.8c0,0-16.1-25.4-61.1-25.6c0,0-35.1-57.6-91.2-57.6c0,0-20.7-1.2-44.3,11.2
			c0,0-9.5,4.3-18.6,9.5c0,0-19.2,13.3-41.2-15.7c0,0-8,34.3,16.1,49c0,0-23,4.8-31.1-14.9c0,0-7.4-15.1-5.4-40.3
			c0,0-17.6,16-17.6,46.6c0,0-0.2,19.5,12.8,32.8c0,0-6.5-1-16.9,5.6C-16.6,52.9-34.7,66.1-55,39.1z"/>
		<path fill="#DE6226" d="M30.9-10.6c0,0,3.4,30.2,29.1,30.2c0,0,10.1,0,19.4-3.5c9.2-3.5,22.7-10.4,40.7-10.4
			c0,0,23.5-2.2,36.6,23.8c0,0,30-1.6,58.1,3.6c0,0-32-56.4-87.6-55.5c0,0-16.3-0.9-37.9,10l-8.7,4.1c-6.4,3-8.9,4.5-8.9,4.5
			s-9,5.4-17.6,5.1C54.1,1.4,42.9,2.3,30.9-10.6z M-1-9.6c0,0-14.9,41.1,17.7,59.5c6.1,4,15.8,7.6,26.7,7.9c0,0,44.6-21.2,93.1-26.9
			c0,0-5.6-12-27.5-12c0,0-13.4-0.8-37.7,5.9c0,0-6.6,1.7-14.3,4.3c-11,2.7-29.5,5.4-41.3-2.1C15.6,27.1-0.6,19.1-1-9.6z
			 M-42.9,59.6c0,0,4,21.9,29.2,21.9c0,0,17.6,0.4,42.5-14.7c0,0-8.6-3.3-12.9-6.2c0,0-9.1-6.9-18.8-4.2c0,0-1.7,0.3-10.5,4.1
			c0,0-6.2,4-15.1,4C-28.5,64.5-37.5,64.4-42.9,59.6z"/>
		<path fill="#FFFFFF" d="M93.3,130.5c0,0,50.2-53.1,122.6-34.6c0,0,3.6,41.6,48.3,44.1c0,0,15.2,0.9,29.7-9.2l28.1,10.5l-29.5-18.6
			c0,0-9.5,9.2-26.5,9.2c-17.1,0-37.8-17.3-36-41.9c0,0-31-15.6-65.7-23.6l10.4,16.4c0,0-67.3-4.3-122.4,38.5
			c0,0-52.6-11.7-58.9-21.8c0,0,108.3-88,246.9-52.3c0,0,1.6-2.4-2.4-5.7c0,0-5.2-3.9-12.9-6.2c0,0,33.9-1.8,51.6,23.9l39,16.4
			l-4.1,2.9c0,0,59.6,37.1,63.6,42.2l8.3,3.5c0,0-5.9,17.3,6.2,26.7l-4.5,11.9c0,0-19.9-21.5-39.8-22.3c0,0-14.7-0.3-14.7,11.4
			c0,0-1.8,12.6,27.5,16.2l-6,5.6l-22.3-1.4c0,0,0.5-18.2-38.4-32.3c0,0-32,19-62.3-4.4c0,0-55.2,13.3-60.2,64.1
			c0,0-6.1-19.2-19.6-35.6c0,0,7.3-25.9,46.6-38.9c0,0-35.3-1.8-60.1,26.4C135.8,151.3,119.3,137.9,93.3,130.5z"/>
	</g>
	<path fill="#13264B" d="M273.6,70.4c0,0,27.5,4.1,74.8,42.7l-44.7-24.4c0,0-2.9,1.5-4.7,3.1C299,91.8,288.9,80.1,273.6,70.4z"/>
	<path fill="#DE6226" d="M296,78.6c0,0-2.3,1.9-1.4,5.2c0,0,1.1,3.1,4.7,3.2c0,0,4,0.1,4.7-4.3l-1.9-1l-4.9,3.7l1.4-5.5L296,78.6z"
		/>
	<path fill="#13264B" d="M375.4,125.3c0,0-3.8,1.4-3.8,4.8c0,0-0.9,3.5,6.7,11.2c0,0-11.3-8.3-13.5-13.3c0,0-2-3.7,3.6-3.7
		C368.4,124.3,371.8,124.3,375.4,125.3z"/>
	<path fill="#13264B" d="M246.7,49.7c0,0,7,0.1,7.8-1.6c0,0,1.7-1.8-7.7-6.2c0,0,14.5,3,21.1,14.7C267.9,56.6,258.5,52.3,246.7,49.7
		z"/>
</g>
</svg>
