<?xml version="1.0" encoding="utf-8"?>
<!-- Generator: Adobe Illustrator 18.0.0, SVG Export Plug-In . SVG Version: 6.00 Build 0)  -->
<!DOCTYPE svg PUBLIC "-//W3C//DTD SVG 1.1//EN" "http://www.w3.org/Graphics/SVG/1.1/DTD/svg11.dtd">
<svg version="1.1" id="Layer_1" xmlns="http://www.w3.org/2000/svg" xmlns:xlink="http://www.w3.org/1999/xlink" x="0px" y="0px"
	 viewBox="-125 -74.5 500 350" enable-background="new -125 -74.5 500 350" xml:space="preserve">
<g>
	<g>
		<path fill="#FFFFFF" d="M312.4,70.1C308,62,303,56.4,296.5,51.8c-6-12.9-20.3-26.9-33.3-35.8c0.7-4.6,0.5-8.6,0.1-13.4L263-0.4
			L261-2.5C229.8-34.9,192-48.9,138.4-48C34.1-46.1-19.7,4.3-54.9,48l-6.8,8.4l9.8,4.6c0.4,0.2,6.7,3.1,13.7,5.9
			c-8.3,24.2-0.7,62.9,24.9,83.8c22.5,18.4,38.6,24.6,57.3,31.7l2.2,0.9c16.3,6.3,30.1,17.1,43.4,27.6l5.4,4.2
			c5.8,4.8,10.4,9,15.2,13.4l8.8,7.9c12.3,9.9,22.4,15.1,41.4,14.8c22.7-0.4,43-10.9,55.6-28.7c7.2-9.7,10.7-18.7,13.3-27
			c4.6-14.4,0.8-28.1-3.4-34.1l2.1-0.2l0.4,0l0.4-0.1c18-3,32.9-10.8,44.5-23.3c8.2-8.9,11.5-15.2,13.9-20.7
			c8.8-5.6,15.9-14.4,19-20.9c2.6-5.5,6-13.5,7.3-20.4l0.5-2.9L312.4,70.1"/>
	</g>
	<path d="M254.9,3.4c-30-31.2-66.2-43.8-116.3-42.9C45.2-37.8-8.1,3.4-48.3,53.3c0,0,12.2,5.7,21.6,8.9c-0.9,1.5-1.6,2.9-2.3,4.4
		c-8.7,19.8-3,57.8,21.1,77.6c22.3,18.3,37.4,23.7,57.2,31.3c19.8,7.6,35.2,20.8,50.9,33c9.5,7.8,15.4,13.7,24.3,21.6
		c11.1,8.9,19.1,12.9,35.7,12.6c22.5-0.4,39.2-11.5,48.8-25.2c6-8,9.2-15.5,12.1-24.7c4.5-14.1-1.4-26.4-2.6-27.4
		c-6.7,8.8-16.1,14.9-26,18.8c-1.6-1.7-3.4-5.2-4.2-7.9c-0.9-2.7-2.8-9.6-0.7-14.1c12.5-4.2,22.9-9.1,26.8-11c3.9-1.9,7.4-5,9.8-5.7
		l-1.4,7.5l4.4-0.3c20.7-3.4,32.7-13.2,39.7-20.8c8.4-9.1,10.9-14.9,13.5-20.8c8.6-4.6,15.5-13.5,18-18.7c2.5-5.2,5.5-12.5,6.6-18.3
		c-4-7.3-8.3-12.4-15.2-16.8c-5.1-13.3-23.2-29.8-36.2-37.5C255.7,13.6,255.4,9.6,254.9,3.4"/>
	<path fill="#D2A941" d="M242.2,8.3c-32.3-30.2-62.8-36.1-103.5-35.4C72.7-25.9,48-3.2,19.9,17.4c24-7.7,51.6-9.6,62.9-9.9
		c14.6-0.4,23,0.1,31.9,1.2c0,0,0.2,0.1,0,0C102.8,15.2,86,22.7,74.6,30.3c-21.9,13.1-42.7,28-61.2,45c0,0-17.2-4.6-28.4-7.3
		c-2.7,7.4-4.8,21.8-2.6,32c20.2-9.1,56.4-17.2,86.4-18.1c37.6,0.1,62,3.7,95.9,12.2c11.1,7.5,22.8,15.7,35.9,19.5
		c10,4,21.6,0.3,31-2.6c6.9-2,13.5-5.6,18.9-9.9C235.3,86.3,214.4,79,193,75.7c-0.5-0.6-2.4-0.3-1.5-1.5c5.4-0.5,8.9-0.9,17.2-0.5
		c8.3,0.4,24.2,1.3,37.8,3.3c13.6,2,18.2,6.8,23.8-0.5c2.9-4.9,6.8-10.2,8.1-13.8c-3.6-7.5-8.9-14.9-16.4-20.5c0,0-0.7,8.9-2.7,11.8
		l-0.6-0.2c-2.5-7.6-6.2-17.2-12.8-23.1c-1,4.1-2.4,8.1-4.8,11.6c-0.4,0.2-0.6-0.2-0.9-0.3c0.5-7.4-2.1-14-4.8-20.3
		C239.4,19.3,242.5,13.2,242.2,8.3"/>
	<path fill="#D2A941" d="M293,75.1l0,0.9c-3.2,9.4-9.2,19.2-18.8,25.1c-3.1-0.5-7.5,0.2-7-2.5c8.4-9.3,15.2-19,19-30
		C289.1,70,291.6,72.4,293,75.1"/>
	<path fill="#FFFFFF" d="M189.3,119.5c4.7,2,11.5,5.6,17.8,5.5c17,0.1,31.8-5.9,45.8-12.1l7.1-4.2l7.9,2.4
		c-4.4,13.2-18.6,27.8-32.1,30.2c5.7-5.9,10.1-11.4,12.3-19c0.3-1.2,0.5-4-0.2-4.4c-0.7,1.2-3.9,8.4-7.3,10.3
		c-0.5-1,0.4-6.1-0.8-6.9c-0.2,1.3-4.8,8.6-7.2,9.8c-0.8-1.3-0.6-6.5-1.7-7c-0.4,1.3-3.6,6.3-6.3,7.8c-0.3-0.5-0.5-6.5-1.1-6.5
		c-6.6,11.7-19.7,22-33.8,24.1c4.4-6,8.7-12.5,9.5-20.1c-21.1-11.6-45.2-17.2-58.9-18c2.5-1.4,6.1-3.6,11.2-5.1
		c2.3-0.8,8.1-2.1,8.1-2.1l4.9,3.1C171.9,111.8,184.6,117.6,189.3,119.5"/>
	<path fill="#FFFFFF" d="M93.3,96.1c-40.6-0.8-81,6.3-104.5,19.9C25.2,103,61,100.6,92,102.1c7.8,0.4,17.9,1.6,24.9,2.4
		c3.3-2.1,6.5-3.9,9.4-5.6C115.7,97.5,102.4,96.3,93.3,96.1"/>
	<path fill="#FFFFFF" d="M-2.1,131c24.7-7.1,68.5-10.7,94.8-8.4c2.2-2,5.2-4.2,7.4-6C80,114.8,30.8,115.9-2.1,131"/>
	<path fill="#00839B" d="M129.2,131.7c0,0,2.3,8.2,5,13.9c2.8,5.7,4.9,12.1,11.1,15.4c0.8,0.7,1.8,1,2.8,1.3
		c0.2-0.8-1.4-2.2-2.2-4.1c-4.8-9.5-5.1-16.5-5.5-23.9c5.5,0.9,12.8,3.6,16.3,5.8c-1.1,7-1.1,13.6,1.3,20.8c1.3,3.8,3.5,7.5,5,10
		c-3.6,3.4-7.6,7.3-12.2,10.1c-16.3-7.2-29-21.6-34.4-36.5c-5.1-1.8-13.6-1.9-17.2-1.8c3-4.5,12.4-11.6,15.7-13.2
		c0,0-0.6-0.1,2.4,0.2C120.3,130,129.2,131.7,129.2,131.7"/>
	<path fill="#FFFFFF" d="M30.5,48.3c-1.3,1.6-16,13.2-18.7,15.8l-41.5-11.7C3.3,44.2,30.5,48.3,30.5,48.3"/>
	<path d="M243.6,60.8v0.5c-6.4-0.1-16,0.8-20.1,1.8c-4,1-8.9,2.4-12.5,4.8c0,0-2.9-0.7-4.7-1c-2.4-0.5-8.5-1.3-10.2-1.1
		c9.9-6.5,25.9-8.6,36.4-7.3C235.7,58.8,240.1,59.3,243.6,60.8"/>
	<path d="M198.1,90.7l12.7,5.6c-0.7,1.5-3.2,3.2-5,4.4l-2.1,0.7c-26.8-10.6-54.6-18.9-84.3-22.8c-19.3-2.4-37-2.7-57.2-2
		c-6.8,0.2-20.7,1.8-27.6,2.9l-0.2-0.9c19.2-4.6,37.9-6,57.2-6.6C129,72.9,164.9,79,198.1,90.7"/>
	<path d="M174.4,32c7,4.7,13.5,10.5,20.9,14.9c7.4,1.6,15.7,1.6,22,4.9c-2.8,0.5-16.3-0.7-29,5.5c-5.2,2.6-14.7,7.4-17.8,12.7
		c-15.5-16.1-38-22.2-60.6-20.7v-0.5c18.8-5.3,39.5-6.5,60.4-7.3c-1.7-2.2-4.3-3.7-6.6-5.1c-10-1.2-20.6-1.4-30.5-0.8
		c2.4-2.6,4.8-2.9,9.2-3.6C148.5,31.2,164.9,30,174.4,32"/>
	<path fill="#FFFFFF" d="M181,50.8c0.4,4-3.3,7.2-6.2,8c-2.9,0.8-7.7,0.1-9.5-1.3c-1.8-1.3-3.1-2.7-3.9-4.3
		c5.7,0.1,9.5,4.3,13.8,1.1c1.3-1.2,1.5-2.8,2.2-4.1L181,50.8"/>
	<path d="M121.4-21.8c1.7,0.2,3.2,1.5,4,3.2c0.9,7.3-5,13.3-9.4,15.6c-4.5,2.4-16.5,4.2-20.1,0.6c-3-3-0.9-7.5,3.2-8.4
		c2.2-0.5,6.4-0.6,9.8-2.2c2.8-1.3,5.9-5.4,6.4-6.6C115.7-20.6,119.2-22.1,121.4-21.8"/>
	<path d="M169.7-13.9c0.8,2.5-0.5,3.4-1.8,4.2c-6,1.7-5.8-2.8-16-2.5c-10.2,0.3-13.7,8.5-17.6,1.4c-2.7-4.7,7.2-9.4,11.1-10.5
		C152.1-23.2,167.1-22.3,169.7-13.9"/>
	<path d="M188.4-15.6c0.3,1.5-0.1,2.9-0.7,5c-0.5,2.1-2.2,4.6-4.8,5.5c-1.2,0.4-5.4,0-6.1-2.2c-1.7-5,2.7-7.1,1.6-11
		C181.5-18,185.6-16.8,188.4-15.6"/>
	<path d="M64.3-5C62.4-2.3,59.5,5.3,52,7c-1.4,0.3-2.5-0.1-3.1-0.5c-0.7-0.3-0.7-4.7,1.1-5.4C53.2-0.7,60.8-3.7,64.3-5"/>
	<path d="M226.6,3.5c1,3.2,1.9,4.7,1.4,8.3c-0.7,1.9-2,3-4.2,3.1c-2.1,0.1-4.8-1.1-5.5-3.5c-0.3-5.6-2.3-12.8-5.5-17
		c0.7,0.1,4,2.1,5.2,2.8C219.1-1.9,224,1.2,226.6,3.5"/>
	<path d="M167.3,2c0,2.4-5.9,5.7-12.3,5.5c-3.2-0.1-10.4-2.1-10.1-6.1c0.3-4,7.8-5.8,11.1-5.7C161.1-4.1,167.2-1.3,167.3,2"/>
	<path d="M102.3,48.5c-0.3,2.4-6.6,5-12.9,4c-3.1-0.5-10-3.4-9.3-7.4c0.8-4,8.5-4.8,11.7-4.2C97,41.7,102.6,45.2,102.3,48.5"/>
	<path d="M133.3,64c-0.2,2.3-6.6,5-12.9,4.1c-3.1-0.5-10-3.3-9.3-7.3c0.7-4,8.4-4.8,11.6-4.3C127.9,57.2,133.6,60.7,133.3,64"/>
	<path d="M210.6,7.9c-1.4,1.9-8.2,1.2-13.2-2.6c-2.5-1.9-7.2-7.7-4.6-10.9c2.5-3.1,9.7-0.2,12.3,1.8C209.1-0.6,212.4,5.2,210.6,7.9"
		/>
	<path d="M132.8-5.2c2.2,1,3.2,7.1,0,12.6c-1.6,2.7-6.6,9.3-10.1,7.3c-4.1-2.3-1.3-10.6,0.4-13.3C125.4-2.4,129.8-6.6,132.8-5.2"/>
	<path d="M191.6,10.3c4.2,2.9,10.5,1.8,11.6,6.2c1.1,4.4-2,6.2-4.7,6.1c-9.1-0.2-17.2-4.1-20.9-13.7c-0.5-1.4-0.7-5.4,1.4-6.3
		C185.7-0.2,186.8,7,191.6,10.3"/>
	<path d="M161.3,14.9c2.9-0.2,5.8-1.1,7.9,1.1c1,0.4,1.1,1.6,1,2.7c-3.4,5.5-11.8,5.9-18.5,5.3c-4-1-8.7-2.2-10.8-6
		c-0.3-1.6,0.7-2.8,1.8-4c3.2-2,7,0.4,10.6,1.2C156.9,16.1,161.3,14.9,161.3,14.9"/>
	<path d="M129.9,20.8c5.4-1.2,7.3,1.7,7.9,2.6c0.5,0.9,0.9,3.8-1.8,5.7c-6.4,4.5-17.5,1.2-19.9,0.5c-2.4-0.7-8.5-4.9-9.3-9.8
		c-0.4-2.4,0.2-4.7,3.1-5.6c4.2-1.3,7.6,4,8.7,5C120.4,20.8,124.5,22,129.9,20.8"/>
	<path d="M232.2,26.7c0.6,1.1,0.6,2.9-0.2,4.3c-0.8,1.4-2.5,2-4.3,1.9c-1.3-0.1-3.1-0.4-4.5-0.2c-2,0.3-4.8,1.2-7.3,3.4
		c-2.6,2.2-6.5,5.6-9.8,0.3c-0.7-1.4,0-4,0.6-5.4c3.7-4.6,11.4-7.4,14.9-7.6C225,23.2,229.9,23,232.2,26.7"/>
	<path d="M194.3,27.3c2.9,1.7,7.3,5.9,5.8,8.4c-1.4,2.3-8.6,1.2-11.5-0.3c-2.9-1.5-8-6.3-5.7-9.2C184.8,23.9,192.3,26.1,194.3,27.3"
		/>
	<path d="M113.7,37.1c0,2.1-2,4.4-4,4.7c-3.9,0.1-5.3-3.1-8.1-4.6C96.2,34,90.8,35,86,36.3c-1,0.2-3.8-0.4-4.2-1.9
		c-0.7-1.1-0.9-4.1,1.5-5.9c6.2-4.5,16.1-3.4,21.9-1C111,30,113.7,34.9,113.7,37.1"/>
	<path d="M103.7,62.5c0.9-1.5,0.1-5.1-1.8-6c-3.9-1.1-7,1.7-10.3,2.5c-8.5,1.4-10.2-1.3-14.8-3.5c-1.6-0.3-4.4-0.1-5.9,1.2
		c-1.5,1.3-2.2,3.3-0.2,5.7c4.8,5.6,14.3,6.4,20.8,5.6C98,67.3,102.8,64,103.7,62.5"/>
	<path d="M65.1,48.9c-0.8-1.6-2.4-2.9-6-2.5c-5.8,0.7-4.6,5.5-7.9,9.3c-2.3,2.7-6,4.5-9,5.2c-2.9,0.7-3,4-2.7,5.3
		c0.2,1.2,1.4,3.5,4.8,3.7c8,0.4,14.9-5.1,18.4-10.1C66.1,54.9,65.9,50.5,65.1,48.9"/>
	<path d="M-13.6,76.7c2.4,1.7,6,2.8,8.2,2.7c2.3,0,8.2-2.8,9.7,1c0.8,2-0.6,5.5-2.5,6.4c-5,3.1-11.8,3.5-16.7,0.6L-13.6,76.7"/>
	<path d="M30.1,75.9c1.9,5.2-2.3,5.6-2.9,7.4c0,0-5.6,0.8-7.8,1.4c-1.1,0.3-7,1.8-7.8,2c0.8-4.9,5.4-8.5,8.4-10.8
		C23.9,73.1,29.4,74.2,30.1,75.9"/>
	<path d="M89.1-9.1c1.2,2-2.2,7.9-7.8,11c-2.7,1.5-10,3.4-11.8-0.2c-1.8-3.6,3.8-8.9,6.6-10.5C80.7-11.2,87.4-11.9,89.1-9.1"/>
	<path fill="#D2A941" d="M192.9,217.3c-5.6,6.6-18.9,12.1-26.1,13.1c-8.9,1.2-21.7,0-31.5-6.4c-12.9-8.4-44.4-55.5-97.9-68
		c20.2-1.7,66.9,23.3,90.9,51.8c3.4,3.6,8.7,12,20.2,11.5c10-0.8,14.1-3.7,19.5-5.4c12.3-4.9,17.9-3.7,20.3-1.5
		C192.9,216.7,192.9,217.3,192.9,217.3"/>
	<path fill="#FFFFFF" d="M190.3,201.2c3.8,2.6,8.6,6.7,8.6,6.7s2.3-1.4,3.7-3.1c1.3-1.6,7.3-11.9,7.9-20.1
		c-5.5,5.6-9.4,9.4-14.2,12.6c-0.8,0.5-2,1-2,1c0-1.3,0.2-5.2-0.9-7.3c0,0-4.3,5.6-5.1,6c-0.1-2.8-0.5-6-1.2-7c0,0-6.1,5.9-6.8,6
		c-0.1-1.7-1-5.7-1.5-6.4c0,0-4.9,6.1-6.5,7.2c-1.1,0.7-1.3,0.3-1.2-0.3c1.1-5.1,2.1-12.7,1.6-18.2c-2,2-5.4,5.6-8,8.2
		c-2.6,2.6-10.7,8.8-16.1,11.1c-3.1-0.7-5.1-2.6-7.5-4.2c-2.7-2.6-5.2-4.6-7.7-7.1c-2.5-2.5-14.5-11.7-22.8-15.5
		c13.6,11.1,19.5,24.3,31.3,36.8c0,0,1.6,2.5,7.8,0.8c3.8-1,8.5-1.9,14.5-4.1c5.7-1.8,11.4-3.9,17.6-4.7
		C184.5,198.8,188.6,200,190.3,201.2"/>
</g>
</svg>
