<?xml version="1.0" encoding="utf-8"?>
<!-- Generator: Adobe Illustrator 18.0.0, SVG Export Plug-In . SVG Version: 6.00 Build 0)  -->
<!DOCTYPE svg PUBLIC "-//W3C//DTD SVG 1.1//EN" "http://www.w3.org/Graphics/SVG/1.1/DTD/svg11.dtd">
<svg version="1.1" id="Layer_1" xmlns="http://www.w3.org/2000/svg" xmlns:xlink="http://www.w3.org/1999/xlink" x="0px" y="0px"
	 viewBox="-125 -50 500 350" enable-background="new -125 -50 500 350" xml:space="preserve">
<g>
	<path fill="#FFFFFF" d="M153.1,133.5"/>
	<path fill="#010101" d="M130.4,169.4c0.1,0,0,0.2,0.1,0.3c0.1,0,0.2,0,0.3,0c-0.1,0,0-0.1,0-0.2
		C130.5,169.3,130.4,169.4,130.4,169.4"/>
	<path fill="#FFFFFF" d="M124.7-23C87.2,11.6,37.8,11.1-13,5.2C-22.8,129.5,20.9,251.8,126.6,273C232.9,250.7,273.9,127.9,262.5,3.7
		C215.3,8.9,166.4,11.2,124.7-23"/>
	<path fill="#010101" d="M124.6-10.9C93.4,15.1,43.7,21.9-3.9,15.4c-6,113.4,31.9,223.8,130.1,248.4C224,237.9,261,127.3,253.5,14
		C205.1,19.9,156.3,14.7,124.6-10.9"/>
	<path fill="#FFFFFF" d="M164.1,184.1c-1.1,3.5-2.9,7-3.9,8.5c0,0,1.5,2.6,2,5.2c7.7,5.8,16.1,11.2,37.4,5.8
		c-3.8-1.1-27.8-12.8-34-18.6L164.1,184.1z"/>
	<path fill="#FFFFFF" d="M85.4,188.1c0,0,3.6,5.6,4.9,6.3c0,0,1.5,1.3,1,6.2c-8.5,6.5-29.5,9.3-40.2,5.2c0,0,25.6-10.4,32.7-16.8
		L85.4,188.1z"/>
	<path fill="#FFFFFF" d="M152,185.4c-0.5,0.6-0.9,1.1-1.5,1.6c-0.2,0.2-0.4,0.5-0.6,0.7c-0.6,0.4-1.1,0.9-1.7,1.3
		c-0.7,0.4-1.1,1.6-0.6,2.1c0.5,0.4,1.4,0.9,2,0c0.3-0.5,1-0.6,1.4-1c1.1-1,1.9-2.3,2.2-3.9c0.1-0.5-0.3-0.8-0.7-1.2
		c0.1,0.4-0.5,0.3-0.5,0.6C152,185.7,152,185.6,152,185.4"/>
	<path fill="#FFFFFF" d="M97.5,187.5c0.6,1.7,2.1,2.4,2.5,3.1c0.7,1.1,1,2.2,1.7,3.2c-1.1,0.6-2,2.5-3.1,1.9
		c-0.6-0.3-0.7-1.4-1.1-2.3C96.7,191.4,97.8,189.6,97.5,187.5C97.5,187.5,97.4,187.5,97.5,187.5"/>
	<path fill="#D2D3D4" d="M116.9,66.7c-12.9,0.1-26.1,3.5-30,15.8c0,0-6.5,24.8-6.1,28.7c-3.6,1.1-10.8,4.7-8.5,24.4
		c0,0,8.1,35.5,11.7,42.4l2.3,0.1c0,0,2-2.2,1.7,4.9c0,0-1.1,4.1,2.6,6.5c0,0,1.4-6,2.5,3c0.3,8.7,3.1,17.9,15.9,26.8
		c0,0,6-3.9,6.6-4.2c0,0-8.9-3.3-13.5-8.3c0,0,1.3,6.2-3.8-0.8c0,0-2.5-2.4-4-18.6c0.1-2.3-0.2-2.6-2-4.9
		c-7.2-14.3-13.1-47.2,0-59.6c13.9-1,47.1-2.1,59.6,0.1c5.1,1.2,7.6,2.8,8.9,11.6c2.6,11.1,1.1,33.2-4.5,51.1c0,0-0.8,3.8-2.8,5.7
		c-1.6,0.9-7.6,5.1-10.5,11.5c-1.1,2.2-3.4,4.3-7.4,6.1c-4,2.4-18.6,6.3-12.8,12.7c0,0-1.7,0.8-4.6,1.6c0,0,0.8,3.6,2.4,3
		c0,0,3-1.2,4-3c8.7,1,19.7-1.1,26.4-7.2c2.7-1.8,7.6-4.2,8.1-8.9c0,0,2.8-5.3-2-14.3c1.8-3.1,4.6-9.1,4.1-13.7
		c0.2-0.3,15-17.5,16.6-41.1c0,0-2.2-13.9-1.5-0.6c0,0-0.2,2.3-1.4,9c0,0-2.7,10.3-1.3,0.4c0,0,0.4-15.6-1.6-29.6
		c0,0-0.5-5.2,2.4,2.4c0.4,1.3-0.5-1.7-0.5-1.7s1.5,9.5,1.7,2.8c-1.8-7.9-2.2-9.9-4.6-10.7c-1.6-11.7-6-22.9-6-22.9l-1.1,1.3
		c4.1,11,7,47.6,6.1,58.1c0,0-2.3,20.7-4.5,19.3c0,0,3.2-35,1.5-47.9c-0.9-16.5-3.3-20.5-4.3-26.9c0,0-5.3-13.6,0.1-6.2l0.6-0.4
		c-4.7-11.8-11.8-17.5-32.8-17.7l3.3,51.4l-18.9,0.2L116.9,66.7z"/>
	<path fill="#FFFFFF" d="M93.5,134.1c-0.1,0,4.2-0.8,4.1-0.8c4.7,0,15.6-0.2,18,0.7c1.2,0.5,3.3-0.7,4.4-1.1c3.9-1.6,4.4-2,8.6-4.5
		c0.7-0.4,5.6-3.4,4.7-3.5c-11.4-1.2-34.6-0.8-39.2,0.6c0,0-1.9,0.3-2.5,1c-2.1,2.4-1.7,2.6-3.2,6c1-2.2-0.5,2.7-0.6,3.2
		c-0.4,1.3,1.8,1.2,2.2,0.6C90.9,135.2,91.1,134,93.5,134.1"/>
	<path fill="#FFFFFF" d="M157.4,168.7c-0.5,2.5-0.8,5-1.6,7.4c-0.7,2.2-1.1,3.6-3.8,5.9c-0.6-4.7-2-7-1.7-8.8
		c-1.8,0.7-1.5,3.4-1.7,5.9c-0.3,3.9,0.8,6.8,0.6,5.7c0.1,0.6-1.3,1.6-1.9,2.5c-1.7,2.7-3.5,5.2-5.8,7.3c-0.3,0.3-0.4,1-0.8,1.1
		c-1.3,0.6-1.6,1.4-2.3,2.3c-0.6,0.7-2.2,1.3-3,1.7c-0.5,0.3-2.1,0.7-2.5,0.8c-1,0.2-1.8,0.2-3.3,0.1c-1.4,0-3.3-1.8-4.8-2.1
		c-4.4-1-5.4,2.9-12.2,1.6c-2.8-0.6-3.4-2.5-5.2-4.4c-0.3-0.4-2-2.4-2.3-2.7c0.7,0.7-4.7-4.2-5.8-8.1c-1.2-4.3-0.6-4.7-0.1-8.4
		c0.2-1.4-0.1-4.8-1.4-5.1c-1.2,1.3-0.3,2.1-0.6,3.9c-0.3,1.7,1.3,1.8,0.1,5.6c-0.3,1.1-0.9,0.8-1.3,0.1c-1.3-2.7-0.7-8.7-3.6-10.9
		c-0.7-0.5-0.7-2.2-0.2-2.6c0.9-0.6,1.8,0.4,2.9,0.1c0.2,0,0.1-1.4-0.1-1.6c-1-1.1-3.1-0.6-3-0.8c0.3-2.3,0.2-4.2-0.6-5.4
		c-1.1-1.5-2.6-1.7-3.2-3.2c-1.4-3.1-0.9-4.9-1-5.7c-0.2-1.1-0.4-2.9-0.2-4c-0.3,0.1-0.2-2.6-0.2-2.7c0.2-1.9,0.5-1.9,0.8-3.7
		c0-1.1,2.8-1.8,2.9,0.8c-0.6,3.4,0.4,6.1,0.5,9.5c0,0.4,0.7,0.8,1.2,0.9c7.5,2.1,13.1,1.2,20.6,1c2,0,3.2-2.6,3.6-4.5
		c0.7-3.3,0.7-4.3,0.7-7.9c0.4-1,1.2-0.7,1.9,0.1c1.3,1.5,0.3,2,0.6,3.9c0.3,1.5-1.6,3.6-1.6,3.6c0.2,0-0.6,5-0.4,5
		c0.4,0-0.2,4.4-0.3,4.3c-0.3,2.4,1.4,1.5,1.1,3.3c0,0.8-0.4,1.9-0.4,2.1c0.2,1.6-3.4,1.3-2.8,1.3c-0.8,0-1.4-0.4-1.4-1
		c0-0.9-0.2-1.6-0.2-2.4c-1.8-0.1-1,1.3-1.1,3.2c-0.1,0.8,0.5,1.5,1.9,1.7c1.4,0.2,1.6,0.4,2.3,0c0.3-0.3,1.5-0.5,1.6-1.1
		c0.7,2.6,1.5,3,3.4,2.9c0.8,0,2.7,0.3,3.5-1.6c0.2-0.5,1.5-0.4,1.7-0.9c3.3,0.6,1.3,2,5.4,0.7c1.2-0.4,2.2-2.2,1.1-3.6
		c-0.1-0.2-0.8-0.2-0.8-0.1c-0.4,3.5-1.8,2.5-3.1,2.4c-4.3-0.2-2-2-5.6,0.1c-0.4,0.2-1.7,2-3.4,0.6c-2.3-2,0.2-3.5,0.4-5.8
		c0.2-2,0.1-8.5,0-10.3c-0.3-4.4,0.9-1.7,1.6-3.6c-0.6,0.2-0.3-5.4-0.4-5.6c-0.4-2-2.7-1.2-3.3-1.9c0,0-0.3-1.5,0.1-1.6
		c2.6-0.5,5.9-2,8.2-3.2c5.5-2.7,8.5-4.4,11.2-6.1c0.8-0.5,1.1-1.6,1.5-1.5c5-0.1,9.8-1.2,14.3,1.3c3.1,1.7,3.9,3.4,4.7,6.3
		c-0.3,0.1,0.3,3.1,0.3,3.4c0.1,1.9,0,5.5,0,6.4c0.2,6.4,0.6,8.6-0.2,12.9c0,0-0.7,1.6-0.9,1.6c-0.5,0.8-1.4,1.9-2.5,2.9
		c-0.3,0.3-0.2,1.2,0.1,1.1c0.6-0.5,1.9-0.7,2.9-1.2C158.2,162.5,158,165.7,157.4,168.7"/>
	<path fill="#010101" d="M148.4,138.2c0.1,0-1.7-1.4-3.3-2.2c-0.7-0.4-3.7,1.6-4.4,1.7c-3.1,0.3-4.8,0.5-8.1,0.6
		c-0.8,0-2,0.1-2.4-0.7c-0.3-0.5-0.3-1.3,0.1-1.8c1-1.3,2.9,0.9,4.1-2.3c0,0,3.7-0.2,4.8-0.2c3.8-0.2,9.5-0.2,9,0.2
		c0.5-0.4,1.2,1.7,2,2.2c1.5,1,1-0.3,1.7,1.7c-0.5-0.4,0.4,1.2,0,0.8c0,0.2-0.3,1.2-0.4,1.3c-0.1,0.1-1.5-0.4-1.8-0.4
		C149.7,139.1,148.3,138.2,148.4,138.2"/>
	<path fill="#010101" d="M129.9,141c2.2-1.3-1.7-1.7-1,2.2c-0.1-0.4,0.7-0.1,0.8-0.3C129.8,142.6,129.9,141.6,129.9,141"/>
	<path fill="#010101" d="M127.7,149.7c0.5,2.6,0.1,2.3-0.2,4.7c-0.2,2.2,1.6,2.7,1.6,0.2C129,145.4,128.4,148,127.7,149.7"/>
	<path fill="#010101" d="M153.4,162.7c-0.2,0.5-0.5,0.5-1,0.8c-0.3,0.2-0.7,0.7-0.5,1c0.1,0.2,0.5,0.3,0.7,0.3
		c0.3,0,0.5-0.3,0.6-0.6C153.5,163.8,153.4,163.2,153.4,162.7"/>
	<path fill="#010101" d="M130.3,159.5c0.3,0,0.6-0.2,0.6-0.5c0-0.3-0.2-0.6-0.6-0.6c-0.3,0-0.6,0.2-0.6,0.6
		C129.7,159.2,130,159.5,130.3,159.5"/>
	<path fill="#010101" d="M130.3,158.9"/>
	<path fill="#010101" d="M150.5,144.1c-0.8,0.4-1.5,0.3-2.3,0.8c1.2-0.7-6.7-1.1-3.7-0.8c-2.1-0.2-3.9-0.6-6.1-0.6
		c0-0.1-0.4,0.3-0.4,0.2c-1.1,0.3-1.7-0.6-2.5-1.1c-0.6-0.3-1.1,0-1.6,0c0.1-0.2-0.2-0.3-0.1-0.5c0.1-0.2,0.5-0.3,0.6-0.4
		c1-0.1,2.1,0,3-0.4c3.2-1.1,5.7,0.4,9,0.2c1,0,2.4-0.3,3.4,0.4c0.2,0.1,0.2,0.5,0.3,0.6c0.4,0.3,1.2,0.1,1.5,0.4
		C152,143.4,151,143.7,150.5,144.1"/>
	<path fill="#010101" d="M147.3,148.7c-0.2,0-0.3-0.3-0.5-0.3c-1.9,0-3.6-0.5-5.3-1.2c-0.6-0.2-1.2,0.2-1.8,0.3
		c-0.8,0.1-1.7-0.2-2.4,0c-0.5,0.2-1,1-0.5,1.2c0.6,0.4,1.7,0.3,2.6-0.3c1-0.7,2.3-0.5,3.5-0.2c0.3,0.1,0.6,0.3,1,0.3
		C145.1,148.5,146.2,148.8,147.3,148.7"/>
	<path fill="#010101" d="M135.4,145.8c0-0.3-0.4-0.2-0.3-0.5c-0.8-0.2-1.5,0.5-2.3,0.2c-0.4-0.2-0.7-0.6-1.1-0.8
		c0,0.6-0.3,1.5,0.3,1.7c1.1,0.5,2.2-0.9,3.4-0.2C135.4,146,135.4,145.9,135.4,145.8"/>
	<path fill="#FFFFFF" d="M71.3,99.1l-6.9,6.9c0,0,6.2,9.5,7,9.8c1.2-2.4,3.3-5.7,6.1-5.9l0.5-3.5L71.3,99.1z"/>
	<path fill="#FFFFFF" d="M45.2,71.9h3.7c4.9,5.4,17.1,21,17.1,21l-1.8,4.4c4.7-4,7.4-6.6,9.1-9.1c3.4-3.7,6.5-0.8,3.8,1.6
		c-1.8,3.5-10.3,10.5-15.8,15.4c-15.8,14.4-46-8.1-21.1-30.4L45.2,71.9z"/>
	<path fill="#010101" d="M40.5,80.4c2.7-3.4,5.2-1.6,3,0.4c-1.6,1.5,1.5,4.9,3.5,4c1.6-0.6,3.6,1.9,3.1,2.9c-1.2,2.6,1.2,5.2,3,4.3
		c1-0.5,3.2,1.2,2.5,2.7c-1.1,2.3,1.2,4.8,3.7,3.6c2.7-1.4,1.2,2.3,1.2,2.3C47,112.2,26.9,90.4,40.5,80.4"/>
	<path fill="#FFFFFF" d="M41.9,75.3c2.4,0.1,4.5-1.7,4.6-4.2c0.1-2.4-1.8-4.5-4.2-4.6c-2.4-0.1-4.5,1.8-4.6,4.2
		C37.6,73.2,39.5,75.3,41.9,75.3"/>
	<path fill="#FFFFFF" d="M42.1,71"/>
	<path fill="#010101" d="M43.3,68.3c2.7,1.4,0.4,5.3-1.3,4.9c-1.9-0.4-0.4-0.8-0.4-0.8c1.8,0.3,3.3-2.6,1.1-3.5
		C41.8,68.5,43.3,68.3,43.3,68.3"/>
	<path fill="#FFFFFF" d="M201.5,70.6l-3.7,0.2c-4.7,5.6-16.1,21.9-16.1,21.9l2,4.3c-4.9-3.8-7.7-6.2-9.6-8.7
		c-3.6-3.6-6.5-0.5-3.7,1.8c1.9,3.4,10.8,10,16.6,14.6c16.5,13.7,45.6-11.8,19.6-32.8L201.5,70.6z"/>
	<path fill="#010101" d="M207.2,77c-2.3-2.4-4.1-1-3.5,1c0.7,2.2-2,6.5-3.4,5.6c-1.8-1.1-3.7,1.9-3,3c1.2,1.8-1,5.4-2.8,4.5
		c-1-0.5-3,1.5-2.3,2.8c1.1,2.2-1.3,4.3-3.6,3.7c-2.9-0.7-1.1,2.4-1.1,2.4C201.7,111,221.3,86.4,207.2,77"/>
	<path fill="#FFFFFF" d="M205.1,72.5c-2.4,0.2-4.6-0.1-4.8-2.6c-0.2-2.4,1.6-5.9,4-6.2c2.4-0.2,4.5,1.6,4.8,3.9
		C209.3,70.1,207.5,72.3,205.1,72.5"/>
	<path fill="#010101" d="M203.3,65.5c-3.4,2-0.9,5.6,1.6,4.9c1.9-0.5,0.4-0.8,0.4-0.8c-2.5,0.5-4.3-2-1.3-3.4
		C204.9,65.7,203.3,65.5,203.3,65.5"/>
	<path fill="#FFFFFF" d="M177.5,99.3c1,0.5,6.7,5.6,8.1,6.5c-0.8,3.5-6.3,14.4-7.5,16.3c-0.2-6.5-1.2-13.7-4.7-13.7l-0.7-2.6
		L177.5,99.3z"/>
	<path fill="#010101" d="M155.6,202.2c0.3-1.9-1.5-3.8-2.6-2.2c-0.6,0.8-0.7,2.4-1.5,3.2c-2.1,2.2-3.5,2.6-4.7,3.9
		c-1.3,1.4-1.7,2.4-0.4,4.3c0.1,0.1,0.3,2.1,1.8,3.1c1.7,1.3,4.2-0.1,6.7-3.4c0.6-0.7,0.5-1.7,0.6-2.6
		C155.7,206.5,155.3,204.3,155.6,202.2"/>
	<path fill="#010101" d="M144.6,214.5c-0.1,5.4-7.9,7.5-11.1,5.8c-0.5-0.3-2.2-1.8-1.9-2.8c0.3-1,1.5-1.6,2.3-2
		c1-0.4,1.8-0.1,2.7-0.9c1.3-1.1,2.1-1.3,3.6-2.8c0.8-0.8,2.5-0.7,3.3-0.1C144.4,212.4,144.9,212.9,144.6,214.5
		C144.7,214.2,144.6,214.4,144.6,214.5"/>
	<path fill="#FFFFFF" d="M153.3,206.4c-3.3,2.3-7.3,4.2-3.5,6.2c0.9,0.5,3.3-1.3,3.9-3.3C153.7,209.4,153.5,206.3,153.3,206.4"/>
	<path fill="#FFFFFF" d="M142,216.9c-0.6,0.5-2.7,1.6-2.4,1.4c-1.4,0.8-3,1.2-4.6,1c-1.5-0.3-0.9-1.5-0.6-1.6
		c4.1-0.6,4.8-2.9,7.4-3.9c0.8,0.2,0.9,1.3,0.8,1.6C142.6,215.8,142.4,216.4,142,216.9"/>
	<path fill="#010101" d="M110.9,168.8c-1,1.3,0,1.5-2.4,3.9c-0.7,0.7-2,1.2-2.6,2.1c-0.1,0.2-0.1,0.7-0.1,1.2
		c1.6,0.5,4.4-0.8,7.5-0.8c1.8-0.1,3.6,0.5,5.5,0.9c3.2,0.6,6.2-0.1,10.1-0.4c4.7-0.3,5.6,0.8,7.1,0.6c2.9-0.3,4.7-1.8,3.4-1.4
		c0.3-0.1-2.4,0.3-2.2-0.1c-0.8-0.1-1.3,0.3-2,0.4c-1.6,0.2-3.2,0.1-4.9-0.4c-2.4-0.8-5.1,0.5-7.7,0.5c-4.2,0-8.8-1.4-14-0.9
		c-0.5,0.1,4.2-3.8,3.9-3.4c1.4-1.7,1.6-4,1.9-3.3C114.3,167.5,113,166.2,110.9,168.8"/>
	<path fill="#010101" d="M116.7,182.1c3.6-0.3,10.3,1.4,13.4,0.3c0,0.3,2.6-0.9,2.6,0.4c-0.1,1.8-4.4,1.5-5.5,1.2
		c-3.1-0.7-4.2,0.3-10.6,0.2c-0.3,0-3.2,0.5-4.1-1.8C112.1,181.8,113.9,181.7,116.7,182.1"/>
	<path fill="#010101" d="M137.7,170.8c-0.3,0.8,0.5,1.4,1,0.9c0.3-0.3,0.3-1.3-0.5-1.5C138.2,170.6,137.8,170.5,137.7,170.8"/>
	<path fill="#010101" d="M136.3,169.1c-0.3-0.2-0.7-0.5-1-0.6c-1.1-0.3-2-0.9-3.1-1c-0.3,0-0.4-0.5,0-0.8c0.7-0.3,1.5,0,2.2,0.2
		c1,0.3,1.1,1.5,1.9,1.9c0.2,0.1,0.8,0.2,0.7,0.5c-0.2,0.3-0.8,0.2-0.9-0.3C136.2,169.1,136.2,169.1,136.3,169.1"/>
	<path fill="#FFFFFF" d="M139.6,173.8c0.3,0,0.5-0.3,0.5-0.6c0-0.3-0.2-0.6-0.5-0.6c-0.3,0-0.5,0.3-0.5,0.6
		C139.2,173.5,139.4,173.8,139.6,173.8"/>
	<path fill="#FFFFFF" d="M139.6,173.2"/>
	<path fill="#FFFFFF" d="M209.1,41.1c2.5,1.7,4.6,2.6,6.5,2.6c1.3,0,2.1-0.5,2.1-1.4c0-1.2-1.3-1.3-3.5-1.8
		c-4.4-0.9-6.7-3.3-6.8-7.1c0-5.4,4.2-9.5,10.8-9.5c3,0,5.8,0.7,8.8,2.3l-2.8,6.8c-1.8-1.3-3.7-2-5.4-2c-1.3,0-2,0.5-2,1.3
		c0,1.3,1.8,1.4,4.9,2.1c3.5,0.7,5.8,3.3,5.9,6.9c0,5.5-4.3,9.8-11.1,9.9c-3.4,0-6.9-0.9-10.3-2.8L209.1,41.1z"/>
	<path fill="#FFFFFF" d="M33,37.9l1.5,0c1.8,0,2.8-0.9,2.7-2.5c0-1.6-1-2.6-2.8-2.6l-1.4,0L33,37.9z M23.8,26.2l11.7-0.1
		c7-0.1,10.5,3.1,10.6,8.7c0,3.7-1.9,6.3-5,6.7l7,10.5l-10.5,0.1l-4.6-8.6l0.1,8.6L24,52.2L23.8,26.2z"/>
	<path fill="#FFFFFF" d="M71.2,42.1l-0.8-2.9c-0.4-1.4-0.9-3.2-1.1-5.7h-0.2c-0.1,2.5-0.6,4.3-1,5.7l-0.8,2.9L71.2,42.1z M64.1,25.6
		l10.4-0.1l9.3,25.9l-10,0.1l-0.9-3.3l-7.1,0.1l-0.8,3.3l-10,0.1L64.1,25.6z"/>
	<polygon fill="#FFFFFF" points="91.9,25.6 101.4,25.5 101.7,51.5 92.2,51.6 	"/>
	<path fill="#FFFFFF" d="M126.6,38.3c0-3.4-1.9-5-5.7-5c-0.1,0-0.2,0-0.4,0l0.1,10.1C124.7,43.3,126.6,41.8,126.6,38.3 M112.4,25.4
		l7.6-0.1c4.5,0,7.9,0.4,10.3,1.5c4.5,2.2,7,6.4,7.1,11.3c0,4.3-1.9,8.1-5.3,10.4c-3.4,2.4-7.4,2.6-12.6,2.7l-6.9,0.1L112.4,25.4z"
		/>
	<polygon fill="#FFFFFF" points="146.1,25.1 163.5,24.9 163.5,32 155.3,32.1 155.3,34.6 162.8,34.5 162.9,41.2 155.4,41.3 155.4,44 
		163.9,43.9 163.9,51 146.3,51.1 	"/>
	<path fill="#FFFFFF" d="M183.5,36.6h1.5c1.8,0,2.8-1,2.7-2.6c0-1.6-1-2.6-2.8-2.6l-1.5,0L183.5,36.6z M174.2,24.9l11.7-0.1
		c7,0,10.5,3.1,10.6,8.7c0,3.7-2,6.3-5,6.7l7.1,10.5l-10.5,0.1l-4.6-8.5l0.1,8.6l-9.2,0.1L174.2,24.9z"/>
</g>
</svg>
