<?xml version="1.0" encoding="utf-8"?>
<!-- Generator: Adobe Illustrator 18.0.0, SVG Export Plug-In . SVG Version: 6.00 Build 0)  -->
<!DOCTYPE svg PUBLIC "-//W3C//DTD SVG 1.1//EN" "http://www.w3.org/Graphics/SVG/1.1/DTD/svg11.dtd">
<svg version="1.1" id="Layer_1" xmlns="http://www.w3.org/2000/svg" xmlns:xlink="http://www.w3.org/1999/xlink" x="0px" y="0px"
	 viewBox="-182.5 -107.5 500 350" enable-background="new -182.5 -107.5 500 350" xml:space="preserve">
<metadata><?xpacket begin="﻿" id="W5M0MpCehiHzreSzNTczkc9d"?>
<x:xmpmeta xmlns:x="adobe:ns:meta/" x:xmptk="Adobe XMP Core 5.6-c011 79.156289, 2014/03/31-23:39:12        ">
   <rdf:RDF xmlns:rdf="http://www.w3.org/1999/02/22-rdf-syntax-ns#">
      <rdf:Description rdf:about=""
            xmlns:xmp="http://ns.adobe.com/xap/1.0/"
            xmlns:xmpGImg="http://ns.adobe.com/xap/1.0/g/img/"
            xmlns:dc="http://purl.org/dc/elements/1.1/"
            xmlns:xmpTPg="http://ns.adobe.com/xap/1.0/t/pg/"
            xmlns:stDim="http://ns.adobe.com/xap/1.0/sType/Dimensions#"
            xmlns:xmpG="http://ns.adobe.com/xap/1.0/g/">
         <xmp:CreateDate>2007-01-23T03:15:20Z</xmp:CreateDate>
         <xmp:ModifyDate>2007-01-23T03:20:39Z</xmp:ModifyDate>
         <xmp:CreatorTool>Illustrator</xmp:CreatorTool>
         <xmp:Thumbnails>
            <rdf:Alt>
               <rdf:li rdf:parseType="Resource">
                  <xmpGImg:width>256</xmpGImg:width>
                  <xmpGImg:height>256</xmpGImg:height>
                  <xmpGImg:format>JPEG</xmpGImg:format>
                  <xmpGImg:image>/9j/4AAQSkZJRgABAgEASABIAAD/7QAsUGhvdG9zaG9wIDMuMAA4QklNA+0AAAAAABAASAAAAAEA&#xA;AQBIAAAAAQAB/+4ADkFkb2JlAGTAAAAAAf/bAIQABgQEBAUEBgUFBgkGBQYJCwgGBggLDAoKCwoK&#xA;DBAMDAwMDAwQDA4PEA8ODBMTFBQTExwbGxscHx8fHx8fHx8fHwEHBwcNDA0YEBAYGhURFRofHx8f&#xA;Hx8fHx8fHx8fHx8fHx8fHx8fHx8fHx8fHx8fHx8fHx8fHx8fHx8fHx8fHx8f/8AAEQgBAAEAAwER&#xA;AAIRAQMRAf/EAaIAAAAHAQEBAQEAAAAAAAAAAAQFAwIGAQAHCAkKCwEAAgIDAQEBAQEAAAAAAAAA&#xA;AQACAwQFBgcICQoLEAACAQMDAgQCBgcDBAIGAnMBAgMRBAAFIRIxQVEGE2EicYEUMpGhBxWxQiPB&#xA;UtHhMxZi8CRygvElQzRTkqKyY3PCNUQnk6OzNhdUZHTD0uIIJoMJChgZhJRFRqS0VtNVKBry4/PE&#xA;1OT0ZXWFlaW1xdXl9WZ2hpamtsbW5vY3R1dnd4eXp7fH1+f3OEhYaHiImKi4yNjo+Ck5SVlpeYmZ&#xA;qbnJ2en5KjpKWmp6ipqqusra6voRAAICAQIDBQUEBQYECAMDbQEAAhEDBCESMUEFURNhIgZxgZEy&#xA;obHwFMHR4SNCFVJicvEzJDRDghaSUyWiY7LCB3PSNeJEgxdUkwgJChgZJjZFGidkdFU38qOzwygp&#xA;0+PzhJSktMTU5PRldYWVpbXF1eX1RlZmdoaWprbG1ub2R1dnd4eXp7fH1+f3OEhYaHiImKi4yNjo&#xA;+DlJWWl5iZmpucnZ6fkqOkpaanqKmqq6ytrq+v/aAAwDAQACEQMRAD8A9U4q7FXYq7FXYq7FXYq7&#xA;FXYq7FUPe6jYWKc7u4SBe3NgCfkOp+jCBaCaY3f/AJjaRDVbSKS6YdG/u0P0tVv+FyQxlgcgSG7/&#xA;ADG1qUkW8cVuvYgF2+9jT/hcmMYYnIUpuPNXmKf7d/KK/wC+z6f/ABDjh4Qx4igZL29lNZbiRz/l&#xA;Ox/WcNMbUMKuxVXjvb2I1iuJEP8Akuw/UcFLaOt/NXmKD7F/Kaf78Pqf8T5YOEMuIptafmNrURAu&#xA;I4rhe5IKN96mn/C4DjDIZCn1h+Y2kTUW7iktWPVv7xB9K0b/AIXIHGWQyBkllqNhfJztLhJ178GB&#xA;I+Y6j6ciRTMG0RgS7FXYq7FXYq7FXYq7FXYq7FXYq7FXYq7FXYq7FXYq7FUr1jzJpOkqfrMtZv2b&#xA;eOjSH6O305IRJYmQDCNW/MHVbolLICzh8R8UhH+sdh9A+nLBANZyFjE0000hkmdpJG+07ksx+ZOT&#xA;a1mKuxV2KuxV2KuxV2KuxV2KuxVfDNNDIJIXaORfsuhKsPkRirJ9J/MHVbUhL0C8h8T8MgH+sNj9&#xA;I+nIGAbBkLN9H8yaTqyj6tLSb9q3kosg+jv9GVmJDYJAppkWTsVdirsVdirsVdirsVdirsVdirsV&#xA;dirsVUru7trSBri5kWKFBVnY0GICksB1/wDMG5uC0GlAwQ9DcH+8b/VH7P6/llsYd7TLJ3MPd3di&#xA;7sWdjVmJqSfc5Y1rcVdirsVTCy0HWb6htbOWRG6SceKH/ZtRfxwEgJESU6tvy612UAzPDAD1VmLM&#xA;P+BBH45HjDMYymMf5Y95dR+hYv4l/wCGR8RPhL7r8vdJtYDPLdzlFKhgOA+0wXwPjmPqtWMMDM8h&#xA;X2mmzHg4jSu35aaXX4bucDwPA/wGZHiMPDCFk/LHvHqPyDRfxD/wx8RHhJdc/l1rsQJheGcDoqsV&#xA;Y/8ABAD8clxhBxlJb7QNasam6s5EVdy4HJB/slqv45ISBYGJCX4UOxV2Krkd0YOjFXU1VgaEH2OK&#xA;sw0D8wbm3KwaqDPD0FwP7xf9Yftfr+eVyh3Nkcnez60u7a7gW4tpFlhcVV1NRlRDcCq4q7FXYq7F&#xA;XYq7FXYq7FXYq7FXYqlmu+YLDR7b1bhuUrV9GBT8Tn+A8ThEbYylTy/Wte1DV7j1bl6Rg/uoF+wg&#xA;9h4++XCNNEpWluSQ7FVW3tri5lWG3jaWVvsogLE/QMC0y3Sfy4vJuMmpTC3Q7+jHRpPpb7K/jkDk&#xA;bBj72Xab5X0PTwpgtVaVf93SfG9fEFun0UyBkS2CICa5Fk7FXYqkHnK44WEUAPxTPU/6qCp/EjOb&#xA;9ps3DhjD+dL7B+A52ghcye5N9OuPrNhbz1qXRS3+tTf8c3WizeLhhPviPn1cXLDhkQiMymt2KuxV&#xA;K9S8s6JqNTcWqiQ1/fR/A9T3JWlfprkhIhiYgsR1b8uLuEGTTZfrCD/dMlFk+hvsn8MmMne1nH3M&#xA;RuLa4tpWhuI2ilX7SOCpH0HJtdKWFXYqmWi69qGkXHq2z1jJ/ewN9hx7jx98iY2mMqeoaF5gsNYt&#xA;vVt24yrT1oGPxIf4jwOUmNN8ZWmeBk7FXYq7FXYq7FXYq7FXYqk3mXzLbaLbAkCW7lB9CCv/AAze&#xA;Cj8clGNsZSp5XfX91f3T3V1IZJnO5PYeAHYDLgKaCbQ+FDsVZP5e8j32pBbi7ra2RoQSP3jj/JB6&#xA;D3P45CU6Zxhb0LTNH07TIfSs4VjB+2/V2p/Mx3OVE23AAIzAl2KuxV2KuxVhPmy8E+qGJTVLdQn+&#xA;yO7f0zgPaHU+JqOEcoCvj1/V8Hc6LHwwvvTbydeCSyktifigaqj/ACX3/XXN17NanixHGecT9h/b&#xA;bi6/HUhLvZBnSuA7FXYq7FXYqg9T0jT9Th9G8hWVR9lujL7qw3GEGkEAvPfMPka+04NcWhN1Zipb&#xA;b94g/wAoDqPcfcMtjO2mUKYxk2DsVRFjf3VhdJdWshjmQ7Edx4EdwcBFpBp6p5a8y22tWxIAiu4g&#xA;PXgr/wAMvip/DKZRpvjK05yLJ2KuxV2KuxV2KuxVLPMGu22j2DXEvxStVYIa7u39B3OGItjKVPJb&#xA;++ur+6kurpy80hqT2HgB4AZeBTQTaHwoXRxySSLHGpeRyFVFFSSegAGKvRPK/kaG0CXmpqJbrqlu&#xA;aFI/n2ZvwGVSn3N0Yd7L8rbHYq7FXYq7FXYqhtRvY7KzluX/AGB8K+LHoPvzF1uqGDFLIen39GzF&#xA;jM5APOpJHkkaRzV3JZj4kmpzy+czImR5l6AChQR2hah9R1GOVjSJ/gl/1W7/AEHfNh2TrPy+cSP0&#xA;nY+4/q5tOpxccCOr0AEEVG4PQ56UC6F2KuxV2KuxV2KuxViPmjyNDec7zTFEV31eDokh9v5W/A/j&#xA;lkZ97XKHc87likikaOVSkiEq6MCCCOoIOWtKzFURYX11YXUd1auUmjNQex8QfEHARaQaeteX9dtt&#xA;YsFuIvhlWizw13Rv6HscokKb4ytM8DJ2KuxV2KuxVSu7uC0tpLm4YJDEpZ2PgMQFJeQ69rVxq+oP&#xA;cy1EY+GCLsidh8/HL4inGlK0tySF0cckkixxqXkchUVRUknYADFXp/lLylHpUYuroB9RcbnqIgf2&#xA;V9/E/wCZplK2+EKZJkGbsVdirsVdirsVcSAKnYDqcBNKwjzJrIvrgQwmtrCdj/M3dv6ZwPbfaf5i&#xA;fDH+7j9p7/1O50mn4BZ+opNmicx2Ksv8ra0s0S2M7fvoxSJj+0o7fMfqztuwO1BOIwzPqHLzH6x9&#xA;zqdZp6PEOTIc6ZwHYq7FXYq7FXYq7FWN+bfKUeqxm6tQE1FBseglA/Zb38D/AJicZUwnC3mMsUkU&#xA;jRSKUkQlXRhQgg0IIy5oWYqmWg61caRqCXMVTGfhni7OncfPwyMhaYyp69aXcF3bR3NuweGVQyMP&#xA;A5QQ5IKrirsVdirsVeefmDr5uLkaVA37mA1uCP2pOy/7H9fyy2EerTkl0YbljW7FXo3kbyuLSFdT&#xA;vE/0qUVgQ/7rQjqf8ph+GVTl0boR6svytsdirsVdirsVdiqyaaKGNpJXCRruWY0GV5csccTKRoBM&#xA;YkmgxDXfMr3Ya2tCUtjs79Gf+gziu1u3DmvHj2h1PU/sdtptJw7y5pDnOOc7FXYq2jvG6ujFXU1V&#xA;hsQRkoyMSCDRCCL2LL9F80RXAWC9YRz9FlOyt8/A52vZfb0cgEMx4Z9/Q/qP2Oq1GjMd48mQZ0rg&#xA;OxV2KuxV2KuxV2KsR88+V/rkLanZp/pcQ/foOsiDv/rL+I+jLIS6Nc49XnGWtLsVZl+X2vm3uTpU&#xA;7fuZzW3J/Zk7r/sv1/PK5x6tmOXR6HlTc7FXYqlfmTWF0nSZbmv74/u7dfGRht93XJRFljI0HkDu&#xA;zuzuSzsSWY9ST1OXuOtxVk3kfy8NSvjdXC1srUgkEbPJ1C/IdT/bkJypnCNvT8pb3Yq7FXYq7FUL&#xA;c6pp9rX17hEI6rWrf8CKnMPPr8GL65gff8hu2wwzlyCS3vnKFQVs4i7dpJNl/wCBG5/DNDqvaaI2&#xA;xRvzPL5f2OZj0B/iLHL3Ur29flcyl6fZXoo+QG2cvqtblzm8kr+75Owx4owGwQ2YrY7FXYq7FXYq&#xA;7FUy07zBqNiAiv6sI/3VJuB8j1GbXRdsZ9PsDxR7j+jucfLpYT8iyKz83abMAJw1u/v8S/eP6Z0+&#xA;m9o8E/ruB+Y+Y/U6/JoZjlum8F1bXC8oJUlH+QwP6s3WLUY8guEhL3FxJQlHmKVcuYuxV2KuxV2K&#xA;vMfPPl4adfC7t1pZ3RPwgbJJ1K/I9R9Phl0JW0TjTGMmwXI7I6uhKupBVh1BHQ4q9f8ALesLq2kx&#xA;XNf3w/d3C+Eijf7+uUSFFyImwmmRZOxV5p+YOrG61UWSH9zZih8DI27fcKD78ugNmnId2K5NrVba&#xA;3lubiO3hXlLKwRF8SxoMCh7Jo+mQ6Zp0NnFuI1+Nv5nO7N9Jygm3JAoIzAl2KuxV2KpbfaHFdg1u&#xA;bhK9FEhK/wDAmuarVdkxzc55B/nbfIuRj1Jj0HySO58mXaAm3mSUfysCh/42Gc/n9mMsd4SEvft+&#xA;tzYdoRPMUkt3p19aGlxC0fgxFVPyYbZotRosuE/vImP3fPk5kMsZ8ih8xWx2KuxV2KuxV2KuxV2K&#xA;phZ6Dql3QxwlUP8Aux/hH47n6M2Wm7J1GbeMaHedh+Pc0ZNTCPMpza+TGUh57riw7RD9TH+mbzT+&#xA;zBG85/6X9f7HDn2h3D5qHmLWI/LV/wCXbZZ5ZDqmoraOJpCw9N43X8JGTN/h0wwUBKcv60rXT4jn&#xA;jkND0QvYeY/RbLsz3WuxV2KuxVB6vpkOp6fNZzbLKvwt/Kw3Vh8jhBpBFh43c28ttcSW8y8ZYmKO&#xA;vgVNDl7jFSwqyr8vtWNrqpsnP7m8FB4CRd1+8VH3ZCY2bMZ3el5S3IfUb1LGwuLt/swIz08SBsPp&#xA;O2EC0E08VmmkmmeaQ8pJGLu3izGpOZDjLMVZl+XOk+tey6lIPgthwh95HG5/2K/ryvIWzGOr0PKm&#xA;52KuxV2KuxV2KuxVplV1KsAynqDuDglEEUdwkGki1PynaTgyWdLeXrw/YP0fs/RnO6/2ex5PVi9E&#xA;u7p+z8bObh1so7S3DErq0uLWYw3CFJF7HuPEHuM4zUaeeGXDMUXaQmJCwpZSzdirsVdiqP0vRrzU&#xA;X/dDjEDR5m+yPl4nNjoOzMupPp2j1PT9rRm1EcY35sv07y/p9iAyp6sw6yvua+w6DO20XY+DT7gc&#xA;U+8/o7nU5dVOfkEyzauO7FXz3/zkJ5klXzjpNpayUk0eJbkEfszyuHFf9jGh+nMHUz9Q8nsvZ7TD&#xA;wJSP8Zr4D+0vetJ1GDU9Ls9Rg/ubyGO4j7/DIoYfrzNibFvI5cZhMxPOJpFYWt2KuxV2KvPfzH0k&#xA;Q3kOpRrRLgenNT/fij4T/sl/VluMtOQdWGZY1r4ZpIZkmjPGSNg6N4MpqDir2rTr1L6wt7tPszor&#xA;08CRuPoO2Y5FOSDbG/zGv/R0iK0U0a6k+IeKR/Ef+GK5LGN2GQ7PNsuaXYq9g8raaNP0O1gIpKy+&#xA;rNtQ83+Ig/L7P0ZRI2XIiKCa5Fk7FXYq7FXYq7FXYq7FXYqg9U0u21C3MUoo43jlHVT/AE9swdf2&#xA;fj1MOGXPoe5uw5jjNhgN5Zz2dy9vMKOh+gjsR88841OmnhyGE+Yd5jyCYsKOUM3YqmmhaK+ozkvV&#xA;baM/vHHc/wAo982/ZPZZ1U99sceZ/QPxs42p1AxjzZzDDFDEsUShI0FFUdBnoOLFHHERiKiHSSkS&#xA;bK/LEOxVZNNFBC80zBIolLyO2wVVFST8himIJNDm+M/N+vSa/wCZtS1h6gXk7PEp6rEPhiU/6qKB&#xA;mpnLiJL6bo9P4OKMO4f2/a+gf+cf/Mi6n5MOmSPW60eQxEE1PoykvE338lH+rmdpp3Gu5472g03B&#xA;n4xymPt6/jzenZkOidirsVdiqV+ZtN/SGh3VuBWQL6kXjzT4gB86UyUTRYyFh49l7juxV6T+XN/6&#xA;2kS2jGrWsnwjwST4h/wwbKcg3bsZ2SH8xrsy61Hbg/DbxAEf5Tksfw45PGNmOQ7sUybWj9Dsvr2s&#xA;WlqRyWSVfUH+QDV/+FBwE7JiLL2bMdyXYq7FXYq7FXYq7FXYq7FXYq7FUl80aWLqyNxGtZ7cE7dS&#xA;n7Q+jrmh7f0HjYuOI9cPtHX9bmaPNwyo8iwnOBdyqW8ElxPHBEKySMFUe5y3DilkmIR5yLGchEWX&#xA;othZRWVpHbxfZQbnuT3J+eenaTSxwYxCPT7fN0GXIZyJKvmS1uxV2KvLfz786ppHlz9BWz/7kNYU&#xA;rIB1S1Bo5P8Axk+wPbl4ZjanJQrvd/2BovEy+Ifph9/7OfyfNea97hmX5T+cx5V83QXM7cdNvB9V&#xA;v69FjcgiT/YMAflXLsOThk6ztbRfmMJA+obj9XxfWasrKGUgqRUEbgg5s3ztvFXYq7FXYq8a1+yF&#xA;jrV5agUVJSUA7I3xL/wpGZETYcaQopfhQyv8ubsxa1Jbk/DcREAf5SEMPw5ZDINmzGd0p81XHr+Y&#xA;r9+tJTH/AMi/g/41wx5MZc0qyTFlP5dWwl15pSK+hC7qfBmIT9THIT5M8fN6ZlLe7FXYq7FXYq7F&#xA;XYq7FXYq7FXYq4gEUO4PUYkK871iy+p6jNABRAeUf+q24+7pnmPaWl8DPKHS9vcXf4MnHAFN/Jti&#xA;HuJbxhtEOEZ/ym6/cP15uvZnS8U5ZT/DsPef2fe4uvyUBHvZbnaOqdirsVSPzj5v0nyposup6i42&#xA;BW2twaPNLSqxp/E9hvkJzERZcvR6OeoyCEfie4PknzN5j1LzHrdzq+ovyuLhqhR9lEGyxoOyqNv7&#xA;c1k5GRsvoul00cOMQjyCV5Bvdir3v8j/AM04ZreDyprc3C5jpHpVy52kTtAxP7S9E8Rt1pXN0+b+&#xA;EvIdudlEE5sY2/iH6f1va8zHl3Yq7FXYq80/MW2EWupMBQTwqzHxZSV/UBl0OTTkG7Fcm1pr5VuP&#xA;Q8xWD9KyiP8A5GfB/wAbZGXJlHmgb2Qy3txKeryO33sThDEqGFWdfljHvqMpH++lB/4Mn+GVZG3E&#xA;zvK21826n/zkF+aOt6xrbeRdDt7jQtC5vPNJE80vooWAlkIkjA5iMsEUVpXrTFNPT/y1/N/TPNH5&#xA;ez+a9W9PTDpbSRawASY0eJVcvGDyfi6uOI3Nfh3pirJfI3m+y84eV7TzFZQvBaXrTiCOWnPjBPJA&#xA;GamwLenyp2rihPsVdirHvzB8yXXlnyXq+vWkSTXOnwGaKKWvBiCBRuJBpv44qhPyq84X3nHyFpfm&#xA;O+hit7q+9f1IYOXpr6NxJCOPIsdxGD1xVlmKuxV2KuxVi3nS1HK3ugOtYnPy+Jf45yHtRg3hkH9U&#xA;/eP0uz7Pnzim/l21+r6RACKNIPUb/Z7j8KZuuxcHh6aPfL1fP9lOJqp8WQplm1cd2KsE89fnD5Y8&#xA;rpJbxSLqWrioFlAwIRv+LpBUJ8vte2U5M4j73b6DsfLn3Pph3n9H4p83ea/N+ueadUbUdWn9STcQ&#xA;wrURRJ/JGtTQfie+a+czI2XttJo8enhwwH6z70lyDlOxV2KuBIIINCNwRhV7X+XP5+PaxxaX5tLz&#xA;QrRYdWUFpFHhOo3f/WG/iD1zLxamtpPL9pdgcVzw7H+b+r9T3PT9SsNStI7ywuI7q1lFY5omDqfp&#xA;GZgIPJ5PJjlCXDIUURhYOxVgv5nR/wDHOlH/ABap/wCEI/jlmNqysEy1qV7KQxXtvKOqSI33MDgK&#xA;hQwq7FXof5Zqv6PvGp8RlUE+wXb9eVZG7GzLK2x8jSv5r/IjzxqMctj9f8o64xj/AJUuLcFigWQD&#xA;4J4lkYFT4nahBxSzHzN5V8hXn5AajqH5f3k9hpCzDU7uH1JJJJJY4jC9rcBnJT7akjcbAioIOKsV&#xA;tdU17yj/AM4xWeoaZqc6TeZNUaBSrMjWkKtOHSBg23qG0qaU+2fniqD8o3q+TfzK8lr5e81trsGv&#xA;Nawa3AknJEkupFikjdQzD4efJa7gjFUz8/Xyec/zn1zQvMnmo+W9B0eFlsC8nGH1YxGoUKzIvORp&#xA;GcnrxFMVRXkXzVrGtf8AOOPnWz1S5ku20tTFazTMXcQyKjCPkdyFYNSvY06DFWrnzVrHl7/nFDy6&#xA;+kzva3GpXs9jJcRMUkSJ7q8lfgw3Bb0eO3YnFUl8pXsXk38y/JaeXPNb63a66baDWbdJA6JJdSLE&#xA;8TqGYbFwy13FMVTHzi/5na9+d/mjyr5U1a4g+tRhHR7mSKCG3WKCR2WhPCrAL8C1PIjoTiqR+ZrX&#xA;zB5g/NW/8q+Y/MEulTWFubbRo2ciBp4oF+qxAs0aIJ/teoepPicVfRn5LWXnzT/I8Wn+do5E1azm&#xA;kigaWaK4d7aitGWkieUGhZl+I12+WKCyfzLbrNpMgZgnBkYOxAA+IAkk+xOartnTHNpzEc7FfOvu&#xA;Lk6SfDNLNS/MnyBpEYS51u1HpgL6cL/WHFOgKQ+o34ZnicIAC9g3Y+zdTkO0JfHb72D67/zkh5dt&#xA;wyaNp89/KNllmIt4vmPtufpUZXLVDo7XB7N5ZfXIR925eX+afzi88eYVeGS8+oWT7G0sgYgR4M9T&#xA;I1e45U9sxp55Sd9pextPh3A4pd53/YwjKXauxV2KuxV2KuxV2KppoHmjzB5fufrGj38tnIfthG+B&#xA;/wDXjNUb/ZDJxmY8nH1Glx5hU4iT1Ty9/wA5JanCFi1/TI7pRQG5tG9KT5mNuSMfkVzIjqj1DoNR&#xA;7NQO+OVeR3/H2vQtI/O/8utS4htQaxlb/dV5G0dPm684/wDhsyI6iBdNm7D1MP4eL3fi2vPWr6Rq&#xA;ek2sum3tvexrNu9vKkoFUP8AIT4ZkYpA8nUanBOH1RMfeKYPl7iuxV2KuxV6H+WbL+j7xa/EJVJH&#xA;sV2/VlWRuxsyytsfLfkD8ztLutM83+Wfzf1N7wR0S3hu0Ltzh9VJki4rVZVfiV71+WKUq/KuG+X8&#xA;hPzHmkDCxkEa25NeJlRR6vH34slcVUdZu7fU/wDnFbQoLJjNLoetMuqKFYeiZWu2SpIoQRcx7jbe&#xA;nXFU40a4/Jm086+RbDyt5ci1bU75rG4udRS/vVa0ufUUsxiLsjNHxLsh27HbFUPqemfl+v8AzkF5&#xA;uh/MZFXSGhkubT1JJoVaZhDLGVaFo2JaLmAK0J260xVNvK+oaBqP5B+fbvQ/Lq+XrT+6dEup7sTS&#xA;IiMTynJK8Q42GKpJ5mtppv8AnEvylJGpZLfVZZZiP2UM99GCf9lIoxVG6LP+TNp528jaf5W8uRat&#xA;qd61jc3OpJf3oNpc+orMTFzdGaLgXZCKeO2Ksl8nf+tYeaf+YN/+TdrirGPzh1vyl5w8y+Z9J1q1&#xA;g8va75ahmOlay0rFr70HHC2kj4AH1Eaqblh22qMVep/840eYNc1r8son1eR5nsrqWztLiQlne3jR&#xA;GSrHc8WdkHsuKlPPzo8zSeXvIk97AaXUlxbRW/uwmWVh/wAi42zJ0mPjnTTnnwxtOrvyh5K1+0ju&#xA;LrSLS5juUWRJ/SRZCrjkCJEAcVB7HMSeKPIhz8OvzY/pnIfH9DCte/5x28n3oZ9KnuNKmP2VDfWI&#xA;R81kPP8A5KZRLSxPLZ22D2izx+sCY+R/V9jy/wA0/kf530NXnghXVrNaky2dWkA/yoSA/wDwPLMa&#xA;enkPN32l7cwZdieCXn+t5+ysrFWBDA0IOxBGUu5awK7FXYq7FXYq7FU78teSvNHmWb09G0+W5QGj&#xA;3FOEKH/KlaiA+1a5OGOUuTi6nW4sAucgPv8Ak9Y8vf8AONdVSXzDqpBO7WtivT/ntIP+NPpzKjpe&#xA;8vPaj2l6Yo/GX6h+t6Fo/wCUH5eaWF9PR4rmQdZbutwSfHjISg+hcvjggOjps3bGpyc5ke7b7lH8&#xA;wbS0s9Hs7e0gjt4fWqIokVF2QgbKB45kYgA6rPOUt5G2A5c47sVV72MxXtxEeqSOv3MRgClQwqzr&#xA;8sZN9RjJ6+kwH/Bg/wAMqyNuJneVtrC/Mv5M/ln5l1N9U1nQori/k/vbiOSe3LkbVcQSRhzt1bfF&#xA;bZBaeVvLlnoP+H7bToI9EMbQtp4QekyPXmGU/a5V3J3OKoDSfy68k6Tot7odhpEEWkaixe9sm5SR&#xA;yMQFqRIX7KKU6Yqg/K/5R/l15W1M6poWixWmoEMq3BkmmZA+zen6zyBKjb4abbYqr+bvyw8h+b54&#xA;rjzFpEV7cwrwS4Dywy8K1CmSF42KgnYE4qjrbyX5VtfLbeWbfTIY9CdCj2Cg+mwY1blvyYk9STXF&#xA;V9v5Q8s2/lw+WotNgXQSjxnTivKHjI5kYcWr1di3zxVKPK/5S/l15W1JtT0LRYrS/IYC4LyzMgYE&#xA;N6frPJwqDT4abbYqm1t5P8s2vmG48x2+nRR65dKUuL9QfUdSFFCa06Iv3Yqlfmr8qPy98136ahr2&#xA;ixXd6gC/WA8sLsF6BzC8fOnblXFWQ6TpGmaPp0Gm6Xax2dhbLxgt4VCoorU0A8Sak98VeEf85S6+&#xA;DLovl+Nt0D39yv8Arfuof1SZtezYc5fBwtXLkHpH5Ja+us/ltpLluU9ihsZx1obf4UB+cXA/TmHr&#xA;IcOQ+e7fglcAzrMZudirDfPH5V+V/NkTyTwiz1Sn7vUYAA9e3qDpIPnv4EZVkwxl73Z6HtXLpzQN&#xA;w7j+jufNXnPyRrnlLVPqOqRji9WtbpN4pkHdT4jup3H3Zr8mMxNF7jRa7HqIcUPiOoSDK3MdirsV&#xA;XRxySyLHGpeRyFRFBLMxNAAB1JwoJAFl7l+XH5BxmOLVPNyks1Hh0gGlB1BuGG9f8gfSeozMxabr&#xA;J5TtLt82YYf9N+r9b221tLW0t47a0hS3tohxihiUIijwVVoBmWBTy05mRsmyq4WLsVYL+Z0n/HOi&#xA;H/FrH/hAP45ZjasrBMtaleyjMt7bxDq8iL97AYCoR3mq39DzFfp0rKZP+Rnx/wDG2CPJlLmlWSYs&#xA;o/Lu5EWvmIn/AHohdFH+UpD/AKlOQnyZ4zu9NylvdirsVdirsVdirsVdirsVdirsVaZlVSzEKqir&#xA;MdgAO5xV8U/mZ5p/xR521TVkatq8vpWfh6EI4Rn25BeR9znR6fHwQAdVlnxSJej/APOMfmtbXWb/&#xA;AMtXD0j1BPrNmCdvWhFJFHu0e/8Ascw+0cVgS7m/Sz3p9IZqHOdirsVSfzX5V0jzPo8ul6pFzife&#xA;KUf3kUgHwyRnsw/HodshOAkKLk6TVzwTE4H9r5J82+V9S8sa7c6Rfr+9hNY5QKLLE32JF9mH3HbN&#xA;ZOBiaL6LpNVHPjE49fs8knyDkuxV9C/kf+V8enWkPmjWIg2o3K89OgcV9GJhtIQf92OOngPc7Z+n&#xA;w16i8b252oZyOGB9I5+Z7vc9hzKeadirsVdirzT8xbkS66kINRBCqsPBmJb9RGXQ5NOQ7sVybWmv&#xA;lW39fzFYJ1pKJP8AkX8f/GuRlyZR5pt+Y1oYtajuAPhuIgSf8pCVP4ccGM7Msg3Ypk2tH6He/UdY&#xA;tLoniscq+of8gmj/APCk4CNkxNF7NmO5LsVdirsVdirsVdirsVdirsVdiryr/nIDz/HoHlhtDtJK&#xA;avrKGOineO1PwyufDn9hfp8MztDg4pcR5Bx9RkoV1L5WzduuRmj6te6Rqtpqli/p3dlKk0LduSGt&#xA;D4g9CPDIziJAg9WUTRt9s+T/ADVp3mny7aa1YH91cr+8iJq0Uq7PG3urff1znMuMwkYl2sJiQsJz&#xA;lbJ2KuxV5l+fHktda8rnWLaOupaODKSBu9sd5V/2H2x8j45j6nHYvud72DrfCy8B+mf39P1PmbNc&#xA;90zf8oPJa+aPN0MdynPTLAC5vgejBT8EZ/126/5NcuwY+KXk6rtjW+BhNfVLYfr+D6v6Zs3z12Ku&#xA;xV2KuxV41r179e1m8ugeSySt6Z8UX4U/4UDMgCg40jZS/Chlf5c2hl1qS4I+G3iJB/ynIUfhyyGQ&#xA;7NmMbp9+Y1h62kRXairWsnxHwST4T/wwXIYzuyyDZ5tlzS7FXr/lXUhqGhWsxblKi+lNvU849qn5&#xA;ijfTlEhRciJsJtkWTsVdirsVdirsVdirsVdirF/P/wCYOh+S9Ha91Bw91IGFjYqf3kzjsPBRX4m7&#xA;fOgy7BglkNBryZBEbvj3zN5k1XzJrVzrGqS+pd3LVNKhUUbKiAk0VRsBnQY8YhGg6yUjI2UrybF2&#xA;Ks+/KP8ANC68k6yVuOU2g3rAX9su5U9BNGK/aXv/ADDbwpi6rTDIP6QbsOXgPk+ttL1TTtVsIdQ0&#xA;64S6srheUM8ZqrDp94OxHbNFKJiaPN2QIIsIrIpdiq2SOOWNo5FDxuCrowqCpFCCMUgkGw+NfOeg&#xA;N5f81anpBBCWs7LDXqYW+OI7+MbA5qckeGRD6ZotR42GM+8fb1+19BfkH5bXSvJK6hItLrWJDcMe&#xA;4iSqRL+tv9lmdpoVG+947t/U+Jn4Ryht8ev48npWZDo3Yq7FXYqlXmjUv0fod1ODSVl9OHx5v8II&#xA;+XXJRFljI0Hj+XuO7FXpP5c2Ho6RLdsKNdSfCfFI/hH/AAxbKch3bsY2ZJqNkl9YXFo/2Z0ZK+BI&#xA;2P0HfIg0zIt4rNDJDM8Mg4yRsUdfBlNCMyHGWYqzH8udW9C+l06RqR3I5wg9BIo3H+yX9WVzDZjP&#xA;R6JlTc7FXYq7FXYq7FXYqp3Fzb20D3FzKkEEY5SSyMERQO7M1AMIF8lJeQeff+cjdA0tJLPywo1b&#xA;UN1+ttUWkZ8Qdml/2NB/lZn4NBKW8tg4uTUgct3zpr3mDWdf1KXUtXunu7yX7UjnYDsqqNlUdgNs&#xA;28ICIoOFKRJspfkmLsVdirsVZb5B/M7zN5Kuy+nSiawkatzp0xJhfsWFN0en7Q+mo2yjPp45Bvzb&#xA;ceUx5PpXyR+dHkvzUscC3I07VHoDp92QhLeEUmySe1Pi9s0+bSTh5hzseeMvezzMVudir5//AOch&#xA;PLUsnm7Rru1SsmsRi0AHeaKQKCfmsyj6MwdTD1Dzex9ntSBhnE/wb/A/2Pd9NsINO061sLcUgtIY&#xA;4Ih/kxqFX8BmaBQp5HLkM5GR5k2icLB2KuxV2KvPPzG1b1ryLTY2qluPUm/4yMNh/sV/XluMNOQ9&#xA;GG5Y1r4YZJpkhjHKSRgiL4sxoBir2rTrJLGwt7RPswIqV8SBufpO+Y5NuSBSIwJeafmDpJtdVF6g&#xA;/c3gqfASLs33ih+/LoHZpyDdiuTa1SCeW3njnibjLEwdGHZlNQcVeyaNqkOqadDeRbeoPjT+Vxsy&#xA;/QcxyKckGwjcCXYq7FXYqwbzZ+atv5dEnPy9rN0Er+/jtCtvt4zMQB92ZOLTcf8AFH5tU8vD0LyP&#xA;X/8AnJ/zPc8o9F0y301DsJJi1zKPcbRoPpU5nw7OiPqNuNLVHoHl/mLzl5p8xy+prepz3tDVY3ak&#xA;SnxWJeMa/QuZuPFGH0inHlMy5lJssYOxV2KuxV2KuxV2KuxVl/ln82vP3lxUisNVkktE2Fnc0ni4&#xA;j9lQ9Sg/1CMoyaXHPmG2OaUeReo+XP8AnJ6+neO21Xy+bmdtjJpztyJ/yYHDn/h8wcnZwG4l83Ij&#xA;qu8PQHuLfzxdeX7saRqOnDSr9b4nUrU2/wACROQFNWBrJ6Z65rM+nojcGj0LtdFrOCMxuOOFfaP0&#xA;Wz7A4zsVdirsVQesanDpmnTXku4jX4E6cnOyr9JwgWgmg8bubiW5uJLiZuUsrF3bxLGpy9xipYVZ&#xA;V+X2km61U3rj9zZio8DI2y/cKn7shM7NmMbvS8pbnYqlfmTR11bSZban74fvLdvCRRt9/TJRNFjI&#xA;WHkDoyOyOCrqSGU9QR1GXuOtxVkvkjzCNMv/AKtcNSyuiAxJ2STor/Lsf7MhONs4Sp6hlLe7FXYq&#xA;7FXYqkeveR/KGvg/pfSLa7duszRhZt/CVeMg+hsthmnHkWEscTzDyvzX/wA4xaPcK83lm/exm6ra&#xA;XdZYCfASAeog+fLM3F2iR9Qtx56UdHiHm3yH5p8p3Xoa3YvArGkVyvxwSf6ki/D9B38RmyxZozHp&#xA;LizxmPNIMta3Yq7FXYq7FXYqz3yT+SvnXzWkd1HANO0t6EX13VAy+MUYHN/Y0C++YubVwhtzLdDB&#xA;KT2zyz/zjl5E0tVk1T1dauhQkzExQ1H8sUZ/BmbNdk185ctnLjpojnu9I0vRNG0mH0NLsbexh/33&#xA;bxJED8+AFcw5TMuZtvEQOSNyKXYq7FXYq7FXmHnfzCNSvvqlu1bK1JAIOzydC3yHQf25dCNNE5Wx&#xA;nJsFyIzuqICzsQFUdST0GKvX/LejrpOkxW1P3x/eXB8ZGG/3dMx5Gy5ERQTTAydirsVeefmDoBt7&#xA;karAv7mc0uAP2ZOzf7L9fzy2EujTkj1YbljW7FXovkbzQLqJdLvG/wBJjFLeQn7aD9k/5S/iMqnH&#xA;q3Ql0ZhlbY7FXYq7FXYq7FUPqGnWGpWctlf28d1aTDjLBModGHuDhjIg2EEA83zX+bv5FTeX45td&#xA;8th7jRV+K6syS8tsO7A9XiHcnde9RU5uNLreP0y5uDm09bjk8dzYOK7FXYqq2lpc3dzFa2sTT3M7&#xA;COGGMFnd2NAqgbkk4CQBZSBb6Y/Kz8hNN0SOHVvM8cd9rJo8VmaPBbHqKjpJIPHoD0r1zT6nWmW0&#xA;dg5+LTgbnm9hApsOma9yXYq7FXYq7FXYq7FWIeefNAtIW0yzf/SpRSdx/utCOg/ymH4ZZCPVrnLo&#xA;85y1pdirMvy+0A3FydVnX9zAaW4P7Undv9j+v5ZXOXRsxx6vQ8qbnYq7FXYqpXdpBd20ltcKHhlU&#xA;q6nwOIKkPIde0W40jUHtpamM/FBL2dOx+fjl8TbjSjSW5JC6OR43WSNikiEMjqaEEbggjFXp3lLz&#xA;bFqkS2t0wTUUFN6ASgD7S/5XiP8AMUyjTfCdslyDN2KuxV2KuxV2KuZQwKsAVIoQehGKvlP89Pyw&#xA;TyprCarpcfHQdTc8EHS3uN2aL/VYfEn0jtm80Wp4xR+oOuz4uE2OTy3M1x3Yq+mfyA/K6LSNNi81&#xA;6rFXVr5OVhGw/uLdxs1P55Rv7Lt3OabXaniPAOQc/T4qFnm9lzXuU7FXYq7FXYq7FXYqxvzb5tj0&#xA;qM2tqQ+ouNh1EQP7Te/gP8zOMbYTnTzCSSSSRpJGLyOSzsxqSTuSTlzQtxVMtB0W41fUEtoqiMfF&#xA;PL2RO5+fhkZGkxjb160tILS2jtrdQkMShUUeAyglyQFXFXYq7FXYq7FUs8waFbaxYNby/DKtWgmp&#xA;ujf0PcYYmmMo28lv7G6sLqS1ukKTRmhHY+BHiDl4NtBFIfChdHI8brJGxSRCGR1NCCNwQRir0Pyv&#xA;55iugtnqjCO52Edwdkf2b+VvwOVSh3N0Z97MMrbHYq7FXYq7FXYqknnTyvZ+aPLN/ol0BxuoyIZD&#xA;/uuZfijkH+qwH0bZZhyGEhIMJw4hT4ivrK5sb24srpDFc2sjwzxnqrxsVYfQRnSAgiw6oimX/lB5&#xA;LXzZ53tLK4TnptrW71EdjFERRD/xkcqvyJyjVZuCBPVtww4pPskAAAAUA2AGc87N2KuxV2KuxV2K&#xA;uxViHmjzzFaB7PS2Et10e4FGSP8A1ezN+GWRh3tcp9zzuSR5HaSRi8jks7sakk7kknLWlbiqIsLG&#xA;6v7qO1tULzSGgHYeJPgBgJpIFvWvL+hW2j2C28XxStRp5qbu39B2GUSNt8Y0meBk7FXYq7FXYq7F&#xA;XYqk3mXy1ba1bAEiK7iB9Cen/Ct4qfwyUZUxlG3ld9YXVhdPa3UZjmQ7g9x4g9wcuBtoIpD4UOxV&#xA;kvl7zvf6YFt7mt1ZCgCk/vEH+Qx7ex/DIShbOM6eh6XrOnapD6tnMJKfbTo6/wCsvUZURTcCCjcC&#xA;XYq7FXYq7FXyp/zkX5bGlefTqEScbbWYVuNhQesn7uUfM8Vc/wCtm80GTix13Ov1Malfe9I/5xl8&#xA;trZeU7vXZEpPq05SJiP90W1UFD7yF6/IZh9o5LmI9zdpY1G+97Hmvcp2KuxV2KuxVBaprOnaZD6t&#xA;5MI6/YTq7f6qjc4QLQSA898w+d77Ug1va1tbI7EA/vHH+Uw6D2H45bGFNMp2xnJsHYqiLGwur+6S&#xA;1tYzJM52A7DxJ7AYCaSBb1Ty15attFtiARLdygevPT/hV8FH45TKVt8Y0nORZOxV2KuxV2KuxV2K&#xA;uxV2KpZrvl+w1i29K4XjKtfRnUfEh/iPEYRKmMo28v1rQdQ0i49K5SsZP7qdfsOPY+PtlwlbRKNJ&#xA;bkkOxVUgnnt5VlgkaKVd1dCVYfIjFWW6T+Y19Bxj1GIXMY29VKJIPmPst+GVmDYMney7TfNWhagF&#xA;EN0qStT9zL+7ep7Cux/2JOQMSGwSBTbIsnYq7FXjv/OTmiC78m2WqqtZNMuwrHwiuF4t/wAOqZsO&#xA;zp1MjvDjaqNxt6R5K0T9B+UtI0krxeztYo5h/wAW8QZD9LknMPNPimT5t0I1EBOsrZuxV2KpVqXm&#xA;nQtPqJ7pWlFf3UX7x6jsQvT6aZIRJYmQDENW/Ma9mrHpsQtk/wB/PR5D8h9lfxyYxtZydzE7i5uL&#xA;mVpriRpZW+07ksT9JybWpYVdiqZaLoOoavcelbJSMH97O32EHufH2yJlSYxt6hoXl+w0e29K3XlK&#xA;1PWnYfE5/gPAZSZW3xjSZ4GTsVdirsVdirsVdirsVdirsVdiqld2ltdwNb3MaywuKMjCoxBUhgOv&#xA;/l9c25afSiZ4eptz/eL/AKp/a/X88tjPvaZY+5h7o6MUdSrqaMpFCD7jLGtbirsVdiqOsdc1exoL&#xA;W7liVekYaqf8Aar+GAgFIkQnVt+YmvxKBKIbjxZ0Kt/whUfhkeAMhkKZRfmc2wl04HxKy0/Ap/HB&#xA;4bLxUJ5i83aNr+iy6XeWcqxTvE8gBVh+5mSUDfj3jyWMGJsIlIEUmjfmZYBTws5S3YFlA+/fIeGy&#xA;8RDSfmcdxHp1PAtL/AJ/HHw0eKl1z+YmvygiIQ29ejIhZh/wZYfhkuAMTkKS3uuaxfVF1dyyK3WP&#xA;kQn/AAAov4ZIAMTIlAYUOxV2KrkR3YIilnY0VQKkn2GKsw0D8vrm4Kz6qTBD1FuP7xv9Y/s/r+WV&#xA;yn3Nkcfez60tLa0gW3to1ihQUVFFBlRLcAq4q7FXYq7FXYq7FXYq7FXYq7FXYq7FXYq7FUr1jy3p&#xA;OrKfrMVJu1xHRZB9Pf6cIkQxMQWEat+X2q2pL2RF5D4D4ZAP9U7H6D9GWiYazjLGJoZoZDHMjRyL&#xA;9pHBVh8wcm1rMVdirsVdirsVdirsVdirsVdiq+GGaaQRwo0kjfZRAWY/IDFWT6T+X2q3RD3pFnD4&#xA;H4pCP9UbD6T9GQMw2DGWb6P5b0nSVH1aKs37VxJRpD9Pb6MrMiWwRATTIsnYq7FXYq7FXYq7FXYq&#xA;7FXYq7FXYq7FXYq7FXYq7FXYqh73TrC+Thd26Tr25qCR8j1H0YQaQRbG7/8ALnSJqtaSyWrHov8A&#xA;eIPoajf8NkhkLA4wkN3+XOtREm3kiuF7AEo33MKf8NkxkDE4ylNx5V8xQfbsJTT/AH2PU/4hyw8Q&#xA;Y8JQMllexGktvIh/ykYfrGG2NKGFXYqrx2V7KaRW8jn/ACUY/qGC1pHW/lXzFP8AYsJRX/fg9P8A&#xA;4nxwcQZcJTa0/LnWpSDcSRW69wSXb7lFP+GwHIGQxlPrD8udIho13LJdMOq/3aH6Fq3/AA2QOQsh&#xA;jDJLLTrCxThaW6QL34KAT8z1P05Em2YFIjAl2KuxV2KuxV2KuxV2KuxV2Kv/2Q==</xmpGImg:image>
               </rdf:li>
            </rdf:Alt>
         </xmp:Thumbnails>
         <dc:format>image/svg+xml</dc:format>
         <xmpTPg:MaxPageSize rdf:parseType="Resource">
            <stDim:w>500.000000</stDim:w>
            <stDim:h>350.000000</stDim:h>
            <stDim:unit>Points</stDim:unit>
         </xmpTPg:MaxPageSize>
         <xmpTPg:NPages>1</xmpTPg:NPages>
         <xmpTPg:HasVisibleTransparency>False</xmpTPg:HasVisibleTransparency>
         <xmpTPg:HasVisibleOverprint>False</xmpTPg:HasVisibleOverprint>
         <xmpTPg:PlateNames>
            <rdf:Seq>
               <rdf:li>Cyan</rdf:li>
               <rdf:li>Magenta</rdf:li>
               <rdf:li>Yellow</rdf:li>
               <rdf:li>Black</rdf:li>
            </rdf:Seq>
         </xmpTPg:PlateNames>
         <xmpTPg:SwatchGroups>
            <rdf:Seq>
               <rdf:li rdf:parseType="Resource">
                  <xmpG:groupName>Default Swatch Group</xmpG:groupName>
                  <xmpG:groupType>0</xmpG:groupType>
               </rdf:li>
            </rdf:Seq>
         </xmpTPg:SwatchGroups>
      </rdf:Description>
   </rdf:RDF>
</x:xmpmeta>
                                                                                                    
                                                                                                    
                                                                                                    
                                                                                                    
                                                                                                    
                                                                                                    
                                                                                                    
                                                                                                    
                                                                                                    
                                                                                                    
                                                                                                    
                                                                                                    
                                                                                                    
                                                                                                    
                                                                                                    
                                                                                                    
                                                                                                    
                                                                                                    
                                                                                                    
                                                                                                    
                           
<?xpacket end="w"?>
	</metadata>
<g id="PITTSBURGH_STEELERS">
	<path fill="#9BABB6" d="M67.5-86C-17.3-86-86-17.3-86,67.5C-86,152.2-17.3,221,67.5,221C152.2,221,221,152.2,221,67.5
		C221-17.3,152.2-86,67.5-86z M67.5,197.5c-71.8,0-130.1-58.2-130.1-130.1S-4.3-62.6,67.5-62.6c71.8,0,130.1,58.2,130.1,130.1
		S139.4,197.5,67.5,197.5z"/>
	<path fill="#FFFFFF" d="M0.5,64.5c0-2-0.5-2.6-2-2.6c-2,0-1.9,1.8-1.9,3.6v0.8h3.9V64.5z"/>
	<path fill="#FFFFFF" d="M-16.5,61.8c-1.9,0-1.9,1.8-1.9,3.6v0.8h3.9v-1.7C-14.5,62.5-15,61.8-16.5,61.8z"/>
	<path fill="#FFFFFF" d="M23.8,64.5c0-2-0.5-2.6-2-2.6c-2,0-1.9,1.8-1.9,3.6v0.8h3.9V64.5z"/>
	<path fill="#FFFFFF" d="M67.5-62.6C-4.3-62.6-62.5-4.4-62.5,67.4S-4.3,197.5,67.5,197.5c71.8,0,130.1-58.2,130.1-130.1
		S139.4-62.6,67.5-62.6z M-40.6,79.4c-5,0-6.8-3.3-6.8-8.1v-1.9h4.2v1.6c-0.1,2.6,0.6,4.5,2.6,4.5c1.8,0,2.6-1.1,2.6-3.1
		c0-1.6-0.6-2.6-1.7-3.5c-2.2-2-4.9-3.5-6.6-6.1c-0.7-1.2-1.1-2.7-1.1-4.1c0-4.5,2.2-7,6.6-7c6.7,0,6.5,6.1,6.5,8.7h-4.1
		c0-2.4-0.1-4.7-2.5-4.7c-1.4,0-2.3,0.7-2.3,2.5c0,2,1.1,2.8,2.4,3.8c1.4,1,3.9,3,5.1,4.3c1.4,1.7,1.9,3.2,1.9,5.5
		C-33.6,76.8-36.5,79.4-40.6,79.4z M-24.6,62.2h-1.7v12.4c0.1,0.9,1.2,0.7,1.7,0.7v3.6c-2.3,0.3-5.5,0.6-5.5-3.1V62.2h-1.6v-3.4h1.6
		v-1.6l3.9-3.8v5.5h1.7L-24.6,62.2L-24.6,62.2z M-10.6,69.7h-7.8v2.9c0,2.6,0.9,3.1,2,3.1c1.4,0,1.9-1.2,1.8-3.8h3.9
		c0.1,4.5-1.4,7.3-5.4,7.3c-4.5,0-6.3-2.5-6.2-8.4v-5.2c-0.2-4.7,1.9-7.4,5.7-7.4c5.4,0,6,3.3,6,8.8L-10.6,69.7L-10.6,69.7z
		 M-7.3,70.9v-5.2c-0.2-4.7,1.9-7.4,5.7-7.4c5.4,0,6,3.3,6,8.8v2.7h-7.8v2.9c0,2.6,0.9,3.1,2,3.1c1.4,0,1.9-1.2,1.8-3.8h3.9
		c0.2,4.5-1.4,7.3-5.4,7.3C-5.6,79.3-7.4,76.8-7.3,70.9z M66.1,197.3c-6.9-36.7-19.7-57.1-65.7-64.9c46-7.8,58.8-28.2,65.7-64.9
		C59.2,30.7,46.4,10.3,0.4,2.5c46-7.8,58.8-28.2,65.7-64.9C73-25.7,85.8-5.3,131.8,2.5c-46,7.8-58.8,28.2-65.7,64.9
		c6.9,36.7,19.7,57.1,65.7,64.9C85.8,140.2,73,160.6,66.1,197.3z M8.4,78.8V52.3h3.9v26.5H8.4z M22,75.8c1.4,0,1.9-1.2,1.8-3.8h3.9
		c0.1,4.5-1.4,7.3-5.4,7.3c-4.5,0-6.3-2.5-6.2-8.4v-5.2c-0.2-4.7,1.9-7.4,5.7-7.4c5.4,0,6,3.3,6,8.8v2.7h-7.8v2.9
		C20,75.3,20.8,75.8,22,75.8z M35.1,62.4c0.5-1.4,1-2.3,1.5-2.8c1.1-1.1,1.9-1,2.4-1.1v5.4c-2.2-0.2-3.8,0.4-3.9,3.3v11.5h-3.9V58.8
		H35L35.1,62.4L35.1,62.4L35.1,62.4z M46,75.8c1.1,0,1.9-1,1.6-2.2c-0.1-1.1-1.2-1.8-1.9-2.4l-2.1-1.7c-2-1.6-3.2-3.4-3.2-6.3
		c0-3.1,2.1-4.8,5.8-4.8c3.8,0,5.5,2.3,5.4,6.6h-3.9c0.1-2.2-0.5-3.1-1.8-3.1c-0.9,0-1.7,0.5-1.7,1.6c0,1.2,0.7,1.7,1.5,2.3l3.2,2.5
		c1,0.7,2.6,2.6,2.7,3.9c0.3,3.5-0.4,7.1-5.8,7.1c-2.1,0-5.9-1-5.5-7.1h3.9C43.9,75.9,45.1,75.8,46,75.8z M131.9,132.2
		c-6.9-36.7-19.7-57.1-65.7-64.9c46-7.8,58.8-28.2,65.7-64.9c6.9,36.7,19.7,57.1,65.7,64.9C151.6,75.1,138.8,95.5,131.9,132.2z"/>
	<path fill="#231F20" d="M-40.6,61.9c-1.3-1-2.4-1.8-2.4-3.8c0-1.8,0.9-2.5,2.3-2.5c2.3,0,2.5,2.3,2.5,4.7h4.1
		c0-2.6,0.1-8.7-6.5-8.7c-4.4,0-6.6,2.5-6.6,7c0,1.4,0.4,2.9,1.1,4.1c1.7,2.6,4.4,4.1,6.6,6.1c1.1,0.9,1.7,1.9,1.7,3.5
		c0,2-0.8,3.1-2.6,3.1c-2.1,0-2.7-1.9-2.6-4.5v-1.6h-4.2v1.9c0,4.7,1.8,8.1,6.8,8.1c4.1,0,6.9-2.6,6.9-7.6c0-2.3-0.5-3.9-1.9-5.5
		C-36.7,64.9-39.2,62.9-40.6,61.9z"/>
	<path fill="#231F20" d="M-26.3,53.4l-3.9,3.8v1.6h-1.6v3.4h1.6v13.5c0,3.7,3.2,3.5,5.5,3.1v-3.6c-0.5,0.1-1.6,0.2-1.7-0.7V62.2h1.7
		v-3.4h-1.7L-26.3,53.4L-26.3,53.4z"/>
	<path fill="#231F20" d="M-16.6,58.3c-3.8,0-5.9,2.7-5.7,7.4v5.2c-0.1,5.9,1.7,8.4,6.2,8.4c4,0,5.5-2.8,5.4-7.3h-3.9
		c0.1,2.5-0.4,3.8-1.8,3.8c-1.2,0-2-0.5-2-3.1v-2.9h7.8v-2.7C-10.6,61.6-11.2,58.3-16.6,58.3z M-14.5,66.2h-3.9v-0.8
		c0-1.8-0.1-3.6,1.9-3.6c1.6,0,2,0.6,2,2.7L-14.5,66.2L-14.5,66.2z"/>
	<path fill="#231F20" d="M4.3,72H0.4c0.1,2.5-0.4,3.8-1.8,3.8c-1.2,0-2-0.5-2-3.1v-2.9h7.8v-2.7c0-5.4-0.6-8.8-6-8.8
		c-3.8,0-5.9,2.7-5.7,7.4v5.2c-0.1,5.9,1.7,8.4,6.2,8.4C2.9,79.3,4.5,76.5,4.3,72z M-3.4,65.4c0-1.8-0.1-3.6,1.9-3.6
		c1.6,0,2,0.6,2,2.7v1.7h-3.9V65.4z"/>
	<g>
		<rect x="8.4" y="52.3" fill="#231F20" width="3.9" height="26.5"/>
		<path fill="#231F20" d="M10.3,65.5"/>
	</g>
	<path fill="#231F20" d="M27.7,69.7v-2.7c0-5.4-0.6-8.8-6-8.8c-3.8,0-5.9,2.7-5.7,7.4v5.2c-0.1,5.9,1.7,8.4,6.2,8.4
		c4,0,5.6-2.8,5.4-7.3h-3.9c0.1,2.5-0.4,3.8-1.8,3.8c-1.2,0-2-0.5-2-3.1v-2.9L27.7,69.7L27.7,69.7z M19.9,65.4
		c0-1.8-0.1-3.6,1.9-3.6c1.6,0,2,0.6,2,2.7v1.7h-3.9V65.4z"/>
	<path fill="#231F20" d="M31.3,58.8v19.9h3.9V67.2c0.1-2.9,1.7-3.6,3.9-3.3v-5.4c-0.6,0-1.3,0-2.4,1.1c-0.6,0.6-1.1,1.4-1.5,2.8H35
		v-3.5H31.3z"/>
	<path fill="#231F20" d="M40.3,72.2c-0.5,6.1,3.4,7.1,5.5,7.1c5.4,0,6.1-3.6,5.8-7.1c-0.1-1.3-1.7-3.2-2.7-3.9l-3.2-2.5
		c-0.7-0.6-1.5-1.1-1.5-2.3c0-1.1,0.7-1.6,1.7-1.6c1.3,0,1.9,0.8,1.8,3.1h3.9c0.1-4.3-1.6-6.6-5.4-6.6c-3.8,0-5.8,1.8-5.8,4.8
		c0,2.9,1.3,4.7,3.2,6.3l2.1,1.7c0.8,0.6,1.9,1.2,1.9,2.4c0.3,1.3-0.5,2.2-1.6,2.2c-0.9,0-2.1,0.1-1.8-3.6L40.3,72.2L40.3,72.2z"/>
	<path fill="#F1C817" d="M66.1,67.4C73,30.7,85.8,10.3,131.8,2.5C85.8-5.3,73-25.7,66.1-62.4C59.2-25.7,46.4-5.3,0.4,2.5
		C46.4,10.3,59.2,30.7,66.1,67.4C66.1,67.4,66.1,67.4,66.1,67.4C66.1,67.4,66.1,67.4,66.1,67.4z"/>
	<path fill="#204182" d="M66.1,67.4C66.1,67.4,66.1,67.4,66.1,67.4C66.1,67.4,66.1,67.4,66.1,67.4c-6.9,36.7-19.7,57.1-65.7,64.9
		c46,7.8,58.8,28.2,65.7,64.9c6.9-36.7,19.7-57.1,65.7-64.9C85.8,124.5,73,104.1,66.1,67.4z"/>
	<path fill="#BF2026" d="M131.9,2.3C125,39,112.2,59.4,66.2,67.3c46,7.8,58.8,28.2,65.7,64.9c6.9-36.7,19.7-57.1,65.7-64.9
		C151.6,59.4,138.8,39,131.9,2.3z"/>
</g>
</svg>
