<?xml version="1.0" encoding="utf-8"?>
<!-- Generator: Adobe Illustrator 18.0.0, SVG Export Plug-In . SVG Version: 6.00 Build 0)  -->
<!DOCTYPE svg PUBLIC "-//W3C//DTD SVG 1.1//EN" "http://www.w3.org/Graphics/SVG/1.1/DTD/svg11.dtd">
<svg version="1.1" id="Layer_1" xmlns="http://www.w3.org/2000/svg" xmlns:xlink="http://www.w3.org/1999/xlink" x="0px" y="0px"
	 viewBox="-65.4 -75 500 350" enable-background="new -65.4 -75 500 350" xml:space="preserve">
<g>
	<path fill="#12274B" d="M162.6-20.5c4.9,5,14.5,18.1,14.5,18.1C52.5-8-12.8,76.6-12.8,76.6l19.6,1.8
		c-63.9,85-46.7,145.8-46.7,145.8C7.2,160,38,120.6,118.8,90.1c0,0-7.8-12.1-12.6-17.5c115.1-10.5,223.3,59.1,223.3,59.1
		s-10.5-25.2-13.1-30.9c51.7,44.1,93.6,123.9,93.6,123.9C414.6,152.1,377.4-12.7,162.6-20.5z"/>
	<path fill="#3997D3" d="M401.6,194.5C391.8,85.4,318.3-0.3,180.2-11.7c0,0,13.4,18,13.4,18C62.9-3.3,5.7,70.2,5.7,70.2
		s8.8,0.9,16.5,1.5c-59.8,70.7-56,130.1-56,130.1c45.2-60,78.8-89.2,140.4-115.6c0,0-7.3-10.9-17.2-19.8
		c115.6-17.1,224.1,47.4,224.1,47.4S302.6,88,293.1,74.2C354.4,110.2,401.6,194.5,401.6,194.5z"/>
	<path fill="#F0C818" d="M193.7-3.8c3.6,4.8,7.3,9.7,12.9,17.4C172.2,10.5,84.2,5,20.1,65.3c0,0,14.8,1.3,14.8,1.5
		c-22.1,23.5-54.3,73.1-61.2,115.6c48.8-65.3,94.7-86,123.2-98.6C91.3,76.4,82.1,67.8,75,62.9c70.3-15.7,161.5,3.2,225.2,37
		c-6.5-14.2-16.7-28.8-24.4-41.4c62.3,26.6,103.5,90.2,116.6,110.3C385.4,133.6,353.3,14.5,193.7-3.8z"/>
</g>
</svg>
