<?xml version="1.0" encoding="utf-8"?>
<!-- Generator: Adobe Illustrator 18.0.0, SVG Export Plug-In . SVG Version: 6.00 Build 0)  -->
<!DOCTYPE svg PUBLIC "-//W3C//DTD SVG 1.1//EN" "http://www.w3.org/Graphics/SVG/1.1/DTD/svg11.dtd">
<svg version="1.1"
	 id="svg4591" xmlns:svg="http://www.w3.org/2000/svg" xmlns:sodipodi="http://sodipodi.sourceforge.net/DTD/sodipodi-0.dtd" xmlns:inkscape="http://www.inkscape.org/namespaces/inkscape" xmlns:dc="http://purl.org/dc/elements/1.1/" xmlns:cc="http://creativecommons.org/ns#" xmlns:rdf="http://www.w3.org/1999/02/22-rdf-syntax-ns#" sodipodi:docname="Seattle_Seahawks_Vector_Logo.svg" inkscape:version="0.48.4 r9939"
	 xmlns="http://www.w3.org/2000/svg" xmlns:xlink="http://www.w3.org/1999/xlink" x="0px" y="0px" viewBox="-87.2 -103 500 350"
	 enable-background="new -87.2 -103 500 350" xml:space="preserve">
<sodipodi:namedview  fit-margin-bottom="0" id="base" inkscape:cy="72.010415" inkscape:cx="158.45586" pagecolor="#ffffff" bordercolor="#666666" showgrid="false" borderopacity="1.0" inkscape:zoom="2.8" fit-margin-top="0" showguides="true" fit-margin-left="0" inkscape:document-units="px" fit-margin-right="0" inkscape:guide-bbox="true" inkscape:current-layer="layer1" inkscape:window-maximized="0" inkscape:window-y="107" inkscape:window-x="700" inkscape:window-height="928" inkscape:window-width="1180" inkscape:pageshadow="2" inkscape:pageopacity="0.0">
	</sodipodi:namedview>
<g id="layer1" transform="translate(-212.24968,-460.35175)" inkscape:label="Layer 1" inkscape:groupmode="layer">
	<g id="g5932" transform="matrix(1.25,0,0,1.25,-93.750001,-133.09055)">
		<path id="path3582" inkscape:connector-curvature="0" fill="#FFFFFF" d="M496.7,585.9c-16.6-3.3-38.3-4.2-47.5-4.2l-218.7,0
			c-13.6,0-27.7,0-34.9-11.1c-7.3-11.3-3.3-22.4,9-44.6c0.9-1.6,38.4-72.1,38.4-72.1s3.8,4.8,7.7,7.8c3.8,3,7.7,4.6,18.2,4.6
			c18.5,0,138.1-0.3,139.3-0.3c24.3,0,48.8,2.5,64.7,19.9c8.2,0.9,34.9,4.4,56.8,14.9c12.8,6.1,21.3,15.3,24.5,26.5
			c1,3.4,1.4,6.9,1.4,10.6c0,10.6-4,22.4-11.8,34.6c-16.5,25.8-31.7,34.9-32.3,35.4c-9.4,6.6-18.4,6.9-18.4,6.9s8.2-9.3,10.9-18.6
			C506.7,587,496.7,585.9,496.7,585.9L496.7,585.9z"/>
		<path id="path3584" inkscape:connector-curvature="0" fill="#00295E" d="M526.9,506.5c-25-12-57.1-14.5-57.1-14.5
			c-14-17.1-37.7-19.7-61.6-19.7c0,0-120.5,0.3-139.3,0.3c-21.8,0-24-8.7-24-8.7l-29.3,54.8c0,0,52.1,0,76,0
			c23.9,0,25.1-2.4,41-14.1c16.8-12.4,30.3-16.9,46.2-16.9c15.9,0,26.4,3.6,44.2,11.4c17.7,7.8,27.1,11.7,37.7,7.2
			c0,0-8.3,11.2-33.4,0.7c-25.1-10.5-31.8-12.8-47.1-12.8c-15,0-32.3,7.2-53.8,28.7l25.7,20.7c0,0-5.9,9.2-9.9,15.1
			c-3.9,5.9-3.5,9.8-1.5,12.6c2.1,2.9,4.7,4.2,14.2,4.2c9.5,0,85.8-0.2,94.3-0.2c7.4,0,30.6,0.7,48.7,4.3
			c24.1,4.8,8.5,25.1,8.5,25.1s16.1-10.6,32.1-35.6C556.3,541.3,551.9,518.5,526.9,506.5z"/>
		<path id="path3586" inkscape:connector-curvature="0" fill="#FFFFFF" d="M482.8,511c-11.4-2.7-1.6-9.3-1.6-9.3
			c-16.4,3.3-22.5,16.7-23.9,20.4c-0.3,0.5-0.5,1-0.8,1.6c-9.1,18.2-17.2,17.2-32.7,17.2c-6.3,0-15.7,0-26.5,0
			c-21.4,0-31.4,10.6-41.7,28.7h12.1c11.1-16.5,19.4-20.9,41.3-22.2c50,0,89.9,14.4,111,25.4C550,522.5,505.5,514.1,482.8,511z"/>
		<path id="path3588" inkscape:connector-curvature="0" fill="#FFFFFF" d="M389.6,569.4c5.6-8.5,17-11.3,35.3-10.3
			c45.3,2.6,71.3,11.4,91.5,19c-24.9-14.6-69.4-25.1-100.3-25c-15.1,0-28.3,2.7-36,16.3H389.6z"/>
		<path id="path3590" inkscape:connector-curvature="0" fill="#FFFFFF" d="M438.2,519.5c-5.9,8.2-13.7,11-35.7,9.5
			c-25.6-1.7-19-12.5-16-17.9c0,0-0.1,0-0.1,0c0.8-1.5,2.2-4.1,3.6-6.6c-19.6-1.2-34,13.9-34,13.9c14.6,14.5,24.4,16,37.7,16
			c4.6,0,11.2,0,24.8,0c23,0,28.6-10.4,30.7-15C445.2,520,441.6,519.9,438.2,519.5L438.2,519.5z"/>
		<path id="path3592" inkscape:connector-curvature="0" fill="#4DBD38" d="M427,517c-0.5-0.2-1-0.4-1.4-0.6
			c-2.3,2.4-6.2,3.8-9.9,3.3c-5-0.6-7.8-4.2-6.4-8.1c0.2-0.6,0.5-1.1,0.9-1.6c-2.5-1-5.1-2-7.6-2.8c-5.1,8.3-8.1,13.7,9.6,15.2
			c11,0.9,14-0.9,16.3-4.9C428,517.4,427.5,517.2,427,517z"/>
		<path id="path3594" inkscape:connector-curvature="0" fill="#B2B7BB" d="M338.1,548.4c-9.1,15.9-12.8,19.5-6.3,27
			c0,0-82.7,0-101.2,0c-14.9,0-24.6-0.6-29.6-8.3c-4.9-7.5-3.9-14.6,9.2-38.1c0,0,71.2,0,86.1,0c14.8,0,18.6,0.8,26.7,7.1
			C330.9,542.4,338.1,548.4,338.1,548.4z"/>
	</g>
</g>
</svg>
