<?xml version="1.0" encoding="utf-8"?>
<!-- Generator: Adobe Illustrator 18.0.0, SVG Export Plug-In . SVG Version: 6.00 Build 0)  -->
<!DOCTYPE svg PUBLIC "-//W3C//DTD SVG 1.1//EN" "http://www.w3.org/Graphics/SVG/1.1/DTD/svg11.dtd">
<svg version="1.1" id="SAN_DIEGO_RAMS" xmlns="http://www.w3.org/2000/svg" xmlns:xlink="http://www.w3.org/1999/xlink" x="0px"
	 y="0px" viewBox="-109.7 -75 500 350" enable-background="new -109.7 -75 500 350" xml:space="preserve">
<g>
	<path fill="#FFFFFF" d="M233.8,244.5c0.1,0,9.9-2.5,9.9-2.5c12.1-3,19.9-5,24.4-7.2c0,0,4-1.9,4-1.9l2.3-3.8
		c0.7-1.1,15.8-26.7,23.3-62.3c2.1-1.9,10-9.1,10-9.1l0.2-2.4l0.3-3.3c0.3-2.9,0.4-5.9,0.4-8.8c0-5.3-0.4-10.8-1.3-16.5
		c17.5-9.7,25.1-23.8,29.7-35.3c3.8-9.3,5.7-19.8,5.7-30.7c0-10.8-1.9-21.9-5.5-32.7c-6-17.4-19.5-42-50.2-60.2
		C267.9-43.5,241-48.3,214.9-45c-30.2,3.8-56.3,18.1-73.3,40.2c-1.3,1.7-2.6,3.6-3.8,5.5c-0.2,0-0.6,0.1-0.6,0.1
		C40.7,15.8-35.8,78.7-39,81.3l-27.7,23l35.9,2.9c63.3,5.1,108.1,27.2,134.5,44.9c28.9,19.4,42.9,37.7,43,37.9l9.3,12.7l12-10.3
		c2-1.8,3.9-3.8,5.5-6c0,0.1,0.4,0.4,0.4,0.4l2.7,2.3c1.8,1.4,3.3,2.7,5.1,4.8c0.5,1,0.7,2.2,0.7,3.5c0,3.2-0.4,4.2-1.3,6.2l-0.4,1
		c-1,2.5-3,6-3,6.1l-2.9,5.4l53.4,30"/>
	<path fill="#13264B" d="M179.5,172.3c0.2,0.2,0.4,0.4,0.6,0.6l0-0.2C180.1,172.6,179.9,172.5,179.5,172.3z"/>
	<g>
		<path fill="#13264B" d="M270,84.2c-0.3,0.3-0.6,0.6-0.9,0.9l0.5-0.5C269.8,84.4,269.9,84.3,270,84.2z"/>
	</g>
	<path fill="#C9AF74" d="M283.9-26.8C249.6-47.1,182.1-47.2,146.6-1c-1.8,2.3-3.4,4.8-4.9,7.3c-1.5,0.3-2.7,0.5-3.4,0.6
		C43.5,21.7-31.9,83.5-35.1,86.1l-16,13.3l20.7,1.7c125.3,10.1,181.4,84.6,182,85.3l5.4,7.3l6.9-5.9c3.8-3.3,6.4-7.1,8.2-10.8
		c1.7,1.5,3.6,3.2,5.9,5.3c3.1,2.7,5.5,4.2,9,8.3c1.2,2.2,1.6,4.6,1.6,6.8c0,5.1-1,6.7-2.2,9.5c-1.2,2.8-3.3,6.7-3.3,6.7l45.9,25.7
		l3.1-0.9l10-2.6c11.5-2.8,19.3-4.9,23.2-6.8l2.3-1.1l1.3-2.2c0.7-1.1,15.9-26.9,22.9-62.3c2.5-2.3,9.8-8.9,9.8-8.9l0.3-3.2
		c0.2-2.8,0.4-5.5,0.4-8.3c0-6.9-0.8-13.6-2-19.9c18.2-8.6,25.9-21.9,30.9-34.2C344.6,56.4,334,2.8,283.9-26.8z"/>
	<path fill="#13264B" d="M319.5,25.3c-29-70.1-108.7-56.1-108.7-56.1s0.2,0,0.6-0.1c4.1-0.3,27.7-1.7,51.3,8.1
		c20.8,8.6,44,29.9,49.6,58.1c1.3,6.7,1.9,12.9,1.9,18.5l0,1.4c-0.3,17.3-5.5,28.9-7.2,32.5c-2.4,4.9-8.2,12.1-12.1,15
		c-3.3,2.4-6.4,3.4-8.7,3.4c-0.5,0-0.9,0-1.2-0.1h0c-0.4-0.1-0.8-0.2-1.1-0.3c-2.2-1-3-3.6-8-10.7c-3.3-4.7-7.6-9.2-7.6-9.2
		c0.4-0.4,0.8-0.8,1.2-1.1l0,0c0.2-0.2,0.4-0.4,0.6-0.6c0.5-0.5,0.9-1,1.3-1.6c1.2-1.7,2.3-3.6,3.1-5.8c0-0.1,0.1-0.2,0.1-0.2
		c0.3-0.7,0.5-1.4,0.7-2.2c4.1-14.5-0.4-37-18.7-51.7c-19.4-15.6-40.4-16.8-57.5-10c-28.6,11.5-46,46-25.5,74.2
		c9.9,13.7,26,14.6,36.1,6.9c9.4-7.2,15.7-29.2-7.4-41c18.5-1.6,41,20.6,30,49.1c-0.8,2.1-1.8,4-2.8,5.9
		c-16.1,27.1-59.9,24.1-81-1.1c-20.5-24.5-24-57.4-14.2-84.8c0.7-2,1.5-4,2.4-5.9C51.9,34.2-2.9,85.4-2.9,85.4
		c118.4,24.6,161.3,96,161.3,96c4.4-3.8,6.8-8.8,8.1-13c-8.2-13.4-4.6-26-4.6-26c1.8,9.1,5.1,15.7,8.4,20.5c1.4,2,7.9,8.4,9.2,9.5
		c0.4,0.2,0.6,0.4,0.6,0.4l0,0.2c5.9,5.2,13,11.2,14.2,13.4c6.4,11.5-0.3,24.5-0.3,24.5l35.8,19.6c8-2.3,26.7-6.3,31.8-8.8
		c0,0,15.9-26.6,22.5-62.4l9.4-8.5c3.5-9.8-2.7-31.4-2.7-31.4c0.8-0.2,1.5-0.4,2.3-0.7c1.9-0.6,3.7-1.5,5.6-2.5
		C319.2,104.8,337.9,69.6,319.5,25.3z"/>
	<path fill="#FFFFFF" d="M314.2,53.9c0-5.6-0.5-11.8-1.9-18.5c-5.6-28.2-28.8-49.6-49.6-58.1c-23.7-9.8-47.3-8.4-51.3-8.1
		c-1,0.1-1.9,0.2-2.9,0.4c-32.2,4.6-51.8,27.6-51.8,27.6c29.2-22.8,73-25.5,101.9-13.6c28.9,11.9,50,36,55.5,71.8c0-0.1,0-0.2,0-0.3
		C314.2,54.6,314.2,54.3,314.2,53.9z"/>
	<g>
		<g>
			<path fill="#FFFFFF" d="M220.1,194.6c0.3-1.4,4.5-1.7,4.5-1.7c3,10.5-1.6,17.2-1.9,18.2C222.5,206.3,223.3,197.5,220.1,194.6z"/>
		</g>
		<path fill="#FFFFFF" d="M148.4,106.6c-20.5-24.5-24-57.4-14.2-84.8c-5.9,9.1-19.4,36-2.7,73c20.3,44.9,75.8,46.7,94.5,18.6
			c1.3-1.9,2.4-3.8,3.3-5.7C213.3,134.8,169.4,131.7,148.4,106.6z"/>
	</g>
	<g>
		<path fill="#FFFFFF" d="M254.9,147.5c0-3.7,3-6.7,6.7-6.7c0.1,0,0.2,0,0.4,0c-0.8-3.7-2.4-7.8-5.6-11.8c0,0,0.2,4-0.6,7.4
			c-3.4,1.8-5.8,5.4-5.8,9.5c0,5.9,4.8,10.8,10.8,10.8c0,0,0.4-0.9,0.8-2.5c0,0,0,0,0,0C257.9,154.2,254.9,151.2,254.9,147.5z"/>
		<path fill="#13264B" d="M262.4,150.4c-0.1,0.2-0.1,0.3-0.2,0.5c-1.4,0.6-3.7,0.1-4.5-2.1c2.5,1.5,4.4-0.1,4.9-0.6
			c0.1-0.1,0.2-0.1,0.2-0.1S262.8,149.2,262.4,150.4z"/>
		<path fill="#FFFFFF" d="M262.7,148.1c0,0-0.1,0.1-0.2,0.1c-0.5,0.5-2.4,2-4.9,0.6c0.9,2.1,3.2,2.6,4.5,2.1
			c0.1-0.2,0.1-0.3,0.2-0.5C262.8,149.2,262.7,148.1,262.7,148.1z"/>
	</g>
	<path fill="#FFFFFF" d="M283.4,146.3c0.8-34-27.6-56.7-27.6-56.7s20.8,26,18.4,56.5l-5.7,5.3c0.1,8.3-0.3,24-8.3,41.7
		c-8.3-15-26.7-25-34.2-26.8c-5.1,2.9-16.6,9.2-23.2,16.6c1.2,1.6,2.8,5.9,3,7.3c1.5,8.4,0.4,14.4-0.9,18.8c0,0,12.7,7.1,12.5,6.7
		c3.5-12-1.1-17.4-4.7-23.6c3.4-2.1,11.4-6.5,15.1-8.1c3.8,5.2,5.7,13.7,1.7,25.9c-1.2,3.7-3,7.4-4,9.9c0,0.1,5,2.8,4.9,2.6
		c6.4-1.3,12.3-5.7,14.6-11.8c0.7-1.8,0.4-3.2,0.2-4.7c-0.6,0.8-1.5,2.1-2.5,2.8c-1.6-3.8-1.7-6.9,0.4-9.1c1.1-1.2,2.3-1.6,3.7-1.7
		c2.1-0.1,3.8,1.3,4.5,2.9c3.2,7.8-4.2,16.1-4.2,16.1s7.1-0.3,9.1-1.3c4.2-8.4,17.1-35.8,20.7-63.5L283.4,146.3z"/>
</g>
</svg>
