<?xml version="1.0" encoding="utf-8"?>
<!-- Generator: Adobe Illustrator 18.0.0, SVG Export Plug-In . SVG Version: 6.00 Build 0)  -->
<!DOCTYPE svg PUBLIC "-//W3C//DTD SVG 1.1//EN" "http://www.w3.org/Graphics/SVG/1.1/DTD/svg11.dtd">
<svg version="1.1" id="TENNESSEE_TITANS" xmlns="http://www.w3.org/2000/svg" xmlns:xlink="http://www.w3.org/1999/xlink" x="0px"
	 y="0px" viewBox="-108.8 -75 500 350" enable-background="new -108.8 -75 500 350" xml:space="preserve">
<g>
	<path fill="#FFFFFF" d="M69.1,124.9c0.4,4.9,2.2,14.7,7.8,25.6c7,13.5,21.6,31.4,51.8,41.6c4.8,7.5,10.4,14.5,16.8,20.9
		c22.9,22.9,53.4,35.4,85.8,35.4c32.4,0,62.8-12.7,85.7-35.6c22.8-22.9,35.4-53.4,35.4-85.8c-0.1-32.4-12.7-62.8-35.6-85.7
		c-18.2-18.1-41-29.8-66-33.8c-33.9-30.7-73.6-19.7-75.3-19.2c-0.6,0.2-1.4,0.4-2.5,0.7c-12.2,4.1-18.5-0.6-22.6-3.8
		c-4.5-3.5-9.5-7.2-14.2-9.8c-16.2-9.1-39.2-9.4-58.6-1.6c-12.8,4.4-19.2-1.3-23-3.9C29.2-47.7-1.9-51.9-34.9-44.6
		C-57.1-39.7-66-35.2-66-35.2s15.2,2.2,31.1,8.8c13.1,5.5,23.4,12.5,31.3,25c0,0,4.9,7.3,1.7,9.4c-3.6,2.4-7.4-3.5-7.4-3.5
		c-0.1,4.2-0.1,8.4,0.2,11.6c1.8,33.5,8.7,53.7,24.8,69.1c7.3,7,19.8,13.8,39,21.4C63.5,110.1,68.2,114.6,69.1,124.9z"/>
	<path fill="#002D65" d="M311.2,46.7c-17.6-17.5-39.9-28.6-64.1-32c-31.5-30.1-69.6-19.1-69.6-19.1c8.1,1.2,13.4,6,11.4,11.3
		c-1.4,3.5-7.2,3.7-9.9,3.7c-8.5,0.1-15.9-5.1-21.7-9.9c-6.1-5-16.1-13.8-25-18.8c-16.6-9.3-43-8.2-62,4
		c11.4,0.8,25.1,4.1,33.3,10.8c4.6,3.8,10.4,11.4,5.6,15c-4.2,3.1-14.5,1.5-19.7-1.5C81.1,5.5,73.7-1.8,69.2-7.1
		C39-42.7-3.8-44.7-39.1-36C-15.9-29.5-0.5-16.3,9,6.5c9.5,22.7,17,32.4,32.7,38.6c9.8,3.9,12.5,4.6,11.7,8.9
		c-1.1,6.4-12.8,3.3-21.7-0.1C21,49.6,6.7,37.9-1.8,16c1.5,28.4,7,48.5,22.9,63.7c6.8,6.5,19.3,13.1,38.8,20.7
		c12.5,4.8,22.3,7.7,31.6,16c10.8,9.7,6.2,16.1-1,14.9c-8.1-1.4-13.9-9.7-13.9-9.7s0,46.2,57.1,64c4.8,7.9,10.5,15.2,17.2,21.9
		c21.5,21.4,50,33.2,80.3,33.1c30.3,0,58.8-11.9,80.2-33.4c21.4-21.5,33.2-50,33.1-80.3C344.5,96.6,332.7,68.1,311.2,46.7z"/>
	<path fill="#648FCC" d="M305.2,52.5c-17-17-38.9-27.5-62.5-30.1C222.4,2.2,202.1,3.1,202.1,3.1c8.9,5.6,4.3,18-15.5,20.7
		c-19.6,2.7-44.5-3.9-56.6-18C117.6-8.8,108.1-9.4,108.1-9.4c10.8,6.8,11.6,14.9,18.2,27.3c6.6,12.4,20.1,16.8,31.9,17.6
		c12.4,0.8,12.7,6.4,2.7,12.4c-10.9,6.5-20.6,0.3-27.6-6.6c-11.1-10.9-22.2-13.1-37.4-12.9c-15.3,0.2-35.5,2.2-52.5-4.2
		c-17-6.4-28.3-28.8-28.3-28.8c8.4,29.8,27.2,43.9,44.5,47.3c23,4.5,38.8,10,48.6,17.8c9.5,7.7,14.5,15.4,18.1,25.9
		c2.7,8.2,3.2,19,0.5,19.7c-3.2,0.8-3.8-3.6-7.6-11.2c-4.1-8.4-9-15-19-20.3c-13.5-7.2-26.6-6.8-40-6.6C49.6,68.2,43.4,67,43.4,67
		s0.4,1.4,17.8,5.3c19.3,4.3,38,15.2,50.4,41.7c10.6,22.6,5,38.4-18.4,31.3c0,0,10.9,24.3,46.7,33c4.6,8.1,10.3,15.6,17.1,22.4
		c19.8,19.8,46.1,30.7,74.1,30.7c28,0,54.3-10.9,74.1-30.7c19.8-19.8,30.7-46.1,30.7-74.1C335.9,98.6,325,72.3,305.2,52.5z"/>
	<path fill="#FFFFFF" d="M231.1,26.9c26.6,0,51.7,10.4,70.5,29.2c18.8,18.8,29.2,43.9,29.2,70.5c0,55-44.7,99.7-99.7,99.7
		c-26.6,0-51.7-10.4-70.5-29.2c-18.8-18.8-29.2-43.9-29.2-70.5c0-26.6,10.4-51.7,29.2-70.5C179.4,37.3,204.4,26.9,231.1,26.9z"/>
	<g>
		<g>
			<g>
				<g>
					<g>
						<g>
							<path fill="#002D65" d="M231.2,217.7c-50.3,0.1-91.2-40.7-91.2-91c-0.1-50.3,40.6-91.2,91-91.2c50.3-0.1,91.1,40.7,91.2,91
								C322.2,176.8,281.5,217.6,231.2,217.7z"/>
						</g>
					</g>
				</g>
			</g>
		</g>
		<path fill="#FFFFFF" d="M208.8,108.2h-27l-8.9,15.9l-12-33.9h140L289,124l-8.8-15.9h-26.5l-22.5,98.3L208.8,108.2z"/>
		<polygon fill="#C5C9D1" points="300.9,90.1 160.9,90.1 163.2,96.5 230,96.5 208.8,108.2 231.2,206.5 231.2,96.5 298.7,96.5 		"/>
	</g>
	<path fill="#C0001D" d="M162.3,11.4c-20.3-0.6-28.6-8.6-41.2-18.8c-15.4-12.4-32.6-8.9-32.6-8.9c10.2-5.9,30.4-6.1,44.9,6.6
		C146.5,1.7,152.9,7.9,162.3,11.4z"/>
	<path fill="#C0001D" d="M-11-33.3c0,0,19-0.5,35.6,29.3c14,25,40.6,30,60.1,24.5c0,0-25.7-0.7-39.7-25.6
		C30.6-30.4,11.7-37.5-11-33.3z"/>
	<g>
		<g>
			<path fill="#C0001D" d="M96.6,110.9c0,0-2.7-27.7-42.2-35.7C14.7,67.1,9.6,46.5,9.6,46.5s0.3,29.8,34.5,39
				C67.9,91.8,85.4,95.5,96.6,110.9z"/>
		</g>
	</g>
	<g>
		<polygon fill="#C0001D" points="244.7,81.3 239.4,65.4 252.9,55.4 236.1,55.5 230.8,39.5 225.8,55.6 208.9,55.7 222.7,65.5 
			217.5,81.5 231.1,71.5 		"/>
		<polygon fill="#C0001D" points="184.6,137.8 173.5,150.4 158.1,143.6 166.6,158.1 155.4,170.7 171.9,167.1 180.4,181.6 182,164.8 
			198.4,161.2 183,154.5 		"/>
		<polygon fill="#C0001D" points="263.6,161.6 280.1,164.9 281.9,181.7 290.2,167 306.7,170.4 295.3,158 303.7,143.4 288.4,150.4 
			277,137.9 278.9,154.7 		"/>
	</g>
</g>
</svg>
