<?xml version="1.0" encoding="utf-8"?>
<!-- Generator: Adobe Illustrator 18.0.0, SVG Export Plug-In . SVG Version: 6.00 Build 0)  -->
<!DOCTYPE svg PUBLIC "-//W3C//DTD SVG 1.1//EN" "http://www.w3.org/Graphics/SVG/1.1/DTD/svg11.dtd">
<svg version="1.1" id="Layer_1" xmlns="http://www.w3.org/2000/svg" xmlns:xlink="http://www.w3.org/1999/xlink" x="0px" y="0px"
	 viewBox="0 0 602.2 612" enable-background="new 0 0 602.2 612" xml:space="preserve">
<g>
	<path fill-rule="evenodd" clip-rule="evenodd" fill="#002B49" d="M554.7,233.1h-22.6c0.7-19.7,0.1-40-1.8-60.8
		c-0.1-1.2-1.2-2.4-2.4-2.7c-41.3-8.8-77.7-40.7-79.4-61.7c-0.1-1.3-1.3-2.6-2.6-2.7c-26.4-3.3-51.1-15-74.4-28.9
		c-23.4-13.9-45-29.8-64.8-40.9c-0.8-0.4-2.2-0.4-3,0c-19.8,11.2-42.1,27-66.2,40.9c-24,13.8-49.5,25.6-75.8,28.9
		c-1.3,0.2-2.5,1.4-2.6,2.7c-1.7,21.1-38.1,53-79.4,61.7c-1.2,0.2-2.3,1.5-2.4,2.7c-1.9,20.8-2.6,41.1-1.9,60.8H52.9
		c-2.5,0-4.7,2.2-4.7,4.7v180.9c0,4,2.9,5.9,6.6,4.3c21.2-9.2,42.3-17.2,63.4-24.1c36.8,69.4,97.4,129,182.7,178.6
		c0.8,0.5,2.2,0.5,3,0c85.5-49.8,147-109.6,184.6-179.4c21.5,7,42.9,15.2,64.3,24.6c3.7,1.6,6.6-0.3,6.6-4.3V237.8
		C559.4,235.3,557.2,233.1,554.7,233.1z M508.5,224.2H98.9c0-1.6-0.1-3.2-0.1-4.8c0,0,1.3-26.7,1.5-31.6c35.3-11.8,66-36.5,77-61.8
		c22.7-4.7,45.7-14,72.5-29.5l35.1-21.7c0,0,16.3-10,20.2-12.5c15.7,9.8,20.7,13,22.6,13.9c-0.4-0.1-0.9-0.2-0.9-0.2l32.5,20.7
		c25.1,14.9,48.3,24.3,70.8,29.1c10.9,25.3,41.7,50.1,77.1,62c0.4,7.7,1.4,28.6,1.4,28.6C508.7,218.9,508.5,221.5,508.5,224.2z"/>
	<g>
		<path fill-rule="evenodd" clip-rule="evenodd" fill="#CCCFD2" d="M288.9,8.5c-0.2,0.1-33,20.3-33,20.3l-33.8,21
			c-25.4,14.6-45.9,22.6-64.1,24.9c-15.8,2-28.1,14.9-29.4,30.8c-1.5,5.1-24.4,27.6-55.1,34.1c-14.3,3-25.2,15.3-26.6,29.9
			c0,0-1.1,23.7-1.6,34.6c-15.8,3.6-27.7,17-27.7,33.7v180.9c0,12.3,5.9,23.4,15.8,29.9c9.9,6.5,22.5,7.5,33.7,2.6
			c0,0,32.7-12.5,38.2-14.6c40.4,64.8,100.7,121.2,180.2,167.5c10.3,6.1,23.6,6.1,34.1-0.1c80-46.6,140.9-103.2,181.8-168.2
			c2.8,1.1,39.1,15,39.1,15c11.3,5,23.9,4.1,33.9-2.4c9.9-6.5,15.9-17.7,15.9-30V237.8c0-16.7-11.8-30.1-27.6-33.7
			c-0.4-8.1-1.6-34.6-1.6-34.6c-1.3-14.5-12.3-26.8-26.6-29.9c-31-6.6-53.7-29.2-55.2-35.2c-1.2-14.9-13.5-27.8-29.3-29.7
			c-18.3-2.3-37.5-10-62.5-24.8l-30.7-19.6L322.1,8.8C311.8,3,298.9,3,288.9,8.5z M314.9,21l34,21.3L379.8,62
			c26.9,16,47.9,24.2,68.2,26.8c9.1,1.1,16.3,8.5,17,17.6c2.6,14,32.2,39.8,66.3,47.1c8.3,1.7,14.6,8.9,15.4,17.3
			c0,0,2.1,45.5,2.1,45.5l6.5,0.5c11.5,0.4,20.5,9.7,20.5,21.1v180.7c0,7.5-3.5,14.2-9.4,18.1c-5.9,3.9-13.5,4.4-20.4,1.3l-41.6-16
			l-8.9-3.2l-3,4.9c-39.6,65-100.3,121.5-180.3,168.1c-6,3.5-13.9,3.5-19.7,0.1C213.1,545.6,153.1,489.3,114,424.4l-3-5l-9.4,3.3
			l-40.3,15.4c-6.8,3-14.4,2.4-20.3-1.4c-5.9-3.8-9.4-10.6-9.4-18.1V237.8c0-11.4,9-20.7,20.6-21.1l6.5-0.2l2.2-45.7
			c0.8-8.5,7.1-15.6,15.4-17.3c34.1-7.2,63.7-33,66.2-46.1c0.8-10,8-17.5,17.1-18.6c20.2-2.6,42.4-11.1,69.7-26.8l34-21.1
			c0,0,32-19.7,32.4-20C301.6,17.7,309.1,17.7,314.9,21z M288.9,8.5l0.1-0.1C289,8.5,288.9,8.5,288.9,8.5z M288.9,8.5l-0.1,0.1
			C288.7,8.6,288.8,8.6,288.9,8.5L288.9,8.5z"/>
	</g>
	<path fill-rule="evenodd" clip-rule="evenodd" fill="#FFB819" d="M155.4,416.8c32.2,52.4,81,98,147,137.6
		c65.6-39.4,115-85.8,147.9-138.7C352.8,387.7,254.1,388.1,155.4,416.8z"/>
	<g>
		<path fill-rule="evenodd" clip-rule="evenodd" fill="#002B49" d="M352,205c0,0,3.4,0.4,6.6-0.5c3.2-0.9,9.6-2.2,11.3-2.2
			c1.7,0,5.6,0.4,6.3,0.6c0.7,0.2-0.2-0.3-0.9-3.7c-0.7-3.4-1.5-8-1.5-10.9c0-3-1.3-3.5-2.5-4.3c-1.2-0.7-3.2-6.9-2.9-10.4
			c0.3-3.5-2.3-2.2-2.8-3.2c-0.5-1-3.7-12.1-5.5-16.7c-1.8-4.6-6.3-17.5-1.3-20c5-2.5,8.9,0.6,8.9,0.6s0.6-8.4,0.7-9.2
			c0.1-0.8,3.1-3.6,7-3.6c3.8,0,6.6,3,6.6,5c0,2,0.6,2.5,2.2,2.5c1.6,0,3.1,1.1,3,2.5c-0.1,1.4-3,3.4-4.4,3.4c-1.4,0-1,0.6-1.1,1.6
			c-0.2,1-1.9,2.7-2.1,2.9c-0.2,0.3,4.7,1.8,8.1,1.8c3.4,0,10,0.2,11.1-0.4c1.1-0.5,2.5-2.4,4.4-1.7c1.9,0.7,3.2,0.2,3.2,0.2
			l28.3-17.9c0,0,3.5-1.8,4.8,0.2c1.3,2,1.1,3.9-0.2,4.8c-1.2,0.9-32.8,16.2-32.8,16.2s-1.1,3.8-3.6,4.3c-2.4,0.5-2.4,3.1-6.1,3.2
			c-3.7,0.2-9.7-0.4-10.8-0.4c-1.1,0-0.7,2.2-0.4,3.7c0.3,1.5,2.4,4.8,2.3,6.4c-0.1,1.6,0.2,5.8,0.7,7.5c0.5,1.7,7.2,15.6,8,18.1
			c0.9,2.5,9.3,15.3,10.6,17.8c1.3,2.5,5.3,13.5,13.5,17.6c8.2,4.1,11.7,5.2,13.1,6.1c1.4,0.9,2,2.9,0.6,3
			c-1.4,0.1-19.7-0.1-19.7-0.1s-1.9-1.3-2-3c-0.1-1.7,0.4-3.1-0.8-4c-1.2-0.9-11.9-9.7-15.5-14.5c-3.7-4.8-7.1-8.8-7.1-8.8
			s-0.1,1.9-0.3,3.8c-0.2,1.9-0.5,8.6-2.7,8.7c-2.2,0.1-16.6,1.2-21.4-0.1c-4.8-1.3-11.5-1.6-12.6-0.7c-1.1,0.9-4.1,2.9-5,4.1
			c-1,1.2-4.2,6.3-6.5,6.6c-2.3,0.3-1.5-2.9-1-3.7c0.5-0.8,3.6-6.2,3.6-6.9c0-0.7,0.5-8.2,2.6-8.2C348.2,203.4,352,205,352,205z"/>
	</g>
	<g>
		<path fill="#002B49" d="M307.3,97.5c0,0-6.7,10.1-4.5,13.5c2.2,3.4,5.5,8.8,5.5,8.8s4.4-6.1,8.4-3.8c4,2.4,7.9,7.9,6.4,10.9
			c-1.5,2.9-4.1,3-3.5,5.1c0.5,2.2-0.1,10.4-1.8,16.2c-1.7,5.7-1.6,14.8-1.6,22.2c-0.1,7.5-0.1,18.5-0.8,21.5
			c-0.7,3-2.2,12.6-2.2,12.6s-2.3,1.2-2.8,1.2c-0.5,0-1.1,4.1,0.8,4.8c1.9,0.7,16.1,6.3,19.4,8.6c3.3,2.3,9.9-3.2,10.3,1.3
			c0.4,4.5,0.2,12.9,0.9,15.8c0.7,2.9-3.2,9.9-5.6,9.8c-2.4-0.1-5.3-9.7-6.5-12.2c-1.3-2.4-4.2-5.2-8.5-8.6
			c-4.2-3.4-11.7-4.3-14.9-4.5c-3.1-0.3-6.2-6.6-7.6-10.7c-1.3-4.1,0.3-8.1-1-8.2c-1.2,0-4-0.2-3.7-1.3c0.3-1.1,0.6-7.6,1-8.7
			c0.4-1.1-2.9,0-5.3,0.8c-2.4,0.8-5.6,0.3-7,1c-1.4,0.7-3.4,1.6-4.1,7.8c-0.7,6.2-3.9,22.4-3.1,25.6c0.8,3.2,1.1,13-2.6,13.2
			c-3.7,0.2-16-3.4-16.5-3.7c-0.6-0.3-4.8-4.4-1.1-5.1c3.8-0.7,7.6,0.7,10.3-4.9c2.8-5.6,3-5.4,1.9-12.7c-1.1-7.3,1.2-24.1,4.1-25.5
			c2.9-1.5,1.1-4.6,1.1-4.6s5.1-3.5,6.9-5.4c1.8-2,12.9-10.4,14.2-14c1.4-3.6-0.1-15.4,1.2-17.6c1.3-2.2,1.7-7.8,1.7-7.8
			s-10.9-8.5-11.6-13.1c-0.6-4.6,3-22.9,3-22.9s-1.9-7.3,0.6-8.2c2.4-0.9,4.6,1.9,4.9,3.8c0.3,2-0.8,6-1.2,6.8
			c-0.3,0.8-0.7,12-0.8,13.8c-0.1,1.7,0.9,5.2,0.9,5.2s6.2,2.1,7,4.6c0.8,2.5,3.9,1.3,4.1-0.1c0.2-1.4-6.2-8.7-6.7-10.1
			c-0.5-1.4-3.7-6.7-2.6-8.4c1-1.7,5.2-12,5.8-12.6c0.4-0.5,1.4-1.9,2-2.6c-1.9-1.4-3.3-3.4-3.9-5.8c-1.3-5.4,2-10.9,7.5-12.3
			c5.4-1.3,10.9,2,12.3,7.5c1.3,5.4-2,10.9-7.5,12.2C308.9,96.7,307.3,97.5,307.3,97.5z"/>
	</g>
	<g>
		<path fill-rule="evenodd" clip-rule="evenodd" fill="#002B49" d="M242.9,155c0-1.1-11.6-4.5-13-4.8c-1.4-0.3-4.8-0.6-5.7,0.4
			c-0.9,1-5.5,3.4-6.9,3.6c-1.3,0.2-3.4,1.4-2.1,3.1c1.3,1.7,5.1,7.1,5.7,11.2c0.6,4.1,3.6,7.4,4.9,8.8c1.3,1.4,6.3,8.1,4.5,12.8
			c-1.8,4.7-0.2,4,0.8,5.5c1,1.5,4.3,6.1,4.6,8.7c0.3,2.5,4.6,4,5.9,5.3c1.2,1.3,6.1,8.1,7,9.1c0.9,1,7.5,0.9,6.6,3.8
			c-0.9,2.9-3.3,4-3.1,5.7c0.2,1.7-2.5,4.9-3.7,5.7c-1.2,0.7-3.4-0.1-2.7-1.4c0.7-1.3,2-5.9,1.6-7.1c-0.4-1.2-6.6-9.6-9.7-11
			c-3.1-1.4-5.2-3.3-7.1-4.7c-1.8-1.5-12.4-11.4-12.4-11.4s-10,0.3-12.4-0.1c-2.5-0.4,0.6,2.8,1,3.5c0.4,0.7,9.2,18.5,9.8,19.5
			c0.6,1,2.8,3.9,1.2,5c-1.5,1.1-10.1,6.5-12.5,6.8c-2.4,0.3-3.2-1.4-2.4-2.6c0.7-1.3,6.2-6.5,6.5-8.9c0.3-2.4,0.8-4.3-1.6-6.3
			c-2.4-2-11-13.7-12.9-15.6c-1.9-1.9-1.5-5.9,0.7-7c2.2-1.1,12.2-8.2,14.3-8.2c2.2-0.1-2.7-5.2-4.3-5.7c-1.5-0.5-10.5-9.5-10.5-9.5
			s-0.7-0.3-2.3,1.7c-1.6,1.9-6.2,7.4-7.3,8.4c-1.1,0.9-4.2,1-4.6,0c-0.4-1-7.2-12.3-7.2-12.3s-3.4-2.9-4.3-3.3
			c-0.9-0.4,0.1-2.8,0.9-3.8c0.8-1,4.4-3.1,4.9-1.8c0.5,1.3,2,3.8,1.9,5c-0.1,1.2-0.1,2.8-0.1,2.8s4.8,5.3,5.5,5.4
			c0.6,0.1,1.4-0.2,2.6-1.6c1.1-1.4,3.5-6.4,4.1-7.2c0.6-0.8,3.7-4.2,3.7-4.6c0-0.3-1-2.3-1.4-2.3c-0.3,0-2.8,0.9-3.3,0.9
			c-0.5,0-2.5-2.9-2.5-3.3c0-0.4-1.3-1.3-1.3-2.2s-0.3-2.2-0.3-3.1c0-0.9-0.7-5.4,1.7-7.7c2.4-2.4,8.4-2.7,10-0.6
			c1.6,2.1,2.9,5,2.3,7.4c-0.5,2.3,2.5,5,3.2,5c0.7,0,2.6-2.1,3.9-2.6c1.3-0.5,4.8-1.8,7.4-2.4c2.5-0.6,10.2-2.9,11.3-3.2
			c1.2-0.3,2.9-0.3,5.6,0.2c2.8,0.5,15,7.6,15,7.6s8,2,8.5,2.9c0.4,0.9,0.7,7.1-0.8,7.2C251,161.7,242.9,156.2,242.9,155z"/>
	</g>
	<path fill-rule="evenodd" clip-rule="evenodd" fill="#002B49" d="M252.4,238.6c-2.8,0-5.1,1.5-6.8,3.5c-2.1-2.1-4.6-3.5-6.9-3.5
		h-33.2c-3.4,0-7.2,2.8-8.8,5.8l-3.7,6.6c0,0-11.2,21.3-19.1,36.4c-6.5-18.7-14.9-42.6-14.9-42.6c-1.3-3.8-4.9-6.3-8.9-6.3H88.4
		c-5.2,0-9.5,4.2-9.5,9.4l-0.1,128.4c0,3.1,1.7,5.9,4.2,7.6c2.5,1.8,5.9,2.2,8.8,1.2l32.3-11.2c3.6-1.3,6.5-4.7,6.7-8.6
		c0,0,1-18.6,1.9-36.2c4.8,14.7,10.1,30.8,10.1,30.8c1.5,4.6,6.2,7.3,10.9,6.3l16.6-3.4l16.8-2.9c2.9-0.5,5.4-2.4,6.8-5
		c0,0,15.1-29.2,18.2-35.3c-1.1,11.9-2.3,25.8-2.3,25.8c0,0.2,0,0.5,0,0.8c0,2.5,1.1,4.9,2.8,6.7c1.9,2,4.8,3,7.5,2.8l40.6-2.9
		c4.6-0.3,8.6-4.1,9-8.8l1.7-19.8c0,0,1.4-22.5,2.1-33.2c5.8,7.2,14.6,18.2,17.4,21.7c-0.2,4.6-0.7,18.3-0.7,18.3
		s-0.6,11.5-0.6,11.7c0,2.4,1,4.6,2.6,6.4c1.7,1.9,4.2,2.9,6.8,3l41.7,1.3c2.6,0.1,5.1-0.8,7-2.6c1.8-1.8,3-4.1,3-6.7l0-6.7
		c0,0,0.2-19.9,0.2-23.5c2.6-3.2,21.6-26,22-26.5c0.2,10.2,0.6,38.2,0.6,38.2l0.5,22c0.1,4.6,3.8,8.6,8.4,9.2l40.4,5.6
		c2.8,0.4,5.7-0.5,7.7-2.3c2-1.8,3.2-4.4,3.2-7c0-0.1-0.3-7.8-0.5-15c6.1,1,12.2,2.1,12.2,2.1c15.2,2.8,30.8,5.7,45.7,5.7
		c37.6,0,37.6-34.7,37.6-49.5c0-23.2-4.7-37.5-15.4-46.6c-11.8-10-29.2-11.4-46.2-11.4l-60,0c-2.3,0-4.6,1.7-6.6,3.6
		c-1.8-2.2-4.3-3.6-7.2-3.6h-43.3c-3.5,0-7.9,3.9-9.5,6.9l1-1.7l-13,17.5c0,0-3.3,4.2-6.5,8.4c-2.9-4.1-5.9-8.4-5.9-8.4L304.3,244
		c0.5,0.8,0.7,1,1,1.9c-1.7-5.4-6.2-7.3-9.6-7.3H252.4z M399,243.3L399,243.3L399,243.3C399,243.3,399,243.3,399,243.3z
		 M470.2,287.9c0.9,0.9,1.9,2.2,1.9,5.2c0,0-0.2,2.8-0.3,4.2c-0.6,0.1-1.2,0.1-1.2,0.1l-30.5-2.5c0,0-4.1-0.5-8.3-0.9
		c-0.2-4.7-0.2-6.6-0.4-11.8c0.3,0,1.3,0,1.3,0C445.1,282.1,464.1,281.9,470.2,287.9z"/>
	<path fill-rule="evenodd" clip-rule="evenodd" fill="#FFFFFF" d="M88.4,248H150l22.1,63.1c9.5-18.6,19-37.2,29.1-55.6l3.7-6.6
		c0.2-0.3,0.2-1,0.5-1h33.2c0.8,0,0.7,1,1.2,1.6l11.6,15.9l13.1,17.2c0,19.9-2.9,40.8-4.4,60.8c-13.7,0.7-27.4,1.6-41.1,3l6.5-71.9
		l-20.1,37.2l-20.1,39l-17.1,2.9l-16.6,3.4L125.8,278l-4.5,87c-11.2,3.4-22.2,7.2-33.1,11.5l0-19.3L88.4,248z M252.4,248l23.4,31
		l24.7,30.8c0,11-1,22.1-1.5,33.1c14.1,0.1,28.1,0.6,42.1,1.3c0.1-3.9-0.1-32.3,0.4-33.5c0.4-1.1,45.2-53.8,51.9-62.6h-43.3
		c-0.6,0-0.6,0.8-0.9,1.3L336.1,267l-14.5,18.6l-13.2-18.8l-11.9-17.4c-0.3-0.5-0.3-1.3-0.8-1.3H252.4z M406.5,249l-11.7,15.5
		l-12.6,15.9c0,22.4,0.8,44.9,1.2,67.3c13.7,1.6,27.3,3.4,40.9,5.6l-0.9-26.2c21.7,2.8,46.2,9.5,67.8,9.5c25.6,0,28.1-19.5,28.1-40
		c0-40.3-14.7-48.5-52.1-48.5l-60,0C406.8,248.1,406.8,248.6,406.5,249z M421.6,272.7c19.2,0.8,59.9-4.6,59.9,20.4
		c0,8.4-0.9,13.7-10.9,13.7c-15.7,0-32.3-3-48-4.4L421.6,272.7z"/>
	<path fill-rule="evenodd" clip-rule="evenodd" fill="#D8DADC" d="M172.1,311.2l-6.1-17.4h-35l20.8,63.4l16.6-3.4l17.1-2.9l20.1-39
		l9.8-18.1h-34.2C178.1,299.6,175.1,305.4,172.1,311.2z M88.3,357.2l0,19.3c10.9-4.3,21.9-8.1,33.1-11.5l3.7-71.2H88.4L88.3,357.2z
		 M300.5,309.8c0,11-1,22.1-1.5,33.1c14.1,0.1,28.1,0.6,42.1,1.3c0.1-3.9-0.1-32.3,0.4-33.5c0.2-0.4,6.1-7.5,13.9-16.9h-67.8
		L300.5,309.8z M519.2,293.8h-37.7c-0.1,8-1.2,13.1-10.9,13.1c-15.7,0-32.3-3-48-4.4l-0.3-8.7h-39.8c0.2,18,0.7,36,1,54
		c13.7,1.6,27.3,3.4,40.9,5.6l-0.9-26.2c21.7,2.8,46.2,9.5,67.8,9.5c25.6,0,28.1-19.5,28.1-40C519.3,295.6,519.2,294.7,519.2,293.8z
		 M219.1,346.5c13.7-1.3,27.4-2.3,41.1-3c1.2-16.3,3.3-33.3,4-49.8h-40.3L219.1,346.5z"/>
	<g>
		<path fill-rule="evenodd" clip-rule="evenodd" fill="#FFFFFF" d="M424.9,396.3c0.6,0.5,1.5,1.1,2.6,1.6c1.1,0.5,2.4,0.9,3.8,1.2
			c2.9,0.7,5.4,0.6,7.4-0.1c2-0.7,3.2-2.1,3.6-4.3c0.1-1.3-0.2-2.5-1.1-3.5c-0.9-1-1.9-1.9-3.1-2.7c-0.8-0.5-1.4-1-1.8-1.5
			c-0.4-0.4-0.6-0.9-0.5-1.2c0.1-0.5,0.4-0.9,0.9-1.1c0.6-0.2,1.3-0.2,2.1,0c1,0.2,1.8,0.5,2.6,0.9c0.7,0.3,1.3,0.7,1.8,1
			c0.7-1.2,1.4-2.4,2.2-3.5c-0.5-0.4-1.2-0.8-2.2-1.2c-1-0.4-2.1-0.8-3.4-1.1c-2.9-0.6-5.4-0.6-7.3,0.2c-1.9,0.8-3,2.2-3.3,4.1
			c-0.1,1.2,0.2,2.2,1,3.2c0.8,1,1.8,1.9,3,2.7c0.9,0.6,1.6,1.2,2,1.6c0.4,0.5,0.5,0.9,0.4,1.4c-0.1,0.5-0.4,0.8-0.9,1
			c-0.5,0.2-1.2,0.2-2.1,0.1c-1.1-0.2-2.1-0.6-3.1-1.1c-1-0.5-1.8-1-2.4-1.4C426.2,394,425.6,395.1,424.9,396.3z M408.4,394.3
			c0.6-1.9,1.2-3.9,1.9-5.9c0.9-0.5,1.7-1,2.6-1.6c1,2.9,2,5.9,3,8.8c2.4,0.5,4.7,0.9,7.1,1.4c-1.6-4.1-3.2-8.2-4.8-12.3
			c3.4-2,6.9-4,10.4-5.9c-2.7-0.6-5.4-1.1-8.2-1.6c-2.1,1.6-4.2,3.1-6.3,4.7c-0.4,0.3-0.7,0.6-1.1,0.8c-0.4,0.3-0.7,0.6-1.1,0.9
			c1.7-5.3,3.5-10.5,5.2-15.8c-2.2-0.4-4.4-0.8-6.7-1.2c-2.9,8.8-5.7,17.7-8.4,26.5C404.2,393.6,406.3,393.9,408.4,394.3z
			 M400.1,388c-0.6,0.1-1.2,0.2-1.9,0.2c-0.7,0-1.5,0-2.5-0.1c-1.2-0.2-2.2-0.7-3-1.5c-0.8-0.8-1.1-1.8-1.1-3.2
			c0.1-1.2,0.4-2.3,1.1-3.2c0.7-1,1.6-1.7,2.7-2.2c1.2-0.5,2.5-0.6,4.1-0.4c0.7,0.1,1.2,0.3,1.7,0.4c0.5,0.2,0.9,0.3,1.3,0.5
			c0.7-1.3,1.3-2.7,2-4c-0.5-0.3-1.1-0.5-1.9-0.8c-0.8-0.2-1.7-0.5-2.6-0.6c-2.9-0.5-5.4-0.3-7.7,0.4c-2.2,0.8-4,1.9-5.3,3.6
			c-1.3,1.6-2,3.6-2.1,5.9c-0.1,2.5,0.7,4.5,2.3,6.1c1.6,1.6,3.8,2.6,6.5,3c1.3,0.2,2.5,0.3,3.5,0.3c1.1,0,2-0.1,2.7-0.3
			C400,390.8,400,389.4,400.1,388z M383.1,368.7c1.1,0.1,2,0,2.8-0.5c0.8-0.4,1.2-1.2,1.3-2.1c0-0.9-0.3-1.6-0.9-2.2
			c-0.6-0.6-1.4-0.9-2.4-1.1c-1.1-0.1-2,0.1-2.7,0.5c-0.8,0.5-1.2,1.2-1.2,2.2c0,0.8,0.3,1.5,0.8,2.1
			C381.3,368.3,382.1,368.6,383.1,368.7C383,368.7,383.1,368.7,383.1,368.7z M380.5,390c1.6-6.2,3.2-12.4,4.9-18.6
			c-2.2-0.3-4.4-0.6-6.6-0.9c-1.6,6.2-3.2,12.4-4.7,18.6C376.3,389.5,378.4,389.7,380.5,390z M361.9,365.9c0.3,0,0.6,0,1.1,0
			c0.5,0,1,0.1,1.6,0.1c1.3,0.1,2.4,0.5,3.3,1.1c0.9,0.6,1.4,1.5,1.4,2.8c0,1.3-0.7,2.4-1.8,3.2c-1.2,0.8-2.7,1.1-4.7,0.9
			c-0.6-0.1-1.1-0.1-1.5-0.2c-0.4-0.1-0.8-0.2-1.1-0.2C360.7,371,361.3,368.5,361.9,365.9z M351,386.9c2.1,0.2,4.2,0.3,6.2,0.5
			c0.6-3.1,1.3-6.2,2-9.3c0.4,0.1,0.8,0.2,1.2,0.2c0.4,0.1,0.9,0.2,1.5,0.2c1.9,0.2,3.6,0.2,5.3,0c1.7-0.2,3.2-0.7,4.5-1.4
			c1.2-0.7,2.2-1.6,3-2.7c0.8-1.2,1.2-2.6,1.3-4.3c0-1.3-0.2-2.4-0.8-3.4c-0.6-1-1.4-1.9-2.5-2.6c-1.1-0.8-2.5-1.4-3.9-1.8
			c-1.5-0.4-2.9-0.7-4.4-0.8c-1.5-0.2-3-0.3-4.5-0.3c-1.4,0-2.7,0-3.7,0.2C354.4,369.9,352.7,378.4,351,386.9z"/>
		<g>
			<path fill-rule="evenodd" clip-rule="evenodd" fill="#FFFFFF" d="M279.7,385.5c0.2-3.7,0.3-7.4,0.5-11.1
				c3.5-5.4,7.1-10.7,10.9-16c-2.6,0-5.3,0.1-7.9,0.2c-1.2,2.3-2.4,4.6-3.6,6.9c-0.5,1-0.9,1.9-1.3,2.7c-0.4,0.8-0.7,1.6-1.1,2.3
				c0,0-0.1,0-0.1,0c-0.2-0.6-0.5-1.3-0.8-2c-0.3-0.7-0.7-1.6-1.2-2.7c-1-2.2-2.1-4.4-3.1-6.7c-2.4,0.1-4.7,0.2-7.1,0.4
				c3,5.1,5.9,10.3,8.7,15.4c-0.2,3.6-0.3,7.3-0.4,11C275.5,385.7,277.6,385.6,279.7,385.5z"/>
			<path fill-rule="evenodd" clip-rule="evenodd" fill="#FFFFFF" d="M296.1,385.5c2.5-0.1,4.6-0.6,6.4-1.7c1.8-1.1,3.1-2.5,4-4.3
				c0.9-1.8,1.3-3.9,1-6.3c-0.3-2.3-1.3-4.1-3.1-5.7c-1.8-1.5-4.2-2.3-7.2-2.3c-2.7,0-4.9,0.6-6.7,1.8c-1.8,1.1-3.2,2.6-4,4.5
				c-0.8,1.9-1.1,3.9-0.8,6.2c0.4,2.4,1.5,4.3,3.4,5.7C291,384.8,293.3,385.5,296.1,385.5C296.1,385.5,296.1,385.5,296.1,385.5z
				 M296.4,381.2c-1.1,0-2-0.4-2.7-1c-0.7-0.7-1.1-1.6-1.3-2.7c-0.1-1-0.1-2.2,0.2-3.3c0.3-1.2,0.7-2.2,1.4-3.1
				c0.7-0.9,1.7-1.3,3-1.4c1.3,0,2.2,0.4,2.8,1.1c0.6,0.7,1,1.6,1.1,2.5c0.1,1.1,0,2.3-0.2,3.5c-0.3,1.2-0.8,2.2-1.5,3.1
				C298.5,380.7,297.6,381.1,296.4,381.2C296.4,381.2,296.4,381.2,296.4,381.2z"/>
			<path fill-rule="evenodd" clip-rule="evenodd" fill="#FFFFFF" d="M325.1,366.2c-0.4,3-0.9,5.9-1.3,8.9c-0.3,1.9-0.9,3.4-1.8,4.4
				c-0.9,1-1.9,1.6-3,1.6c-0.8,0-1.4-0.2-1.7-0.7c-0.4-0.4-0.6-0.9-0.6-1.6c0-0.4-0.1-0.8,0-1.2c0-0.5,0.1-0.9,0.1-1.4
				c0.4-3.4,0.9-6.9,1.3-10.3c-2.2-0.1-4.4-0.1-6.6-0.1c-0.4,3.6-0.9,7.2-1.3,10.7c-0.2,1.3-0.2,2.5-0.1,3.6
				c0.2,1.8,0.8,3.2,1.9,4.1c1.1,0.9,2.5,1.4,4.2,1.4c1.3,0,2.6-0.2,3.8-0.8c1.2-0.5,2.3-1.4,3.3-2.6c0,0,0.1,0,0.1,0.1
				c0,1-0.1,2.1-0.2,3.1c1.9,0.1,3.7,0.1,5.6,0.2c0.1-0.8,0.2-1.8,0.3-2.8c0.1-1,0.3-2.2,0.5-3.4c0.6-4.3,1.3-8.6,2-12.9
				C329.5,366.4,327.3,366.2,325.1,366.2z"/>
			<path fill-rule="evenodd" clip-rule="evenodd" fill="#FFFFFF" d="M338.7,386.1c0.4-2.4,0.8-4.7,1.2-7.1c0.3-1.9,1-3.5,2-4.8
				c1-1.3,2.6-1.8,4.6-1.7c0.2,0,0.4,0,0.6,0c0.2,0,0.3,0,0.5,0.1c0.4-1.8,0.7-3.6,1.1-5.4c-0.2,0-0.4,0-0.6-0.1
				c-0.2,0-0.4,0-0.6-0.1c-1.5-0.1-2.9,0.2-4.1,0.9c-1.2,0.7-2.2,1.7-2.9,3c-0.1,0-0.1,0-0.2,0c0.1-0.7,0.1-1.3,0.2-2
				c0-0.7,0-1.3,0.1-1.9c-1.9-0.1-3.8-0.2-5.7-0.3c-0.1,0.9-0.1,2-0.2,3.4c-0.1,1.4-0.3,2.9-0.5,4.3c-0.6,3.8-1.2,7.6-1.8,11.4
				C334.5,385.8,336.6,385.9,338.7,386.1z"/>
		</g>
		<g>
			<path fill-rule="evenodd" clip-rule="evenodd" fill="#FFFFFF" d="M199.1,394.7c-1.5-9-3-17.9-4.4-26.9c-2.9,0.5-5.8,1.1-8.7,1.6
				c-0.7,3.7-1.5,7.3-2.1,11c-0.2,1.3-0.4,2.8-0.6,4.4c-0.2,1.6-0.3,3.2-0.4,4.8c-0.1,0-0.1,0-0.2,0c-0.6-1.5-1.1-2.9-1.7-4.3
				c-0.6-1.4-1.2-2.7-1.7-3.9c-1.5-3.2-2.9-6.5-4.4-9.7c-2.8,0.6-5.7,1.3-8.5,1.9c0.8,9.2,1.6,18.4,2.6,27.6
				c1.8-0.5,3.7-0.9,5.5-1.4c-0.4-3.8-0.8-7.5-1.2-11.3c-0.2-1.5-0.4-3.2-0.6-5.1c-0.2-1.9-0.5-3.7-0.7-5.6c0,0,0.1,0,0.1,0
				c0.7,1.7,1.4,3.4,2.2,5.1c0.7,1.7,1.4,3.2,2.1,4.6c1.6,3.4,3.2,6.9,4.8,10.3c1.6-0.3,3.1-0.7,4.7-1c0.7-4,1.4-7.9,2.2-11.9
				c0.3-1.6,0.6-3.4,0.9-5.2c0.3-1.9,0.6-3.7,0.8-5.6c0,0,0.1,0,0.1,0c0.2,2,0.4,3.9,0.7,5.7c0.2,1.8,0.5,3.4,0.7,4.9
				c0.6,3.7,1.2,7.4,1.8,11.1C195.1,395.4,197.1,395.1,199.1,394.7z"/>
			<path fill-rule="evenodd" clip-rule="evenodd" fill="#FFFFFF" d="M221.3,391c-0.4-1.2-0.7-2.7-1-4.3c-0.3-1.6-0.5-3.1-0.5-4.4
				c-0.2-3.4-0.3-6.9-0.5-10.3c-1-0.1-2.2-0.2-3.5-0.2c-1.3,0-2.6,0.1-3.9,0.3c-3.5,0.6-6.3,1.8-8.1,3.4c-1.9,1.7-3.1,3.6-3.5,5.8
				c-0.5,2.2-0.3,4.4,0.4,6.6c0.7,2,1.8,3.5,3.3,4.5c1.5,1,3.2,1.3,5.1,1c1.2-0.2,2.4-0.7,3.4-1.5c1.1-0.8,1.8-2.1,2.4-3.8
				c0,0,0.1,0,0.1,0c0.2,0.7,0.3,1.4,0.4,2c0.1,0.6,0.3,1.2,0.4,1.8C217.5,391.5,219.4,391.3,221.3,391z M213.4,381
				c0.1,2.4-0.1,4.2-0.8,5.4c-0.7,1.2-1.5,1.9-2.4,2c-0.9,0.1-1.6-0.1-2.2-0.5c-0.6-0.5-1-1.2-1.3-2.2c-0.4-1.2-0.4-2.5-0.2-3.8
				c0.2-1.3,0.7-2.5,1.6-3.5c0.8-1,1.9-1.6,3.2-1.9c0.3-0.1,0.7-0.1,1-0.1c0.3,0,0.6,0,0.8,0C213.2,378,213.3,379.5,213.4,381z"/>
			<path fill-rule="evenodd" clip-rule="evenodd" fill="#FFFFFF" d="M230.2,389.7c-0.1-2.1-0.2-4.2-0.3-6.3c0.6-0.8,1.2-1.6,1.8-2.3
				c1.9,2.6,3.9,5.2,5.8,7.8c2.3-0.3,4.6-0.5,6.9-0.8c-2.8-3.6-5.7-7.1-8.6-10.6c2.4-3,4.9-5.9,7.4-8.9c-2.7,0.2-5.3,0.5-8,0.8
				c-1.4,2.2-2.8,4.3-4.1,6.5c-0.2,0.4-0.5,0.8-0.7,1.2c-0.2,0.4-0.5,0.8-0.7,1.2c0,0-0.1,0-0.1,0c-0.2-5.7-0.4-11.4-0.6-17.1
				c-2.2,0.2-4.3,0.5-6.5,0.8c0.4,9.5,0.9,19.1,1.5,28.6C226.1,390.3,228.2,390,230.2,389.7z"/>
			<path fill-rule="evenodd" clip-rule="evenodd" fill="#FFFFFF" d="M261,381.3c-0.8,0.5-1.6,0.8-2.6,1.1c-0.9,0.3-2,0.5-3.2,0.6
				c-0.9,0.1-1.8,0-2.5-0.2c-0.7-0.2-1.4-0.5-1.9-0.9c-0.3-0.3-0.5-0.6-0.7-0.9c-0.2-0.4-0.3-0.7-0.4-1c4.4-0.3,7.7-1,9.9-2.2
				c2.3-1.2,3.2-3,2.8-5.4c-0.4-1.8-1.4-3.2-3-4.1c-1.6-0.9-3.5-1.3-5.8-1.1c-2.7,0.3-4.8,1.1-6.5,2.4c-1.6,1.3-2.8,3-3.4,4.9
				c-0.6,1.9-0.7,3.9-0.2,5.9c0.6,2.5,1.8,4.4,3.7,5.7c1.9,1.3,4.3,1.8,7.3,1.6c1.2-0.1,2.5-0.3,3.8-0.7c1.3-0.3,2.6-0.8,3.8-1.5
				C261.8,384,261.4,382.7,261,381.3z M256.4,372.9c0.2,0.9-0.3,1.5-1.5,2c-1.2,0.5-3,0.8-5.5,1c0-1,0.4-1.9,1-2.8
				c0.7-0.9,1.8-1.4,3.2-1.6c0.8-0.1,1.4,0,1.8,0.3C256,372,256.3,372.3,256.4,372.9C256.4,372.8,256.4,372.8,256.4,372.9z"/>
		</g>
	</g>
	<path fill-rule="evenodd" clip-rule="evenodd" fill="#002B49" d="M359.4,493.3c-17.2,14.3-36.2,27.8-57,40.7
		c-21-13-40-26.5-57.2-40.7C284.1,510.3,322.2,510.3,359.4,493.3z"/>
	<polygon fill-rule="evenodd" clip-rule="evenodd" fill="#002B49" points="302.8,471.9 296.4,453.3 243.1,447 296.4,440.6 
		302.8,408.9 309.2,440.6 362.6,447 309.2,453.3 	"/>
</g>
</svg>
